G04 #@! TF.FileFunction,Legend,Top*
%FSLAX46Y46*%
G04 Gerber Fmt 4.6, Leading zero omitted, Abs format (unit mm)*
G04 Created by KiCad (PCBNEW 4.0.4-stable) date 11/17/16 13:37:46*
%MOMM*%
%LPD*%
G01*
G04 APERTURE LIST*
%ADD10C,0.100000*%
%ADD11C,0.200000*%
%ADD12C,0.300000*%
%ADD13C,0.150000*%
%ADD14C,0.381000*%
%ADD15C,0.304800*%
%ADD16C,1.900000*%
%ADD17R,1.900000X1.700000*%
%ADD18C,3.600000*%
%ADD19R,3.400000X3.400000*%
%ADD20C,1.924000*%
%ADD21O,2.700000X2.000000*%
%ADD22R,1.974800X2.686000*%
%ADD23O,1.974800X2.686000*%
%ADD24O,2.899360X1.901140*%
%ADD25C,4.199840*%
%ADD26R,1.950000X1.000000*%
%ADD27O,1.924000X2.400000*%
%ADD28R,4.400000X4.400000*%
%ADD29O,3.900120X2.099260*%
%ADD30R,2.432000X2.127200*%
%ADD31O,2.432000X2.127200*%
%ADD32R,2.127200X2.432000*%
%ADD33O,2.127200X2.432000*%
%ADD34R,2.300000X2.400000*%
%ADD35C,2.300000*%
%ADD36C,2.099260*%
%ADD37R,2.099260X2.099260*%
%ADD38R,1.900000X1.650000*%
%ADD39R,3.900000X2.000000*%
%ADD40R,1.650000X1.900000*%
G04 APERTURE END LIST*
D10*
D11*
X1040000Y49750000D02*
X98040000Y49750000D01*
D12*
X8999429Y57989000D02*
X9713715Y57989000D01*
X8856572Y57560429D02*
X9356572Y59060429D01*
X9856572Y57560429D01*
X10356572Y57560429D02*
X10356572Y58560429D01*
X10356572Y58274714D02*
X10428000Y58417571D01*
X10499429Y58489000D01*
X10642286Y58560429D01*
X10785143Y58560429D01*
X11928000Y57560429D02*
X11928000Y59060429D01*
X11928000Y57631857D02*
X11785143Y57560429D01*
X11499429Y57560429D01*
X11356571Y57631857D01*
X11285143Y57703286D01*
X11213714Y57846143D01*
X11213714Y58274714D01*
X11285143Y58417571D01*
X11356571Y58489000D01*
X11499429Y58560429D01*
X11785143Y58560429D01*
X11928000Y58489000D01*
X13285143Y58560429D02*
X13285143Y57560429D01*
X12642286Y58560429D02*
X12642286Y57774714D01*
X12713714Y57631857D01*
X12856572Y57560429D01*
X13070857Y57560429D01*
X13213714Y57631857D01*
X13285143Y57703286D01*
X13999429Y57560429D02*
X13999429Y58560429D01*
X13999429Y59060429D02*
X13928000Y58989000D01*
X13999429Y58917571D01*
X14070857Y58989000D01*
X13999429Y59060429D01*
X13999429Y58917571D01*
X14713715Y58560429D02*
X14713715Y57560429D01*
X14713715Y58417571D02*
X14785143Y58489000D01*
X14928001Y58560429D01*
X15142286Y58560429D01*
X15285143Y58489000D01*
X15356572Y58346143D01*
X15356572Y57560429D01*
X16285144Y57560429D02*
X16142286Y57631857D01*
X16070858Y57703286D01*
X15999429Y57846143D01*
X15999429Y58274714D01*
X16070858Y58417571D01*
X16142286Y58489000D01*
X16285144Y58560429D01*
X16499429Y58560429D01*
X16642286Y58489000D01*
X16713715Y58417571D01*
X16785144Y58274714D01*
X16785144Y57846143D01*
X16713715Y57703286D01*
X16642286Y57631857D01*
X16499429Y57560429D01*
X16285144Y57560429D01*
X19285144Y57560429D02*
X18570858Y57560429D01*
X18570858Y59060429D01*
X19785144Y57560429D02*
X19785144Y58560429D01*
X19785144Y59060429D02*
X19713715Y58989000D01*
X19785144Y58917571D01*
X19856572Y58989000D01*
X19785144Y59060429D01*
X19785144Y58917571D01*
X20499430Y58560429D02*
X20499430Y57060429D01*
X20499430Y58489000D02*
X20642287Y58560429D01*
X20928001Y58560429D01*
X21070858Y58489000D01*
X21142287Y58417571D01*
X21213716Y58274714D01*
X21213716Y57846143D01*
X21142287Y57703286D01*
X21070858Y57631857D01*
X20928001Y57560429D01*
X20642287Y57560429D01*
X20499430Y57631857D01*
X22070859Y57560429D02*
X21928001Y57631857D01*
X21856573Y57703286D01*
X21785144Y57846143D01*
X21785144Y58274714D01*
X21856573Y58417571D01*
X21928001Y58489000D01*
X22070859Y58560429D01*
X22285144Y58560429D01*
X22428001Y58489000D01*
X22499430Y58417571D01*
X22570859Y58274714D01*
X22570859Y57846143D01*
X22499430Y57703286D01*
X22428001Y57631857D01*
X22285144Y57560429D01*
X22070859Y57560429D01*
X24285144Y57631857D02*
X24499430Y57560429D01*
X24856573Y57560429D01*
X24999430Y57631857D01*
X25070859Y57703286D01*
X25142287Y57846143D01*
X25142287Y57989000D01*
X25070859Y58131857D01*
X24999430Y58203286D01*
X24856573Y58274714D01*
X24570859Y58346143D01*
X24428001Y58417571D01*
X24356573Y58489000D01*
X24285144Y58631857D01*
X24285144Y58774714D01*
X24356573Y58917571D01*
X24428001Y58989000D01*
X24570859Y59060429D01*
X24928001Y59060429D01*
X25142287Y58989000D01*
X25570858Y58560429D02*
X26142287Y58560429D01*
X25785144Y59060429D02*
X25785144Y57774714D01*
X25856572Y57631857D01*
X25999430Y57560429D01*
X26142287Y57560429D01*
X26856573Y57560429D02*
X26713715Y57631857D01*
X26642287Y57703286D01*
X26570858Y57846143D01*
X26570858Y58274714D01*
X26642287Y58417571D01*
X26713715Y58489000D01*
X26856573Y58560429D01*
X27070858Y58560429D01*
X27213715Y58489000D01*
X27285144Y58417571D01*
X27356573Y58274714D01*
X27356573Y57846143D01*
X27285144Y57703286D01*
X27213715Y57631857D01*
X27070858Y57560429D01*
X26856573Y57560429D01*
X27999430Y57560429D02*
X27999430Y58560429D01*
X27999430Y58274714D02*
X28070858Y58417571D01*
X28142287Y58489000D01*
X28285144Y58560429D01*
X28428001Y58560429D01*
X29570858Y57560429D02*
X29570858Y58346143D01*
X29499429Y58489000D01*
X29356572Y58560429D01*
X29070858Y58560429D01*
X28928001Y58489000D01*
X29570858Y57631857D02*
X29428001Y57560429D01*
X29070858Y57560429D01*
X28928001Y57631857D01*
X28856572Y57774714D01*
X28856572Y57917571D01*
X28928001Y58060429D01*
X29070858Y58131857D01*
X29428001Y58131857D01*
X29570858Y58203286D01*
X30928001Y58560429D02*
X30928001Y57346143D01*
X30856572Y57203286D01*
X30785144Y57131857D01*
X30642287Y57060429D01*
X30428001Y57060429D01*
X30285144Y57131857D01*
X30928001Y57631857D02*
X30785144Y57560429D01*
X30499430Y57560429D01*
X30356572Y57631857D01*
X30285144Y57703286D01*
X30213715Y57846143D01*
X30213715Y58274714D01*
X30285144Y58417571D01*
X30356572Y58489000D01*
X30499430Y58560429D01*
X30785144Y58560429D01*
X30928001Y58489000D01*
X32213715Y57631857D02*
X32070858Y57560429D01*
X31785144Y57560429D01*
X31642287Y57631857D01*
X31570858Y57774714D01*
X31570858Y58346143D01*
X31642287Y58489000D01*
X31785144Y58560429D01*
X32070858Y58560429D01*
X32213715Y58489000D01*
X32285144Y58346143D01*
X32285144Y58203286D01*
X31570858Y58060429D01*
X34070858Y57560429D02*
X34070858Y59060429D01*
X34428001Y59060429D01*
X34642286Y58989000D01*
X34785144Y58846143D01*
X34856572Y58703286D01*
X34928001Y58417571D01*
X34928001Y58203286D01*
X34856572Y57917571D01*
X34785144Y57774714D01*
X34642286Y57631857D01*
X34428001Y57560429D01*
X34070858Y57560429D01*
X35570858Y57560429D02*
X35570858Y58560429D01*
X35570858Y59060429D02*
X35499429Y58989000D01*
X35570858Y58917571D01*
X35642286Y58989000D01*
X35570858Y59060429D01*
X35570858Y58917571D01*
X36213715Y57631857D02*
X36356572Y57560429D01*
X36642287Y57560429D01*
X36785144Y57631857D01*
X36856572Y57774714D01*
X36856572Y57846143D01*
X36785144Y57989000D01*
X36642287Y58060429D01*
X36428001Y58060429D01*
X36285144Y58131857D01*
X36213715Y58274714D01*
X36213715Y58346143D01*
X36285144Y58489000D01*
X36428001Y58560429D01*
X36642287Y58560429D01*
X36785144Y58489000D01*
X38142287Y57631857D02*
X37999430Y57560429D01*
X37713716Y57560429D01*
X37570858Y57631857D01*
X37499430Y57703286D01*
X37428001Y57846143D01*
X37428001Y58274714D01*
X37499430Y58417571D01*
X37570858Y58489000D01*
X37713716Y58560429D01*
X37999430Y58560429D01*
X38142287Y58489000D01*
X38785144Y57560429D02*
X38785144Y59060429D01*
X39428001Y57560429D02*
X39428001Y58346143D01*
X39356572Y58489000D01*
X39213715Y58560429D01*
X38999430Y58560429D01*
X38856572Y58489000D01*
X38785144Y58417571D01*
X40785144Y57560429D02*
X40785144Y58346143D01*
X40713715Y58489000D01*
X40570858Y58560429D01*
X40285144Y58560429D01*
X40142287Y58489000D01*
X40785144Y57631857D02*
X40642287Y57560429D01*
X40285144Y57560429D01*
X40142287Y57631857D01*
X40070858Y57774714D01*
X40070858Y57917571D01*
X40142287Y58060429D01*
X40285144Y58131857D01*
X40642287Y58131857D01*
X40785144Y58203286D01*
X41499430Y57560429D02*
X41499430Y58560429D01*
X41499430Y58274714D02*
X41570858Y58417571D01*
X41642287Y58489000D01*
X41785144Y58560429D01*
X41928001Y58560429D01*
X43070858Y58560429D02*
X43070858Y57346143D01*
X42999429Y57203286D01*
X42928001Y57131857D01*
X42785144Y57060429D01*
X42570858Y57060429D01*
X42428001Y57131857D01*
X43070858Y57631857D02*
X42928001Y57560429D01*
X42642287Y57560429D01*
X42499429Y57631857D01*
X42428001Y57703286D01*
X42356572Y57846143D01*
X42356572Y58274714D01*
X42428001Y58417571D01*
X42499429Y58489000D01*
X42642287Y58560429D01*
X42928001Y58560429D01*
X43070858Y58489000D01*
X44356572Y57631857D02*
X44213715Y57560429D01*
X43928001Y57560429D01*
X43785144Y57631857D01*
X43713715Y57774714D01*
X43713715Y58346143D01*
X43785144Y58489000D01*
X43928001Y58560429D01*
X44213715Y58560429D01*
X44356572Y58489000D01*
X44428001Y58346143D01*
X44428001Y58203286D01*
X43713715Y58060429D01*
X45070858Y57560429D02*
X45070858Y58560429D01*
X45070858Y58274714D02*
X45142286Y58417571D01*
X45213715Y58489000D01*
X45356572Y58560429D01*
X45499429Y58560429D01*
X29770572Y55020429D02*
X29770572Y56520429D01*
X29770572Y55949000D02*
X29913429Y56020429D01*
X30199143Y56020429D01*
X30342000Y55949000D01*
X30413429Y55877571D01*
X30484858Y55734714D01*
X30484858Y55306143D01*
X30413429Y55163286D01*
X30342000Y55091857D01*
X30199143Y55020429D01*
X29913429Y55020429D01*
X29770572Y55091857D01*
X30984858Y56020429D02*
X31342001Y55020429D01*
X31699143Y56020429D02*
X31342001Y55020429D01*
X31199143Y54663286D01*
X31127715Y54591857D01*
X30984858Y54520429D01*
X33413429Y55020429D02*
X33413429Y56520429D01*
X34270572Y55020429D02*
X33627715Y55877571D01*
X34270572Y56520429D02*
X33413429Y55663286D01*
X35556286Y55020429D02*
X35556286Y55806143D01*
X35484857Y55949000D01*
X35342000Y56020429D01*
X35056286Y56020429D01*
X34913429Y55949000D01*
X35556286Y55091857D02*
X35413429Y55020429D01*
X35056286Y55020429D01*
X34913429Y55091857D01*
X34842000Y55234714D01*
X34842000Y55377571D01*
X34913429Y55520429D01*
X35056286Y55591857D01*
X35413429Y55591857D01*
X35556286Y55663286D01*
X36842000Y55091857D02*
X36699143Y55020429D01*
X36413429Y55020429D01*
X36270572Y55091857D01*
X36199143Y55234714D01*
X36199143Y55806143D01*
X36270572Y55949000D01*
X36413429Y56020429D01*
X36699143Y56020429D01*
X36842000Y55949000D01*
X36913429Y55806143D01*
X36913429Y55663286D01*
X36199143Y55520429D01*
X37556286Y56020429D02*
X37556286Y54520429D01*
X37556286Y55949000D02*
X37699143Y56020429D01*
X37984857Y56020429D01*
X38127714Y55949000D01*
X38199143Y55877571D01*
X38270572Y55734714D01*
X38270572Y55306143D01*
X38199143Y55163286D01*
X38127714Y55091857D01*
X37984857Y55020429D01*
X37699143Y55020429D01*
X37556286Y55091857D01*
X38699143Y56020429D02*
X39270572Y56020429D01*
X38913429Y56520429D02*
X38913429Y55234714D01*
X38984857Y55091857D01*
X39127715Y55020429D01*
X39270572Y55020429D01*
X39770572Y56020429D02*
X39770572Y55020429D01*
X39770572Y55877571D02*
X39842000Y55949000D01*
X39984858Y56020429D01*
X40199143Y56020429D01*
X40342000Y55949000D01*
X40413429Y55806143D01*
X40413429Y55020429D01*
X41627715Y55806143D02*
X41842001Y55734714D01*
X41913429Y55663286D01*
X41984858Y55520429D01*
X41984858Y55306143D01*
X41913429Y55163286D01*
X41842001Y55091857D01*
X41699143Y55020429D01*
X41127715Y55020429D01*
X41127715Y56520429D01*
X41627715Y56520429D01*
X41770572Y56449000D01*
X41842001Y56377571D01*
X41913429Y56234714D01*
X41913429Y56091857D01*
X41842001Y55949000D01*
X41770572Y55877571D01*
X41627715Y55806143D01*
X41127715Y55806143D01*
X43270572Y55020429D02*
X43270572Y55806143D01*
X43199143Y55949000D01*
X43056286Y56020429D01*
X42770572Y56020429D01*
X42627715Y55949000D01*
X43270572Y55091857D02*
X43127715Y55020429D01*
X42770572Y55020429D01*
X42627715Y55091857D01*
X42556286Y55234714D01*
X42556286Y55377571D01*
X42627715Y55520429D01*
X42770572Y55591857D01*
X43127715Y55591857D01*
X43270572Y55663286D01*
X44199144Y55020429D02*
X44056286Y55091857D01*
X43984858Y55234714D01*
X43984858Y56520429D01*
X45413429Y56020429D02*
X45413429Y55020429D01*
X44770572Y56020429D02*
X44770572Y55234714D01*
X44842000Y55091857D01*
X44984858Y55020429D01*
X45199143Y55020429D01*
X45342000Y55091857D01*
X45413429Y55163286D01*
D10*
X8574592Y51944619D02*
X8699592Y52944619D01*
X9003164Y51944619D02*
X9068641Y52468429D01*
X9032926Y52563667D01*
X8943641Y52611286D01*
X8800783Y52611286D01*
X8699592Y52563667D01*
X8646021Y52516048D01*
X9419831Y52611286D02*
X9800783Y52611286D01*
X9604354Y52944619D02*
X9497212Y52087476D01*
X9532926Y51992238D01*
X9622211Y51944619D01*
X9717449Y51944619D01*
X9991260Y52611286D02*
X10372212Y52611286D01*
X10175783Y52944619D02*
X10068641Y52087476D01*
X10104355Y51992238D01*
X10193640Y51944619D01*
X10288878Y51944619D01*
X10705546Y52611286D02*
X10580546Y51611286D01*
X10699593Y52563667D02*
X10800784Y52611286D01*
X10991261Y52611286D01*
X11080546Y52563667D01*
X11122213Y52516048D01*
X11157927Y52420810D01*
X11122213Y52135095D01*
X11062689Y52039857D01*
X11009118Y51992238D01*
X10907927Y51944619D01*
X10717450Y51944619D01*
X10628165Y51992238D01*
X11485308Y51992238D02*
X11574593Y51944619D01*
X11765069Y51944619D01*
X11866261Y51992238D01*
X11925785Y52087476D01*
X11931737Y52135095D01*
X11896023Y52230333D01*
X11806736Y52277952D01*
X11663879Y52277952D01*
X11574593Y52325571D01*
X11538879Y52420810D01*
X11544832Y52468429D01*
X11604355Y52563667D01*
X11705546Y52611286D01*
X11848403Y52611286D01*
X11937689Y52563667D01*
X12348403Y52039857D02*
X12390070Y51992238D01*
X12336498Y51944619D01*
X12294832Y51992238D01*
X12348403Y52039857D01*
X12336498Y51944619D01*
X12413879Y52563667D02*
X12455546Y52516048D01*
X12401975Y52468429D01*
X12360308Y52516048D01*
X12413879Y52563667D01*
X12401975Y52468429D01*
X13657927Y52992238D02*
X12640069Y51706524D01*
X14705546Y52992238D02*
X13687688Y51706524D01*
X15419832Y52611286D02*
X15318641Y51801762D01*
X15259117Y51706524D01*
X15205546Y51658905D01*
X15104355Y51611286D01*
X14961498Y51611286D01*
X14872212Y51658905D01*
X15342451Y51992238D02*
X15241260Y51944619D01*
X15050783Y51944619D01*
X14961498Y51992238D01*
X14919831Y52039857D01*
X14884117Y52135095D01*
X14919831Y52420810D01*
X14979355Y52516048D01*
X15032926Y52563667D01*
X15134117Y52611286D01*
X15324594Y52611286D01*
X15413879Y52563667D01*
X15812688Y51944619D02*
X15896022Y52611286D01*
X15937688Y52944619D02*
X15884117Y52897000D01*
X15925784Y52849381D01*
X15979355Y52897000D01*
X15937688Y52944619D01*
X15925784Y52849381D01*
X16229355Y52611286D02*
X16610307Y52611286D01*
X16413878Y52944619D02*
X16306736Y52087476D01*
X16342450Y51992238D01*
X16431735Y51944619D01*
X16526973Y51944619D01*
X16860307Y51944619D02*
X16985307Y52944619D01*
X17288879Y51944619D02*
X17354356Y52468429D01*
X17318641Y52563667D01*
X17229356Y52611286D01*
X17086498Y52611286D01*
X16985307Y52563667D01*
X16931736Y52516048D01*
X18276975Y52611286D02*
X18193641Y51944619D01*
X17848403Y52611286D02*
X17782927Y52087476D01*
X17818641Y51992238D01*
X17907926Y51944619D01*
X18050784Y51944619D01*
X18151975Y51992238D01*
X18205546Y52039857D01*
X18669831Y51944619D02*
X18794831Y52944619D01*
X18747212Y52563667D02*
X18848403Y52611286D01*
X19038880Y52611286D01*
X19128165Y52563667D01*
X19169832Y52516048D01*
X19205546Y52420810D01*
X19169832Y52135095D01*
X19110308Y52039857D01*
X19056737Y51992238D01*
X18955546Y51944619D01*
X18765069Y51944619D01*
X18675784Y51992238D01*
X19586498Y52039857D02*
X19628165Y51992238D01*
X19574593Y51944619D01*
X19532927Y51992238D01*
X19586498Y52039857D01*
X19574593Y51944619D01*
X20485308Y51992238D02*
X20384117Y51944619D01*
X20193640Y51944619D01*
X20104355Y51992238D01*
X20062688Y52039857D01*
X20026974Y52135095D01*
X20062688Y52420810D01*
X20122212Y52516048D01*
X20175783Y52563667D01*
X20276974Y52611286D01*
X20467451Y52611286D01*
X20556736Y52563667D01*
X21050783Y51944619D02*
X20961498Y51992238D01*
X20919831Y52039857D01*
X20884117Y52135095D01*
X20919831Y52420810D01*
X20979355Y52516048D01*
X21032926Y52563667D01*
X21134117Y52611286D01*
X21276975Y52611286D01*
X21366260Y52563667D01*
X21407927Y52516048D01*
X21443641Y52420810D01*
X21407927Y52135095D01*
X21348403Y52039857D01*
X21294832Y51992238D01*
X21193641Y51944619D01*
X21050783Y51944619D01*
X21812688Y51944619D02*
X21896022Y52611286D01*
X21884117Y52516048D02*
X21937688Y52563667D01*
X22038879Y52611286D01*
X22181737Y52611286D01*
X22271022Y52563667D01*
X22306737Y52468429D01*
X22241260Y51944619D01*
X22306737Y52468429D02*
X22366260Y52563667D01*
X22467451Y52611286D01*
X22610308Y52611286D01*
X22699593Y52563667D01*
X22735308Y52468429D01*
X22669831Y51944619D01*
X23991260Y52992238D02*
X22973402Y51706524D01*
X24193640Y51944619D02*
X24318640Y52944619D01*
X24765069Y51944619D02*
X24407926Y52516048D01*
X24890069Y52944619D02*
X24247212Y52373190D01*
X25622212Y51944619D02*
X25687689Y52468429D01*
X25651974Y52563667D01*
X25562689Y52611286D01*
X25372212Y52611286D01*
X25271021Y52563667D01*
X25628165Y51992238D02*
X25526974Y51944619D01*
X25288878Y51944619D01*
X25199593Y51992238D01*
X25163879Y52087476D01*
X25175783Y52182714D01*
X25235307Y52277952D01*
X25336497Y52325571D01*
X25574593Y52325571D01*
X25675784Y52373190D01*
X26485308Y51992238D02*
X26384117Y51944619D01*
X26193640Y51944619D01*
X26104355Y51992238D01*
X26068641Y52087476D01*
X26116260Y52468429D01*
X26175783Y52563667D01*
X26276974Y52611286D01*
X26467451Y52611286D01*
X26556736Y52563667D01*
X26592451Y52468429D01*
X26580546Y52373190D01*
X26092450Y52277952D01*
X27038879Y52611286D02*
X26913879Y51611286D01*
X27032926Y52563667D02*
X27134117Y52611286D01*
X27324594Y52611286D01*
X27413879Y52563667D01*
X27455546Y52516048D01*
X27491260Y52420810D01*
X27455546Y52135095D01*
X27396022Y52039857D01*
X27342451Y51992238D01*
X27241260Y51944619D01*
X27050783Y51944619D01*
X26961498Y51992238D01*
X27800784Y52611286D02*
X28181736Y52611286D01*
X27985307Y52944619D02*
X27878165Y52087476D01*
X27913879Y51992238D01*
X28003164Y51944619D01*
X28098402Y51944619D01*
X28515070Y52611286D02*
X28431736Y51944619D01*
X28503165Y52516048D02*
X28556736Y52563667D01*
X28657927Y52611286D01*
X28800785Y52611286D01*
X28890070Y52563667D01*
X28925785Y52468429D01*
X28860308Y51944619D01*
X29735309Y52468429D02*
X29872213Y52420810D01*
X29913880Y52373190D01*
X29949594Y52277952D01*
X29931737Y52135095D01*
X29872213Y52039857D01*
X29818642Y51992238D01*
X29717451Y51944619D01*
X29336498Y51944619D01*
X29461498Y52944619D01*
X29794832Y52944619D01*
X29884118Y52897000D01*
X29925785Y52849381D01*
X29961499Y52754143D01*
X29949594Y52658905D01*
X29890070Y52563667D01*
X29836499Y52516048D01*
X29735309Y52468429D01*
X29401975Y52468429D01*
X30765070Y51944619D02*
X30830547Y52468429D01*
X30794832Y52563667D01*
X30705547Y52611286D01*
X30515070Y52611286D01*
X30413879Y52563667D01*
X30771023Y51992238D02*
X30669832Y51944619D01*
X30431736Y51944619D01*
X30342451Y51992238D01*
X30306737Y52087476D01*
X30318641Y52182714D01*
X30378165Y52277952D01*
X30479355Y52325571D01*
X30717451Y52325571D01*
X30818642Y52373190D01*
X31384117Y51944619D02*
X31294832Y51992238D01*
X31259118Y52087476D01*
X31366260Y52944619D01*
X32276976Y52611286D02*
X32193642Y51944619D01*
X31848404Y52611286D02*
X31782928Y52087476D01*
X31818642Y51992238D01*
X31907927Y51944619D01*
X32050785Y51944619D01*
X32151976Y51992238D01*
X32205547Y52039857D01*
X33515071Y52992238D02*
X32497213Y51706524D01*
X33705547Y52230333D02*
X34181738Y52230333D01*
X33574594Y51944619D02*
X34032927Y52944619D01*
X34241261Y51944619D01*
X34574594Y51944619D02*
X34657928Y52611286D01*
X34634118Y52420810D02*
X34693642Y52516048D01*
X34747213Y52563667D01*
X34848404Y52611286D01*
X34943643Y52611286D01*
X35622214Y51944619D02*
X35747214Y52944619D01*
X35628167Y51992238D02*
X35526976Y51944619D01*
X35336499Y51944619D01*
X35247214Y51992238D01*
X35205547Y52039857D01*
X35169833Y52135095D01*
X35205547Y52420810D01*
X35265071Y52516048D01*
X35318642Y52563667D01*
X35419833Y52611286D01*
X35610310Y52611286D01*
X35699595Y52563667D01*
X36610310Y52611286D02*
X36526976Y51944619D01*
X36181738Y52611286D02*
X36116262Y52087476D01*
X36151976Y51992238D01*
X36241261Y51944619D01*
X36384119Y51944619D01*
X36485310Y51992238D01*
X36538881Y52039857D01*
X37003166Y51944619D02*
X37086500Y52611286D01*
X37128166Y52944619D02*
X37074595Y52897000D01*
X37116262Y52849381D01*
X37169833Y52897000D01*
X37128166Y52944619D01*
X37116262Y52849381D01*
X37562690Y52611286D02*
X37479356Y51944619D01*
X37550785Y52516048D02*
X37604356Y52563667D01*
X37705547Y52611286D01*
X37848405Y52611286D01*
X37937690Y52563667D01*
X37973405Y52468429D01*
X37907928Y51944619D01*
X38526975Y51944619D02*
X38437690Y51992238D01*
X38396023Y52039857D01*
X38360309Y52135095D01*
X38396023Y52420810D01*
X38455547Y52516048D01*
X38509118Y52563667D01*
X38610309Y52611286D01*
X38753167Y52611286D01*
X38842452Y52563667D01*
X38884119Y52516048D01*
X38919833Y52420810D01*
X38884119Y52135095D01*
X38824595Y52039857D01*
X38771024Y51992238D01*
X38669833Y51944619D01*
X38526975Y51944619D01*
X39038881Y51849381D02*
X39800786Y51849381D01*
X40526976Y51944619D02*
X40050785Y51944619D01*
X40175785Y52944619D01*
X40860309Y51944619D02*
X40943643Y52611286D01*
X40985309Y52944619D02*
X40931738Y52897000D01*
X40973405Y52849381D01*
X41026976Y52897000D01*
X40985309Y52944619D01*
X40973405Y52849381D01*
X41419833Y52611286D02*
X41294833Y51611286D01*
X41413880Y52563667D02*
X41515071Y52611286D01*
X41705548Y52611286D01*
X41794833Y52563667D01*
X41836500Y52516048D01*
X41872214Y52420810D01*
X41836500Y52135095D01*
X41776976Y52039857D01*
X41723405Y51992238D01*
X41622214Y51944619D01*
X41431737Y51944619D01*
X41342452Y51992238D01*
X42384118Y51944619D02*
X42294833Y51992238D01*
X42253166Y52039857D01*
X42217452Y52135095D01*
X42253166Y52420810D01*
X42312690Y52516048D01*
X42366261Y52563667D01*
X42467452Y52611286D01*
X42610310Y52611286D01*
X42699595Y52563667D01*
X42741262Y52516048D01*
X42776976Y52420810D01*
X42741262Y52135095D01*
X42681738Y52039857D01*
X42628167Y51992238D01*
X42526976Y51944619D01*
X42384118Y51944619D01*
X42896024Y51849381D02*
X43657929Y51849381D01*
X43866262Y51992238D02*
X44003166Y51944619D01*
X44241262Y51944619D01*
X44342453Y51992238D01*
X44396024Y52039857D01*
X44455548Y52135095D01*
X44467453Y52230333D01*
X44431738Y52325571D01*
X44390072Y52373190D01*
X44300786Y52420810D01*
X44116262Y52468429D01*
X44026976Y52516048D01*
X43985309Y52563667D01*
X43949595Y52658905D01*
X43961500Y52754143D01*
X44021024Y52849381D01*
X44074595Y52897000D01*
X44175785Y52944619D01*
X44413881Y52944619D01*
X44550786Y52897000D01*
X44800786Y52611286D02*
X45181738Y52611286D01*
X44985309Y52944619D02*
X44878167Y52087476D01*
X44913881Y51992238D01*
X45003166Y51944619D01*
X45098404Y51944619D01*
X45574595Y51944619D02*
X45485310Y51992238D01*
X45443643Y52039857D01*
X45407929Y52135095D01*
X45443643Y52420810D01*
X45503167Y52516048D01*
X45556738Y52563667D01*
X45657929Y52611286D01*
X45800787Y52611286D01*
X45890072Y52563667D01*
X45931739Y52516048D01*
X45967453Y52420810D01*
X45931739Y52135095D01*
X45872215Y52039857D01*
X45818644Y51992238D01*
X45717453Y51944619D01*
X45574595Y51944619D01*
X46336500Y51944619D02*
X46419834Y52611286D01*
X46396024Y52420810D02*
X46455548Y52516048D01*
X46509119Y52563667D01*
X46610310Y52611286D01*
X46705549Y52611286D01*
X47384120Y51944619D02*
X47449597Y52468429D01*
X47413882Y52563667D01*
X47324597Y52611286D01*
X47134120Y52611286D01*
X47032929Y52563667D01*
X47390073Y51992238D02*
X47288882Y51944619D01*
X47050786Y51944619D01*
X46961501Y51992238D01*
X46925787Y52087476D01*
X46937691Y52182714D01*
X46997215Y52277952D01*
X47098405Y52325571D01*
X47336501Y52325571D01*
X47437692Y52373190D01*
X48372216Y52611286D02*
X48271025Y51801762D01*
X48211501Y51706524D01*
X48157930Y51658905D01*
X48056739Y51611286D01*
X47913882Y51611286D01*
X47824596Y51658905D01*
X48294835Y51992238D02*
X48193644Y51944619D01*
X48003167Y51944619D01*
X47913882Y51992238D01*
X47872215Y52039857D01*
X47836501Y52135095D01*
X47872215Y52420810D01*
X47931739Y52516048D01*
X47985310Y52563667D01*
X48086501Y52611286D01*
X48276978Y52611286D01*
X48366263Y52563667D01*
X49151978Y51992238D02*
X49050787Y51944619D01*
X48860310Y51944619D01*
X48771025Y51992238D01*
X48735311Y52087476D01*
X48782930Y52468429D01*
X48842453Y52563667D01*
X48943644Y52611286D01*
X49134121Y52611286D01*
X49223406Y52563667D01*
X49259121Y52468429D01*
X49247216Y52373190D01*
X48759120Y52277952D01*
X49372216Y51849381D02*
X50134121Y51849381D01*
X50384120Y51944619D02*
X50509120Y52944619D01*
X50747215Y52944619D01*
X50884121Y52897000D01*
X50967454Y52801762D01*
X51003169Y52706524D01*
X51026978Y52516048D01*
X51009121Y52373190D01*
X50937692Y52182714D01*
X50878169Y52087476D01*
X50771026Y51992238D01*
X50622215Y51944619D01*
X50384120Y51944619D01*
X51384120Y51944619D02*
X51467454Y52611286D01*
X51509120Y52944619D02*
X51455549Y52897000D01*
X51497216Y52849381D01*
X51550787Y52897000D01*
X51509120Y52944619D01*
X51497216Y52849381D01*
X51818644Y51992238D02*
X51907929Y51944619D01*
X52098405Y51944619D01*
X52199597Y51992238D01*
X52259121Y52087476D01*
X52265073Y52135095D01*
X52229359Y52230333D01*
X52140072Y52277952D01*
X51997215Y52277952D01*
X51907929Y52325571D01*
X51872215Y52420810D01*
X51878168Y52468429D01*
X51937691Y52563667D01*
X52038882Y52611286D01*
X52181739Y52611286D01*
X52271025Y52563667D01*
X53104359Y51992238D02*
X53003168Y51944619D01*
X52812691Y51944619D01*
X52723406Y51992238D01*
X52681739Y52039857D01*
X52646025Y52135095D01*
X52681739Y52420810D01*
X52741263Y52516048D01*
X52794834Y52563667D01*
X52896025Y52611286D01*
X53086502Y52611286D01*
X53175787Y52563667D01*
X53526977Y51944619D02*
X53651977Y52944619D01*
X53955549Y51944619D02*
X54021026Y52468429D01*
X53985311Y52563667D01*
X53896026Y52611286D01*
X53753168Y52611286D01*
X53651977Y52563667D01*
X53598406Y52516048D01*
X54860311Y51944619D02*
X54925788Y52468429D01*
X54890073Y52563667D01*
X54800788Y52611286D01*
X54610311Y52611286D01*
X54509120Y52563667D01*
X54866264Y51992238D02*
X54765073Y51944619D01*
X54526977Y51944619D01*
X54437692Y51992238D01*
X54401978Y52087476D01*
X54413882Y52182714D01*
X54473406Y52277952D01*
X54574596Y52325571D01*
X54812692Y52325571D01*
X54913883Y52373190D01*
X55336501Y51944619D02*
X55419835Y52611286D01*
X55396025Y52420810D02*
X55455549Y52516048D01*
X55509120Y52563667D01*
X55610311Y52611286D01*
X55705550Y52611286D01*
X56467455Y52611286D02*
X56366264Y51801762D01*
X56306740Y51706524D01*
X56253169Y51658905D01*
X56151978Y51611286D01*
X56009121Y51611286D01*
X55919835Y51658905D01*
X56390074Y51992238D02*
X56288883Y51944619D01*
X56098406Y51944619D01*
X56009121Y51992238D01*
X55967454Y52039857D01*
X55931740Y52135095D01*
X55967454Y52420810D01*
X56026978Y52516048D01*
X56080549Y52563667D01*
X56181740Y52611286D01*
X56372217Y52611286D01*
X56461502Y52563667D01*
X57247217Y51992238D02*
X57146026Y51944619D01*
X56955549Y51944619D01*
X56866264Y51992238D01*
X56830550Y52087476D01*
X56878169Y52468429D01*
X56937692Y52563667D01*
X57038883Y52611286D01*
X57229360Y52611286D01*
X57318645Y52563667D01*
X57354360Y52468429D01*
X57342455Y52373190D01*
X56854359Y52277952D01*
X57717454Y51944619D02*
X57800788Y52611286D01*
X57776978Y52420810D02*
X57836502Y52516048D01*
X57890073Y52563667D01*
X57991264Y52611286D01*
X58086503Y52611286D01*
D12*
X33083572Y95342857D02*
X34226429Y95342857D01*
D11*
X11332981Y80464000D02*
G75*
G03X11332981Y80464000I-283981J0D01*
G01*
D10*
X97210667Y76709619D02*
X97210667Y77709619D01*
X97210667Y77328667D02*
X97305905Y77376286D01*
X97496382Y77376286D01*
X97591620Y77328667D01*
X97639239Y77281048D01*
X97686858Y77185810D01*
X97686858Y76900095D01*
X97639239Y76804857D01*
X97591620Y76757238D01*
X97496382Y76709619D01*
X97305905Y76709619D01*
X97210667Y76757238D01*
X98115429Y77090571D02*
X98877334Y77090571D01*
X97226524Y74042619D02*
X97226524Y75042619D01*
X97226524Y74661667D02*
X97321762Y74709286D01*
X97512239Y74709286D01*
X97607477Y74661667D01*
X97655096Y74614048D01*
X97702715Y74518810D01*
X97702715Y74233095D01*
X97655096Y74137857D01*
X97607477Y74090238D01*
X97512239Y74042619D01*
X97321762Y74042619D01*
X97226524Y74090238D01*
X98655096Y74042619D02*
X98083667Y74042619D01*
X98369381Y74042619D02*
X98369381Y75042619D01*
X98274143Y74899762D01*
X98178905Y74804524D01*
X98083667Y74756905D01*
X97226524Y71629619D02*
X97226524Y72629619D01*
X97226524Y72248667D02*
X97321762Y72296286D01*
X97512239Y72296286D01*
X97607477Y72248667D01*
X97655096Y72201048D01*
X97702715Y72105810D01*
X97702715Y71820095D01*
X97655096Y71724857D01*
X97607477Y71677238D01*
X97512239Y71629619D01*
X97321762Y71629619D01*
X97226524Y71677238D01*
X98083667Y72534381D02*
X98131286Y72582000D01*
X98226524Y72629619D01*
X98464620Y72629619D01*
X98559858Y72582000D01*
X98607477Y72534381D01*
X98655096Y72439143D01*
X98655096Y72343905D01*
X98607477Y72201048D01*
X98036048Y71629619D01*
X98655096Y71629619D01*
X97226524Y68962619D02*
X97226524Y69962619D01*
X97226524Y69581667D02*
X97321762Y69629286D01*
X97512239Y69629286D01*
X97607477Y69581667D01*
X97655096Y69534048D01*
X97702715Y69438810D01*
X97702715Y69153095D01*
X97655096Y69057857D01*
X97607477Y69010238D01*
X97512239Y68962619D01*
X97321762Y68962619D01*
X97226524Y69010238D01*
X98036048Y69962619D02*
X98655096Y69962619D01*
X98321762Y69581667D01*
X98464620Y69581667D01*
X98559858Y69534048D01*
X98607477Y69486429D01*
X98655096Y69391190D01*
X98655096Y69153095D01*
X98607477Y69057857D01*
X98559858Y69010238D01*
X98464620Y68962619D01*
X98178905Y68962619D01*
X98083667Y69010238D01*
X98036048Y69057857D01*
X97226524Y66422619D02*
X97226524Y67422619D01*
X97226524Y67041667D02*
X97321762Y67089286D01*
X97512239Y67089286D01*
X97607477Y67041667D01*
X97655096Y66994048D01*
X97702715Y66898810D01*
X97702715Y66613095D01*
X97655096Y66517857D01*
X97607477Y66470238D01*
X97512239Y66422619D01*
X97321762Y66422619D01*
X97226524Y66470238D01*
X98559858Y67089286D02*
X98559858Y66422619D01*
X98321762Y67470238D02*
X98083667Y66755952D01*
X98702715Y66755952D01*
X97226524Y63755619D02*
X97226524Y64755619D01*
X97226524Y64374667D02*
X97321762Y64422286D01*
X97512239Y64422286D01*
X97607477Y64374667D01*
X97655096Y64327048D01*
X97702715Y64231810D01*
X97702715Y63946095D01*
X97655096Y63850857D01*
X97607477Y63803238D01*
X97512239Y63755619D01*
X97321762Y63755619D01*
X97226524Y63803238D01*
X98607477Y64755619D02*
X98131286Y64755619D01*
X98083667Y64279429D01*
X98131286Y64327048D01*
X98226524Y64374667D01*
X98464620Y64374667D01*
X98559858Y64327048D01*
X98607477Y64279429D01*
X98655096Y64184190D01*
X98655096Y63946095D01*
X98607477Y63850857D01*
X98559858Y63803238D01*
X98464620Y63755619D01*
X98226524Y63755619D01*
X98131286Y63803238D01*
X98083667Y63850857D01*
X97226524Y61342619D02*
X97226524Y62342619D01*
X97226524Y61961667D02*
X97321762Y62009286D01*
X97512239Y62009286D01*
X97607477Y61961667D01*
X97655096Y61914048D01*
X97702715Y61818810D01*
X97702715Y61533095D01*
X97655096Y61437857D01*
X97607477Y61390238D01*
X97512239Y61342619D01*
X97321762Y61342619D01*
X97226524Y61390238D01*
X98559858Y62342619D02*
X98369381Y62342619D01*
X98274143Y62295000D01*
X98226524Y62247381D01*
X98131286Y62104524D01*
X98083667Y61914048D01*
X98083667Y61533095D01*
X98131286Y61437857D01*
X98178905Y61390238D01*
X98274143Y61342619D01*
X98464620Y61342619D01*
X98559858Y61390238D01*
X98607477Y61437857D01*
X98655096Y61533095D01*
X98655096Y61771190D01*
X98607477Y61866429D01*
X98559858Y61914048D01*
X98464620Y61961667D01*
X98274143Y61961667D01*
X98178905Y61914048D01*
X98131286Y61866429D01*
X98083667Y61771190D01*
X97226524Y10342619D02*
X97226524Y11342619D01*
X97226524Y10961667D02*
X97321762Y11009286D01*
X97512239Y11009286D01*
X97607477Y10961667D01*
X97655096Y10914048D01*
X97702715Y10818810D01*
X97702715Y10533095D01*
X97655096Y10437857D01*
X97607477Y10390238D01*
X97512239Y10342619D01*
X97321762Y10342619D01*
X97226524Y10390238D01*
X98559858Y11342619D02*
X98369381Y11342619D01*
X98274143Y11295000D01*
X98226524Y11247381D01*
X98131286Y11104524D01*
X98083667Y10914048D01*
X98083667Y10533095D01*
X98131286Y10437857D01*
X98178905Y10390238D01*
X98274143Y10342619D01*
X98464620Y10342619D01*
X98559858Y10390238D01*
X98607477Y10437857D01*
X98655096Y10533095D01*
X98655096Y10771190D01*
X98607477Y10866429D01*
X98559858Y10914048D01*
X98464620Y10961667D01*
X98274143Y10961667D01*
X98178905Y10914048D01*
X98131286Y10866429D01*
X98083667Y10771190D01*
X97226524Y12755619D02*
X97226524Y13755619D01*
X97226524Y13374667D02*
X97321762Y13422286D01*
X97512239Y13422286D01*
X97607477Y13374667D01*
X97655096Y13327048D01*
X97702715Y13231810D01*
X97702715Y12946095D01*
X97655096Y12850857D01*
X97607477Y12803238D01*
X97512239Y12755619D01*
X97321762Y12755619D01*
X97226524Y12803238D01*
X98607477Y13755619D02*
X98131286Y13755619D01*
X98083667Y13279429D01*
X98131286Y13327048D01*
X98226524Y13374667D01*
X98464620Y13374667D01*
X98559858Y13327048D01*
X98607477Y13279429D01*
X98655096Y13184190D01*
X98655096Y12946095D01*
X98607477Y12850857D01*
X98559858Y12803238D01*
X98464620Y12755619D01*
X98226524Y12755619D01*
X98131286Y12803238D01*
X98083667Y12850857D01*
X97226524Y15422619D02*
X97226524Y16422619D01*
X97226524Y16041667D02*
X97321762Y16089286D01*
X97512239Y16089286D01*
X97607477Y16041667D01*
X97655096Y15994048D01*
X97702715Y15898810D01*
X97702715Y15613095D01*
X97655096Y15517857D01*
X97607477Y15470238D01*
X97512239Y15422619D01*
X97321762Y15422619D01*
X97226524Y15470238D01*
X98559858Y16089286D02*
X98559858Y15422619D01*
X98321762Y16470238D02*
X98083667Y15755952D01*
X98702715Y15755952D01*
X97226524Y17962619D02*
X97226524Y18962619D01*
X97226524Y18581667D02*
X97321762Y18629286D01*
X97512239Y18629286D01*
X97607477Y18581667D01*
X97655096Y18534048D01*
X97702715Y18438810D01*
X97702715Y18153095D01*
X97655096Y18057857D01*
X97607477Y18010238D01*
X97512239Y17962619D01*
X97321762Y17962619D01*
X97226524Y18010238D01*
X98036048Y18962619D02*
X98655096Y18962619D01*
X98321762Y18581667D01*
X98464620Y18581667D01*
X98559858Y18534048D01*
X98607477Y18486429D01*
X98655096Y18391190D01*
X98655096Y18153095D01*
X98607477Y18057857D01*
X98559858Y18010238D01*
X98464620Y17962619D01*
X98178905Y17962619D01*
X98083667Y18010238D01*
X98036048Y18057857D01*
X97226524Y20629619D02*
X97226524Y21629619D01*
X97226524Y21248667D02*
X97321762Y21296286D01*
X97512239Y21296286D01*
X97607477Y21248667D01*
X97655096Y21201048D01*
X97702715Y21105810D01*
X97702715Y20820095D01*
X97655096Y20724857D01*
X97607477Y20677238D01*
X97512239Y20629619D01*
X97321762Y20629619D01*
X97226524Y20677238D01*
X98083667Y21534381D02*
X98131286Y21582000D01*
X98226524Y21629619D01*
X98464620Y21629619D01*
X98559858Y21582000D01*
X98607477Y21534381D01*
X98655096Y21439143D01*
X98655096Y21343905D01*
X98607477Y21201048D01*
X98036048Y20629619D01*
X98655096Y20629619D01*
X97226524Y23042619D02*
X97226524Y24042619D01*
X97226524Y23661667D02*
X97321762Y23709286D01*
X97512239Y23709286D01*
X97607477Y23661667D01*
X97655096Y23614048D01*
X97702715Y23518810D01*
X97702715Y23233095D01*
X97655096Y23137857D01*
X97607477Y23090238D01*
X97512239Y23042619D01*
X97321762Y23042619D01*
X97226524Y23090238D01*
X98655096Y23042619D02*
X98083667Y23042619D01*
X98369381Y23042619D02*
X98369381Y24042619D01*
X98274143Y23899762D01*
X98178905Y23804524D01*
X98083667Y23756905D01*
X97210667Y25709619D02*
X97210667Y26709619D01*
X97210667Y26328667D02*
X97305905Y26376286D01*
X97496382Y26376286D01*
X97591620Y26328667D01*
X97639239Y26281048D01*
X97686858Y26185810D01*
X97686858Y25900095D01*
X97639239Y25804857D01*
X97591620Y25757238D01*
X97496382Y25709619D01*
X97305905Y25709619D01*
X97210667Y25757238D01*
X98115429Y26090571D02*
X98877334Y26090571D01*
D11*
X11332981Y29464000D02*
G75*
G03X11332981Y29464000I-283981J0D01*
G01*
D12*
X33083572Y44342857D02*
X34226429Y44342857D01*
D10*
X8574592Y944619D02*
X8699592Y1944619D01*
X9003164Y944619D02*
X9068641Y1468429D01*
X9032926Y1563667D01*
X8943641Y1611286D01*
X8800783Y1611286D01*
X8699592Y1563667D01*
X8646021Y1516048D01*
X9419831Y1611286D02*
X9800783Y1611286D01*
X9604354Y1944619D02*
X9497212Y1087476D01*
X9532926Y992238D01*
X9622211Y944619D01*
X9717449Y944619D01*
X9991260Y1611286D02*
X10372212Y1611286D01*
X10175783Y1944619D02*
X10068641Y1087476D01*
X10104355Y992238D01*
X10193640Y944619D01*
X10288878Y944619D01*
X10705546Y1611286D02*
X10580546Y611286D01*
X10699593Y1563667D02*
X10800784Y1611286D01*
X10991261Y1611286D01*
X11080546Y1563667D01*
X11122213Y1516048D01*
X11157927Y1420810D01*
X11122213Y1135095D01*
X11062689Y1039857D01*
X11009118Y992238D01*
X10907927Y944619D01*
X10717450Y944619D01*
X10628165Y992238D01*
X11485308Y992238D02*
X11574593Y944619D01*
X11765069Y944619D01*
X11866261Y992238D01*
X11925785Y1087476D01*
X11931737Y1135095D01*
X11896023Y1230333D01*
X11806736Y1277952D01*
X11663879Y1277952D01*
X11574593Y1325571D01*
X11538879Y1420810D01*
X11544832Y1468429D01*
X11604355Y1563667D01*
X11705546Y1611286D01*
X11848403Y1611286D01*
X11937689Y1563667D01*
X12348403Y1039857D02*
X12390070Y992238D01*
X12336498Y944619D01*
X12294832Y992238D01*
X12348403Y1039857D01*
X12336498Y944619D01*
X12413879Y1563667D02*
X12455546Y1516048D01*
X12401975Y1468429D01*
X12360308Y1516048D01*
X12413879Y1563667D01*
X12401975Y1468429D01*
X13657927Y1992238D02*
X12640069Y706524D01*
X14705546Y1992238D02*
X13687688Y706524D01*
X15419832Y1611286D02*
X15318641Y801762D01*
X15259117Y706524D01*
X15205546Y658905D01*
X15104355Y611286D01*
X14961498Y611286D01*
X14872212Y658905D01*
X15342451Y992238D02*
X15241260Y944619D01*
X15050783Y944619D01*
X14961498Y992238D01*
X14919831Y1039857D01*
X14884117Y1135095D01*
X14919831Y1420810D01*
X14979355Y1516048D01*
X15032926Y1563667D01*
X15134117Y1611286D01*
X15324594Y1611286D01*
X15413879Y1563667D01*
X15812688Y944619D02*
X15896022Y1611286D01*
X15937688Y1944619D02*
X15884117Y1897000D01*
X15925784Y1849381D01*
X15979355Y1897000D01*
X15937688Y1944619D01*
X15925784Y1849381D01*
X16229355Y1611286D02*
X16610307Y1611286D01*
X16413878Y1944619D02*
X16306736Y1087476D01*
X16342450Y992238D01*
X16431735Y944619D01*
X16526973Y944619D01*
X16860307Y944619D02*
X16985307Y1944619D01*
X17288879Y944619D02*
X17354356Y1468429D01*
X17318641Y1563667D01*
X17229356Y1611286D01*
X17086498Y1611286D01*
X16985307Y1563667D01*
X16931736Y1516048D01*
X18276975Y1611286D02*
X18193641Y944619D01*
X17848403Y1611286D02*
X17782927Y1087476D01*
X17818641Y992238D01*
X17907926Y944619D01*
X18050784Y944619D01*
X18151975Y992238D01*
X18205546Y1039857D01*
X18669831Y944619D02*
X18794831Y1944619D01*
X18747212Y1563667D02*
X18848403Y1611286D01*
X19038880Y1611286D01*
X19128165Y1563667D01*
X19169832Y1516048D01*
X19205546Y1420810D01*
X19169832Y1135095D01*
X19110308Y1039857D01*
X19056737Y992238D01*
X18955546Y944619D01*
X18765069Y944619D01*
X18675784Y992238D01*
X19586498Y1039857D02*
X19628165Y992238D01*
X19574593Y944619D01*
X19532927Y992238D01*
X19586498Y1039857D01*
X19574593Y944619D01*
X20485308Y992238D02*
X20384117Y944619D01*
X20193640Y944619D01*
X20104355Y992238D01*
X20062688Y1039857D01*
X20026974Y1135095D01*
X20062688Y1420810D01*
X20122212Y1516048D01*
X20175783Y1563667D01*
X20276974Y1611286D01*
X20467451Y1611286D01*
X20556736Y1563667D01*
X21050783Y944619D02*
X20961498Y992238D01*
X20919831Y1039857D01*
X20884117Y1135095D01*
X20919831Y1420810D01*
X20979355Y1516048D01*
X21032926Y1563667D01*
X21134117Y1611286D01*
X21276975Y1611286D01*
X21366260Y1563667D01*
X21407927Y1516048D01*
X21443641Y1420810D01*
X21407927Y1135095D01*
X21348403Y1039857D01*
X21294832Y992238D01*
X21193641Y944619D01*
X21050783Y944619D01*
X21812688Y944619D02*
X21896022Y1611286D01*
X21884117Y1516048D02*
X21937688Y1563667D01*
X22038879Y1611286D01*
X22181737Y1611286D01*
X22271022Y1563667D01*
X22306737Y1468429D01*
X22241260Y944619D01*
X22306737Y1468429D02*
X22366260Y1563667D01*
X22467451Y1611286D01*
X22610308Y1611286D01*
X22699593Y1563667D01*
X22735308Y1468429D01*
X22669831Y944619D01*
X23991260Y1992238D02*
X22973402Y706524D01*
X24193640Y944619D02*
X24318640Y1944619D01*
X24765069Y944619D02*
X24407926Y1516048D01*
X24890069Y1944619D02*
X24247212Y1373190D01*
X25622212Y944619D02*
X25687689Y1468429D01*
X25651974Y1563667D01*
X25562689Y1611286D01*
X25372212Y1611286D01*
X25271021Y1563667D01*
X25628165Y992238D02*
X25526974Y944619D01*
X25288878Y944619D01*
X25199593Y992238D01*
X25163879Y1087476D01*
X25175783Y1182714D01*
X25235307Y1277952D01*
X25336497Y1325571D01*
X25574593Y1325571D01*
X25675784Y1373190D01*
X26485308Y992238D02*
X26384117Y944619D01*
X26193640Y944619D01*
X26104355Y992238D01*
X26068641Y1087476D01*
X26116260Y1468429D01*
X26175783Y1563667D01*
X26276974Y1611286D01*
X26467451Y1611286D01*
X26556736Y1563667D01*
X26592451Y1468429D01*
X26580546Y1373190D01*
X26092450Y1277952D01*
X27038879Y1611286D02*
X26913879Y611286D01*
X27032926Y1563667D02*
X27134117Y1611286D01*
X27324594Y1611286D01*
X27413879Y1563667D01*
X27455546Y1516048D01*
X27491260Y1420810D01*
X27455546Y1135095D01*
X27396022Y1039857D01*
X27342451Y992238D01*
X27241260Y944619D01*
X27050783Y944619D01*
X26961498Y992238D01*
X27800784Y1611286D02*
X28181736Y1611286D01*
X27985307Y1944619D02*
X27878165Y1087476D01*
X27913879Y992238D01*
X28003164Y944619D01*
X28098402Y944619D01*
X28515070Y1611286D02*
X28431736Y944619D01*
X28503165Y1516048D02*
X28556736Y1563667D01*
X28657927Y1611286D01*
X28800785Y1611286D01*
X28890070Y1563667D01*
X28925785Y1468429D01*
X28860308Y944619D01*
X29735309Y1468429D02*
X29872213Y1420810D01*
X29913880Y1373190D01*
X29949594Y1277952D01*
X29931737Y1135095D01*
X29872213Y1039857D01*
X29818642Y992238D01*
X29717451Y944619D01*
X29336498Y944619D01*
X29461498Y1944619D01*
X29794832Y1944619D01*
X29884118Y1897000D01*
X29925785Y1849381D01*
X29961499Y1754143D01*
X29949594Y1658905D01*
X29890070Y1563667D01*
X29836499Y1516048D01*
X29735309Y1468429D01*
X29401975Y1468429D01*
X30765070Y944619D02*
X30830547Y1468429D01*
X30794832Y1563667D01*
X30705547Y1611286D01*
X30515070Y1611286D01*
X30413879Y1563667D01*
X30771023Y992238D02*
X30669832Y944619D01*
X30431736Y944619D01*
X30342451Y992238D01*
X30306737Y1087476D01*
X30318641Y1182714D01*
X30378165Y1277952D01*
X30479355Y1325571D01*
X30717451Y1325571D01*
X30818642Y1373190D01*
X31384117Y944619D02*
X31294832Y992238D01*
X31259118Y1087476D01*
X31366260Y1944619D01*
X32276976Y1611286D02*
X32193642Y944619D01*
X31848404Y1611286D02*
X31782928Y1087476D01*
X31818642Y992238D01*
X31907927Y944619D01*
X32050785Y944619D01*
X32151976Y992238D01*
X32205547Y1039857D01*
X33515071Y1992238D02*
X32497213Y706524D01*
X33705547Y1230333D02*
X34181738Y1230333D01*
X33574594Y944619D02*
X34032927Y1944619D01*
X34241261Y944619D01*
X34574594Y944619D02*
X34657928Y1611286D01*
X34634118Y1420810D02*
X34693642Y1516048D01*
X34747213Y1563667D01*
X34848404Y1611286D01*
X34943643Y1611286D01*
X35622214Y944619D02*
X35747214Y1944619D01*
X35628167Y992238D02*
X35526976Y944619D01*
X35336499Y944619D01*
X35247214Y992238D01*
X35205547Y1039857D01*
X35169833Y1135095D01*
X35205547Y1420810D01*
X35265071Y1516048D01*
X35318642Y1563667D01*
X35419833Y1611286D01*
X35610310Y1611286D01*
X35699595Y1563667D01*
X36610310Y1611286D02*
X36526976Y944619D01*
X36181738Y1611286D02*
X36116262Y1087476D01*
X36151976Y992238D01*
X36241261Y944619D01*
X36384119Y944619D01*
X36485310Y992238D01*
X36538881Y1039857D01*
X37003166Y944619D02*
X37086500Y1611286D01*
X37128166Y1944619D02*
X37074595Y1897000D01*
X37116262Y1849381D01*
X37169833Y1897000D01*
X37128166Y1944619D01*
X37116262Y1849381D01*
X37562690Y1611286D02*
X37479356Y944619D01*
X37550785Y1516048D02*
X37604356Y1563667D01*
X37705547Y1611286D01*
X37848405Y1611286D01*
X37937690Y1563667D01*
X37973405Y1468429D01*
X37907928Y944619D01*
X38526975Y944619D02*
X38437690Y992238D01*
X38396023Y1039857D01*
X38360309Y1135095D01*
X38396023Y1420810D01*
X38455547Y1516048D01*
X38509118Y1563667D01*
X38610309Y1611286D01*
X38753167Y1611286D01*
X38842452Y1563667D01*
X38884119Y1516048D01*
X38919833Y1420810D01*
X38884119Y1135095D01*
X38824595Y1039857D01*
X38771024Y992238D01*
X38669833Y944619D01*
X38526975Y944619D01*
X39038881Y849381D02*
X39800786Y849381D01*
X40526976Y944619D02*
X40050785Y944619D01*
X40175785Y1944619D01*
X40860309Y944619D02*
X40943643Y1611286D01*
X40985309Y1944619D02*
X40931738Y1897000D01*
X40973405Y1849381D01*
X41026976Y1897000D01*
X40985309Y1944619D01*
X40973405Y1849381D01*
X41419833Y1611286D02*
X41294833Y611286D01*
X41413880Y1563667D02*
X41515071Y1611286D01*
X41705548Y1611286D01*
X41794833Y1563667D01*
X41836500Y1516048D01*
X41872214Y1420810D01*
X41836500Y1135095D01*
X41776976Y1039857D01*
X41723405Y992238D01*
X41622214Y944619D01*
X41431737Y944619D01*
X41342452Y992238D01*
X42384118Y944619D02*
X42294833Y992238D01*
X42253166Y1039857D01*
X42217452Y1135095D01*
X42253166Y1420810D01*
X42312690Y1516048D01*
X42366261Y1563667D01*
X42467452Y1611286D01*
X42610310Y1611286D01*
X42699595Y1563667D01*
X42741262Y1516048D01*
X42776976Y1420810D01*
X42741262Y1135095D01*
X42681738Y1039857D01*
X42628167Y992238D01*
X42526976Y944619D01*
X42384118Y944619D01*
X42896024Y849381D02*
X43657929Y849381D01*
X43866262Y992238D02*
X44003166Y944619D01*
X44241262Y944619D01*
X44342453Y992238D01*
X44396024Y1039857D01*
X44455548Y1135095D01*
X44467453Y1230333D01*
X44431738Y1325571D01*
X44390072Y1373190D01*
X44300786Y1420810D01*
X44116262Y1468429D01*
X44026976Y1516048D01*
X43985309Y1563667D01*
X43949595Y1658905D01*
X43961500Y1754143D01*
X44021024Y1849381D01*
X44074595Y1897000D01*
X44175785Y1944619D01*
X44413881Y1944619D01*
X44550786Y1897000D01*
X44800786Y1611286D02*
X45181738Y1611286D01*
X44985309Y1944619D02*
X44878167Y1087476D01*
X44913881Y992238D01*
X45003166Y944619D01*
X45098404Y944619D01*
X45574595Y944619D02*
X45485310Y992238D01*
X45443643Y1039857D01*
X45407929Y1135095D01*
X45443643Y1420810D01*
X45503167Y1516048D01*
X45556738Y1563667D01*
X45657929Y1611286D01*
X45800787Y1611286D01*
X45890072Y1563667D01*
X45931739Y1516048D01*
X45967453Y1420810D01*
X45931739Y1135095D01*
X45872215Y1039857D01*
X45818644Y992238D01*
X45717453Y944619D01*
X45574595Y944619D01*
X46336500Y944619D02*
X46419834Y1611286D01*
X46396024Y1420810D02*
X46455548Y1516048D01*
X46509119Y1563667D01*
X46610310Y1611286D01*
X46705549Y1611286D01*
X47384120Y944619D02*
X47449597Y1468429D01*
X47413882Y1563667D01*
X47324597Y1611286D01*
X47134120Y1611286D01*
X47032929Y1563667D01*
X47390073Y992238D02*
X47288882Y944619D01*
X47050786Y944619D01*
X46961501Y992238D01*
X46925787Y1087476D01*
X46937691Y1182714D01*
X46997215Y1277952D01*
X47098405Y1325571D01*
X47336501Y1325571D01*
X47437692Y1373190D01*
X48372216Y1611286D02*
X48271025Y801762D01*
X48211501Y706524D01*
X48157930Y658905D01*
X48056739Y611286D01*
X47913882Y611286D01*
X47824596Y658905D01*
X48294835Y992238D02*
X48193644Y944619D01*
X48003167Y944619D01*
X47913882Y992238D01*
X47872215Y1039857D01*
X47836501Y1135095D01*
X47872215Y1420810D01*
X47931739Y1516048D01*
X47985310Y1563667D01*
X48086501Y1611286D01*
X48276978Y1611286D01*
X48366263Y1563667D01*
X49151978Y992238D02*
X49050787Y944619D01*
X48860310Y944619D01*
X48771025Y992238D01*
X48735311Y1087476D01*
X48782930Y1468429D01*
X48842453Y1563667D01*
X48943644Y1611286D01*
X49134121Y1611286D01*
X49223406Y1563667D01*
X49259121Y1468429D01*
X49247216Y1373190D01*
X48759120Y1277952D01*
X49372216Y849381D02*
X50134121Y849381D01*
X50384120Y944619D02*
X50509120Y1944619D01*
X50747215Y1944619D01*
X50884121Y1897000D01*
X50967454Y1801762D01*
X51003169Y1706524D01*
X51026978Y1516048D01*
X51009121Y1373190D01*
X50937692Y1182714D01*
X50878169Y1087476D01*
X50771026Y992238D01*
X50622215Y944619D01*
X50384120Y944619D01*
X51384120Y944619D02*
X51467454Y1611286D01*
X51509120Y1944619D02*
X51455549Y1897000D01*
X51497216Y1849381D01*
X51550787Y1897000D01*
X51509120Y1944619D01*
X51497216Y1849381D01*
X51818644Y992238D02*
X51907929Y944619D01*
X52098405Y944619D01*
X52199597Y992238D01*
X52259121Y1087476D01*
X52265073Y1135095D01*
X52229359Y1230333D01*
X52140072Y1277952D01*
X51997215Y1277952D01*
X51907929Y1325571D01*
X51872215Y1420810D01*
X51878168Y1468429D01*
X51937691Y1563667D01*
X52038882Y1611286D01*
X52181739Y1611286D01*
X52271025Y1563667D01*
X53104359Y992238D02*
X53003168Y944619D01*
X52812691Y944619D01*
X52723406Y992238D01*
X52681739Y1039857D01*
X52646025Y1135095D01*
X52681739Y1420810D01*
X52741263Y1516048D01*
X52794834Y1563667D01*
X52896025Y1611286D01*
X53086502Y1611286D01*
X53175787Y1563667D01*
X53526977Y944619D02*
X53651977Y1944619D01*
X53955549Y944619D02*
X54021026Y1468429D01*
X53985311Y1563667D01*
X53896026Y1611286D01*
X53753168Y1611286D01*
X53651977Y1563667D01*
X53598406Y1516048D01*
X54860311Y944619D02*
X54925788Y1468429D01*
X54890073Y1563667D01*
X54800788Y1611286D01*
X54610311Y1611286D01*
X54509120Y1563667D01*
X54866264Y992238D02*
X54765073Y944619D01*
X54526977Y944619D01*
X54437692Y992238D01*
X54401978Y1087476D01*
X54413882Y1182714D01*
X54473406Y1277952D01*
X54574596Y1325571D01*
X54812692Y1325571D01*
X54913883Y1373190D01*
X55336501Y944619D02*
X55419835Y1611286D01*
X55396025Y1420810D02*
X55455549Y1516048D01*
X55509120Y1563667D01*
X55610311Y1611286D01*
X55705550Y1611286D01*
X56467455Y1611286D02*
X56366264Y801762D01*
X56306740Y706524D01*
X56253169Y658905D01*
X56151978Y611286D01*
X56009121Y611286D01*
X55919835Y658905D01*
X56390074Y992238D02*
X56288883Y944619D01*
X56098406Y944619D01*
X56009121Y992238D01*
X55967454Y1039857D01*
X55931740Y1135095D01*
X55967454Y1420810D01*
X56026978Y1516048D01*
X56080549Y1563667D01*
X56181740Y1611286D01*
X56372217Y1611286D01*
X56461502Y1563667D01*
X57247217Y992238D02*
X57146026Y944619D01*
X56955549Y944619D01*
X56866264Y992238D01*
X56830550Y1087476D01*
X56878169Y1468429D01*
X56937692Y1563667D01*
X57038883Y1611286D01*
X57229360Y1611286D01*
X57318645Y1563667D01*
X57354360Y1468429D01*
X57342455Y1373190D01*
X56854359Y1277952D01*
X57717454Y944619D02*
X57800788Y1611286D01*
X57776978Y1420810D02*
X57836502Y1516048D01*
X57890073Y1563667D01*
X57991264Y1611286D01*
X58086503Y1611286D01*
D12*
X29770572Y4020429D02*
X29770572Y5520429D01*
X29770572Y4949000D02*
X29913429Y5020429D01*
X30199143Y5020429D01*
X30342000Y4949000D01*
X30413429Y4877571D01*
X30484858Y4734714D01*
X30484858Y4306143D01*
X30413429Y4163286D01*
X30342000Y4091857D01*
X30199143Y4020429D01*
X29913429Y4020429D01*
X29770572Y4091857D01*
X30984858Y5020429D02*
X31342001Y4020429D01*
X31699143Y5020429D02*
X31342001Y4020429D01*
X31199143Y3663286D01*
X31127715Y3591857D01*
X30984858Y3520429D01*
X33413429Y4020429D02*
X33413429Y5520429D01*
X34270572Y4020429D02*
X33627715Y4877571D01*
X34270572Y5520429D02*
X33413429Y4663286D01*
X35556286Y4020429D02*
X35556286Y4806143D01*
X35484857Y4949000D01*
X35342000Y5020429D01*
X35056286Y5020429D01*
X34913429Y4949000D01*
X35556286Y4091857D02*
X35413429Y4020429D01*
X35056286Y4020429D01*
X34913429Y4091857D01*
X34842000Y4234714D01*
X34842000Y4377571D01*
X34913429Y4520429D01*
X35056286Y4591857D01*
X35413429Y4591857D01*
X35556286Y4663286D01*
X36842000Y4091857D02*
X36699143Y4020429D01*
X36413429Y4020429D01*
X36270572Y4091857D01*
X36199143Y4234714D01*
X36199143Y4806143D01*
X36270572Y4949000D01*
X36413429Y5020429D01*
X36699143Y5020429D01*
X36842000Y4949000D01*
X36913429Y4806143D01*
X36913429Y4663286D01*
X36199143Y4520429D01*
X37556286Y5020429D02*
X37556286Y3520429D01*
X37556286Y4949000D02*
X37699143Y5020429D01*
X37984857Y5020429D01*
X38127714Y4949000D01*
X38199143Y4877571D01*
X38270572Y4734714D01*
X38270572Y4306143D01*
X38199143Y4163286D01*
X38127714Y4091857D01*
X37984857Y4020429D01*
X37699143Y4020429D01*
X37556286Y4091857D01*
X38699143Y5020429D02*
X39270572Y5020429D01*
X38913429Y5520429D02*
X38913429Y4234714D01*
X38984857Y4091857D01*
X39127715Y4020429D01*
X39270572Y4020429D01*
X39770572Y5020429D02*
X39770572Y4020429D01*
X39770572Y4877571D02*
X39842000Y4949000D01*
X39984858Y5020429D01*
X40199143Y5020429D01*
X40342000Y4949000D01*
X40413429Y4806143D01*
X40413429Y4020429D01*
X41627715Y4806143D02*
X41842001Y4734714D01*
X41913429Y4663286D01*
X41984858Y4520429D01*
X41984858Y4306143D01*
X41913429Y4163286D01*
X41842001Y4091857D01*
X41699143Y4020429D01*
X41127715Y4020429D01*
X41127715Y5520429D01*
X41627715Y5520429D01*
X41770572Y5449000D01*
X41842001Y5377571D01*
X41913429Y5234714D01*
X41913429Y5091857D01*
X41842001Y4949000D01*
X41770572Y4877571D01*
X41627715Y4806143D01*
X41127715Y4806143D01*
X43270572Y4020429D02*
X43270572Y4806143D01*
X43199143Y4949000D01*
X43056286Y5020429D01*
X42770572Y5020429D01*
X42627715Y4949000D01*
X43270572Y4091857D02*
X43127715Y4020429D01*
X42770572Y4020429D01*
X42627715Y4091857D01*
X42556286Y4234714D01*
X42556286Y4377571D01*
X42627715Y4520429D01*
X42770572Y4591857D01*
X43127715Y4591857D01*
X43270572Y4663286D01*
X44199144Y4020429D02*
X44056286Y4091857D01*
X43984858Y4234714D01*
X43984858Y5520429D01*
X45413429Y5020429D02*
X45413429Y4020429D01*
X44770572Y5020429D02*
X44770572Y4234714D01*
X44842000Y4091857D01*
X44984858Y4020429D01*
X45199143Y4020429D01*
X45342000Y4091857D01*
X45413429Y4163286D01*
X8999429Y6989000D02*
X9713715Y6989000D01*
X8856572Y6560429D02*
X9356572Y8060429D01*
X9856572Y6560429D01*
X10356572Y6560429D02*
X10356572Y7560429D01*
X10356572Y7274714D02*
X10428000Y7417571D01*
X10499429Y7489000D01*
X10642286Y7560429D01*
X10785143Y7560429D01*
X11928000Y6560429D02*
X11928000Y8060429D01*
X11928000Y6631857D02*
X11785143Y6560429D01*
X11499429Y6560429D01*
X11356571Y6631857D01*
X11285143Y6703286D01*
X11213714Y6846143D01*
X11213714Y7274714D01*
X11285143Y7417571D01*
X11356571Y7489000D01*
X11499429Y7560429D01*
X11785143Y7560429D01*
X11928000Y7489000D01*
X13285143Y7560429D02*
X13285143Y6560429D01*
X12642286Y7560429D02*
X12642286Y6774714D01*
X12713714Y6631857D01*
X12856572Y6560429D01*
X13070857Y6560429D01*
X13213714Y6631857D01*
X13285143Y6703286D01*
X13999429Y6560429D02*
X13999429Y7560429D01*
X13999429Y8060429D02*
X13928000Y7989000D01*
X13999429Y7917571D01*
X14070857Y7989000D01*
X13999429Y8060429D01*
X13999429Y7917571D01*
X14713715Y7560429D02*
X14713715Y6560429D01*
X14713715Y7417571D02*
X14785143Y7489000D01*
X14928001Y7560429D01*
X15142286Y7560429D01*
X15285143Y7489000D01*
X15356572Y7346143D01*
X15356572Y6560429D01*
X16285144Y6560429D02*
X16142286Y6631857D01*
X16070858Y6703286D01*
X15999429Y6846143D01*
X15999429Y7274714D01*
X16070858Y7417571D01*
X16142286Y7489000D01*
X16285144Y7560429D01*
X16499429Y7560429D01*
X16642286Y7489000D01*
X16713715Y7417571D01*
X16785144Y7274714D01*
X16785144Y6846143D01*
X16713715Y6703286D01*
X16642286Y6631857D01*
X16499429Y6560429D01*
X16285144Y6560429D01*
X19285144Y6560429D02*
X18570858Y6560429D01*
X18570858Y8060429D01*
X19785144Y6560429D02*
X19785144Y7560429D01*
X19785144Y8060429D02*
X19713715Y7989000D01*
X19785144Y7917571D01*
X19856572Y7989000D01*
X19785144Y8060429D01*
X19785144Y7917571D01*
X20499430Y7560429D02*
X20499430Y6060429D01*
X20499430Y7489000D02*
X20642287Y7560429D01*
X20928001Y7560429D01*
X21070858Y7489000D01*
X21142287Y7417571D01*
X21213716Y7274714D01*
X21213716Y6846143D01*
X21142287Y6703286D01*
X21070858Y6631857D01*
X20928001Y6560429D01*
X20642287Y6560429D01*
X20499430Y6631857D01*
X22070859Y6560429D02*
X21928001Y6631857D01*
X21856573Y6703286D01*
X21785144Y6846143D01*
X21785144Y7274714D01*
X21856573Y7417571D01*
X21928001Y7489000D01*
X22070859Y7560429D01*
X22285144Y7560429D01*
X22428001Y7489000D01*
X22499430Y7417571D01*
X22570859Y7274714D01*
X22570859Y6846143D01*
X22499430Y6703286D01*
X22428001Y6631857D01*
X22285144Y6560429D01*
X22070859Y6560429D01*
X24285144Y6631857D02*
X24499430Y6560429D01*
X24856573Y6560429D01*
X24999430Y6631857D01*
X25070859Y6703286D01*
X25142287Y6846143D01*
X25142287Y6989000D01*
X25070859Y7131857D01*
X24999430Y7203286D01*
X24856573Y7274714D01*
X24570859Y7346143D01*
X24428001Y7417571D01*
X24356573Y7489000D01*
X24285144Y7631857D01*
X24285144Y7774714D01*
X24356573Y7917571D01*
X24428001Y7989000D01*
X24570859Y8060429D01*
X24928001Y8060429D01*
X25142287Y7989000D01*
X25570858Y7560429D02*
X26142287Y7560429D01*
X25785144Y8060429D02*
X25785144Y6774714D01*
X25856572Y6631857D01*
X25999430Y6560429D01*
X26142287Y6560429D01*
X26856573Y6560429D02*
X26713715Y6631857D01*
X26642287Y6703286D01*
X26570858Y6846143D01*
X26570858Y7274714D01*
X26642287Y7417571D01*
X26713715Y7489000D01*
X26856573Y7560429D01*
X27070858Y7560429D01*
X27213715Y7489000D01*
X27285144Y7417571D01*
X27356573Y7274714D01*
X27356573Y6846143D01*
X27285144Y6703286D01*
X27213715Y6631857D01*
X27070858Y6560429D01*
X26856573Y6560429D01*
X27999430Y6560429D02*
X27999430Y7560429D01*
X27999430Y7274714D02*
X28070858Y7417571D01*
X28142287Y7489000D01*
X28285144Y7560429D01*
X28428001Y7560429D01*
X29570858Y6560429D02*
X29570858Y7346143D01*
X29499429Y7489000D01*
X29356572Y7560429D01*
X29070858Y7560429D01*
X28928001Y7489000D01*
X29570858Y6631857D02*
X29428001Y6560429D01*
X29070858Y6560429D01*
X28928001Y6631857D01*
X28856572Y6774714D01*
X28856572Y6917571D01*
X28928001Y7060429D01*
X29070858Y7131857D01*
X29428001Y7131857D01*
X29570858Y7203286D01*
X30928001Y7560429D02*
X30928001Y6346143D01*
X30856572Y6203286D01*
X30785144Y6131857D01*
X30642287Y6060429D01*
X30428001Y6060429D01*
X30285144Y6131857D01*
X30928001Y6631857D02*
X30785144Y6560429D01*
X30499430Y6560429D01*
X30356572Y6631857D01*
X30285144Y6703286D01*
X30213715Y6846143D01*
X30213715Y7274714D01*
X30285144Y7417571D01*
X30356572Y7489000D01*
X30499430Y7560429D01*
X30785144Y7560429D01*
X30928001Y7489000D01*
X32213715Y6631857D02*
X32070858Y6560429D01*
X31785144Y6560429D01*
X31642287Y6631857D01*
X31570858Y6774714D01*
X31570858Y7346143D01*
X31642287Y7489000D01*
X31785144Y7560429D01*
X32070858Y7560429D01*
X32213715Y7489000D01*
X32285144Y7346143D01*
X32285144Y7203286D01*
X31570858Y7060429D01*
X34070858Y6560429D02*
X34070858Y8060429D01*
X34428001Y8060429D01*
X34642286Y7989000D01*
X34785144Y7846143D01*
X34856572Y7703286D01*
X34928001Y7417571D01*
X34928001Y7203286D01*
X34856572Y6917571D01*
X34785144Y6774714D01*
X34642286Y6631857D01*
X34428001Y6560429D01*
X34070858Y6560429D01*
X35570858Y6560429D02*
X35570858Y7560429D01*
X35570858Y8060429D02*
X35499429Y7989000D01*
X35570858Y7917571D01*
X35642286Y7989000D01*
X35570858Y8060429D01*
X35570858Y7917571D01*
X36213715Y6631857D02*
X36356572Y6560429D01*
X36642287Y6560429D01*
X36785144Y6631857D01*
X36856572Y6774714D01*
X36856572Y6846143D01*
X36785144Y6989000D01*
X36642287Y7060429D01*
X36428001Y7060429D01*
X36285144Y7131857D01*
X36213715Y7274714D01*
X36213715Y7346143D01*
X36285144Y7489000D01*
X36428001Y7560429D01*
X36642287Y7560429D01*
X36785144Y7489000D01*
X38142287Y6631857D02*
X37999430Y6560429D01*
X37713716Y6560429D01*
X37570858Y6631857D01*
X37499430Y6703286D01*
X37428001Y6846143D01*
X37428001Y7274714D01*
X37499430Y7417571D01*
X37570858Y7489000D01*
X37713716Y7560429D01*
X37999430Y7560429D01*
X38142287Y7489000D01*
X38785144Y6560429D02*
X38785144Y8060429D01*
X39428001Y6560429D02*
X39428001Y7346143D01*
X39356572Y7489000D01*
X39213715Y7560429D01*
X38999430Y7560429D01*
X38856572Y7489000D01*
X38785144Y7417571D01*
X40785144Y6560429D02*
X40785144Y7346143D01*
X40713715Y7489000D01*
X40570858Y7560429D01*
X40285144Y7560429D01*
X40142287Y7489000D01*
X40785144Y6631857D02*
X40642287Y6560429D01*
X40285144Y6560429D01*
X40142287Y6631857D01*
X40070858Y6774714D01*
X40070858Y6917571D01*
X40142287Y7060429D01*
X40285144Y7131857D01*
X40642287Y7131857D01*
X40785144Y7203286D01*
X41499430Y6560429D02*
X41499430Y7560429D01*
X41499430Y7274714D02*
X41570858Y7417571D01*
X41642287Y7489000D01*
X41785144Y7560429D01*
X41928001Y7560429D01*
X43070858Y7560429D02*
X43070858Y6346143D01*
X42999429Y6203286D01*
X42928001Y6131857D01*
X42785144Y6060429D01*
X42570858Y6060429D01*
X42428001Y6131857D01*
X43070858Y6631857D02*
X42928001Y6560429D01*
X42642287Y6560429D01*
X42499429Y6631857D01*
X42428001Y6703286D01*
X42356572Y6846143D01*
X42356572Y7274714D01*
X42428001Y7417571D01*
X42499429Y7489000D01*
X42642287Y7560429D01*
X42928001Y7560429D01*
X43070858Y7489000D01*
X44356572Y6631857D02*
X44213715Y6560429D01*
X43928001Y6560429D01*
X43785144Y6631857D01*
X43713715Y6774714D01*
X43713715Y7346143D01*
X43785144Y7489000D01*
X43928001Y7560429D01*
X44213715Y7560429D01*
X44356572Y7489000D01*
X44428001Y7346143D01*
X44428001Y7203286D01*
X43713715Y7060429D01*
X45070858Y6560429D02*
X45070858Y7560429D01*
X45070858Y7274714D02*
X45142286Y7417571D01*
X45213715Y7489000D01*
X45356572Y7560429D01*
X45499429Y7560429D01*
D13*
X9560000Y72830000D02*
X10760000Y72830000D01*
X10760000Y71080000D02*
X9560000Y71080000D01*
X54246214Y71955000D02*
G75*
G03X54246214Y71955000I-1414214J0D01*
G01*
X55832000Y75955000D02*
G75*
G03X55832000Y75955000I-1000000J0D01*
G01*
X58832000Y71955000D02*
G75*
G03X58832000Y71955000I-6000000J0D01*
G01*
X64270000Y76155000D02*
X64270000Y74885000D01*
X71620000Y76155000D02*
X71620000Y74885000D01*
X71620000Y53785000D02*
X71620000Y55055000D01*
X64270000Y53785000D02*
X64270000Y55055000D01*
X64270000Y76155000D02*
X71620000Y76155000D01*
X64270000Y53785000D02*
X71620000Y53785000D01*
X64270000Y74885000D02*
X62985000Y74885000D01*
D14*
X46355000Y94180000D02*
X89535000Y94180000D01*
X89535000Y94180000D02*
X89535000Y81480000D01*
X89535000Y81480000D02*
X46355000Y81480000D01*
X46355000Y81480000D02*
X46355000Y94180000D01*
X46355000Y86560000D02*
X47625000Y86560000D01*
X47625000Y86560000D02*
X47625000Y89100000D01*
X47625000Y89100000D02*
X46355000Y89100000D01*
D13*
X41503472Y78940000D02*
G75*
G03X41503472Y78940000I-2514472J0D01*
G01*
X25908000Y81480000D02*
X24130000Y81480000D01*
X25908000Y78940000D02*
X24130000Y78940000D01*
X25908000Y76400000D02*
X24130000Y76400000D01*
X34417000Y73606000D02*
X42418000Y73606000D01*
X42418000Y73606000D02*
X42418000Y84274000D01*
X42418000Y84274000D02*
X34417000Y84274000D01*
X25908000Y73606000D02*
X34417000Y73606000D01*
X34417000Y73606000D02*
X34417000Y84274000D01*
X34417000Y84274000D02*
X25908000Y84274000D01*
X25908000Y78940000D02*
X25908000Y84274000D01*
X25908000Y78940000D02*
X25908000Y73606000D01*
X9990000Y81515000D02*
X9990000Y81465000D01*
X14140000Y81515000D02*
X14140000Y81370000D01*
X14140000Y76365000D02*
X14140000Y76510000D01*
X9990000Y76365000D02*
X9990000Y76510000D01*
X9990000Y81515000D02*
X14140000Y81515000D01*
X9990000Y76365000D02*
X14140000Y76365000D01*
X9990000Y81465000D02*
X8590000Y81465000D01*
X55975000Y58700000D02*
G75*
G03X55975000Y58700000I-2000000J0D01*
G01*
X59975000Y63700000D02*
X59975000Y53700000D01*
X59975000Y53700000D02*
X47975000Y53700000D01*
X47975000Y53700000D02*
X47975000Y63700000D01*
X47975000Y63700000D02*
X59975000Y63700000D01*
X87030000Y56955000D02*
X88230000Y56955000D01*
X88230000Y55205000D02*
X87030000Y55205000D01*
X87030000Y61400000D02*
X88230000Y61400000D01*
X88230000Y59650000D02*
X87030000Y59650000D01*
X87030000Y65845000D02*
X88230000Y65845000D01*
X88230000Y64095000D02*
X87030000Y64095000D01*
X87030000Y70290000D02*
X88230000Y70290000D01*
X88230000Y68540000D02*
X87030000Y68540000D01*
X87030000Y74735000D02*
X88230000Y74735000D01*
X88230000Y72985000D02*
X87030000Y72985000D01*
X80045000Y56955000D02*
X81245000Y56955000D01*
X81245000Y55205000D02*
X80045000Y55205000D01*
X80045000Y61400000D02*
X81245000Y61400000D01*
X81245000Y59650000D02*
X80045000Y59650000D01*
X80045000Y65845000D02*
X81245000Y65845000D01*
X81245000Y64095000D02*
X80045000Y64095000D01*
X80045000Y70290000D02*
X81245000Y70290000D01*
X81245000Y68540000D02*
X80045000Y68540000D01*
X80045000Y74735000D02*
X81245000Y74735000D01*
X81245000Y72985000D02*
X80045000Y72985000D01*
X45050000Y95845000D02*
X43850000Y95845000D01*
X43850000Y97595000D02*
X45050000Y97595000D01*
X13843000Y68145000D02*
X12446000Y68145000D01*
X13843000Y65605000D02*
X12446000Y65605000D01*
X13843000Y63065000D02*
X12446000Y63065000D01*
X29438472Y65605000D02*
G75*
G03X29438472Y65605000I-2514472J0D01*
G01*
X22352000Y60271000D02*
X30353000Y60271000D01*
X30353000Y60271000D02*
X30353000Y70939000D01*
X30353000Y70939000D02*
X22352000Y70939000D01*
X13843000Y60271000D02*
X22352000Y60271000D01*
X22352000Y60271000D02*
X22352000Y70939000D01*
X22352000Y70939000D02*
X13843000Y70939000D01*
X13843000Y65605000D02*
X13843000Y70939000D01*
X13843000Y65605000D02*
X13843000Y60271000D01*
X96520000Y75765000D02*
X96520000Y60525000D01*
X96520000Y60525000D02*
X93980000Y60525000D01*
X93980000Y60525000D02*
X93980000Y75765000D01*
X96800000Y78585000D02*
X96800000Y77035000D01*
X96520000Y75765000D02*
X93980000Y75765000D01*
X93700000Y77035000D02*
X93700000Y78585000D01*
X93700000Y78585000D02*
X96800000Y78585000D01*
X27305000Y87576000D02*
X19685000Y87576000D01*
X27305000Y90116000D02*
X19685000Y90116000D01*
X30125000Y90396000D02*
X28575000Y90396000D01*
X19685000Y87576000D02*
X19685000Y90116000D01*
X27305000Y90116000D02*
X27305000Y87576000D01*
X28575000Y87296000D02*
X30125000Y87296000D01*
X30125000Y87296000D02*
X30125000Y90396000D01*
X34980112Y93925096D02*
G75*
G03X34965000Y96950000I2484888J1524904D01*
G01*
X34965000Y93950000D02*
X34965000Y96950000D01*
X39982936Y95450000D02*
G75*
G03X39982936Y95450000I-2517936J0D01*
G01*
X12953480Y84652460D02*
X11556480Y84652460D01*
X17398480Y84652460D02*
X18922480Y84652460D01*
X17017480Y83890460D02*
X17017480Y85414460D01*
X17271480Y83890460D02*
X17271480Y85414460D01*
X17525480Y84652460D02*
X17525480Y85414460D01*
X17525480Y85414460D02*
X12953480Y85414460D01*
X12953480Y85414460D02*
X12953480Y83890460D01*
X12953480Y83890460D02*
X17525480Y83890460D01*
X17525480Y83890460D02*
X17525480Y84652460D01*
X19820000Y72375000D02*
X20820000Y72375000D01*
X20820000Y74075000D02*
X19820000Y74075000D01*
X10502114Y94334394D02*
G75*
G03X16167100Y94332400I2832886J1115606D01*
G01*
X16167100Y96567600D02*
G75*
G03X10502900Y96567600I-2832100J-1117600D01*
G01*
X16637000Y92148000D02*
X16637000Y94332400D01*
X16637000Y98752000D02*
X16637000Y96567600D01*
X10033000Y92910000D02*
X10033000Y94332400D01*
X10033000Y97990000D02*
X10033000Y96567600D01*
X16637000Y92148000D02*
X10795000Y92148000D01*
X10795000Y92148000D02*
X10033000Y92910000D01*
X10033000Y97990000D02*
X10795000Y98752000D01*
X10795000Y98752000D02*
X16637000Y98752000D01*
X13708000Y89950000D02*
X12708000Y89950000D01*
X12708000Y88250000D02*
X13708000Y88250000D01*
X17565000Y78805000D02*
X17565000Y77805000D01*
X19265000Y77805000D02*
X19265000Y78805000D01*
X17565000Y27805000D02*
X17565000Y26805000D01*
X19265000Y26805000D02*
X19265000Y27805000D01*
X13708000Y38950000D02*
X12708000Y38950000D01*
X12708000Y37250000D02*
X13708000Y37250000D01*
X10502114Y43334394D02*
G75*
G03X16167100Y43332400I2832886J1115606D01*
G01*
X16167100Y45567600D02*
G75*
G03X10502900Y45567600I-2832100J-1117600D01*
G01*
X16637000Y41148000D02*
X16637000Y43332400D01*
X16637000Y47752000D02*
X16637000Y45567600D01*
X10033000Y41910000D02*
X10033000Y43332400D01*
X10033000Y46990000D02*
X10033000Y45567600D01*
X16637000Y41148000D02*
X10795000Y41148000D01*
X10795000Y41148000D02*
X10033000Y41910000D01*
X10033000Y46990000D02*
X10795000Y47752000D01*
X10795000Y47752000D02*
X16637000Y47752000D01*
X19820000Y21375000D02*
X20820000Y21375000D01*
X20820000Y23075000D02*
X19820000Y23075000D01*
X12953480Y33652460D02*
X11556480Y33652460D01*
X17398480Y33652460D02*
X18922480Y33652460D01*
X17017480Y32890460D02*
X17017480Y34414460D01*
X17271480Y32890460D02*
X17271480Y34414460D01*
X17525480Y33652460D02*
X17525480Y34414460D01*
X17525480Y34414460D02*
X12953480Y34414460D01*
X12953480Y34414460D02*
X12953480Y32890460D01*
X12953480Y32890460D02*
X17525480Y32890460D01*
X17525480Y32890460D02*
X17525480Y33652460D01*
X34980112Y42925096D02*
G75*
G03X34965000Y45950000I2484888J1524904D01*
G01*
X34965000Y42950000D02*
X34965000Y45950000D01*
X39982936Y44450000D02*
G75*
G03X39982936Y44450000I-2517936J0D01*
G01*
X27305000Y36576000D02*
X19685000Y36576000D01*
X27305000Y39116000D02*
X19685000Y39116000D01*
X30125000Y39396000D02*
X28575000Y39396000D01*
X19685000Y36576000D02*
X19685000Y39116000D01*
X27305000Y39116000D02*
X27305000Y36576000D01*
X28575000Y36296000D02*
X30125000Y36296000D01*
X30125000Y36296000D02*
X30125000Y39396000D01*
X96520000Y24765000D02*
X96520000Y9525000D01*
X96520000Y9525000D02*
X93980000Y9525000D01*
X93980000Y9525000D02*
X93980000Y24765000D01*
X96800000Y27585000D02*
X96800000Y26035000D01*
X96520000Y24765000D02*
X93980000Y24765000D01*
X93700000Y26035000D02*
X93700000Y27585000D01*
X93700000Y27585000D02*
X96800000Y27585000D01*
X13843000Y17145000D02*
X12446000Y17145000D01*
X13843000Y14605000D02*
X12446000Y14605000D01*
X13843000Y12065000D02*
X12446000Y12065000D01*
X29438472Y14605000D02*
G75*
G03X29438472Y14605000I-2514472J0D01*
G01*
X22352000Y9271000D02*
X30353000Y9271000D01*
X30353000Y9271000D02*
X30353000Y19939000D01*
X30353000Y19939000D02*
X22352000Y19939000D01*
X13843000Y9271000D02*
X22352000Y9271000D01*
X22352000Y9271000D02*
X22352000Y19939000D01*
X22352000Y19939000D02*
X13843000Y19939000D01*
X13843000Y14605000D02*
X13843000Y19939000D01*
X13843000Y14605000D02*
X13843000Y9271000D01*
X45050000Y44845000D02*
X43850000Y44845000D01*
X43850000Y46595000D02*
X45050000Y46595000D01*
X80045000Y23735000D02*
X81245000Y23735000D01*
X81245000Y21985000D02*
X80045000Y21985000D01*
X80045000Y19290000D02*
X81245000Y19290000D01*
X81245000Y17540000D02*
X80045000Y17540000D01*
X80045000Y14845000D02*
X81245000Y14845000D01*
X81245000Y13095000D02*
X80045000Y13095000D01*
X80045000Y10400000D02*
X81245000Y10400000D01*
X81245000Y8650000D02*
X80045000Y8650000D01*
X80045000Y5955000D02*
X81245000Y5955000D01*
X81245000Y4205000D02*
X80045000Y4205000D01*
X87030000Y23735000D02*
X88230000Y23735000D01*
X88230000Y21985000D02*
X87030000Y21985000D01*
X87030000Y19290000D02*
X88230000Y19290000D01*
X88230000Y17540000D02*
X87030000Y17540000D01*
X87030000Y14845000D02*
X88230000Y14845000D01*
X88230000Y13095000D02*
X87030000Y13095000D01*
X87030000Y10400000D02*
X88230000Y10400000D01*
X88230000Y8650000D02*
X87030000Y8650000D01*
X87030000Y5955000D02*
X88230000Y5955000D01*
X88230000Y4205000D02*
X87030000Y4205000D01*
X55975000Y7700000D02*
G75*
G03X55975000Y7700000I-2000000J0D01*
G01*
X59975000Y12700000D02*
X59975000Y2700000D01*
X59975000Y2700000D02*
X47975000Y2700000D01*
X47975000Y2700000D02*
X47975000Y12700000D01*
X47975000Y12700000D02*
X59975000Y12700000D01*
X9990000Y30515000D02*
X9990000Y30465000D01*
X14140000Y30515000D02*
X14140000Y30370000D01*
X14140000Y25365000D02*
X14140000Y25510000D01*
X9990000Y25365000D02*
X9990000Y25510000D01*
X9990000Y30515000D02*
X14140000Y30515000D01*
X9990000Y25365000D02*
X14140000Y25365000D01*
X9990000Y30465000D02*
X8590000Y30465000D01*
X41503472Y27940000D02*
G75*
G03X41503472Y27940000I-2514472J0D01*
G01*
X25908000Y30480000D02*
X24130000Y30480000D01*
X25908000Y27940000D02*
X24130000Y27940000D01*
X25908000Y25400000D02*
X24130000Y25400000D01*
X34417000Y22606000D02*
X42418000Y22606000D01*
X42418000Y22606000D02*
X42418000Y33274000D01*
X42418000Y33274000D02*
X34417000Y33274000D01*
X25908000Y22606000D02*
X34417000Y22606000D01*
X34417000Y22606000D02*
X34417000Y33274000D01*
X34417000Y33274000D02*
X25908000Y33274000D01*
X25908000Y27940000D02*
X25908000Y33274000D01*
X25908000Y27940000D02*
X25908000Y22606000D01*
D14*
X46355000Y43180000D02*
X89535000Y43180000D01*
X89535000Y43180000D02*
X89535000Y30480000D01*
X89535000Y30480000D02*
X46355000Y30480000D01*
X46355000Y30480000D02*
X46355000Y43180000D01*
X46355000Y35560000D02*
X47625000Y35560000D01*
X47625000Y35560000D02*
X47625000Y38100000D01*
X47625000Y38100000D02*
X46355000Y38100000D01*
D13*
X64270000Y25155000D02*
X64270000Y23885000D01*
X71620000Y25155000D02*
X71620000Y23885000D01*
X71620000Y2785000D02*
X71620000Y4055000D01*
X64270000Y2785000D02*
X64270000Y4055000D01*
X64270000Y25155000D02*
X71620000Y25155000D01*
X64270000Y2785000D02*
X71620000Y2785000D01*
X64270000Y23885000D02*
X62985000Y23885000D01*
X54246214Y20955000D02*
G75*
G03X54246214Y20955000I-1414214J0D01*
G01*
X55832000Y24955000D02*
G75*
G03X55832000Y24955000I-1000000J0D01*
G01*
X58832000Y20955000D02*
G75*
G03X58832000Y20955000I-6000000J0D01*
G01*
X9560000Y21830000D02*
X10760000Y21830000D01*
X10760000Y20080000D02*
X9560000Y20080000D01*
X93623000Y85789857D02*
X93575381Y85742238D01*
X93432524Y85694619D01*
X93337286Y85694619D01*
X93194428Y85742238D01*
X93099190Y85837476D01*
X93051571Y85932714D01*
X93003952Y86123190D01*
X93003952Y86266048D01*
X93051571Y86456524D01*
X93099190Y86551762D01*
X93194428Y86647000D01*
X93337286Y86694619D01*
X93432524Y86694619D01*
X93575381Y86647000D01*
X93623000Y86599381D01*
X94432524Y85742238D02*
X94337286Y85694619D01*
X94146809Y85694619D01*
X94051571Y85742238D01*
X94003952Y85837476D01*
X94003952Y86218429D01*
X94051571Y86313667D01*
X94146809Y86361286D01*
X94337286Y86361286D01*
X94432524Y86313667D01*
X94480143Y86218429D01*
X94480143Y86123190D01*
X94003952Y86027952D01*
X95051571Y85694619D02*
X94956333Y85742238D01*
X94908714Y85837476D01*
X94908714Y86694619D01*
X95575381Y85694619D02*
X95480143Y85742238D01*
X95432524Y85837476D01*
X95432524Y86694619D01*
X95718239Y85599381D02*
X96480144Y85599381D01*
X97242049Y85694619D02*
X96670620Y85694619D01*
X96956334Y85694619D02*
X96956334Y86694619D01*
X96861096Y86551762D01*
X96765858Y86456524D01*
X96670620Y86408905D01*
X86106096Y53278000D02*
X86010858Y53325619D01*
X85868001Y53325619D01*
X85725143Y53278000D01*
X85629905Y53182762D01*
X85582286Y53087524D01*
X85534667Y52897048D01*
X85534667Y52754190D01*
X85582286Y52563714D01*
X85629905Y52468476D01*
X85725143Y52373238D01*
X85868001Y52325619D01*
X85963239Y52325619D01*
X86106096Y52373238D01*
X86153715Y52420857D01*
X86153715Y52754190D01*
X85963239Y52754190D01*
X86582286Y52325619D02*
X86582286Y53325619D01*
X87153715Y52325619D01*
X87153715Y53325619D01*
X87629905Y52325619D02*
X87629905Y53325619D01*
X87868000Y53325619D01*
X88010858Y53278000D01*
X88106096Y53182762D01*
X88153715Y53087524D01*
X88201334Y52897048D01*
X88201334Y52754190D01*
X88153715Y52563714D01*
X88106096Y52468476D01*
X88010858Y52373238D01*
X87868000Y52325619D01*
X87629905Y52325619D01*
X9517143Y73153619D02*
X9183809Y73629810D01*
X8945714Y73153619D02*
X8945714Y74153619D01*
X9326667Y74153619D01*
X9421905Y74106000D01*
X9469524Y74058381D01*
X9517143Y73963143D01*
X9517143Y73820286D01*
X9469524Y73725048D01*
X9421905Y73677429D01*
X9326667Y73629810D01*
X8945714Y73629810D01*
X10469524Y73153619D02*
X9898095Y73153619D01*
X10183809Y73153619D02*
X10183809Y74153619D01*
X10088571Y74010762D01*
X9993333Y73915524D01*
X9898095Y73867905D01*
X10850476Y74058381D02*
X10898095Y74106000D01*
X10993333Y74153619D01*
X11231429Y74153619D01*
X11326667Y74106000D01*
X11374286Y74058381D01*
X11421905Y73963143D01*
X11421905Y73867905D01*
X11374286Y73725048D01*
X10802857Y73153619D01*
X11421905Y73153619D01*
X8548905Y70756381D02*
X8596524Y70804000D01*
X8691762Y70851619D01*
X8929858Y70851619D01*
X9025096Y70804000D01*
X9072715Y70756381D01*
X9120334Y70661143D01*
X9120334Y70565905D01*
X9072715Y70423048D01*
X8501286Y69851619D01*
X9120334Y69851619D01*
X9739381Y70851619D02*
X9834620Y70851619D01*
X9929858Y70804000D01*
X9977477Y70756381D01*
X10025096Y70661143D01*
X10072715Y70470667D01*
X10072715Y70232571D01*
X10025096Y70042095D01*
X9977477Y69946857D01*
X9929858Y69899238D01*
X9834620Y69851619D01*
X9739381Y69851619D01*
X9644143Y69899238D01*
X9596524Y69946857D01*
X9548905Y70042095D01*
X9501286Y70232571D01*
X9501286Y70470667D01*
X9548905Y70661143D01*
X9596524Y70756381D01*
X9644143Y70804000D01*
X9739381Y70851619D01*
X10691762Y70851619D02*
X10787001Y70851619D01*
X10882239Y70804000D01*
X10929858Y70756381D01*
X10977477Y70661143D01*
X11025096Y70470667D01*
X11025096Y70232571D01*
X10977477Y70042095D01*
X10929858Y69946857D01*
X10882239Y69899238D01*
X10787001Y69851619D01*
X10691762Y69851619D01*
X10596524Y69899238D01*
X10548905Y69946857D01*
X10501286Y70042095D01*
X10453667Y70232571D01*
X10453667Y70470667D01*
X10501286Y70661143D01*
X10548905Y70756381D01*
X10596524Y70804000D01*
X10691762Y70851619D01*
X12025096Y69851619D02*
X11691762Y70327810D01*
X11453667Y69851619D02*
X11453667Y70851619D01*
X11834620Y70851619D01*
X11929858Y70804000D01*
X11977477Y70756381D01*
X12025096Y70661143D01*
X12025096Y70518286D01*
X11977477Y70423048D01*
X11929858Y70375429D01*
X11834620Y70327810D01*
X11453667Y70327810D01*
X6278571Y59802858D02*
X6326190Y59945715D01*
X6373810Y59993334D01*
X6469048Y60040953D01*
X6611905Y60040953D01*
X6707143Y59993334D01*
X6754762Y59945715D01*
X6802381Y59850477D01*
X6802381Y59469524D01*
X5802381Y59469524D01*
X5802381Y59802858D01*
X5850000Y59898096D01*
X5897619Y59945715D01*
X5992857Y59993334D01*
X6088095Y59993334D01*
X6183333Y59945715D01*
X6230952Y59898096D01*
X6278571Y59802858D01*
X6278571Y59469524D01*
X6516667Y60421905D02*
X6516667Y60898096D01*
X6802381Y60326667D02*
X5802381Y60660000D01*
X6802381Y60993334D01*
X5802381Y61183810D02*
X5802381Y61755239D01*
X6802381Y61469524D02*
X5802381Y61469524D01*
X6421429Y62088572D02*
X6421429Y62850477D01*
X6802381Y65113096D02*
X6802381Y64636905D01*
X5802381Y64636905D01*
X5802381Y65636905D02*
X5802381Y65827382D01*
X5850000Y65922620D01*
X5945238Y66017858D01*
X6135714Y66065477D01*
X6469048Y66065477D01*
X6659524Y66017858D01*
X6754762Y65922620D01*
X6802381Y65827382D01*
X6802381Y65636905D01*
X6754762Y65541667D01*
X6659524Y65446429D01*
X6469048Y65398810D01*
X6135714Y65398810D01*
X5945238Y65446429D01*
X5850000Y65541667D01*
X5802381Y65636905D01*
X6516667Y66446429D02*
X6516667Y66922620D01*
X6802381Y66351191D02*
X5802381Y66684524D01*
X6802381Y67017858D01*
X6802381Y67351191D02*
X5802381Y67351191D01*
X5802381Y67589286D01*
X5850000Y67732144D01*
X5945238Y67827382D01*
X6040476Y67875001D01*
X6230952Y67922620D01*
X6373810Y67922620D01*
X6564286Y67875001D01*
X6659524Y67827382D01*
X6754762Y67732144D01*
X6802381Y67589286D01*
X6802381Y67351191D01*
X6421429Y68351191D02*
X6421429Y69113096D01*
X6278571Y81464286D02*
X6326190Y81607143D01*
X6373810Y81654762D01*
X6469048Y81702381D01*
X6611905Y81702381D01*
X6707143Y81654762D01*
X6754762Y81607143D01*
X6802381Y81511905D01*
X6802381Y81130952D01*
X5802381Y81130952D01*
X5802381Y81464286D01*
X5850000Y81559524D01*
X5897619Y81607143D01*
X5992857Y81654762D01*
X6088095Y81654762D01*
X6183333Y81607143D01*
X6230952Y81559524D01*
X6278571Y81464286D01*
X6278571Y81130952D01*
X6802381Y82559524D02*
X6278571Y82559524D01*
X6183333Y82511905D01*
X6135714Y82416667D01*
X6135714Y82226190D01*
X6183333Y82130952D01*
X6754762Y82559524D02*
X6802381Y82464286D01*
X6802381Y82226190D01*
X6754762Y82130952D01*
X6659524Y82083333D01*
X6564286Y82083333D01*
X6469048Y82130952D01*
X6421429Y82226190D01*
X6421429Y82464286D01*
X6373810Y82559524D01*
X6135714Y82892857D02*
X6135714Y83273809D01*
X5802381Y83035714D02*
X6659524Y83035714D01*
X6754762Y83083333D01*
X6802381Y83178571D01*
X6802381Y83273809D01*
X6421429Y83607143D02*
X6421429Y84369048D01*
X6802381Y83988096D02*
X6040476Y83988096D01*
X6802381Y74638096D02*
X6802381Y74161905D01*
X5802381Y74161905D01*
X5802381Y75161905D02*
X5802381Y75352382D01*
X5850000Y75447620D01*
X5945238Y75542858D01*
X6135714Y75590477D01*
X6469048Y75590477D01*
X6659524Y75542858D01*
X6754762Y75447620D01*
X6802381Y75352382D01*
X6802381Y75161905D01*
X6754762Y75066667D01*
X6659524Y74971429D01*
X6469048Y74923810D01*
X6135714Y74923810D01*
X5945238Y74971429D01*
X5850000Y75066667D01*
X5802381Y75161905D01*
X6516667Y75971429D02*
X6516667Y76447620D01*
X6802381Y75876191D02*
X5802381Y76209524D01*
X6802381Y76542858D01*
X6802381Y76876191D02*
X5802381Y76876191D01*
X5802381Y77114286D01*
X5850000Y77257144D01*
X5945238Y77352382D01*
X6040476Y77400001D01*
X6230952Y77447620D01*
X6373810Y77447620D01*
X6564286Y77400001D01*
X6659524Y77352382D01*
X6754762Y77257144D01*
X6802381Y77114286D01*
X6802381Y76876191D01*
X6421429Y77876191D02*
X6421429Y78638096D01*
X6802381Y78257144D02*
X6040476Y78257144D01*
X46228095Y76566619D02*
X46228095Y75757095D01*
X46275714Y75661857D01*
X46323333Y75614238D01*
X46418571Y75566619D01*
X46609048Y75566619D01*
X46704286Y75614238D01*
X46751905Y75661857D01*
X46799524Y75757095D01*
X46799524Y76566619D01*
X47704286Y76233286D02*
X47704286Y75566619D01*
X47466190Y76614238D02*
X47228095Y75899952D01*
X47847143Y75899952D01*
X49585571Y70407429D02*
X49633190Y70550286D01*
X49680810Y70597905D01*
X49776048Y70645524D01*
X49918905Y70645524D01*
X50014143Y70597905D01*
X50061762Y70550286D01*
X50109381Y70455048D01*
X50109381Y70074095D01*
X49109381Y70074095D01*
X49109381Y70407429D01*
X49157000Y70502667D01*
X49204619Y70550286D01*
X49299857Y70597905D01*
X49395095Y70597905D01*
X49490333Y70550286D01*
X49537952Y70502667D01*
X49585571Y70407429D01*
X49585571Y70074095D01*
X49442714Y71502667D02*
X50109381Y71502667D01*
X49442714Y71074095D02*
X49966524Y71074095D01*
X50061762Y71121714D01*
X50109381Y71216952D01*
X50109381Y71359810D01*
X50061762Y71455048D01*
X50014143Y71502667D01*
X49442714Y71883619D02*
X49442714Y72407429D01*
X50109381Y71883619D01*
X50109381Y72407429D01*
X49442714Y72693143D02*
X49442714Y73216953D01*
X50109381Y72693143D01*
X50109381Y73216953D01*
X50061762Y73978858D02*
X50109381Y73883620D01*
X50109381Y73693143D01*
X50061762Y73597905D01*
X49966524Y73550286D01*
X49585571Y73550286D01*
X49490333Y73597905D01*
X49442714Y73693143D01*
X49442714Y73883620D01*
X49490333Y73978858D01*
X49585571Y74026477D01*
X49680810Y74026477D01*
X49776048Y73550286D01*
X50109381Y74455048D02*
X49442714Y74455048D01*
X49633190Y74455048D02*
X49537952Y74502667D01*
X49490333Y74550286D01*
X49442714Y74645524D01*
X49442714Y74740763D01*
X54903429Y75574048D02*
X54903429Y76335953D01*
X55284381Y75955001D02*
X54522476Y75955001D01*
X62992095Y77582619D02*
X62992095Y76773095D01*
X63039714Y76677857D01*
X63087333Y76630238D01*
X63182571Y76582619D01*
X63373048Y76582619D01*
X63468286Y76630238D01*
X63515905Y76677857D01*
X63563524Y76773095D01*
X63563524Y77582619D01*
X64515905Y77582619D02*
X64039714Y77582619D01*
X63992095Y77106429D01*
X64039714Y77154048D01*
X64134952Y77201667D01*
X64373048Y77201667D01*
X64468286Y77154048D01*
X64515905Y77106429D01*
X64563524Y77011190D01*
X64563524Y76773095D01*
X64515905Y76677857D01*
X64468286Y76630238D01*
X64373048Y76582619D01*
X64134952Y76582619D01*
X64039714Y76630238D01*
X63992095Y76677857D01*
D15*
X53890333Y92613667D02*
X53890333Y91174333D01*
X53975000Y91005000D01*
X54059667Y90920333D01*
X54229000Y90835667D01*
X54567667Y90835667D01*
X54737000Y90920333D01*
X54821667Y91005000D01*
X54906333Y91174333D01*
X54906333Y92613667D01*
X55583667Y92613667D02*
X56684334Y92613667D01*
X56091667Y91936333D01*
X56345667Y91936333D01*
X56515000Y91851667D01*
X56599667Y91767000D01*
X56684334Y91597667D01*
X56684334Y91174333D01*
X56599667Y91005000D01*
X56515000Y90920333D01*
X56345667Y90835667D01*
X55837667Y90835667D01*
X55668334Y90920333D01*
X55583667Y91005000D01*
X61256331Y83850667D02*
X61256331Y84782000D01*
X61171665Y84951333D01*
X61002331Y85036000D01*
X60663665Y85036000D01*
X60494331Y84951333D01*
X61256331Y83935333D02*
X61086998Y83850667D01*
X60663665Y83850667D01*
X60494331Y83935333D01*
X60409665Y84104667D01*
X60409665Y84274000D01*
X60494331Y84443333D01*
X60663665Y84528000D01*
X61086998Y84528000D01*
X61256331Y84612667D01*
X62102998Y83850667D02*
X62102998Y85036000D01*
X62102998Y84697333D02*
X62187665Y84866667D01*
X62272332Y84951333D01*
X62441665Y85036000D01*
X62610998Y85036000D01*
X63965665Y83850667D02*
X63965665Y85628667D01*
X63965665Y83935333D02*
X63796332Y83850667D01*
X63457665Y83850667D01*
X63288332Y83935333D01*
X63203665Y84020000D01*
X63118999Y84189333D01*
X63118999Y84697333D01*
X63203665Y84866667D01*
X63288332Y84951333D01*
X63457665Y85036000D01*
X63796332Y85036000D01*
X63965665Y84951333D01*
X65574332Y85036000D02*
X65574332Y83850667D01*
X64812332Y85036000D02*
X64812332Y84104667D01*
X64896999Y83935333D01*
X65066332Y83850667D01*
X65320332Y83850667D01*
X65489666Y83935333D01*
X65574332Y84020000D01*
X66420999Y83850667D02*
X66420999Y85036000D01*
X66420999Y85628667D02*
X66336333Y85544000D01*
X66420999Y85459333D01*
X66505666Y85544000D01*
X66420999Y85628667D01*
X66420999Y85459333D01*
X67267666Y85036000D02*
X67267666Y83850667D01*
X67267666Y84866667D02*
X67352333Y84951333D01*
X67521666Y85036000D01*
X67775666Y85036000D01*
X67945000Y84951333D01*
X68029666Y84782000D01*
X68029666Y83850667D01*
X69130333Y83850667D02*
X68961000Y83935333D01*
X68876333Y84020000D01*
X68791667Y84189333D01*
X68791667Y84697333D01*
X68876333Y84866667D01*
X68961000Y84951333D01*
X69130333Y85036000D01*
X69384333Y85036000D01*
X69553667Y84951333D01*
X69638333Y84866667D01*
X69723000Y84697333D01*
X69723000Y84189333D01*
X69638333Y84020000D01*
X69553667Y83935333D01*
X69384333Y83850667D01*
X69130333Y83850667D01*
X70061667Y83681333D02*
X71416334Y83681333D01*
X71839667Y83850667D02*
X71839667Y85036000D01*
X71839667Y84866667D02*
X71924334Y84951333D01*
X72093667Y85036000D01*
X72347667Y85036000D01*
X72517001Y84951333D01*
X72601667Y84782000D01*
X72601667Y83850667D01*
X72601667Y84782000D02*
X72686334Y84951333D01*
X72855667Y85036000D01*
X73109667Y85036000D01*
X73279001Y84951333D01*
X73363667Y84782000D01*
X73363667Y83850667D01*
X74210334Y83850667D02*
X74210334Y85036000D01*
X74210334Y85628667D02*
X74125668Y85544000D01*
X74210334Y85459333D01*
X74295001Y85544000D01*
X74210334Y85628667D01*
X74210334Y85459333D01*
X75057001Y85036000D02*
X75057001Y83850667D01*
X75057001Y84866667D02*
X75141668Y84951333D01*
X75311001Y85036000D01*
X75565001Y85036000D01*
X75734335Y84951333D01*
X75819001Y84782000D01*
X75819001Y83850667D01*
X76665668Y83850667D02*
X76665668Y85036000D01*
X76665668Y85628667D02*
X76581002Y85544000D01*
X76665668Y85459333D01*
X76750335Y85544000D01*
X76665668Y85628667D01*
X76665668Y85459333D01*
D13*
X40132095Y85583619D02*
X40132095Y84774095D01*
X40179714Y84678857D01*
X40227333Y84631238D01*
X40322571Y84583619D01*
X40513048Y84583619D01*
X40608286Y84631238D01*
X40655905Y84678857D01*
X40703524Y84774095D01*
X40703524Y85583619D01*
X41132095Y85488381D02*
X41179714Y85536000D01*
X41274952Y85583619D01*
X41513048Y85583619D01*
X41608286Y85536000D01*
X41655905Y85488381D01*
X41703524Y85393143D01*
X41703524Y85297905D01*
X41655905Y85155048D01*
X41084476Y84583619D01*
X41703524Y84583619D01*
X28464095Y75042619D02*
X29130762Y75042619D01*
X28702190Y74042619D01*
X29654571Y74614048D02*
X29559333Y74661667D01*
X29511714Y74709286D01*
X29464095Y74804524D01*
X29464095Y74852143D01*
X29511714Y74947381D01*
X29559333Y74995000D01*
X29654571Y75042619D01*
X29845048Y75042619D01*
X29940286Y74995000D01*
X29987905Y74947381D01*
X30035524Y74852143D01*
X30035524Y74804524D01*
X29987905Y74709286D01*
X29940286Y74661667D01*
X29845048Y74614048D01*
X29654571Y74614048D01*
X29559333Y74566429D01*
X29511714Y74518810D01*
X29464095Y74423571D01*
X29464095Y74233095D01*
X29511714Y74137857D01*
X29559333Y74090238D01*
X29654571Y74042619D01*
X29845048Y74042619D01*
X29940286Y74090238D01*
X29987905Y74137857D01*
X30035524Y74233095D01*
X30035524Y74423571D01*
X29987905Y74518810D01*
X29940286Y74566429D01*
X29845048Y74614048D01*
X30654571Y75042619D02*
X30749810Y75042619D01*
X30845048Y74995000D01*
X30892667Y74947381D01*
X30940286Y74852143D01*
X30987905Y74661667D01*
X30987905Y74423571D01*
X30940286Y74233095D01*
X30892667Y74137857D01*
X30845048Y74090238D01*
X30749810Y74042619D01*
X30654571Y74042619D01*
X30559333Y74090238D01*
X30511714Y74137857D01*
X30464095Y74233095D01*
X30416476Y74423571D01*
X30416476Y74661667D01*
X30464095Y74852143D01*
X30511714Y74947381D01*
X30559333Y74995000D01*
X30654571Y75042619D01*
X31892667Y75042619D02*
X31416476Y75042619D01*
X31368857Y74566429D01*
X31416476Y74614048D01*
X31511714Y74661667D01*
X31749810Y74661667D01*
X31845048Y74614048D01*
X31892667Y74566429D01*
X31940286Y74471190D01*
X31940286Y74233095D01*
X31892667Y74137857D01*
X31845048Y74090238D01*
X31749810Y74042619D01*
X31511714Y74042619D01*
X31416476Y74090238D01*
X31368857Y74137857D01*
X9652095Y82916619D02*
X9652095Y82107095D01*
X9699714Y82011857D01*
X9747333Y81964238D01*
X9842571Y81916619D01*
X10033048Y81916619D01*
X10128286Y81964238D01*
X10175905Y82011857D01*
X10223524Y82107095D01*
X10223524Y82916619D01*
X11223524Y81916619D02*
X10652095Y81916619D01*
X10937809Y81916619D02*
X10937809Y82916619D01*
X10842571Y82773762D01*
X10747333Y82678524D01*
X10652095Y82630905D01*
X9422143Y75273333D02*
X9898334Y75273333D01*
X9326905Y74987619D02*
X9660238Y75987619D01*
X9993572Y74987619D01*
X10898334Y75082857D02*
X10850715Y75035238D01*
X10707858Y74987619D01*
X10612620Y74987619D01*
X10469762Y75035238D01*
X10374524Y75130476D01*
X10326905Y75225714D01*
X10279286Y75416190D01*
X10279286Y75559048D01*
X10326905Y75749524D01*
X10374524Y75844762D01*
X10469762Y75940000D01*
X10612620Y75987619D01*
X10707858Y75987619D01*
X10850715Y75940000D01*
X10898334Y75892381D01*
X11279286Y75035238D02*
X11422143Y74987619D01*
X11660239Y74987619D01*
X11755477Y75035238D01*
X11803096Y75082857D01*
X11850715Y75178095D01*
X11850715Y75273333D01*
X11803096Y75368571D01*
X11755477Y75416190D01*
X11660239Y75463810D01*
X11469762Y75511429D01*
X11374524Y75559048D01*
X11326905Y75606667D01*
X11279286Y75701905D01*
X11279286Y75797143D01*
X11326905Y75892381D01*
X11374524Y75940000D01*
X11469762Y75987619D01*
X11707858Y75987619D01*
X11850715Y75940000D01*
X12184048Y75987619D02*
X12850715Y75987619D01*
X12422143Y74987619D01*
X13755477Y74987619D02*
X13184048Y74987619D01*
X13469762Y74987619D02*
X13469762Y75987619D01*
X13374524Y75844762D01*
X13279286Y75749524D01*
X13184048Y75701905D01*
X14136429Y75892381D02*
X14184048Y75940000D01*
X14279286Y75987619D01*
X14517382Y75987619D01*
X14612620Y75940000D01*
X14660239Y75892381D01*
X14707858Y75797143D01*
X14707858Y75701905D01*
X14660239Y75559048D01*
X14088810Y74987619D01*
X14707858Y74987619D01*
X48553762Y64136619D02*
X48220428Y64612810D01*
X47982333Y64136619D02*
X47982333Y65136619D01*
X48363286Y65136619D01*
X48458524Y65089000D01*
X48506143Y65041381D01*
X48553762Y64946143D01*
X48553762Y64803286D01*
X48506143Y64708048D01*
X48458524Y64660429D01*
X48363286Y64612810D01*
X47982333Y64612810D01*
X48839476Y65136619D02*
X49172809Y64136619D01*
X49506143Y65136619D01*
X50363286Y64136619D02*
X49791857Y64136619D01*
X50077571Y64136619D02*
X50077571Y65136619D01*
X49982333Y64993762D01*
X49887095Y64898524D01*
X49791857Y64850905D01*
X52808333Y54357619D02*
X52808333Y55357619D01*
X53189286Y55357619D01*
X53284524Y55310000D01*
X53332143Y55262381D01*
X53379762Y55167143D01*
X53379762Y55024286D01*
X53332143Y54929048D01*
X53284524Y54881429D01*
X53189286Y54833810D01*
X52808333Y54833810D01*
X53998809Y55357619D02*
X54189286Y55357619D01*
X54284524Y55310000D01*
X54379762Y55214762D01*
X54427381Y55024286D01*
X54427381Y54690952D01*
X54379762Y54500476D01*
X54284524Y54405238D01*
X54189286Y54357619D01*
X53998809Y54357619D01*
X53903571Y54405238D01*
X53808333Y54500476D01*
X53760714Y54690952D01*
X53760714Y55024286D01*
X53808333Y55214762D01*
X53903571Y55310000D01*
X53998809Y55357619D01*
X54713095Y55357619D02*
X55284524Y55357619D01*
X54998809Y54357619D02*
X54998809Y55357619D01*
X85082143Y57532619D02*
X84748809Y58008810D01*
X84510714Y57532619D02*
X84510714Y58532619D01*
X84891667Y58532619D01*
X84986905Y58485000D01*
X85034524Y58437381D01*
X85082143Y58342143D01*
X85082143Y58199286D01*
X85034524Y58104048D01*
X84986905Y58056429D01*
X84891667Y58008810D01*
X84510714Y58008810D01*
X86034524Y57532619D02*
X85463095Y57532619D01*
X85748809Y57532619D02*
X85748809Y58532619D01*
X85653571Y58389762D01*
X85558333Y58294524D01*
X85463095Y58246905D01*
X86986905Y57532619D02*
X86415476Y57532619D01*
X86701190Y57532619D02*
X86701190Y58532619D01*
X86605952Y58389762D01*
X86510714Y58294524D01*
X86415476Y58246905D01*
X88463572Y57532619D02*
X87892143Y57532619D01*
X88177857Y57532619D02*
X88177857Y58532619D01*
X88082619Y58389762D01*
X87987381Y58294524D01*
X87892143Y58246905D01*
X89082619Y58532619D02*
X89177858Y58532619D01*
X89273096Y58485000D01*
X89320715Y58437381D01*
X89368334Y58342143D01*
X89415953Y58151667D01*
X89415953Y57913571D01*
X89368334Y57723095D01*
X89320715Y57627857D01*
X89273096Y57580238D01*
X89177858Y57532619D01*
X89082619Y57532619D01*
X88987381Y57580238D01*
X88939762Y57627857D01*
X88892143Y57723095D01*
X88844524Y57913571D01*
X88844524Y58151667D01*
X88892143Y58342143D01*
X88939762Y58437381D01*
X88987381Y58485000D01*
X89082619Y58532619D01*
X90035000Y58532619D02*
X90130239Y58532619D01*
X90225477Y58485000D01*
X90273096Y58437381D01*
X90320715Y58342143D01*
X90368334Y58151667D01*
X90368334Y57913571D01*
X90320715Y57723095D01*
X90273096Y57627857D01*
X90225477Y57580238D01*
X90130239Y57532619D01*
X90035000Y57532619D01*
X89939762Y57580238D01*
X89892143Y57627857D01*
X89844524Y57723095D01*
X89796905Y57913571D01*
X89796905Y58151667D01*
X89844524Y58342143D01*
X89892143Y58437381D01*
X89939762Y58485000D01*
X90035000Y58532619D01*
X90796905Y57532619D02*
X90796905Y58532619D01*
X90892143Y57913571D02*
X91177858Y57532619D01*
X91177858Y58199286D02*
X90796905Y57818333D01*
X85082143Y61977619D02*
X84748809Y62453810D01*
X84510714Y61977619D02*
X84510714Y62977619D01*
X84891667Y62977619D01*
X84986905Y62930000D01*
X85034524Y62882381D01*
X85082143Y62787143D01*
X85082143Y62644286D01*
X85034524Y62549048D01*
X84986905Y62501429D01*
X84891667Y62453810D01*
X84510714Y62453810D01*
X86034524Y61977619D02*
X85463095Y61977619D01*
X85748809Y61977619D02*
X85748809Y62977619D01*
X85653571Y62834762D01*
X85558333Y62739524D01*
X85463095Y62691905D01*
X86653571Y62977619D02*
X86748810Y62977619D01*
X86844048Y62930000D01*
X86891667Y62882381D01*
X86939286Y62787143D01*
X86986905Y62596667D01*
X86986905Y62358571D01*
X86939286Y62168095D01*
X86891667Y62072857D01*
X86844048Y62025238D01*
X86748810Y61977619D01*
X86653571Y61977619D01*
X86558333Y62025238D01*
X86510714Y62072857D01*
X86463095Y62168095D01*
X86415476Y62358571D01*
X86415476Y62596667D01*
X86463095Y62787143D01*
X86510714Y62882381D01*
X86558333Y62930000D01*
X86653571Y62977619D01*
X88463572Y61977619D02*
X87892143Y61977619D01*
X88177857Y61977619D02*
X88177857Y62977619D01*
X88082619Y62834762D01*
X87987381Y62739524D01*
X87892143Y62691905D01*
X89082619Y62977619D02*
X89177858Y62977619D01*
X89273096Y62930000D01*
X89320715Y62882381D01*
X89368334Y62787143D01*
X89415953Y62596667D01*
X89415953Y62358571D01*
X89368334Y62168095D01*
X89320715Y62072857D01*
X89273096Y62025238D01*
X89177858Y61977619D01*
X89082619Y61977619D01*
X88987381Y62025238D01*
X88939762Y62072857D01*
X88892143Y62168095D01*
X88844524Y62358571D01*
X88844524Y62596667D01*
X88892143Y62787143D01*
X88939762Y62882381D01*
X88987381Y62930000D01*
X89082619Y62977619D01*
X90035000Y62977619D02*
X90130239Y62977619D01*
X90225477Y62930000D01*
X90273096Y62882381D01*
X90320715Y62787143D01*
X90368334Y62596667D01*
X90368334Y62358571D01*
X90320715Y62168095D01*
X90273096Y62072857D01*
X90225477Y62025238D01*
X90130239Y61977619D01*
X90035000Y61977619D01*
X89939762Y62025238D01*
X89892143Y62072857D01*
X89844524Y62168095D01*
X89796905Y62358571D01*
X89796905Y62596667D01*
X89844524Y62787143D01*
X89892143Y62882381D01*
X89939762Y62930000D01*
X90035000Y62977619D01*
X90796905Y61977619D02*
X90796905Y62977619D01*
X90892143Y62358571D02*
X91177858Y61977619D01*
X91177858Y62644286D02*
X90796905Y62263333D01*
X85608334Y66467619D02*
X85275000Y66943810D01*
X85036905Y66467619D02*
X85036905Y67467619D01*
X85417858Y67467619D01*
X85513096Y67420000D01*
X85560715Y67372381D01*
X85608334Y67277143D01*
X85608334Y67134286D01*
X85560715Y67039048D01*
X85513096Y66991429D01*
X85417858Y66943810D01*
X85036905Y66943810D01*
X86084524Y66467619D02*
X86275000Y66467619D01*
X86370239Y66515238D01*
X86417858Y66562857D01*
X86513096Y66705714D01*
X86560715Y66896190D01*
X86560715Y67277143D01*
X86513096Y67372381D01*
X86465477Y67420000D01*
X86370239Y67467619D01*
X86179762Y67467619D01*
X86084524Y67420000D01*
X86036905Y67372381D01*
X85989286Y67277143D01*
X85989286Y67039048D01*
X86036905Y66943810D01*
X86084524Y66896190D01*
X86179762Y66848571D01*
X86370239Y66848571D01*
X86465477Y66896190D01*
X86513096Y66943810D01*
X86560715Y67039048D01*
X88513572Y66467619D02*
X87942143Y66467619D01*
X88227857Y66467619D02*
X88227857Y67467619D01*
X88132619Y67324762D01*
X88037381Y67229524D01*
X87942143Y67181905D01*
X89132619Y67467619D02*
X89227858Y67467619D01*
X89323096Y67420000D01*
X89370715Y67372381D01*
X89418334Y67277143D01*
X89465953Y67086667D01*
X89465953Y66848571D01*
X89418334Y66658095D01*
X89370715Y66562857D01*
X89323096Y66515238D01*
X89227858Y66467619D01*
X89132619Y66467619D01*
X89037381Y66515238D01*
X88989762Y66562857D01*
X88942143Y66658095D01*
X88894524Y66848571D01*
X88894524Y67086667D01*
X88942143Y67277143D01*
X88989762Y67372381D01*
X89037381Y67420000D01*
X89132619Y67467619D01*
X90085000Y67467619D02*
X90180239Y67467619D01*
X90275477Y67420000D01*
X90323096Y67372381D01*
X90370715Y67277143D01*
X90418334Y67086667D01*
X90418334Y66848571D01*
X90370715Y66658095D01*
X90323096Y66562857D01*
X90275477Y66515238D01*
X90180239Y66467619D01*
X90085000Y66467619D01*
X89989762Y66515238D01*
X89942143Y66562857D01*
X89894524Y66658095D01*
X89846905Y66848571D01*
X89846905Y67086667D01*
X89894524Y67277143D01*
X89942143Y67372381D01*
X89989762Y67420000D01*
X90085000Y67467619D01*
X90846905Y66467619D02*
X90846905Y67467619D01*
X90942143Y66848571D02*
X91227858Y66467619D01*
X91227858Y67134286D02*
X90846905Y66753333D01*
X85558334Y70867619D02*
X85225000Y71343810D01*
X84986905Y70867619D02*
X84986905Y71867619D01*
X85367858Y71867619D01*
X85463096Y71820000D01*
X85510715Y71772381D01*
X85558334Y71677143D01*
X85558334Y71534286D01*
X85510715Y71439048D01*
X85463096Y71391429D01*
X85367858Y71343810D01*
X84986905Y71343810D01*
X86129762Y71439048D02*
X86034524Y71486667D01*
X85986905Y71534286D01*
X85939286Y71629524D01*
X85939286Y71677143D01*
X85986905Y71772381D01*
X86034524Y71820000D01*
X86129762Y71867619D01*
X86320239Y71867619D01*
X86415477Y71820000D01*
X86463096Y71772381D01*
X86510715Y71677143D01*
X86510715Y71629524D01*
X86463096Y71534286D01*
X86415477Y71486667D01*
X86320239Y71439048D01*
X86129762Y71439048D01*
X86034524Y71391429D01*
X85986905Y71343810D01*
X85939286Y71248571D01*
X85939286Y71058095D01*
X85986905Y70962857D01*
X86034524Y70915238D01*
X86129762Y70867619D01*
X86320239Y70867619D01*
X86415477Y70915238D01*
X86463096Y70962857D01*
X86510715Y71058095D01*
X86510715Y71248571D01*
X86463096Y71343810D01*
X86415477Y71391429D01*
X86320239Y71439048D01*
X88463572Y70867619D02*
X87892143Y70867619D01*
X88177857Y70867619D02*
X88177857Y71867619D01*
X88082619Y71724762D01*
X87987381Y71629524D01*
X87892143Y71581905D01*
X89082619Y71867619D02*
X89177858Y71867619D01*
X89273096Y71820000D01*
X89320715Y71772381D01*
X89368334Y71677143D01*
X89415953Y71486667D01*
X89415953Y71248571D01*
X89368334Y71058095D01*
X89320715Y70962857D01*
X89273096Y70915238D01*
X89177858Y70867619D01*
X89082619Y70867619D01*
X88987381Y70915238D01*
X88939762Y70962857D01*
X88892143Y71058095D01*
X88844524Y71248571D01*
X88844524Y71486667D01*
X88892143Y71677143D01*
X88939762Y71772381D01*
X88987381Y71820000D01*
X89082619Y71867619D01*
X90035000Y71867619D02*
X90130239Y71867619D01*
X90225477Y71820000D01*
X90273096Y71772381D01*
X90320715Y71677143D01*
X90368334Y71486667D01*
X90368334Y71248571D01*
X90320715Y71058095D01*
X90273096Y70962857D01*
X90225477Y70915238D01*
X90130239Y70867619D01*
X90035000Y70867619D01*
X89939762Y70915238D01*
X89892143Y70962857D01*
X89844524Y71058095D01*
X89796905Y71248571D01*
X89796905Y71486667D01*
X89844524Y71677143D01*
X89892143Y71772381D01*
X89939762Y71820000D01*
X90035000Y71867619D01*
X90796905Y70867619D02*
X90796905Y71867619D01*
X90892143Y71248571D02*
X91177858Y70867619D01*
X91177858Y71534286D02*
X90796905Y71153333D01*
X85558334Y75312619D02*
X85225000Y75788810D01*
X84986905Y75312619D02*
X84986905Y76312619D01*
X85367858Y76312619D01*
X85463096Y76265000D01*
X85510715Y76217381D01*
X85558334Y76122143D01*
X85558334Y75979286D01*
X85510715Y75884048D01*
X85463096Y75836429D01*
X85367858Y75788810D01*
X84986905Y75788810D01*
X85891667Y76312619D02*
X86558334Y76312619D01*
X86129762Y75312619D01*
X88463572Y75312619D02*
X87892143Y75312619D01*
X88177857Y75312619D02*
X88177857Y76312619D01*
X88082619Y76169762D01*
X87987381Y76074524D01*
X87892143Y76026905D01*
X89082619Y76312619D02*
X89177858Y76312619D01*
X89273096Y76265000D01*
X89320715Y76217381D01*
X89368334Y76122143D01*
X89415953Y75931667D01*
X89415953Y75693571D01*
X89368334Y75503095D01*
X89320715Y75407857D01*
X89273096Y75360238D01*
X89177858Y75312619D01*
X89082619Y75312619D01*
X88987381Y75360238D01*
X88939762Y75407857D01*
X88892143Y75503095D01*
X88844524Y75693571D01*
X88844524Y75931667D01*
X88892143Y76122143D01*
X88939762Y76217381D01*
X88987381Y76265000D01*
X89082619Y76312619D01*
X90035000Y76312619D02*
X90130239Y76312619D01*
X90225477Y76265000D01*
X90273096Y76217381D01*
X90320715Y76122143D01*
X90368334Y75931667D01*
X90368334Y75693571D01*
X90320715Y75503095D01*
X90273096Y75407857D01*
X90225477Y75360238D01*
X90130239Y75312619D01*
X90035000Y75312619D01*
X89939762Y75360238D01*
X89892143Y75407857D01*
X89844524Y75503095D01*
X89796905Y75693571D01*
X89796905Y75931667D01*
X89844524Y76122143D01*
X89892143Y76217381D01*
X89939762Y76265000D01*
X90035000Y76312619D01*
X90796905Y75312619D02*
X90796905Y76312619D01*
X90892143Y75693571D02*
X91177858Y75312619D01*
X91177858Y75979286D02*
X90796905Y75598333D01*
X77938334Y57532619D02*
X77605000Y58008810D01*
X77366905Y57532619D02*
X77366905Y58532619D01*
X77747858Y58532619D01*
X77843096Y58485000D01*
X77890715Y58437381D01*
X77938334Y58342143D01*
X77938334Y58199286D01*
X77890715Y58104048D01*
X77843096Y58056429D01*
X77747858Y58008810D01*
X77366905Y58008810D01*
X78795477Y58532619D02*
X78605000Y58532619D01*
X78509762Y58485000D01*
X78462143Y58437381D01*
X78366905Y58294524D01*
X78319286Y58104048D01*
X78319286Y57723095D01*
X78366905Y57627857D01*
X78414524Y57580238D01*
X78509762Y57532619D01*
X78700239Y57532619D01*
X78795477Y57580238D01*
X78843096Y57627857D01*
X78890715Y57723095D01*
X78890715Y57961190D01*
X78843096Y58056429D01*
X78795477Y58104048D01*
X78700239Y58151667D01*
X78509762Y58151667D01*
X78414524Y58104048D01*
X78366905Y58056429D01*
X78319286Y57961190D01*
X80748333Y58437381D02*
X80795952Y58485000D01*
X80891190Y58532619D01*
X81129286Y58532619D01*
X81224524Y58485000D01*
X81272143Y58437381D01*
X81319762Y58342143D01*
X81319762Y58246905D01*
X81272143Y58104048D01*
X80700714Y57532619D01*
X81319762Y57532619D01*
X81700714Y58437381D02*
X81748333Y58485000D01*
X81843571Y58532619D01*
X82081667Y58532619D01*
X82176905Y58485000D01*
X82224524Y58437381D01*
X82272143Y58342143D01*
X82272143Y58246905D01*
X82224524Y58104048D01*
X81653095Y57532619D01*
X82272143Y57532619D01*
X82700714Y57532619D02*
X82700714Y58532619D01*
X82795952Y57913571D02*
X83081667Y57532619D01*
X83081667Y58199286D02*
X82700714Y57818333D01*
X77938334Y61977619D02*
X77605000Y62453810D01*
X77366905Y61977619D02*
X77366905Y62977619D01*
X77747858Y62977619D01*
X77843096Y62930000D01*
X77890715Y62882381D01*
X77938334Y62787143D01*
X77938334Y62644286D01*
X77890715Y62549048D01*
X77843096Y62501429D01*
X77747858Y62453810D01*
X77366905Y62453810D01*
X78843096Y62977619D02*
X78366905Y62977619D01*
X78319286Y62501429D01*
X78366905Y62549048D01*
X78462143Y62596667D01*
X78700239Y62596667D01*
X78795477Y62549048D01*
X78843096Y62501429D01*
X78890715Y62406190D01*
X78890715Y62168095D01*
X78843096Y62072857D01*
X78795477Y62025238D01*
X78700239Y61977619D01*
X78462143Y61977619D01*
X78366905Y62025238D01*
X78319286Y62072857D01*
X80748333Y62882381D02*
X80795952Y62930000D01*
X80891190Y62977619D01*
X81129286Y62977619D01*
X81224524Y62930000D01*
X81272143Y62882381D01*
X81319762Y62787143D01*
X81319762Y62691905D01*
X81272143Y62549048D01*
X80700714Y61977619D01*
X81319762Y61977619D01*
X81653095Y62977619D02*
X82319762Y62977619D01*
X81891190Y61977619D01*
X82700714Y61977619D02*
X82700714Y62977619D01*
X82795952Y62358571D02*
X83081667Y61977619D01*
X83081667Y62644286D02*
X82700714Y62263333D01*
X78003334Y66467619D02*
X77670000Y66943810D01*
X77431905Y66467619D02*
X77431905Y67467619D01*
X77812858Y67467619D01*
X77908096Y67420000D01*
X77955715Y67372381D01*
X78003334Y67277143D01*
X78003334Y67134286D01*
X77955715Y67039048D01*
X77908096Y66991429D01*
X77812858Y66943810D01*
X77431905Y66943810D01*
X78860477Y67134286D02*
X78860477Y66467619D01*
X78622381Y67515238D02*
X78384286Y66800952D01*
X79003334Y66800952D01*
X80765714Y67467619D02*
X81384762Y67467619D01*
X81051428Y67086667D01*
X81194286Y67086667D01*
X81289524Y67039048D01*
X81337143Y66991429D01*
X81384762Y66896190D01*
X81384762Y66658095D01*
X81337143Y66562857D01*
X81289524Y66515238D01*
X81194286Y66467619D01*
X80908571Y66467619D01*
X80813333Y66515238D01*
X80765714Y66562857D01*
X82241905Y67467619D02*
X82051428Y67467619D01*
X81956190Y67420000D01*
X81908571Y67372381D01*
X81813333Y67229524D01*
X81765714Y67039048D01*
X81765714Y66658095D01*
X81813333Y66562857D01*
X81860952Y66515238D01*
X81956190Y66467619D01*
X82146667Y66467619D01*
X82241905Y66515238D01*
X82289524Y66562857D01*
X82337143Y66658095D01*
X82337143Y66896190D01*
X82289524Y66991429D01*
X82241905Y67039048D01*
X82146667Y67086667D01*
X81956190Y67086667D01*
X81860952Y67039048D01*
X81813333Y66991429D01*
X81765714Y66896190D01*
X82765714Y66467619D02*
X82765714Y67467619D01*
X82860952Y66848571D02*
X83146667Y66467619D01*
X83146667Y67134286D02*
X82765714Y66753333D01*
X77938334Y70867619D02*
X77605000Y71343810D01*
X77366905Y70867619D02*
X77366905Y71867619D01*
X77747858Y71867619D01*
X77843096Y71820000D01*
X77890715Y71772381D01*
X77938334Y71677143D01*
X77938334Y71534286D01*
X77890715Y71439048D01*
X77843096Y71391429D01*
X77747858Y71343810D01*
X77366905Y71343810D01*
X78271667Y71867619D02*
X78890715Y71867619D01*
X78557381Y71486667D01*
X78700239Y71486667D01*
X78795477Y71439048D01*
X78843096Y71391429D01*
X78890715Y71296190D01*
X78890715Y71058095D01*
X78843096Y70962857D01*
X78795477Y70915238D01*
X78700239Y70867619D01*
X78414524Y70867619D01*
X78319286Y70915238D01*
X78271667Y70962857D01*
X81272143Y71867619D02*
X80795952Y71867619D01*
X80748333Y71391429D01*
X80795952Y71439048D01*
X80891190Y71486667D01*
X81129286Y71486667D01*
X81224524Y71439048D01*
X81272143Y71391429D01*
X81319762Y71296190D01*
X81319762Y71058095D01*
X81272143Y70962857D01*
X81224524Y70915238D01*
X81129286Y70867619D01*
X80891190Y70867619D01*
X80795952Y70915238D01*
X80748333Y70962857D01*
X82176905Y71867619D02*
X81986428Y71867619D01*
X81891190Y71820000D01*
X81843571Y71772381D01*
X81748333Y71629524D01*
X81700714Y71439048D01*
X81700714Y71058095D01*
X81748333Y70962857D01*
X81795952Y70915238D01*
X81891190Y70867619D01*
X82081667Y70867619D01*
X82176905Y70915238D01*
X82224524Y70962857D01*
X82272143Y71058095D01*
X82272143Y71296190D01*
X82224524Y71391429D01*
X82176905Y71439048D01*
X82081667Y71486667D01*
X81891190Y71486667D01*
X81795952Y71439048D01*
X81748333Y71391429D01*
X81700714Y71296190D01*
X82700714Y70867619D02*
X82700714Y71867619D01*
X82795952Y71248571D02*
X83081667Y70867619D01*
X83081667Y71534286D02*
X82700714Y71153333D01*
X77938334Y75312619D02*
X77605000Y75788810D01*
X77366905Y75312619D02*
X77366905Y76312619D01*
X77747858Y76312619D01*
X77843096Y76265000D01*
X77890715Y76217381D01*
X77938334Y76122143D01*
X77938334Y75979286D01*
X77890715Y75884048D01*
X77843096Y75836429D01*
X77747858Y75788810D01*
X77366905Y75788810D01*
X78319286Y76217381D02*
X78366905Y76265000D01*
X78462143Y76312619D01*
X78700239Y76312619D01*
X78795477Y76265000D01*
X78843096Y76217381D01*
X78890715Y76122143D01*
X78890715Y76026905D01*
X78843096Y75884048D01*
X78271667Y75312619D01*
X78890715Y75312619D01*
X80208572Y75312619D02*
X79637143Y75312619D01*
X79922857Y75312619D02*
X79922857Y76312619D01*
X79827619Y76169762D01*
X79732381Y76074524D01*
X79637143Y76026905D01*
X80589524Y76217381D02*
X80637143Y76265000D01*
X80732381Y76312619D01*
X80970477Y76312619D01*
X81065715Y76265000D01*
X81113334Y76217381D01*
X81160953Y76122143D01*
X81160953Y76026905D01*
X81113334Y75884048D01*
X80541905Y75312619D01*
X81160953Y75312619D01*
X81780000Y76312619D02*
X81875239Y76312619D01*
X81970477Y76265000D01*
X82018096Y76217381D01*
X82065715Y76122143D01*
X82113334Y75931667D01*
X82113334Y75693571D01*
X82065715Y75503095D01*
X82018096Y75407857D01*
X81970477Y75360238D01*
X81875239Y75312619D01*
X81780000Y75312619D01*
X81684762Y75360238D01*
X81637143Y75407857D01*
X81589524Y75503095D01*
X81541905Y75693571D01*
X81541905Y75931667D01*
X81589524Y76122143D01*
X81637143Y76217381D01*
X81684762Y76265000D01*
X81780000Y76312619D01*
X82541905Y75312619D02*
X82541905Y76312619D01*
X82637143Y75693571D02*
X82922858Y75312619D01*
X82922858Y75979286D02*
X82541905Y75598333D01*
X44283334Y98045619D02*
X43950000Y98521810D01*
X43711905Y98045619D02*
X43711905Y99045619D01*
X44092858Y99045619D01*
X44188096Y98998000D01*
X44235715Y98950381D01*
X44283334Y98855143D01*
X44283334Y98712286D01*
X44235715Y98617048D01*
X44188096Y98569429D01*
X44092858Y98521810D01*
X43711905Y98521810D01*
X45235715Y98045619D02*
X44664286Y98045619D01*
X44950000Y98045619D02*
X44950000Y99045619D01*
X44854762Y98902762D01*
X44759524Y98807524D01*
X44664286Y98759905D01*
X42330905Y95267381D02*
X42378524Y95315000D01*
X42473762Y95362619D01*
X42711858Y95362619D01*
X42807096Y95315000D01*
X42854715Y95267381D01*
X42902334Y95172143D01*
X42902334Y95076905D01*
X42854715Y94934048D01*
X42283286Y94362619D01*
X42902334Y94362619D01*
X43521381Y95362619D02*
X43616620Y95362619D01*
X43711858Y95315000D01*
X43759477Y95267381D01*
X43807096Y95172143D01*
X43854715Y94981667D01*
X43854715Y94743571D01*
X43807096Y94553095D01*
X43759477Y94457857D01*
X43711858Y94410238D01*
X43616620Y94362619D01*
X43521381Y94362619D01*
X43426143Y94410238D01*
X43378524Y94457857D01*
X43330905Y94553095D01*
X43283286Y94743571D01*
X43283286Y94981667D01*
X43330905Y95172143D01*
X43378524Y95267381D01*
X43426143Y95315000D01*
X43521381Y95362619D01*
X44473762Y95362619D02*
X44569001Y95362619D01*
X44664239Y95315000D01*
X44711858Y95267381D01*
X44759477Y95172143D01*
X44807096Y94981667D01*
X44807096Y94743571D01*
X44759477Y94553095D01*
X44711858Y94457857D01*
X44664239Y94410238D01*
X44569001Y94362619D01*
X44473762Y94362619D01*
X44378524Y94410238D01*
X44330905Y94457857D01*
X44283286Y94553095D01*
X44235667Y94743571D01*
X44235667Y94981667D01*
X44283286Y95172143D01*
X44330905Y95267381D01*
X44378524Y95315000D01*
X44473762Y95362619D01*
X45807096Y94362619D02*
X45473762Y94838810D01*
X45235667Y94362619D02*
X45235667Y95362619D01*
X45616620Y95362619D01*
X45711858Y95315000D01*
X45759477Y95267381D01*
X45807096Y95172143D01*
X45807096Y95029286D01*
X45759477Y94934048D01*
X45711858Y94886429D01*
X45616620Y94838810D01*
X45235667Y94838810D01*
X28479762Y71153381D02*
X28384524Y71201000D01*
X28289286Y71296238D01*
X28146429Y71439095D01*
X28051190Y71486714D01*
X27955952Y71486714D01*
X28003571Y71248619D02*
X27908333Y71296238D01*
X27813095Y71391476D01*
X27765476Y71581952D01*
X27765476Y71915286D01*
X27813095Y72105762D01*
X27908333Y72201000D01*
X28003571Y72248619D01*
X28194048Y72248619D01*
X28289286Y72201000D01*
X28384524Y72105762D01*
X28432143Y71915286D01*
X28432143Y71581952D01*
X28384524Y71391476D01*
X28289286Y71296238D01*
X28194048Y71248619D01*
X28003571Y71248619D01*
X29384524Y71248619D02*
X28813095Y71248619D01*
X29098809Y71248619D02*
X29098809Y72248619D01*
X29003571Y72105762D01*
X28908333Y72010524D01*
X28813095Y71962905D01*
X14648095Y60942619D02*
X14648095Y61942619D01*
X15029048Y61942619D01*
X15124286Y61895000D01*
X15171905Y61847381D01*
X15219524Y61752143D01*
X15219524Y61609286D01*
X15171905Y61514048D01*
X15124286Y61466429D01*
X15029048Y61418810D01*
X14648095Y61418810D01*
X15600476Y60990238D02*
X15743333Y60942619D01*
X15981429Y60942619D01*
X16076667Y60990238D01*
X16124286Y61037857D01*
X16171905Y61133095D01*
X16171905Y61228333D01*
X16124286Y61323571D01*
X16076667Y61371190D01*
X15981429Y61418810D01*
X15790952Y61466429D01*
X15695714Y61514048D01*
X15648095Y61561667D01*
X15600476Y61656905D01*
X15600476Y61752143D01*
X15648095Y61847381D01*
X15695714Y61895000D01*
X15790952Y61942619D01*
X16029048Y61942619D01*
X16171905Y61895000D01*
X16600476Y60942619D02*
X16600476Y61942619D01*
X16933810Y61228333D01*
X17267143Y61942619D01*
X17267143Y60942619D01*
X17743333Y60942619D02*
X17743333Y61942619D01*
X18314762Y60942619D01*
X18314762Y61942619D01*
X19219524Y61609286D02*
X19219524Y60942619D01*
X18981428Y61990238D02*
X18743333Y61275952D01*
X19362381Y61275952D01*
X20314762Y60942619D02*
X19981428Y61418810D01*
X19743333Y60942619D02*
X19743333Y61942619D01*
X20124286Y61942619D01*
X20219524Y61895000D01*
X20267143Y61847381D01*
X20314762Y61752143D01*
X20314762Y61609286D01*
X20267143Y61514048D01*
X20219524Y61466429D01*
X20124286Y61418810D01*
X19743333Y61418810D01*
X20648095Y61942619D02*
X21267143Y61942619D01*
X20933809Y61561667D01*
X21076667Y61561667D01*
X21171905Y61514048D01*
X21219524Y61466429D01*
X21267143Y61371190D01*
X21267143Y61133095D01*
X21219524Y61037857D01*
X21171905Y60990238D01*
X21076667Y60942619D01*
X20790952Y60942619D01*
X20695714Y60990238D01*
X20648095Y61037857D01*
X21695714Y61323571D02*
X22457619Y61323571D01*
X22838571Y61942619D02*
X23457619Y61942619D01*
X23124285Y61561667D01*
X23267143Y61561667D01*
X23362381Y61514048D01*
X23410000Y61466429D01*
X23457619Y61371190D01*
X23457619Y61133095D01*
X23410000Y61037857D01*
X23362381Y60990238D01*
X23267143Y60942619D01*
X22981428Y60942619D01*
X22886190Y60990238D01*
X22838571Y61037857D01*
X24076666Y61942619D02*
X24171905Y61942619D01*
X24267143Y61895000D01*
X24314762Y61847381D01*
X24362381Y61752143D01*
X24410000Y61561667D01*
X24410000Y61323571D01*
X24362381Y61133095D01*
X24314762Y61037857D01*
X24267143Y60990238D01*
X24171905Y60942619D01*
X24076666Y60942619D01*
X23981428Y60990238D01*
X23933809Y61037857D01*
X23886190Y61133095D01*
X23838571Y61323571D01*
X23838571Y61561667D01*
X23886190Y61752143D01*
X23933809Y61847381D01*
X23981428Y61895000D01*
X24076666Y61942619D01*
X24838571Y60942619D02*
X24838571Y61942619D01*
X25219524Y61942619D01*
X25314762Y61895000D01*
X25362381Y61847381D01*
X25410000Y61752143D01*
X25410000Y61609286D01*
X25362381Y61514048D01*
X25314762Y61466429D01*
X25219524Y61418810D01*
X24838571Y61418810D01*
X26314762Y60942619D02*
X25838571Y60942619D01*
X25838571Y61942619D01*
X94511905Y79757619D02*
X94511905Y80757619D01*
X94892858Y80757619D01*
X94988096Y80710000D01*
X95035715Y80662381D01*
X95083334Y80567143D01*
X95083334Y80424286D01*
X95035715Y80329048D01*
X94988096Y80281429D01*
X94892858Y80233810D01*
X94511905Y80233810D01*
X95464286Y80662381D02*
X95511905Y80710000D01*
X95607143Y80757619D01*
X95845239Y80757619D01*
X95940477Y80710000D01*
X95988096Y80662381D01*
X96035715Y80567143D01*
X96035715Y80471905D01*
X95988096Y80329048D01*
X95416667Y79757619D01*
X96035715Y79757619D01*
X92912143Y66041191D02*
X92959762Y65993572D01*
X93007381Y65850715D01*
X93007381Y65755477D01*
X92959762Y65612619D01*
X92864524Y65517381D01*
X92769286Y65469762D01*
X92578810Y65422143D01*
X92435952Y65422143D01*
X92245476Y65469762D01*
X92150238Y65517381D01*
X92055000Y65612619D01*
X92007381Y65755477D01*
X92007381Y65850715D01*
X92055000Y65993572D01*
X92102619Y66041191D01*
X92007381Y66660238D02*
X92007381Y66850715D01*
X92055000Y66945953D01*
X92150238Y67041191D01*
X92340714Y67088810D01*
X92674048Y67088810D01*
X92864524Y67041191D01*
X92959762Y66945953D01*
X93007381Y66850715D01*
X93007381Y66660238D01*
X92959762Y66565000D01*
X92864524Y66469762D01*
X92674048Y66422143D01*
X92340714Y66422143D01*
X92150238Y66469762D01*
X92055000Y66565000D01*
X92007381Y66660238D01*
X93007381Y67517381D02*
X92007381Y67517381D01*
X93007381Y68088810D01*
X92007381Y68088810D01*
X93007381Y68565000D02*
X92007381Y68565000D01*
X93007381Y69136429D01*
X92007381Y69136429D01*
X93102619Y69374524D02*
X93102619Y70136429D01*
X92007381Y70565000D02*
X92007381Y70660239D01*
X92055000Y70755477D01*
X92102619Y70803096D01*
X92197857Y70850715D01*
X92388333Y70898334D01*
X92626429Y70898334D01*
X92816905Y70850715D01*
X92912143Y70803096D01*
X92959762Y70755477D01*
X93007381Y70660239D01*
X93007381Y70565000D01*
X92959762Y70469762D01*
X92912143Y70422143D01*
X92816905Y70374524D01*
X92626429Y70326905D01*
X92388333Y70326905D01*
X92197857Y70374524D01*
X92102619Y70422143D01*
X92055000Y70469762D01*
X92007381Y70565000D01*
X93007381Y71850715D02*
X93007381Y71279286D01*
X93007381Y71565000D02*
X92007381Y71565000D01*
X92150238Y71469762D01*
X92245476Y71374524D01*
X92293095Y71279286D01*
X92007381Y72184048D02*
X93007381Y72850715D01*
X92007381Y72850715D02*
X93007381Y72184048D01*
X92007381Y73422143D02*
X92007381Y73517382D01*
X92055000Y73612620D01*
X92102619Y73660239D01*
X92197857Y73707858D01*
X92388333Y73755477D01*
X92626429Y73755477D01*
X92816905Y73707858D01*
X92912143Y73660239D01*
X92959762Y73612620D01*
X93007381Y73517382D01*
X93007381Y73422143D01*
X92959762Y73326905D01*
X92912143Y73279286D01*
X92816905Y73231667D01*
X92626429Y73184048D01*
X92388333Y73184048D01*
X92197857Y73231667D01*
X92102619Y73279286D01*
X92055000Y73326905D01*
X92007381Y73422143D01*
X92007381Y74088810D02*
X92007381Y74755477D01*
X93007381Y74326905D01*
X31011905Y88393619D02*
X31011905Y89393619D01*
X31392858Y89393619D01*
X31488096Y89346000D01*
X31535715Y89298381D01*
X31583334Y89203143D01*
X31583334Y89060286D01*
X31535715Y88965048D01*
X31488096Y88917429D01*
X31392858Y88869810D01*
X31011905Y88869810D01*
X32535715Y88393619D02*
X31964286Y88393619D01*
X32250000Y88393619D02*
X32250000Y89393619D01*
X32154762Y89250762D01*
X32059524Y89155524D01*
X31964286Y89107905D01*
X21447381Y85328619D02*
X21447381Y86328619D01*
X21685476Y86328619D01*
X21828334Y86281000D01*
X21923572Y86185762D01*
X21971191Y86090524D01*
X22018810Y85900048D01*
X22018810Y85757190D01*
X21971191Y85566714D01*
X21923572Y85471476D01*
X21828334Y85376238D01*
X21685476Y85328619D01*
X21447381Y85328619D01*
X22447381Y85328619D02*
X22447381Y85995286D01*
X22447381Y86328619D02*
X22399762Y86281000D01*
X22447381Y86233381D01*
X22495000Y86281000D01*
X22447381Y86328619D01*
X22447381Y86233381D01*
X22875952Y85376238D02*
X22971190Y85328619D01*
X23161666Y85328619D01*
X23256905Y85376238D01*
X23304524Y85471476D01*
X23304524Y85519095D01*
X23256905Y85614333D01*
X23161666Y85661952D01*
X23018809Y85661952D01*
X22923571Y85709571D01*
X22875952Y85804810D01*
X22875952Y85852429D01*
X22923571Y85947667D01*
X23018809Y85995286D01*
X23161666Y85995286D01*
X23256905Y85947667D01*
X23733095Y85995286D02*
X23733095Y84995286D01*
X23733095Y85947667D02*
X23828333Y85995286D01*
X24018810Y85995286D01*
X24114048Y85947667D01*
X24161667Y85900048D01*
X24209286Y85804810D01*
X24209286Y85519095D01*
X24161667Y85423857D01*
X24114048Y85376238D01*
X24018810Y85328619D01*
X23828333Y85328619D01*
X23733095Y85376238D01*
X24780714Y85328619D02*
X24685476Y85376238D01*
X24637857Y85471476D01*
X24637857Y86328619D01*
X25590239Y85328619D02*
X25590239Y85852429D01*
X25542620Y85947667D01*
X25447382Y85995286D01*
X25256905Y85995286D01*
X25161667Y85947667D01*
X25590239Y85376238D02*
X25495001Y85328619D01*
X25256905Y85328619D01*
X25161667Y85376238D01*
X25114048Y85471476D01*
X25114048Y85566714D01*
X25161667Y85661952D01*
X25256905Y85709571D01*
X25495001Y85709571D01*
X25590239Y85757190D01*
X25971191Y85995286D02*
X26209286Y85328619D01*
X26447382Y85995286D02*
X26209286Y85328619D01*
X26114048Y85090524D01*
X26066429Y85042905D01*
X25971191Y84995286D01*
X26590239Y85233381D02*
X27352144Y85233381D01*
X27590239Y85328619D02*
X27590239Y86328619D01*
X28018810Y86233381D02*
X28066429Y86281000D01*
X28161667Y86328619D01*
X28399763Y86328619D01*
X28495001Y86281000D01*
X28542620Y86233381D01*
X28590239Y86138143D01*
X28590239Y86042905D01*
X28542620Y85900048D01*
X27971191Y85328619D01*
X28590239Y85328619D01*
X29590239Y85423857D02*
X29542620Y85376238D01*
X29399763Y85328619D01*
X29304525Y85328619D01*
X29161667Y85376238D01*
X29066429Y85471476D01*
X29018810Y85566714D01*
X28971191Y85757190D01*
X28971191Y85900048D01*
X29018810Y86090524D01*
X29066429Y86185762D01*
X29161667Y86281000D01*
X29304525Y86328619D01*
X29399763Y86328619D01*
X29542620Y86281000D01*
X29590239Y86233381D01*
X36980905Y90933619D02*
X36980905Y91933619D01*
X37219000Y91933619D01*
X37361858Y91886000D01*
X37457096Y91790762D01*
X37504715Y91695524D01*
X37552334Y91505048D01*
X37552334Y91362190D01*
X37504715Y91171714D01*
X37457096Y91076476D01*
X37361858Y90981238D01*
X37219000Y90933619D01*
X36980905Y90933619D01*
X37933286Y91838381D02*
X37980905Y91886000D01*
X38076143Y91933619D01*
X38314239Y91933619D01*
X38409477Y91886000D01*
X38457096Y91838381D01*
X38504715Y91743143D01*
X38504715Y91647905D01*
X38457096Y91505048D01*
X37885667Y90933619D01*
X38504715Y90933619D01*
X33266143Y97791619D02*
X32789952Y97791619D01*
X32789952Y98791619D01*
X33599476Y98315429D02*
X33932810Y98315429D01*
X34075667Y97791619D02*
X33599476Y97791619D01*
X33599476Y98791619D01*
X34075667Y98791619D01*
X34504238Y97791619D02*
X34504238Y98791619D01*
X34742333Y98791619D01*
X34885191Y98744000D01*
X34980429Y98648762D01*
X35028048Y98553524D01*
X35075667Y98363048D01*
X35075667Y98220190D01*
X35028048Y98029714D01*
X34980429Y97934476D01*
X34885191Y97839238D01*
X34742333Y97791619D01*
X34504238Y97791619D01*
X34028095Y93092619D02*
X34028095Y94092619D01*
X34599524Y93092619D02*
X34170952Y93664048D01*
X34599524Y94092619D02*
X34028095Y93521190D01*
X14501905Y85599619D02*
X14501905Y86599619D01*
X14740000Y86599619D01*
X14882858Y86552000D01*
X14978096Y86456762D01*
X15025715Y86361524D01*
X15073334Y86171048D01*
X15073334Y86028190D01*
X15025715Y85837714D01*
X14978096Y85742476D01*
X14882858Y85647238D01*
X14740000Y85599619D01*
X14501905Y85599619D01*
X16025715Y85599619D02*
X15454286Y85599619D01*
X15740000Y85599619D02*
X15740000Y86599619D01*
X15644762Y86456762D01*
X15549524Y86361524D01*
X15454286Y86313905D01*
X13097143Y82678619D02*
X12525714Y82678619D01*
X12811428Y82678619D02*
X12811428Y83678619D01*
X12716190Y83535762D01*
X12620952Y83440524D01*
X12525714Y83392905D01*
X13525714Y82678619D02*
X13525714Y83678619D01*
X14097143Y82678619D01*
X14097143Y83678619D01*
X15049524Y83678619D02*
X14573333Y83678619D01*
X14525714Y83202429D01*
X14573333Y83250048D01*
X14668571Y83297667D01*
X14906667Y83297667D01*
X15001905Y83250048D01*
X15049524Y83202429D01*
X15097143Y83107190D01*
X15097143Y82869095D01*
X15049524Y82773857D01*
X15001905Y82726238D01*
X14906667Y82678619D01*
X14668571Y82678619D01*
X14573333Y82726238D01*
X14525714Y82773857D01*
X15668571Y83250048D02*
X15573333Y83297667D01*
X15525714Y83345286D01*
X15478095Y83440524D01*
X15478095Y83488143D01*
X15525714Y83583381D01*
X15573333Y83631000D01*
X15668571Y83678619D01*
X15859048Y83678619D01*
X15954286Y83631000D01*
X16001905Y83583381D01*
X16049524Y83488143D01*
X16049524Y83440524D01*
X16001905Y83345286D01*
X15954286Y83297667D01*
X15859048Y83250048D01*
X15668571Y83250048D01*
X15573333Y83202429D01*
X15525714Y83154810D01*
X15478095Y83059571D01*
X15478095Y82869095D01*
X15525714Y82773857D01*
X15573333Y82726238D01*
X15668571Y82678619D01*
X15859048Y82678619D01*
X15954286Y82726238D01*
X16001905Y82773857D01*
X16049524Y82869095D01*
X16049524Y83059571D01*
X16001905Y83154810D01*
X15954286Y83202429D01*
X15859048Y83250048D01*
X17001905Y82678619D02*
X16430476Y82678619D01*
X16716190Y82678619D02*
X16716190Y83678619D01*
X16620952Y83535762D01*
X16525714Y83440524D01*
X16430476Y83392905D01*
X17573333Y83250048D02*
X17478095Y83297667D01*
X17430476Y83345286D01*
X17382857Y83440524D01*
X17382857Y83488143D01*
X17430476Y83583381D01*
X17478095Y83631000D01*
X17573333Y83678619D01*
X17763810Y83678619D01*
X17859048Y83631000D01*
X17906667Y83583381D01*
X17954286Y83488143D01*
X17954286Y83440524D01*
X17906667Y83345286D01*
X17859048Y83297667D01*
X17763810Y83250048D01*
X17573333Y83250048D01*
X17478095Y83202429D01*
X17430476Y83154810D01*
X17382857Y83059571D01*
X17382857Y82869095D01*
X17430476Y82773857D01*
X17478095Y82726238D01*
X17573333Y82678619D01*
X17763810Y82678619D01*
X17859048Y82726238D01*
X17906667Y82773857D01*
X17954286Y82869095D01*
X17954286Y83059571D01*
X17906667Y83154810D01*
X17859048Y83202429D01*
X17763810Y83250048D01*
X20026334Y74518857D02*
X19978715Y74471238D01*
X19835858Y74423619D01*
X19740620Y74423619D01*
X19597762Y74471238D01*
X19502524Y74566476D01*
X19454905Y74661714D01*
X19407286Y74852190D01*
X19407286Y74995048D01*
X19454905Y75185524D01*
X19502524Y75280762D01*
X19597762Y75376000D01*
X19740620Y75423619D01*
X19835858Y75423619D01*
X19978715Y75376000D01*
X20026334Y75328381D01*
X20883477Y75090286D02*
X20883477Y74423619D01*
X20645381Y75471238D02*
X20407286Y74756952D01*
X21026334Y74756952D01*
X18899381Y71121619D02*
X18327952Y71121619D01*
X18613666Y71121619D02*
X18613666Y72121619D01*
X18518428Y71978762D01*
X18423190Y71883524D01*
X18327952Y71835905D01*
X19518428Y72121619D02*
X19613667Y72121619D01*
X19708905Y72074000D01*
X19756524Y72026381D01*
X19804143Y71931143D01*
X19851762Y71740667D01*
X19851762Y71502571D01*
X19804143Y71312095D01*
X19756524Y71216857D01*
X19708905Y71169238D01*
X19613667Y71121619D01*
X19518428Y71121619D01*
X19423190Y71169238D01*
X19375571Y71216857D01*
X19327952Y71312095D01*
X19280333Y71502571D01*
X19280333Y71740667D01*
X19327952Y71931143D01*
X19375571Y72026381D01*
X19423190Y72074000D01*
X19518428Y72121619D01*
X20470809Y72121619D02*
X20566048Y72121619D01*
X20661286Y72074000D01*
X20708905Y72026381D01*
X20756524Y71931143D01*
X20804143Y71740667D01*
X20804143Y71502571D01*
X20756524Y71312095D01*
X20708905Y71216857D01*
X20661286Y71169238D01*
X20566048Y71121619D01*
X20470809Y71121619D01*
X20375571Y71169238D01*
X20327952Y71216857D01*
X20280333Y71312095D01*
X20232714Y71502571D01*
X20232714Y71740667D01*
X20280333Y71931143D01*
X20327952Y72026381D01*
X20375571Y72074000D01*
X20470809Y72121619D01*
X21232714Y71788286D02*
X21232714Y71121619D01*
X21232714Y71693048D02*
X21280333Y71740667D01*
X21375571Y71788286D01*
X21518429Y71788286D01*
X21613667Y71740667D01*
X21661286Y71645429D01*
X21661286Y71121619D01*
X22470810Y71645429D02*
X22137476Y71645429D01*
X22137476Y71121619D02*
X22137476Y72121619D01*
X22613667Y72121619D01*
X19137334Y96489857D02*
X19089715Y96442238D01*
X18946858Y96394619D01*
X18851620Y96394619D01*
X18708762Y96442238D01*
X18613524Y96537476D01*
X18565905Y96632714D01*
X18518286Y96823190D01*
X18518286Y96966048D01*
X18565905Y97156524D01*
X18613524Y97251762D01*
X18708762Y97347000D01*
X18851620Y97394619D01*
X18946858Y97394619D01*
X19089715Y97347000D01*
X19137334Y97299381D01*
X19470667Y97394619D02*
X20089715Y97394619D01*
X19756381Y97013667D01*
X19899239Y97013667D01*
X19994477Y96966048D01*
X20042096Y96918429D01*
X20089715Y96823190D01*
X20089715Y96585095D01*
X20042096Y96489857D01*
X19994477Y96442238D01*
X19899239Y96394619D01*
X19613524Y96394619D01*
X19518286Y96442238D01*
X19470667Y96489857D01*
X19050143Y94997619D02*
X18478714Y94997619D01*
X18764428Y94997619D02*
X18764428Y95997619D01*
X18669190Y95854762D01*
X18573952Y95759524D01*
X18478714Y95711905D01*
X19669190Y95997619D02*
X19764429Y95997619D01*
X19859667Y95950000D01*
X19907286Y95902381D01*
X19954905Y95807143D01*
X20002524Y95616667D01*
X20002524Y95378571D01*
X19954905Y95188095D01*
X19907286Y95092857D01*
X19859667Y95045238D01*
X19764429Y94997619D01*
X19669190Y94997619D01*
X19573952Y95045238D01*
X19526333Y95092857D01*
X19478714Y95188095D01*
X19431095Y95378571D01*
X19431095Y95616667D01*
X19478714Y95807143D01*
X19526333Y95902381D01*
X19573952Y95950000D01*
X19669190Y95997619D01*
X20431095Y95664286D02*
X20431095Y94664286D01*
X20907286Y95140476D02*
X20954905Y95045238D01*
X21050143Y94997619D01*
X20431095Y95140476D02*
X20478714Y95045238D01*
X20573952Y94997619D01*
X20764429Y94997619D01*
X20859667Y95045238D01*
X20907286Y95140476D01*
X20907286Y95664286D01*
X21812048Y95521429D02*
X21478714Y95521429D01*
X21478714Y94997619D02*
X21478714Y95997619D01*
X21954905Y95997619D01*
X8674148Y92368671D02*
X9436053Y92368671D01*
X9055101Y91987719D02*
X9055101Y92749624D01*
X13041334Y90393857D02*
X12993715Y90346238D01*
X12850858Y90298619D01*
X12755620Y90298619D01*
X12612762Y90346238D01*
X12517524Y90441476D01*
X12469905Y90536714D01*
X12422286Y90727190D01*
X12422286Y90870048D01*
X12469905Y91060524D01*
X12517524Y91155762D01*
X12612762Y91251000D01*
X12755620Y91298619D01*
X12850858Y91298619D01*
X12993715Y91251000D01*
X13041334Y91203381D01*
X13422286Y91203381D02*
X13469905Y91251000D01*
X13565143Y91298619D01*
X13803239Y91298619D01*
X13898477Y91251000D01*
X13946096Y91203381D01*
X13993715Y91108143D01*
X13993715Y91012905D01*
X13946096Y90870048D01*
X13374667Y90298619D01*
X13993715Y90298619D01*
X11787381Y86869619D02*
X11215952Y86869619D01*
X11501666Y86869619D02*
X11501666Y87869619D01*
X11406428Y87726762D01*
X11311190Y87631524D01*
X11215952Y87583905D01*
X12406428Y87869619D02*
X12501667Y87869619D01*
X12596905Y87822000D01*
X12644524Y87774381D01*
X12692143Y87679143D01*
X12739762Y87488667D01*
X12739762Y87250571D01*
X12692143Y87060095D01*
X12644524Y86964857D01*
X12596905Y86917238D01*
X12501667Y86869619D01*
X12406428Y86869619D01*
X12311190Y86917238D01*
X12263571Y86964857D01*
X12215952Y87060095D01*
X12168333Y87250571D01*
X12168333Y87488667D01*
X12215952Y87679143D01*
X12263571Y87774381D01*
X12311190Y87822000D01*
X12406428Y87869619D01*
X13358809Y87869619D02*
X13454048Y87869619D01*
X13549286Y87822000D01*
X13596905Y87774381D01*
X13644524Y87679143D01*
X13692143Y87488667D01*
X13692143Y87250571D01*
X13644524Y87060095D01*
X13596905Y86964857D01*
X13549286Y86917238D01*
X13454048Y86869619D01*
X13358809Y86869619D01*
X13263571Y86917238D01*
X13215952Y86964857D01*
X13168333Y87060095D01*
X13120714Y87250571D01*
X13120714Y87488667D01*
X13168333Y87679143D01*
X13215952Y87774381D01*
X13263571Y87822000D01*
X13358809Y87869619D01*
X14120714Y87536286D02*
X14120714Y86869619D01*
X14120714Y87441048D02*
X14168333Y87488667D01*
X14263571Y87536286D01*
X14406429Y87536286D01*
X14501667Y87488667D01*
X14549286Y87393429D01*
X14549286Y86869619D01*
X15358810Y87393429D02*
X15025476Y87393429D01*
X15025476Y86869619D02*
X15025476Y87869619D01*
X15501667Y87869619D01*
X17121143Y78138334D02*
X17168762Y78090715D01*
X17216381Y77947858D01*
X17216381Y77852620D01*
X17168762Y77709762D01*
X17073524Y77614524D01*
X16978286Y77566905D01*
X16787810Y77519286D01*
X16644952Y77519286D01*
X16454476Y77566905D01*
X16359238Y77614524D01*
X16264000Y77709762D01*
X16216381Y77852620D01*
X16216381Y77947858D01*
X16264000Y78090715D01*
X16311619Y78138334D01*
X17216381Y79090715D02*
X17216381Y78519286D01*
X17216381Y78805000D02*
X16216381Y78805000D01*
X16359238Y78709762D01*
X16454476Y78614524D01*
X16502095Y78519286D01*
X20645381Y77709762D02*
X20645381Y77138333D01*
X20645381Y77424047D02*
X19645381Y77424047D01*
X19788238Y77328809D01*
X19883476Y77233571D01*
X19931095Y77138333D01*
X19978714Y78138333D02*
X20645381Y78138333D01*
X20073952Y78138333D02*
X20026333Y78185952D01*
X19978714Y78281190D01*
X19978714Y78424048D01*
X20026333Y78519286D01*
X20121571Y78566905D01*
X20645381Y78566905D01*
X20121571Y79376429D02*
X20121571Y79043095D01*
X20645381Y79043095D02*
X19645381Y79043095D01*
X19645381Y79519286D01*
X17121143Y27138334D02*
X17168762Y27090715D01*
X17216381Y26947858D01*
X17216381Y26852620D01*
X17168762Y26709762D01*
X17073524Y26614524D01*
X16978286Y26566905D01*
X16787810Y26519286D01*
X16644952Y26519286D01*
X16454476Y26566905D01*
X16359238Y26614524D01*
X16264000Y26709762D01*
X16216381Y26852620D01*
X16216381Y26947858D01*
X16264000Y27090715D01*
X16311619Y27138334D01*
X17216381Y28090715D02*
X17216381Y27519286D01*
X17216381Y27805000D02*
X16216381Y27805000D01*
X16359238Y27709762D01*
X16454476Y27614524D01*
X16502095Y27519286D01*
X20645381Y26709762D02*
X20645381Y26138333D01*
X20645381Y26424047D02*
X19645381Y26424047D01*
X19788238Y26328809D01*
X19883476Y26233571D01*
X19931095Y26138333D01*
X19978714Y27138333D02*
X20645381Y27138333D01*
X20073952Y27138333D02*
X20026333Y27185952D01*
X19978714Y27281190D01*
X19978714Y27424048D01*
X20026333Y27519286D01*
X20121571Y27566905D01*
X20645381Y27566905D01*
X20121571Y28376429D02*
X20121571Y28043095D01*
X20645381Y28043095D02*
X19645381Y28043095D01*
X19645381Y28519286D01*
X13041334Y39393857D02*
X12993715Y39346238D01*
X12850858Y39298619D01*
X12755620Y39298619D01*
X12612762Y39346238D01*
X12517524Y39441476D01*
X12469905Y39536714D01*
X12422286Y39727190D01*
X12422286Y39870048D01*
X12469905Y40060524D01*
X12517524Y40155762D01*
X12612762Y40251000D01*
X12755620Y40298619D01*
X12850858Y40298619D01*
X12993715Y40251000D01*
X13041334Y40203381D01*
X13422286Y40203381D02*
X13469905Y40251000D01*
X13565143Y40298619D01*
X13803239Y40298619D01*
X13898477Y40251000D01*
X13946096Y40203381D01*
X13993715Y40108143D01*
X13993715Y40012905D01*
X13946096Y39870048D01*
X13374667Y39298619D01*
X13993715Y39298619D01*
X11787381Y35869619D02*
X11215952Y35869619D01*
X11501666Y35869619D02*
X11501666Y36869619D01*
X11406428Y36726762D01*
X11311190Y36631524D01*
X11215952Y36583905D01*
X12406428Y36869619D02*
X12501667Y36869619D01*
X12596905Y36822000D01*
X12644524Y36774381D01*
X12692143Y36679143D01*
X12739762Y36488667D01*
X12739762Y36250571D01*
X12692143Y36060095D01*
X12644524Y35964857D01*
X12596905Y35917238D01*
X12501667Y35869619D01*
X12406428Y35869619D01*
X12311190Y35917238D01*
X12263571Y35964857D01*
X12215952Y36060095D01*
X12168333Y36250571D01*
X12168333Y36488667D01*
X12215952Y36679143D01*
X12263571Y36774381D01*
X12311190Y36822000D01*
X12406428Y36869619D01*
X13358809Y36869619D02*
X13454048Y36869619D01*
X13549286Y36822000D01*
X13596905Y36774381D01*
X13644524Y36679143D01*
X13692143Y36488667D01*
X13692143Y36250571D01*
X13644524Y36060095D01*
X13596905Y35964857D01*
X13549286Y35917238D01*
X13454048Y35869619D01*
X13358809Y35869619D01*
X13263571Y35917238D01*
X13215952Y35964857D01*
X13168333Y36060095D01*
X13120714Y36250571D01*
X13120714Y36488667D01*
X13168333Y36679143D01*
X13215952Y36774381D01*
X13263571Y36822000D01*
X13358809Y36869619D01*
X14120714Y36536286D02*
X14120714Y35869619D01*
X14120714Y36441048D02*
X14168333Y36488667D01*
X14263571Y36536286D01*
X14406429Y36536286D01*
X14501667Y36488667D01*
X14549286Y36393429D01*
X14549286Y35869619D01*
X15358810Y36393429D02*
X15025476Y36393429D01*
X15025476Y35869619D02*
X15025476Y36869619D01*
X15501667Y36869619D01*
X19137334Y45489857D02*
X19089715Y45442238D01*
X18946858Y45394619D01*
X18851620Y45394619D01*
X18708762Y45442238D01*
X18613524Y45537476D01*
X18565905Y45632714D01*
X18518286Y45823190D01*
X18518286Y45966048D01*
X18565905Y46156524D01*
X18613524Y46251762D01*
X18708762Y46347000D01*
X18851620Y46394619D01*
X18946858Y46394619D01*
X19089715Y46347000D01*
X19137334Y46299381D01*
X19470667Y46394619D02*
X20089715Y46394619D01*
X19756381Y46013667D01*
X19899239Y46013667D01*
X19994477Y45966048D01*
X20042096Y45918429D01*
X20089715Y45823190D01*
X20089715Y45585095D01*
X20042096Y45489857D01*
X19994477Y45442238D01*
X19899239Y45394619D01*
X19613524Y45394619D01*
X19518286Y45442238D01*
X19470667Y45489857D01*
X19050143Y43997619D02*
X18478714Y43997619D01*
X18764428Y43997619D02*
X18764428Y44997619D01*
X18669190Y44854762D01*
X18573952Y44759524D01*
X18478714Y44711905D01*
X19669190Y44997619D02*
X19764429Y44997619D01*
X19859667Y44950000D01*
X19907286Y44902381D01*
X19954905Y44807143D01*
X20002524Y44616667D01*
X20002524Y44378571D01*
X19954905Y44188095D01*
X19907286Y44092857D01*
X19859667Y44045238D01*
X19764429Y43997619D01*
X19669190Y43997619D01*
X19573952Y44045238D01*
X19526333Y44092857D01*
X19478714Y44188095D01*
X19431095Y44378571D01*
X19431095Y44616667D01*
X19478714Y44807143D01*
X19526333Y44902381D01*
X19573952Y44950000D01*
X19669190Y44997619D01*
X20431095Y44664286D02*
X20431095Y43664286D01*
X20907286Y44140476D02*
X20954905Y44045238D01*
X21050143Y43997619D01*
X20431095Y44140476D02*
X20478714Y44045238D01*
X20573952Y43997619D01*
X20764429Y43997619D01*
X20859667Y44045238D01*
X20907286Y44140476D01*
X20907286Y44664286D01*
X21812048Y44521429D02*
X21478714Y44521429D01*
X21478714Y43997619D02*
X21478714Y44997619D01*
X21954905Y44997619D01*
X8674148Y41368671D02*
X9436053Y41368671D01*
X9055101Y40987719D02*
X9055101Y41749624D01*
X20026334Y23518857D02*
X19978715Y23471238D01*
X19835858Y23423619D01*
X19740620Y23423619D01*
X19597762Y23471238D01*
X19502524Y23566476D01*
X19454905Y23661714D01*
X19407286Y23852190D01*
X19407286Y23995048D01*
X19454905Y24185524D01*
X19502524Y24280762D01*
X19597762Y24376000D01*
X19740620Y24423619D01*
X19835858Y24423619D01*
X19978715Y24376000D01*
X20026334Y24328381D01*
X20883477Y24090286D02*
X20883477Y23423619D01*
X20645381Y24471238D02*
X20407286Y23756952D01*
X21026334Y23756952D01*
X18899381Y20121619D02*
X18327952Y20121619D01*
X18613666Y20121619D02*
X18613666Y21121619D01*
X18518428Y20978762D01*
X18423190Y20883524D01*
X18327952Y20835905D01*
X19518428Y21121619D02*
X19613667Y21121619D01*
X19708905Y21074000D01*
X19756524Y21026381D01*
X19804143Y20931143D01*
X19851762Y20740667D01*
X19851762Y20502571D01*
X19804143Y20312095D01*
X19756524Y20216857D01*
X19708905Y20169238D01*
X19613667Y20121619D01*
X19518428Y20121619D01*
X19423190Y20169238D01*
X19375571Y20216857D01*
X19327952Y20312095D01*
X19280333Y20502571D01*
X19280333Y20740667D01*
X19327952Y20931143D01*
X19375571Y21026381D01*
X19423190Y21074000D01*
X19518428Y21121619D01*
X20470809Y21121619D02*
X20566048Y21121619D01*
X20661286Y21074000D01*
X20708905Y21026381D01*
X20756524Y20931143D01*
X20804143Y20740667D01*
X20804143Y20502571D01*
X20756524Y20312095D01*
X20708905Y20216857D01*
X20661286Y20169238D01*
X20566048Y20121619D01*
X20470809Y20121619D01*
X20375571Y20169238D01*
X20327952Y20216857D01*
X20280333Y20312095D01*
X20232714Y20502571D01*
X20232714Y20740667D01*
X20280333Y20931143D01*
X20327952Y21026381D01*
X20375571Y21074000D01*
X20470809Y21121619D01*
X21232714Y20788286D02*
X21232714Y20121619D01*
X21232714Y20693048D02*
X21280333Y20740667D01*
X21375571Y20788286D01*
X21518429Y20788286D01*
X21613667Y20740667D01*
X21661286Y20645429D01*
X21661286Y20121619D01*
X22470810Y20645429D02*
X22137476Y20645429D01*
X22137476Y20121619D02*
X22137476Y21121619D01*
X22613667Y21121619D01*
X14501905Y34599619D02*
X14501905Y35599619D01*
X14740000Y35599619D01*
X14882858Y35552000D01*
X14978096Y35456762D01*
X15025715Y35361524D01*
X15073334Y35171048D01*
X15073334Y35028190D01*
X15025715Y34837714D01*
X14978096Y34742476D01*
X14882858Y34647238D01*
X14740000Y34599619D01*
X14501905Y34599619D01*
X16025715Y34599619D02*
X15454286Y34599619D01*
X15740000Y34599619D02*
X15740000Y35599619D01*
X15644762Y35456762D01*
X15549524Y35361524D01*
X15454286Y35313905D01*
X13097143Y31678619D02*
X12525714Y31678619D01*
X12811428Y31678619D02*
X12811428Y32678619D01*
X12716190Y32535762D01*
X12620952Y32440524D01*
X12525714Y32392905D01*
X13525714Y31678619D02*
X13525714Y32678619D01*
X14097143Y31678619D01*
X14097143Y32678619D01*
X15049524Y32678619D02*
X14573333Y32678619D01*
X14525714Y32202429D01*
X14573333Y32250048D01*
X14668571Y32297667D01*
X14906667Y32297667D01*
X15001905Y32250048D01*
X15049524Y32202429D01*
X15097143Y32107190D01*
X15097143Y31869095D01*
X15049524Y31773857D01*
X15001905Y31726238D01*
X14906667Y31678619D01*
X14668571Y31678619D01*
X14573333Y31726238D01*
X14525714Y31773857D01*
X15668571Y32250048D02*
X15573333Y32297667D01*
X15525714Y32345286D01*
X15478095Y32440524D01*
X15478095Y32488143D01*
X15525714Y32583381D01*
X15573333Y32631000D01*
X15668571Y32678619D01*
X15859048Y32678619D01*
X15954286Y32631000D01*
X16001905Y32583381D01*
X16049524Y32488143D01*
X16049524Y32440524D01*
X16001905Y32345286D01*
X15954286Y32297667D01*
X15859048Y32250048D01*
X15668571Y32250048D01*
X15573333Y32202429D01*
X15525714Y32154810D01*
X15478095Y32059571D01*
X15478095Y31869095D01*
X15525714Y31773857D01*
X15573333Y31726238D01*
X15668571Y31678619D01*
X15859048Y31678619D01*
X15954286Y31726238D01*
X16001905Y31773857D01*
X16049524Y31869095D01*
X16049524Y32059571D01*
X16001905Y32154810D01*
X15954286Y32202429D01*
X15859048Y32250048D01*
X17001905Y31678619D02*
X16430476Y31678619D01*
X16716190Y31678619D02*
X16716190Y32678619D01*
X16620952Y32535762D01*
X16525714Y32440524D01*
X16430476Y32392905D01*
X17573333Y32250048D02*
X17478095Y32297667D01*
X17430476Y32345286D01*
X17382857Y32440524D01*
X17382857Y32488143D01*
X17430476Y32583381D01*
X17478095Y32631000D01*
X17573333Y32678619D01*
X17763810Y32678619D01*
X17859048Y32631000D01*
X17906667Y32583381D01*
X17954286Y32488143D01*
X17954286Y32440524D01*
X17906667Y32345286D01*
X17859048Y32297667D01*
X17763810Y32250048D01*
X17573333Y32250048D01*
X17478095Y32202429D01*
X17430476Y32154810D01*
X17382857Y32059571D01*
X17382857Y31869095D01*
X17430476Y31773857D01*
X17478095Y31726238D01*
X17573333Y31678619D01*
X17763810Y31678619D01*
X17859048Y31726238D01*
X17906667Y31773857D01*
X17954286Y31869095D01*
X17954286Y32059571D01*
X17906667Y32154810D01*
X17859048Y32202429D01*
X17763810Y32250048D01*
X36980905Y39933619D02*
X36980905Y40933619D01*
X37219000Y40933619D01*
X37361858Y40886000D01*
X37457096Y40790762D01*
X37504715Y40695524D01*
X37552334Y40505048D01*
X37552334Y40362190D01*
X37504715Y40171714D01*
X37457096Y40076476D01*
X37361858Y39981238D01*
X37219000Y39933619D01*
X36980905Y39933619D01*
X37933286Y40838381D02*
X37980905Y40886000D01*
X38076143Y40933619D01*
X38314239Y40933619D01*
X38409477Y40886000D01*
X38457096Y40838381D01*
X38504715Y40743143D01*
X38504715Y40647905D01*
X38457096Y40505048D01*
X37885667Y39933619D01*
X38504715Y39933619D01*
X33266143Y46791619D02*
X32789952Y46791619D01*
X32789952Y47791619D01*
X33599476Y47315429D02*
X33932810Y47315429D01*
X34075667Y46791619D02*
X33599476Y46791619D01*
X33599476Y47791619D01*
X34075667Y47791619D01*
X34504238Y46791619D02*
X34504238Y47791619D01*
X34742333Y47791619D01*
X34885191Y47744000D01*
X34980429Y47648762D01*
X35028048Y47553524D01*
X35075667Y47363048D01*
X35075667Y47220190D01*
X35028048Y47029714D01*
X34980429Y46934476D01*
X34885191Y46839238D01*
X34742333Y46791619D01*
X34504238Y46791619D01*
X34028095Y42092619D02*
X34028095Y43092619D01*
X34599524Y42092619D02*
X34170952Y42664048D01*
X34599524Y43092619D02*
X34028095Y42521190D01*
X31011905Y37393619D02*
X31011905Y38393619D01*
X31392858Y38393619D01*
X31488096Y38346000D01*
X31535715Y38298381D01*
X31583334Y38203143D01*
X31583334Y38060286D01*
X31535715Y37965048D01*
X31488096Y37917429D01*
X31392858Y37869810D01*
X31011905Y37869810D01*
X32535715Y37393619D02*
X31964286Y37393619D01*
X32250000Y37393619D02*
X32250000Y38393619D01*
X32154762Y38250762D01*
X32059524Y38155524D01*
X31964286Y38107905D01*
X21447381Y34328619D02*
X21447381Y35328619D01*
X21685476Y35328619D01*
X21828334Y35281000D01*
X21923572Y35185762D01*
X21971191Y35090524D01*
X22018810Y34900048D01*
X22018810Y34757190D01*
X21971191Y34566714D01*
X21923572Y34471476D01*
X21828334Y34376238D01*
X21685476Y34328619D01*
X21447381Y34328619D01*
X22447381Y34328619D02*
X22447381Y34995286D01*
X22447381Y35328619D02*
X22399762Y35281000D01*
X22447381Y35233381D01*
X22495000Y35281000D01*
X22447381Y35328619D01*
X22447381Y35233381D01*
X22875952Y34376238D02*
X22971190Y34328619D01*
X23161666Y34328619D01*
X23256905Y34376238D01*
X23304524Y34471476D01*
X23304524Y34519095D01*
X23256905Y34614333D01*
X23161666Y34661952D01*
X23018809Y34661952D01*
X22923571Y34709571D01*
X22875952Y34804810D01*
X22875952Y34852429D01*
X22923571Y34947667D01*
X23018809Y34995286D01*
X23161666Y34995286D01*
X23256905Y34947667D01*
X23733095Y34995286D02*
X23733095Y33995286D01*
X23733095Y34947667D02*
X23828333Y34995286D01*
X24018810Y34995286D01*
X24114048Y34947667D01*
X24161667Y34900048D01*
X24209286Y34804810D01*
X24209286Y34519095D01*
X24161667Y34423857D01*
X24114048Y34376238D01*
X24018810Y34328619D01*
X23828333Y34328619D01*
X23733095Y34376238D01*
X24780714Y34328619D02*
X24685476Y34376238D01*
X24637857Y34471476D01*
X24637857Y35328619D01*
X25590239Y34328619D02*
X25590239Y34852429D01*
X25542620Y34947667D01*
X25447382Y34995286D01*
X25256905Y34995286D01*
X25161667Y34947667D01*
X25590239Y34376238D02*
X25495001Y34328619D01*
X25256905Y34328619D01*
X25161667Y34376238D01*
X25114048Y34471476D01*
X25114048Y34566714D01*
X25161667Y34661952D01*
X25256905Y34709571D01*
X25495001Y34709571D01*
X25590239Y34757190D01*
X25971191Y34995286D02*
X26209286Y34328619D01*
X26447382Y34995286D02*
X26209286Y34328619D01*
X26114048Y34090524D01*
X26066429Y34042905D01*
X25971191Y33995286D01*
X26590239Y34233381D02*
X27352144Y34233381D01*
X27590239Y34328619D02*
X27590239Y35328619D01*
X28018810Y35233381D02*
X28066429Y35281000D01*
X28161667Y35328619D01*
X28399763Y35328619D01*
X28495001Y35281000D01*
X28542620Y35233381D01*
X28590239Y35138143D01*
X28590239Y35042905D01*
X28542620Y34900048D01*
X27971191Y34328619D01*
X28590239Y34328619D01*
X29590239Y34423857D02*
X29542620Y34376238D01*
X29399763Y34328619D01*
X29304525Y34328619D01*
X29161667Y34376238D01*
X29066429Y34471476D01*
X29018810Y34566714D01*
X28971191Y34757190D01*
X28971191Y34900048D01*
X29018810Y35090524D01*
X29066429Y35185762D01*
X29161667Y35281000D01*
X29304525Y35328619D01*
X29399763Y35328619D01*
X29542620Y35281000D01*
X29590239Y35233381D01*
X94511905Y28757619D02*
X94511905Y29757619D01*
X94892858Y29757619D01*
X94988096Y29710000D01*
X95035715Y29662381D01*
X95083334Y29567143D01*
X95083334Y29424286D01*
X95035715Y29329048D01*
X94988096Y29281429D01*
X94892858Y29233810D01*
X94511905Y29233810D01*
X95464286Y29662381D02*
X95511905Y29710000D01*
X95607143Y29757619D01*
X95845239Y29757619D01*
X95940477Y29710000D01*
X95988096Y29662381D01*
X96035715Y29567143D01*
X96035715Y29471905D01*
X95988096Y29329048D01*
X95416667Y28757619D01*
X96035715Y28757619D01*
X92912143Y15041191D02*
X92959762Y14993572D01*
X93007381Y14850715D01*
X93007381Y14755477D01*
X92959762Y14612619D01*
X92864524Y14517381D01*
X92769286Y14469762D01*
X92578810Y14422143D01*
X92435952Y14422143D01*
X92245476Y14469762D01*
X92150238Y14517381D01*
X92055000Y14612619D01*
X92007381Y14755477D01*
X92007381Y14850715D01*
X92055000Y14993572D01*
X92102619Y15041191D01*
X92007381Y15660238D02*
X92007381Y15850715D01*
X92055000Y15945953D01*
X92150238Y16041191D01*
X92340714Y16088810D01*
X92674048Y16088810D01*
X92864524Y16041191D01*
X92959762Y15945953D01*
X93007381Y15850715D01*
X93007381Y15660238D01*
X92959762Y15565000D01*
X92864524Y15469762D01*
X92674048Y15422143D01*
X92340714Y15422143D01*
X92150238Y15469762D01*
X92055000Y15565000D01*
X92007381Y15660238D01*
X93007381Y16517381D02*
X92007381Y16517381D01*
X93007381Y17088810D01*
X92007381Y17088810D01*
X93007381Y17565000D02*
X92007381Y17565000D01*
X93007381Y18136429D01*
X92007381Y18136429D01*
X93102619Y18374524D02*
X93102619Y19136429D01*
X92007381Y19565000D02*
X92007381Y19660239D01*
X92055000Y19755477D01*
X92102619Y19803096D01*
X92197857Y19850715D01*
X92388333Y19898334D01*
X92626429Y19898334D01*
X92816905Y19850715D01*
X92912143Y19803096D01*
X92959762Y19755477D01*
X93007381Y19660239D01*
X93007381Y19565000D01*
X92959762Y19469762D01*
X92912143Y19422143D01*
X92816905Y19374524D01*
X92626429Y19326905D01*
X92388333Y19326905D01*
X92197857Y19374524D01*
X92102619Y19422143D01*
X92055000Y19469762D01*
X92007381Y19565000D01*
X93007381Y20850715D02*
X93007381Y20279286D01*
X93007381Y20565000D02*
X92007381Y20565000D01*
X92150238Y20469762D01*
X92245476Y20374524D01*
X92293095Y20279286D01*
X92007381Y21184048D02*
X93007381Y21850715D01*
X92007381Y21850715D02*
X93007381Y21184048D01*
X92007381Y22422143D02*
X92007381Y22517382D01*
X92055000Y22612620D01*
X92102619Y22660239D01*
X92197857Y22707858D01*
X92388333Y22755477D01*
X92626429Y22755477D01*
X92816905Y22707858D01*
X92912143Y22660239D01*
X92959762Y22612620D01*
X93007381Y22517382D01*
X93007381Y22422143D01*
X92959762Y22326905D01*
X92912143Y22279286D01*
X92816905Y22231667D01*
X92626429Y22184048D01*
X92388333Y22184048D01*
X92197857Y22231667D01*
X92102619Y22279286D01*
X92055000Y22326905D01*
X92007381Y22422143D01*
X92007381Y23088810D02*
X92007381Y23755477D01*
X93007381Y23326905D01*
X28479762Y20153381D02*
X28384524Y20201000D01*
X28289286Y20296238D01*
X28146429Y20439095D01*
X28051190Y20486714D01*
X27955952Y20486714D01*
X28003571Y20248619D02*
X27908333Y20296238D01*
X27813095Y20391476D01*
X27765476Y20581952D01*
X27765476Y20915286D01*
X27813095Y21105762D01*
X27908333Y21201000D01*
X28003571Y21248619D01*
X28194048Y21248619D01*
X28289286Y21201000D01*
X28384524Y21105762D01*
X28432143Y20915286D01*
X28432143Y20581952D01*
X28384524Y20391476D01*
X28289286Y20296238D01*
X28194048Y20248619D01*
X28003571Y20248619D01*
X29384524Y20248619D02*
X28813095Y20248619D01*
X29098809Y20248619D02*
X29098809Y21248619D01*
X29003571Y21105762D01*
X28908333Y21010524D01*
X28813095Y20962905D01*
X14648095Y9942619D02*
X14648095Y10942619D01*
X15029048Y10942619D01*
X15124286Y10895000D01*
X15171905Y10847381D01*
X15219524Y10752143D01*
X15219524Y10609286D01*
X15171905Y10514048D01*
X15124286Y10466429D01*
X15029048Y10418810D01*
X14648095Y10418810D01*
X15600476Y9990238D02*
X15743333Y9942619D01*
X15981429Y9942619D01*
X16076667Y9990238D01*
X16124286Y10037857D01*
X16171905Y10133095D01*
X16171905Y10228333D01*
X16124286Y10323571D01*
X16076667Y10371190D01*
X15981429Y10418810D01*
X15790952Y10466429D01*
X15695714Y10514048D01*
X15648095Y10561667D01*
X15600476Y10656905D01*
X15600476Y10752143D01*
X15648095Y10847381D01*
X15695714Y10895000D01*
X15790952Y10942619D01*
X16029048Y10942619D01*
X16171905Y10895000D01*
X16600476Y9942619D02*
X16600476Y10942619D01*
X16933810Y10228333D01*
X17267143Y10942619D01*
X17267143Y9942619D01*
X17743333Y9942619D02*
X17743333Y10942619D01*
X18314762Y9942619D01*
X18314762Y10942619D01*
X19219524Y10609286D02*
X19219524Y9942619D01*
X18981428Y10990238D02*
X18743333Y10275952D01*
X19362381Y10275952D01*
X20314762Y9942619D02*
X19981428Y10418810D01*
X19743333Y9942619D02*
X19743333Y10942619D01*
X20124286Y10942619D01*
X20219524Y10895000D01*
X20267143Y10847381D01*
X20314762Y10752143D01*
X20314762Y10609286D01*
X20267143Y10514048D01*
X20219524Y10466429D01*
X20124286Y10418810D01*
X19743333Y10418810D01*
X20648095Y10942619D02*
X21267143Y10942619D01*
X20933809Y10561667D01*
X21076667Y10561667D01*
X21171905Y10514048D01*
X21219524Y10466429D01*
X21267143Y10371190D01*
X21267143Y10133095D01*
X21219524Y10037857D01*
X21171905Y9990238D01*
X21076667Y9942619D01*
X20790952Y9942619D01*
X20695714Y9990238D01*
X20648095Y10037857D01*
X21695714Y10323571D02*
X22457619Y10323571D01*
X22838571Y10942619D02*
X23457619Y10942619D01*
X23124285Y10561667D01*
X23267143Y10561667D01*
X23362381Y10514048D01*
X23410000Y10466429D01*
X23457619Y10371190D01*
X23457619Y10133095D01*
X23410000Y10037857D01*
X23362381Y9990238D01*
X23267143Y9942619D01*
X22981428Y9942619D01*
X22886190Y9990238D01*
X22838571Y10037857D01*
X24076666Y10942619D02*
X24171905Y10942619D01*
X24267143Y10895000D01*
X24314762Y10847381D01*
X24362381Y10752143D01*
X24410000Y10561667D01*
X24410000Y10323571D01*
X24362381Y10133095D01*
X24314762Y10037857D01*
X24267143Y9990238D01*
X24171905Y9942619D01*
X24076666Y9942619D01*
X23981428Y9990238D01*
X23933809Y10037857D01*
X23886190Y10133095D01*
X23838571Y10323571D01*
X23838571Y10561667D01*
X23886190Y10752143D01*
X23933809Y10847381D01*
X23981428Y10895000D01*
X24076666Y10942619D01*
X24838571Y9942619D02*
X24838571Y10942619D01*
X25219524Y10942619D01*
X25314762Y10895000D01*
X25362381Y10847381D01*
X25410000Y10752143D01*
X25410000Y10609286D01*
X25362381Y10514048D01*
X25314762Y10466429D01*
X25219524Y10418810D01*
X24838571Y10418810D01*
X26314762Y9942619D02*
X25838571Y9942619D01*
X25838571Y10942619D01*
X44283334Y47045619D02*
X43950000Y47521810D01*
X43711905Y47045619D02*
X43711905Y48045619D01*
X44092858Y48045619D01*
X44188096Y47998000D01*
X44235715Y47950381D01*
X44283334Y47855143D01*
X44283334Y47712286D01*
X44235715Y47617048D01*
X44188096Y47569429D01*
X44092858Y47521810D01*
X43711905Y47521810D01*
X45235715Y47045619D02*
X44664286Y47045619D01*
X44950000Y47045619D02*
X44950000Y48045619D01*
X44854762Y47902762D01*
X44759524Y47807524D01*
X44664286Y47759905D01*
X42330905Y44267381D02*
X42378524Y44315000D01*
X42473762Y44362619D01*
X42711858Y44362619D01*
X42807096Y44315000D01*
X42854715Y44267381D01*
X42902334Y44172143D01*
X42902334Y44076905D01*
X42854715Y43934048D01*
X42283286Y43362619D01*
X42902334Y43362619D01*
X43521381Y44362619D02*
X43616620Y44362619D01*
X43711858Y44315000D01*
X43759477Y44267381D01*
X43807096Y44172143D01*
X43854715Y43981667D01*
X43854715Y43743571D01*
X43807096Y43553095D01*
X43759477Y43457857D01*
X43711858Y43410238D01*
X43616620Y43362619D01*
X43521381Y43362619D01*
X43426143Y43410238D01*
X43378524Y43457857D01*
X43330905Y43553095D01*
X43283286Y43743571D01*
X43283286Y43981667D01*
X43330905Y44172143D01*
X43378524Y44267381D01*
X43426143Y44315000D01*
X43521381Y44362619D01*
X44473762Y44362619D02*
X44569001Y44362619D01*
X44664239Y44315000D01*
X44711858Y44267381D01*
X44759477Y44172143D01*
X44807096Y43981667D01*
X44807096Y43743571D01*
X44759477Y43553095D01*
X44711858Y43457857D01*
X44664239Y43410238D01*
X44569001Y43362619D01*
X44473762Y43362619D01*
X44378524Y43410238D01*
X44330905Y43457857D01*
X44283286Y43553095D01*
X44235667Y43743571D01*
X44235667Y43981667D01*
X44283286Y44172143D01*
X44330905Y44267381D01*
X44378524Y44315000D01*
X44473762Y44362619D01*
X45807096Y43362619D02*
X45473762Y43838810D01*
X45235667Y43362619D02*
X45235667Y44362619D01*
X45616620Y44362619D01*
X45711858Y44315000D01*
X45759477Y44267381D01*
X45807096Y44172143D01*
X45807096Y44029286D01*
X45759477Y43934048D01*
X45711858Y43886429D01*
X45616620Y43838810D01*
X45235667Y43838810D01*
X77938334Y24312619D02*
X77605000Y24788810D01*
X77366905Y24312619D02*
X77366905Y25312619D01*
X77747858Y25312619D01*
X77843096Y25265000D01*
X77890715Y25217381D01*
X77938334Y25122143D01*
X77938334Y24979286D01*
X77890715Y24884048D01*
X77843096Y24836429D01*
X77747858Y24788810D01*
X77366905Y24788810D01*
X78319286Y25217381D02*
X78366905Y25265000D01*
X78462143Y25312619D01*
X78700239Y25312619D01*
X78795477Y25265000D01*
X78843096Y25217381D01*
X78890715Y25122143D01*
X78890715Y25026905D01*
X78843096Y24884048D01*
X78271667Y24312619D01*
X78890715Y24312619D01*
X80208572Y24312619D02*
X79637143Y24312619D01*
X79922857Y24312619D02*
X79922857Y25312619D01*
X79827619Y25169762D01*
X79732381Y25074524D01*
X79637143Y25026905D01*
X80589524Y25217381D02*
X80637143Y25265000D01*
X80732381Y25312619D01*
X80970477Y25312619D01*
X81065715Y25265000D01*
X81113334Y25217381D01*
X81160953Y25122143D01*
X81160953Y25026905D01*
X81113334Y24884048D01*
X80541905Y24312619D01*
X81160953Y24312619D01*
X81780000Y25312619D02*
X81875239Y25312619D01*
X81970477Y25265000D01*
X82018096Y25217381D01*
X82065715Y25122143D01*
X82113334Y24931667D01*
X82113334Y24693571D01*
X82065715Y24503095D01*
X82018096Y24407857D01*
X81970477Y24360238D01*
X81875239Y24312619D01*
X81780000Y24312619D01*
X81684762Y24360238D01*
X81637143Y24407857D01*
X81589524Y24503095D01*
X81541905Y24693571D01*
X81541905Y24931667D01*
X81589524Y25122143D01*
X81637143Y25217381D01*
X81684762Y25265000D01*
X81780000Y25312619D01*
X82541905Y24312619D02*
X82541905Y25312619D01*
X82637143Y24693571D02*
X82922858Y24312619D01*
X82922858Y24979286D02*
X82541905Y24598333D01*
X77938334Y19867619D02*
X77605000Y20343810D01*
X77366905Y19867619D02*
X77366905Y20867619D01*
X77747858Y20867619D01*
X77843096Y20820000D01*
X77890715Y20772381D01*
X77938334Y20677143D01*
X77938334Y20534286D01*
X77890715Y20439048D01*
X77843096Y20391429D01*
X77747858Y20343810D01*
X77366905Y20343810D01*
X78271667Y20867619D02*
X78890715Y20867619D01*
X78557381Y20486667D01*
X78700239Y20486667D01*
X78795477Y20439048D01*
X78843096Y20391429D01*
X78890715Y20296190D01*
X78890715Y20058095D01*
X78843096Y19962857D01*
X78795477Y19915238D01*
X78700239Y19867619D01*
X78414524Y19867619D01*
X78319286Y19915238D01*
X78271667Y19962857D01*
X81272143Y20867619D02*
X80795952Y20867619D01*
X80748333Y20391429D01*
X80795952Y20439048D01*
X80891190Y20486667D01*
X81129286Y20486667D01*
X81224524Y20439048D01*
X81272143Y20391429D01*
X81319762Y20296190D01*
X81319762Y20058095D01*
X81272143Y19962857D01*
X81224524Y19915238D01*
X81129286Y19867619D01*
X80891190Y19867619D01*
X80795952Y19915238D01*
X80748333Y19962857D01*
X82176905Y20867619D02*
X81986428Y20867619D01*
X81891190Y20820000D01*
X81843571Y20772381D01*
X81748333Y20629524D01*
X81700714Y20439048D01*
X81700714Y20058095D01*
X81748333Y19962857D01*
X81795952Y19915238D01*
X81891190Y19867619D01*
X82081667Y19867619D01*
X82176905Y19915238D01*
X82224524Y19962857D01*
X82272143Y20058095D01*
X82272143Y20296190D01*
X82224524Y20391429D01*
X82176905Y20439048D01*
X82081667Y20486667D01*
X81891190Y20486667D01*
X81795952Y20439048D01*
X81748333Y20391429D01*
X81700714Y20296190D01*
X82700714Y19867619D02*
X82700714Y20867619D01*
X82795952Y20248571D02*
X83081667Y19867619D01*
X83081667Y20534286D02*
X82700714Y20153333D01*
X78003334Y15467619D02*
X77670000Y15943810D01*
X77431905Y15467619D02*
X77431905Y16467619D01*
X77812858Y16467619D01*
X77908096Y16420000D01*
X77955715Y16372381D01*
X78003334Y16277143D01*
X78003334Y16134286D01*
X77955715Y16039048D01*
X77908096Y15991429D01*
X77812858Y15943810D01*
X77431905Y15943810D01*
X78860477Y16134286D02*
X78860477Y15467619D01*
X78622381Y16515238D02*
X78384286Y15800952D01*
X79003334Y15800952D01*
X80765714Y16467619D02*
X81384762Y16467619D01*
X81051428Y16086667D01*
X81194286Y16086667D01*
X81289524Y16039048D01*
X81337143Y15991429D01*
X81384762Y15896190D01*
X81384762Y15658095D01*
X81337143Y15562857D01*
X81289524Y15515238D01*
X81194286Y15467619D01*
X80908571Y15467619D01*
X80813333Y15515238D01*
X80765714Y15562857D01*
X82241905Y16467619D02*
X82051428Y16467619D01*
X81956190Y16420000D01*
X81908571Y16372381D01*
X81813333Y16229524D01*
X81765714Y16039048D01*
X81765714Y15658095D01*
X81813333Y15562857D01*
X81860952Y15515238D01*
X81956190Y15467619D01*
X82146667Y15467619D01*
X82241905Y15515238D01*
X82289524Y15562857D01*
X82337143Y15658095D01*
X82337143Y15896190D01*
X82289524Y15991429D01*
X82241905Y16039048D01*
X82146667Y16086667D01*
X81956190Y16086667D01*
X81860952Y16039048D01*
X81813333Y15991429D01*
X81765714Y15896190D01*
X82765714Y15467619D02*
X82765714Y16467619D01*
X82860952Y15848571D02*
X83146667Y15467619D01*
X83146667Y16134286D02*
X82765714Y15753333D01*
X77938334Y10977619D02*
X77605000Y11453810D01*
X77366905Y10977619D02*
X77366905Y11977619D01*
X77747858Y11977619D01*
X77843096Y11930000D01*
X77890715Y11882381D01*
X77938334Y11787143D01*
X77938334Y11644286D01*
X77890715Y11549048D01*
X77843096Y11501429D01*
X77747858Y11453810D01*
X77366905Y11453810D01*
X78843096Y11977619D02*
X78366905Y11977619D01*
X78319286Y11501429D01*
X78366905Y11549048D01*
X78462143Y11596667D01*
X78700239Y11596667D01*
X78795477Y11549048D01*
X78843096Y11501429D01*
X78890715Y11406190D01*
X78890715Y11168095D01*
X78843096Y11072857D01*
X78795477Y11025238D01*
X78700239Y10977619D01*
X78462143Y10977619D01*
X78366905Y11025238D01*
X78319286Y11072857D01*
X80748333Y11882381D02*
X80795952Y11930000D01*
X80891190Y11977619D01*
X81129286Y11977619D01*
X81224524Y11930000D01*
X81272143Y11882381D01*
X81319762Y11787143D01*
X81319762Y11691905D01*
X81272143Y11549048D01*
X80700714Y10977619D01*
X81319762Y10977619D01*
X81653095Y11977619D02*
X82319762Y11977619D01*
X81891190Y10977619D01*
X82700714Y10977619D02*
X82700714Y11977619D01*
X82795952Y11358571D02*
X83081667Y10977619D01*
X83081667Y11644286D02*
X82700714Y11263333D01*
X77938334Y6532619D02*
X77605000Y7008810D01*
X77366905Y6532619D02*
X77366905Y7532619D01*
X77747858Y7532619D01*
X77843096Y7485000D01*
X77890715Y7437381D01*
X77938334Y7342143D01*
X77938334Y7199286D01*
X77890715Y7104048D01*
X77843096Y7056429D01*
X77747858Y7008810D01*
X77366905Y7008810D01*
X78795477Y7532619D02*
X78605000Y7532619D01*
X78509762Y7485000D01*
X78462143Y7437381D01*
X78366905Y7294524D01*
X78319286Y7104048D01*
X78319286Y6723095D01*
X78366905Y6627857D01*
X78414524Y6580238D01*
X78509762Y6532619D01*
X78700239Y6532619D01*
X78795477Y6580238D01*
X78843096Y6627857D01*
X78890715Y6723095D01*
X78890715Y6961190D01*
X78843096Y7056429D01*
X78795477Y7104048D01*
X78700239Y7151667D01*
X78509762Y7151667D01*
X78414524Y7104048D01*
X78366905Y7056429D01*
X78319286Y6961190D01*
X80748333Y7437381D02*
X80795952Y7485000D01*
X80891190Y7532619D01*
X81129286Y7532619D01*
X81224524Y7485000D01*
X81272143Y7437381D01*
X81319762Y7342143D01*
X81319762Y7246905D01*
X81272143Y7104048D01*
X80700714Y6532619D01*
X81319762Y6532619D01*
X81700714Y7437381D02*
X81748333Y7485000D01*
X81843571Y7532619D01*
X82081667Y7532619D01*
X82176905Y7485000D01*
X82224524Y7437381D01*
X82272143Y7342143D01*
X82272143Y7246905D01*
X82224524Y7104048D01*
X81653095Y6532619D01*
X82272143Y6532619D01*
X82700714Y6532619D02*
X82700714Y7532619D01*
X82795952Y6913571D02*
X83081667Y6532619D01*
X83081667Y7199286D02*
X82700714Y6818333D01*
X85558334Y24312619D02*
X85225000Y24788810D01*
X84986905Y24312619D02*
X84986905Y25312619D01*
X85367858Y25312619D01*
X85463096Y25265000D01*
X85510715Y25217381D01*
X85558334Y25122143D01*
X85558334Y24979286D01*
X85510715Y24884048D01*
X85463096Y24836429D01*
X85367858Y24788810D01*
X84986905Y24788810D01*
X85891667Y25312619D02*
X86558334Y25312619D01*
X86129762Y24312619D01*
X88463572Y24312619D02*
X87892143Y24312619D01*
X88177857Y24312619D02*
X88177857Y25312619D01*
X88082619Y25169762D01*
X87987381Y25074524D01*
X87892143Y25026905D01*
X89082619Y25312619D02*
X89177858Y25312619D01*
X89273096Y25265000D01*
X89320715Y25217381D01*
X89368334Y25122143D01*
X89415953Y24931667D01*
X89415953Y24693571D01*
X89368334Y24503095D01*
X89320715Y24407857D01*
X89273096Y24360238D01*
X89177858Y24312619D01*
X89082619Y24312619D01*
X88987381Y24360238D01*
X88939762Y24407857D01*
X88892143Y24503095D01*
X88844524Y24693571D01*
X88844524Y24931667D01*
X88892143Y25122143D01*
X88939762Y25217381D01*
X88987381Y25265000D01*
X89082619Y25312619D01*
X90035000Y25312619D02*
X90130239Y25312619D01*
X90225477Y25265000D01*
X90273096Y25217381D01*
X90320715Y25122143D01*
X90368334Y24931667D01*
X90368334Y24693571D01*
X90320715Y24503095D01*
X90273096Y24407857D01*
X90225477Y24360238D01*
X90130239Y24312619D01*
X90035000Y24312619D01*
X89939762Y24360238D01*
X89892143Y24407857D01*
X89844524Y24503095D01*
X89796905Y24693571D01*
X89796905Y24931667D01*
X89844524Y25122143D01*
X89892143Y25217381D01*
X89939762Y25265000D01*
X90035000Y25312619D01*
X90796905Y24312619D02*
X90796905Y25312619D01*
X90892143Y24693571D02*
X91177858Y24312619D01*
X91177858Y24979286D02*
X90796905Y24598333D01*
X85558334Y19867619D02*
X85225000Y20343810D01*
X84986905Y19867619D02*
X84986905Y20867619D01*
X85367858Y20867619D01*
X85463096Y20820000D01*
X85510715Y20772381D01*
X85558334Y20677143D01*
X85558334Y20534286D01*
X85510715Y20439048D01*
X85463096Y20391429D01*
X85367858Y20343810D01*
X84986905Y20343810D01*
X86129762Y20439048D02*
X86034524Y20486667D01*
X85986905Y20534286D01*
X85939286Y20629524D01*
X85939286Y20677143D01*
X85986905Y20772381D01*
X86034524Y20820000D01*
X86129762Y20867619D01*
X86320239Y20867619D01*
X86415477Y20820000D01*
X86463096Y20772381D01*
X86510715Y20677143D01*
X86510715Y20629524D01*
X86463096Y20534286D01*
X86415477Y20486667D01*
X86320239Y20439048D01*
X86129762Y20439048D01*
X86034524Y20391429D01*
X85986905Y20343810D01*
X85939286Y20248571D01*
X85939286Y20058095D01*
X85986905Y19962857D01*
X86034524Y19915238D01*
X86129762Y19867619D01*
X86320239Y19867619D01*
X86415477Y19915238D01*
X86463096Y19962857D01*
X86510715Y20058095D01*
X86510715Y20248571D01*
X86463096Y20343810D01*
X86415477Y20391429D01*
X86320239Y20439048D01*
X88463572Y19867619D02*
X87892143Y19867619D01*
X88177857Y19867619D02*
X88177857Y20867619D01*
X88082619Y20724762D01*
X87987381Y20629524D01*
X87892143Y20581905D01*
X89082619Y20867619D02*
X89177858Y20867619D01*
X89273096Y20820000D01*
X89320715Y20772381D01*
X89368334Y20677143D01*
X89415953Y20486667D01*
X89415953Y20248571D01*
X89368334Y20058095D01*
X89320715Y19962857D01*
X89273096Y19915238D01*
X89177858Y19867619D01*
X89082619Y19867619D01*
X88987381Y19915238D01*
X88939762Y19962857D01*
X88892143Y20058095D01*
X88844524Y20248571D01*
X88844524Y20486667D01*
X88892143Y20677143D01*
X88939762Y20772381D01*
X88987381Y20820000D01*
X89082619Y20867619D01*
X90035000Y20867619D02*
X90130239Y20867619D01*
X90225477Y20820000D01*
X90273096Y20772381D01*
X90320715Y20677143D01*
X90368334Y20486667D01*
X90368334Y20248571D01*
X90320715Y20058095D01*
X90273096Y19962857D01*
X90225477Y19915238D01*
X90130239Y19867619D01*
X90035000Y19867619D01*
X89939762Y19915238D01*
X89892143Y19962857D01*
X89844524Y20058095D01*
X89796905Y20248571D01*
X89796905Y20486667D01*
X89844524Y20677143D01*
X89892143Y20772381D01*
X89939762Y20820000D01*
X90035000Y20867619D01*
X90796905Y19867619D02*
X90796905Y20867619D01*
X90892143Y20248571D02*
X91177858Y19867619D01*
X91177858Y20534286D02*
X90796905Y20153333D01*
X85608334Y15467619D02*
X85275000Y15943810D01*
X85036905Y15467619D02*
X85036905Y16467619D01*
X85417858Y16467619D01*
X85513096Y16420000D01*
X85560715Y16372381D01*
X85608334Y16277143D01*
X85608334Y16134286D01*
X85560715Y16039048D01*
X85513096Y15991429D01*
X85417858Y15943810D01*
X85036905Y15943810D01*
X86084524Y15467619D02*
X86275000Y15467619D01*
X86370239Y15515238D01*
X86417858Y15562857D01*
X86513096Y15705714D01*
X86560715Y15896190D01*
X86560715Y16277143D01*
X86513096Y16372381D01*
X86465477Y16420000D01*
X86370239Y16467619D01*
X86179762Y16467619D01*
X86084524Y16420000D01*
X86036905Y16372381D01*
X85989286Y16277143D01*
X85989286Y16039048D01*
X86036905Y15943810D01*
X86084524Y15896190D01*
X86179762Y15848571D01*
X86370239Y15848571D01*
X86465477Y15896190D01*
X86513096Y15943810D01*
X86560715Y16039048D01*
X88513572Y15467619D02*
X87942143Y15467619D01*
X88227857Y15467619D02*
X88227857Y16467619D01*
X88132619Y16324762D01*
X88037381Y16229524D01*
X87942143Y16181905D01*
X89132619Y16467619D02*
X89227858Y16467619D01*
X89323096Y16420000D01*
X89370715Y16372381D01*
X89418334Y16277143D01*
X89465953Y16086667D01*
X89465953Y15848571D01*
X89418334Y15658095D01*
X89370715Y15562857D01*
X89323096Y15515238D01*
X89227858Y15467619D01*
X89132619Y15467619D01*
X89037381Y15515238D01*
X88989762Y15562857D01*
X88942143Y15658095D01*
X88894524Y15848571D01*
X88894524Y16086667D01*
X88942143Y16277143D01*
X88989762Y16372381D01*
X89037381Y16420000D01*
X89132619Y16467619D01*
X90085000Y16467619D02*
X90180239Y16467619D01*
X90275477Y16420000D01*
X90323096Y16372381D01*
X90370715Y16277143D01*
X90418334Y16086667D01*
X90418334Y15848571D01*
X90370715Y15658095D01*
X90323096Y15562857D01*
X90275477Y15515238D01*
X90180239Y15467619D01*
X90085000Y15467619D01*
X89989762Y15515238D01*
X89942143Y15562857D01*
X89894524Y15658095D01*
X89846905Y15848571D01*
X89846905Y16086667D01*
X89894524Y16277143D01*
X89942143Y16372381D01*
X89989762Y16420000D01*
X90085000Y16467619D01*
X90846905Y15467619D02*
X90846905Y16467619D01*
X90942143Y15848571D02*
X91227858Y15467619D01*
X91227858Y16134286D02*
X90846905Y15753333D01*
X85082143Y10977619D02*
X84748809Y11453810D01*
X84510714Y10977619D02*
X84510714Y11977619D01*
X84891667Y11977619D01*
X84986905Y11930000D01*
X85034524Y11882381D01*
X85082143Y11787143D01*
X85082143Y11644286D01*
X85034524Y11549048D01*
X84986905Y11501429D01*
X84891667Y11453810D01*
X84510714Y11453810D01*
X86034524Y10977619D02*
X85463095Y10977619D01*
X85748809Y10977619D02*
X85748809Y11977619D01*
X85653571Y11834762D01*
X85558333Y11739524D01*
X85463095Y11691905D01*
X86653571Y11977619D02*
X86748810Y11977619D01*
X86844048Y11930000D01*
X86891667Y11882381D01*
X86939286Y11787143D01*
X86986905Y11596667D01*
X86986905Y11358571D01*
X86939286Y11168095D01*
X86891667Y11072857D01*
X86844048Y11025238D01*
X86748810Y10977619D01*
X86653571Y10977619D01*
X86558333Y11025238D01*
X86510714Y11072857D01*
X86463095Y11168095D01*
X86415476Y11358571D01*
X86415476Y11596667D01*
X86463095Y11787143D01*
X86510714Y11882381D01*
X86558333Y11930000D01*
X86653571Y11977619D01*
X88463572Y10977619D02*
X87892143Y10977619D01*
X88177857Y10977619D02*
X88177857Y11977619D01*
X88082619Y11834762D01*
X87987381Y11739524D01*
X87892143Y11691905D01*
X89082619Y11977619D02*
X89177858Y11977619D01*
X89273096Y11930000D01*
X89320715Y11882381D01*
X89368334Y11787143D01*
X89415953Y11596667D01*
X89415953Y11358571D01*
X89368334Y11168095D01*
X89320715Y11072857D01*
X89273096Y11025238D01*
X89177858Y10977619D01*
X89082619Y10977619D01*
X88987381Y11025238D01*
X88939762Y11072857D01*
X88892143Y11168095D01*
X88844524Y11358571D01*
X88844524Y11596667D01*
X88892143Y11787143D01*
X88939762Y11882381D01*
X88987381Y11930000D01*
X89082619Y11977619D01*
X90035000Y11977619D02*
X90130239Y11977619D01*
X90225477Y11930000D01*
X90273096Y11882381D01*
X90320715Y11787143D01*
X90368334Y11596667D01*
X90368334Y11358571D01*
X90320715Y11168095D01*
X90273096Y11072857D01*
X90225477Y11025238D01*
X90130239Y10977619D01*
X90035000Y10977619D01*
X89939762Y11025238D01*
X89892143Y11072857D01*
X89844524Y11168095D01*
X89796905Y11358571D01*
X89796905Y11596667D01*
X89844524Y11787143D01*
X89892143Y11882381D01*
X89939762Y11930000D01*
X90035000Y11977619D01*
X90796905Y10977619D02*
X90796905Y11977619D01*
X90892143Y11358571D02*
X91177858Y10977619D01*
X91177858Y11644286D02*
X90796905Y11263333D01*
X85082143Y6532619D02*
X84748809Y7008810D01*
X84510714Y6532619D02*
X84510714Y7532619D01*
X84891667Y7532619D01*
X84986905Y7485000D01*
X85034524Y7437381D01*
X85082143Y7342143D01*
X85082143Y7199286D01*
X85034524Y7104048D01*
X84986905Y7056429D01*
X84891667Y7008810D01*
X84510714Y7008810D01*
X86034524Y6532619D02*
X85463095Y6532619D01*
X85748809Y6532619D02*
X85748809Y7532619D01*
X85653571Y7389762D01*
X85558333Y7294524D01*
X85463095Y7246905D01*
X86986905Y6532619D02*
X86415476Y6532619D01*
X86701190Y6532619D02*
X86701190Y7532619D01*
X86605952Y7389762D01*
X86510714Y7294524D01*
X86415476Y7246905D01*
X88463572Y6532619D02*
X87892143Y6532619D01*
X88177857Y6532619D02*
X88177857Y7532619D01*
X88082619Y7389762D01*
X87987381Y7294524D01*
X87892143Y7246905D01*
X89082619Y7532619D02*
X89177858Y7532619D01*
X89273096Y7485000D01*
X89320715Y7437381D01*
X89368334Y7342143D01*
X89415953Y7151667D01*
X89415953Y6913571D01*
X89368334Y6723095D01*
X89320715Y6627857D01*
X89273096Y6580238D01*
X89177858Y6532619D01*
X89082619Y6532619D01*
X88987381Y6580238D01*
X88939762Y6627857D01*
X88892143Y6723095D01*
X88844524Y6913571D01*
X88844524Y7151667D01*
X88892143Y7342143D01*
X88939762Y7437381D01*
X88987381Y7485000D01*
X89082619Y7532619D01*
X90035000Y7532619D02*
X90130239Y7532619D01*
X90225477Y7485000D01*
X90273096Y7437381D01*
X90320715Y7342143D01*
X90368334Y7151667D01*
X90368334Y6913571D01*
X90320715Y6723095D01*
X90273096Y6627857D01*
X90225477Y6580238D01*
X90130239Y6532619D01*
X90035000Y6532619D01*
X89939762Y6580238D01*
X89892143Y6627857D01*
X89844524Y6723095D01*
X89796905Y6913571D01*
X89796905Y7151667D01*
X89844524Y7342143D01*
X89892143Y7437381D01*
X89939762Y7485000D01*
X90035000Y7532619D01*
X90796905Y6532619D02*
X90796905Y7532619D01*
X90892143Y6913571D02*
X91177858Y6532619D01*
X91177858Y7199286D02*
X90796905Y6818333D01*
X48553762Y13136619D02*
X48220428Y13612810D01*
X47982333Y13136619D02*
X47982333Y14136619D01*
X48363286Y14136619D01*
X48458524Y14089000D01*
X48506143Y14041381D01*
X48553762Y13946143D01*
X48553762Y13803286D01*
X48506143Y13708048D01*
X48458524Y13660429D01*
X48363286Y13612810D01*
X47982333Y13612810D01*
X48839476Y14136619D02*
X49172809Y13136619D01*
X49506143Y14136619D01*
X50363286Y13136619D02*
X49791857Y13136619D01*
X50077571Y13136619D02*
X50077571Y14136619D01*
X49982333Y13993762D01*
X49887095Y13898524D01*
X49791857Y13850905D01*
X52808333Y3357619D02*
X52808333Y4357619D01*
X53189286Y4357619D01*
X53284524Y4310000D01*
X53332143Y4262381D01*
X53379762Y4167143D01*
X53379762Y4024286D01*
X53332143Y3929048D01*
X53284524Y3881429D01*
X53189286Y3833810D01*
X52808333Y3833810D01*
X53998809Y4357619D02*
X54189286Y4357619D01*
X54284524Y4310000D01*
X54379762Y4214762D01*
X54427381Y4024286D01*
X54427381Y3690952D01*
X54379762Y3500476D01*
X54284524Y3405238D01*
X54189286Y3357619D01*
X53998809Y3357619D01*
X53903571Y3405238D01*
X53808333Y3500476D01*
X53760714Y3690952D01*
X53760714Y4024286D01*
X53808333Y4214762D01*
X53903571Y4310000D01*
X53998809Y4357619D01*
X54713095Y4357619D02*
X55284524Y4357619D01*
X54998809Y3357619D02*
X54998809Y4357619D01*
X9652095Y31916619D02*
X9652095Y31107095D01*
X9699714Y31011857D01*
X9747333Y30964238D01*
X9842571Y30916619D01*
X10033048Y30916619D01*
X10128286Y30964238D01*
X10175905Y31011857D01*
X10223524Y31107095D01*
X10223524Y31916619D01*
X11223524Y30916619D02*
X10652095Y30916619D01*
X10937809Y30916619D02*
X10937809Y31916619D01*
X10842571Y31773762D01*
X10747333Y31678524D01*
X10652095Y31630905D01*
X9422143Y24273333D02*
X9898334Y24273333D01*
X9326905Y23987619D02*
X9660238Y24987619D01*
X9993572Y23987619D01*
X10898334Y24082857D02*
X10850715Y24035238D01*
X10707858Y23987619D01*
X10612620Y23987619D01*
X10469762Y24035238D01*
X10374524Y24130476D01*
X10326905Y24225714D01*
X10279286Y24416190D01*
X10279286Y24559048D01*
X10326905Y24749524D01*
X10374524Y24844762D01*
X10469762Y24940000D01*
X10612620Y24987619D01*
X10707858Y24987619D01*
X10850715Y24940000D01*
X10898334Y24892381D01*
X11279286Y24035238D02*
X11422143Y23987619D01*
X11660239Y23987619D01*
X11755477Y24035238D01*
X11803096Y24082857D01*
X11850715Y24178095D01*
X11850715Y24273333D01*
X11803096Y24368571D01*
X11755477Y24416190D01*
X11660239Y24463810D01*
X11469762Y24511429D01*
X11374524Y24559048D01*
X11326905Y24606667D01*
X11279286Y24701905D01*
X11279286Y24797143D01*
X11326905Y24892381D01*
X11374524Y24940000D01*
X11469762Y24987619D01*
X11707858Y24987619D01*
X11850715Y24940000D01*
X12184048Y24987619D02*
X12850715Y24987619D01*
X12422143Y23987619D01*
X13755477Y23987619D02*
X13184048Y23987619D01*
X13469762Y23987619D02*
X13469762Y24987619D01*
X13374524Y24844762D01*
X13279286Y24749524D01*
X13184048Y24701905D01*
X14136429Y24892381D02*
X14184048Y24940000D01*
X14279286Y24987619D01*
X14517382Y24987619D01*
X14612620Y24940000D01*
X14660239Y24892381D01*
X14707858Y24797143D01*
X14707858Y24701905D01*
X14660239Y24559048D01*
X14088810Y23987619D01*
X14707858Y23987619D01*
X40132095Y34583619D02*
X40132095Y33774095D01*
X40179714Y33678857D01*
X40227333Y33631238D01*
X40322571Y33583619D01*
X40513048Y33583619D01*
X40608286Y33631238D01*
X40655905Y33678857D01*
X40703524Y33774095D01*
X40703524Y34583619D01*
X41132095Y34488381D02*
X41179714Y34536000D01*
X41274952Y34583619D01*
X41513048Y34583619D01*
X41608286Y34536000D01*
X41655905Y34488381D01*
X41703524Y34393143D01*
X41703524Y34297905D01*
X41655905Y34155048D01*
X41084476Y33583619D01*
X41703524Y33583619D01*
X28464095Y24042619D02*
X29130762Y24042619D01*
X28702190Y23042619D01*
X29654571Y23614048D02*
X29559333Y23661667D01*
X29511714Y23709286D01*
X29464095Y23804524D01*
X29464095Y23852143D01*
X29511714Y23947381D01*
X29559333Y23995000D01*
X29654571Y24042619D01*
X29845048Y24042619D01*
X29940286Y23995000D01*
X29987905Y23947381D01*
X30035524Y23852143D01*
X30035524Y23804524D01*
X29987905Y23709286D01*
X29940286Y23661667D01*
X29845048Y23614048D01*
X29654571Y23614048D01*
X29559333Y23566429D01*
X29511714Y23518810D01*
X29464095Y23423571D01*
X29464095Y23233095D01*
X29511714Y23137857D01*
X29559333Y23090238D01*
X29654571Y23042619D01*
X29845048Y23042619D01*
X29940286Y23090238D01*
X29987905Y23137857D01*
X30035524Y23233095D01*
X30035524Y23423571D01*
X29987905Y23518810D01*
X29940286Y23566429D01*
X29845048Y23614048D01*
X30654571Y24042619D02*
X30749810Y24042619D01*
X30845048Y23995000D01*
X30892667Y23947381D01*
X30940286Y23852143D01*
X30987905Y23661667D01*
X30987905Y23423571D01*
X30940286Y23233095D01*
X30892667Y23137857D01*
X30845048Y23090238D01*
X30749810Y23042619D01*
X30654571Y23042619D01*
X30559333Y23090238D01*
X30511714Y23137857D01*
X30464095Y23233095D01*
X30416476Y23423571D01*
X30416476Y23661667D01*
X30464095Y23852143D01*
X30511714Y23947381D01*
X30559333Y23995000D01*
X30654571Y24042619D01*
X31892667Y24042619D02*
X31416476Y24042619D01*
X31368857Y23566429D01*
X31416476Y23614048D01*
X31511714Y23661667D01*
X31749810Y23661667D01*
X31845048Y23614048D01*
X31892667Y23566429D01*
X31940286Y23471190D01*
X31940286Y23233095D01*
X31892667Y23137857D01*
X31845048Y23090238D01*
X31749810Y23042619D01*
X31511714Y23042619D01*
X31416476Y23090238D01*
X31368857Y23137857D01*
D15*
X53890333Y41613667D02*
X53890333Y40174333D01*
X53975000Y40005000D01*
X54059667Y39920333D01*
X54229000Y39835667D01*
X54567667Y39835667D01*
X54737000Y39920333D01*
X54821667Y40005000D01*
X54906333Y40174333D01*
X54906333Y41613667D01*
X55583667Y41613667D02*
X56684334Y41613667D01*
X56091667Y40936333D01*
X56345667Y40936333D01*
X56515000Y40851667D01*
X56599667Y40767000D01*
X56684334Y40597667D01*
X56684334Y40174333D01*
X56599667Y40005000D01*
X56515000Y39920333D01*
X56345667Y39835667D01*
X55837667Y39835667D01*
X55668334Y39920333D01*
X55583667Y40005000D01*
X61256331Y32850667D02*
X61256331Y33782000D01*
X61171665Y33951333D01*
X61002331Y34036000D01*
X60663665Y34036000D01*
X60494331Y33951333D01*
X61256331Y32935333D02*
X61086998Y32850667D01*
X60663665Y32850667D01*
X60494331Y32935333D01*
X60409665Y33104667D01*
X60409665Y33274000D01*
X60494331Y33443333D01*
X60663665Y33528000D01*
X61086998Y33528000D01*
X61256331Y33612667D01*
X62102998Y32850667D02*
X62102998Y34036000D01*
X62102998Y33697333D02*
X62187665Y33866667D01*
X62272332Y33951333D01*
X62441665Y34036000D01*
X62610998Y34036000D01*
X63965665Y32850667D02*
X63965665Y34628667D01*
X63965665Y32935333D02*
X63796332Y32850667D01*
X63457665Y32850667D01*
X63288332Y32935333D01*
X63203665Y33020000D01*
X63118999Y33189333D01*
X63118999Y33697333D01*
X63203665Y33866667D01*
X63288332Y33951333D01*
X63457665Y34036000D01*
X63796332Y34036000D01*
X63965665Y33951333D01*
X65574332Y34036000D02*
X65574332Y32850667D01*
X64812332Y34036000D02*
X64812332Y33104667D01*
X64896999Y32935333D01*
X65066332Y32850667D01*
X65320332Y32850667D01*
X65489666Y32935333D01*
X65574332Y33020000D01*
X66420999Y32850667D02*
X66420999Y34036000D01*
X66420999Y34628667D02*
X66336333Y34544000D01*
X66420999Y34459333D01*
X66505666Y34544000D01*
X66420999Y34628667D01*
X66420999Y34459333D01*
X67267666Y34036000D02*
X67267666Y32850667D01*
X67267666Y33866667D02*
X67352333Y33951333D01*
X67521666Y34036000D01*
X67775666Y34036000D01*
X67945000Y33951333D01*
X68029666Y33782000D01*
X68029666Y32850667D01*
X69130333Y32850667D02*
X68961000Y32935333D01*
X68876333Y33020000D01*
X68791667Y33189333D01*
X68791667Y33697333D01*
X68876333Y33866667D01*
X68961000Y33951333D01*
X69130333Y34036000D01*
X69384333Y34036000D01*
X69553667Y33951333D01*
X69638333Y33866667D01*
X69723000Y33697333D01*
X69723000Y33189333D01*
X69638333Y33020000D01*
X69553667Y32935333D01*
X69384333Y32850667D01*
X69130333Y32850667D01*
X70061667Y32681333D02*
X71416334Y32681333D01*
X71839667Y32850667D02*
X71839667Y34036000D01*
X71839667Y33866667D02*
X71924334Y33951333D01*
X72093667Y34036000D01*
X72347667Y34036000D01*
X72517001Y33951333D01*
X72601667Y33782000D01*
X72601667Y32850667D01*
X72601667Y33782000D02*
X72686334Y33951333D01*
X72855667Y34036000D01*
X73109667Y34036000D01*
X73279001Y33951333D01*
X73363667Y33782000D01*
X73363667Y32850667D01*
X74210334Y32850667D02*
X74210334Y34036000D01*
X74210334Y34628667D02*
X74125668Y34544000D01*
X74210334Y34459333D01*
X74295001Y34544000D01*
X74210334Y34628667D01*
X74210334Y34459333D01*
X75057001Y34036000D02*
X75057001Y32850667D01*
X75057001Y33866667D02*
X75141668Y33951333D01*
X75311001Y34036000D01*
X75565001Y34036000D01*
X75734335Y33951333D01*
X75819001Y33782000D01*
X75819001Y32850667D01*
X76665668Y32850667D02*
X76665668Y34036000D01*
X76665668Y34628667D02*
X76581002Y34544000D01*
X76665668Y34459333D01*
X76750335Y34544000D01*
X76665668Y34628667D01*
X76665668Y34459333D01*
D13*
X62992095Y26582619D02*
X62992095Y25773095D01*
X63039714Y25677857D01*
X63087333Y25630238D01*
X63182571Y25582619D01*
X63373048Y25582619D01*
X63468286Y25630238D01*
X63515905Y25677857D01*
X63563524Y25773095D01*
X63563524Y26582619D01*
X64515905Y26582619D02*
X64039714Y26582619D01*
X63992095Y26106429D01*
X64039714Y26154048D01*
X64134952Y26201667D01*
X64373048Y26201667D01*
X64468286Y26154048D01*
X64515905Y26106429D01*
X64563524Y26011190D01*
X64563524Y25773095D01*
X64515905Y25677857D01*
X64468286Y25630238D01*
X64373048Y25582619D01*
X64134952Y25582619D01*
X64039714Y25630238D01*
X63992095Y25677857D01*
X46228095Y25566619D02*
X46228095Y24757095D01*
X46275714Y24661857D01*
X46323333Y24614238D01*
X46418571Y24566619D01*
X46609048Y24566619D01*
X46704286Y24614238D01*
X46751905Y24661857D01*
X46799524Y24757095D01*
X46799524Y25566619D01*
X47704286Y25233286D02*
X47704286Y24566619D01*
X47466190Y25614238D02*
X47228095Y24899952D01*
X47847143Y24899952D01*
X49585571Y19407429D02*
X49633190Y19550286D01*
X49680810Y19597905D01*
X49776048Y19645524D01*
X49918905Y19645524D01*
X50014143Y19597905D01*
X50061762Y19550286D01*
X50109381Y19455048D01*
X50109381Y19074095D01*
X49109381Y19074095D01*
X49109381Y19407429D01*
X49157000Y19502667D01*
X49204619Y19550286D01*
X49299857Y19597905D01*
X49395095Y19597905D01*
X49490333Y19550286D01*
X49537952Y19502667D01*
X49585571Y19407429D01*
X49585571Y19074095D01*
X49442714Y20502667D02*
X50109381Y20502667D01*
X49442714Y20074095D02*
X49966524Y20074095D01*
X50061762Y20121714D01*
X50109381Y20216952D01*
X50109381Y20359810D01*
X50061762Y20455048D01*
X50014143Y20502667D01*
X49442714Y20883619D02*
X49442714Y21407429D01*
X50109381Y20883619D01*
X50109381Y21407429D01*
X49442714Y21693143D02*
X49442714Y22216953D01*
X50109381Y21693143D01*
X50109381Y22216953D01*
X50061762Y22978858D02*
X50109381Y22883620D01*
X50109381Y22693143D01*
X50061762Y22597905D01*
X49966524Y22550286D01*
X49585571Y22550286D01*
X49490333Y22597905D01*
X49442714Y22693143D01*
X49442714Y22883620D01*
X49490333Y22978858D01*
X49585571Y23026477D01*
X49680810Y23026477D01*
X49776048Y22550286D01*
X50109381Y23455048D02*
X49442714Y23455048D01*
X49633190Y23455048D02*
X49537952Y23502667D01*
X49490333Y23550286D01*
X49442714Y23645524D01*
X49442714Y23740763D01*
X54903429Y24574048D02*
X54903429Y25335953D01*
X55284381Y24955001D02*
X54522476Y24955001D01*
X6802381Y23638096D02*
X6802381Y23161905D01*
X5802381Y23161905D01*
X5802381Y24161905D02*
X5802381Y24352382D01*
X5850000Y24447620D01*
X5945238Y24542858D01*
X6135714Y24590477D01*
X6469048Y24590477D01*
X6659524Y24542858D01*
X6754762Y24447620D01*
X6802381Y24352382D01*
X6802381Y24161905D01*
X6754762Y24066667D01*
X6659524Y23971429D01*
X6469048Y23923810D01*
X6135714Y23923810D01*
X5945238Y23971429D01*
X5850000Y24066667D01*
X5802381Y24161905D01*
X6516667Y24971429D02*
X6516667Y25447620D01*
X6802381Y24876191D02*
X5802381Y25209524D01*
X6802381Y25542858D01*
X6802381Y25876191D02*
X5802381Y25876191D01*
X5802381Y26114286D01*
X5850000Y26257144D01*
X5945238Y26352382D01*
X6040476Y26400001D01*
X6230952Y26447620D01*
X6373810Y26447620D01*
X6564286Y26400001D01*
X6659524Y26352382D01*
X6754762Y26257144D01*
X6802381Y26114286D01*
X6802381Y25876191D01*
X6421429Y26876191D02*
X6421429Y27638096D01*
X6802381Y27257144D02*
X6040476Y27257144D01*
X6278571Y30464286D02*
X6326190Y30607143D01*
X6373810Y30654762D01*
X6469048Y30702381D01*
X6611905Y30702381D01*
X6707143Y30654762D01*
X6754762Y30607143D01*
X6802381Y30511905D01*
X6802381Y30130952D01*
X5802381Y30130952D01*
X5802381Y30464286D01*
X5850000Y30559524D01*
X5897619Y30607143D01*
X5992857Y30654762D01*
X6088095Y30654762D01*
X6183333Y30607143D01*
X6230952Y30559524D01*
X6278571Y30464286D01*
X6278571Y30130952D01*
X6802381Y31559524D02*
X6278571Y31559524D01*
X6183333Y31511905D01*
X6135714Y31416667D01*
X6135714Y31226190D01*
X6183333Y31130952D01*
X6754762Y31559524D02*
X6802381Y31464286D01*
X6802381Y31226190D01*
X6754762Y31130952D01*
X6659524Y31083333D01*
X6564286Y31083333D01*
X6469048Y31130952D01*
X6421429Y31226190D01*
X6421429Y31464286D01*
X6373810Y31559524D01*
X6135714Y31892857D02*
X6135714Y32273809D01*
X5802381Y32035714D02*
X6659524Y32035714D01*
X6754762Y32083333D01*
X6802381Y32178571D01*
X6802381Y32273809D01*
X6421429Y32607143D02*
X6421429Y33369048D01*
X6802381Y32988096D02*
X6040476Y32988096D01*
X6802381Y14113096D02*
X6802381Y13636905D01*
X5802381Y13636905D01*
X5802381Y14636905D02*
X5802381Y14827382D01*
X5850000Y14922620D01*
X5945238Y15017858D01*
X6135714Y15065477D01*
X6469048Y15065477D01*
X6659524Y15017858D01*
X6754762Y14922620D01*
X6802381Y14827382D01*
X6802381Y14636905D01*
X6754762Y14541667D01*
X6659524Y14446429D01*
X6469048Y14398810D01*
X6135714Y14398810D01*
X5945238Y14446429D01*
X5850000Y14541667D01*
X5802381Y14636905D01*
X6516667Y15446429D02*
X6516667Y15922620D01*
X6802381Y15351191D02*
X5802381Y15684524D01*
X6802381Y16017858D01*
X6802381Y16351191D02*
X5802381Y16351191D01*
X5802381Y16589286D01*
X5850000Y16732144D01*
X5945238Y16827382D01*
X6040476Y16875001D01*
X6230952Y16922620D01*
X6373810Y16922620D01*
X6564286Y16875001D01*
X6659524Y16827382D01*
X6754762Y16732144D01*
X6802381Y16589286D01*
X6802381Y16351191D01*
X6421429Y17351191D02*
X6421429Y18113096D01*
X6278571Y8802858D02*
X6326190Y8945715D01*
X6373810Y8993334D01*
X6469048Y9040953D01*
X6611905Y9040953D01*
X6707143Y8993334D01*
X6754762Y8945715D01*
X6802381Y8850477D01*
X6802381Y8469524D01*
X5802381Y8469524D01*
X5802381Y8802858D01*
X5850000Y8898096D01*
X5897619Y8945715D01*
X5992857Y8993334D01*
X6088095Y8993334D01*
X6183333Y8945715D01*
X6230952Y8898096D01*
X6278571Y8802858D01*
X6278571Y8469524D01*
X6516667Y9421905D02*
X6516667Y9898096D01*
X6802381Y9326667D02*
X5802381Y9660000D01*
X6802381Y9993334D01*
X5802381Y10183810D02*
X5802381Y10755239D01*
X6802381Y10469524D02*
X5802381Y10469524D01*
X6421429Y11088572D02*
X6421429Y11850477D01*
X9517143Y22153619D02*
X9183809Y22629810D01*
X8945714Y22153619D02*
X8945714Y23153619D01*
X9326667Y23153619D01*
X9421905Y23106000D01*
X9469524Y23058381D01*
X9517143Y22963143D01*
X9517143Y22820286D01*
X9469524Y22725048D01*
X9421905Y22677429D01*
X9326667Y22629810D01*
X8945714Y22629810D01*
X10469524Y22153619D02*
X9898095Y22153619D01*
X10183809Y22153619D02*
X10183809Y23153619D01*
X10088571Y23010762D01*
X9993333Y22915524D01*
X9898095Y22867905D01*
X10850476Y23058381D02*
X10898095Y23106000D01*
X10993333Y23153619D01*
X11231429Y23153619D01*
X11326667Y23106000D01*
X11374286Y23058381D01*
X11421905Y22963143D01*
X11421905Y22867905D01*
X11374286Y22725048D01*
X10802857Y22153619D01*
X11421905Y22153619D01*
X8548905Y19756381D02*
X8596524Y19804000D01*
X8691762Y19851619D01*
X8929858Y19851619D01*
X9025096Y19804000D01*
X9072715Y19756381D01*
X9120334Y19661143D01*
X9120334Y19565905D01*
X9072715Y19423048D01*
X8501286Y18851619D01*
X9120334Y18851619D01*
X9739381Y19851619D02*
X9834620Y19851619D01*
X9929858Y19804000D01*
X9977477Y19756381D01*
X10025096Y19661143D01*
X10072715Y19470667D01*
X10072715Y19232571D01*
X10025096Y19042095D01*
X9977477Y18946857D01*
X9929858Y18899238D01*
X9834620Y18851619D01*
X9739381Y18851619D01*
X9644143Y18899238D01*
X9596524Y18946857D01*
X9548905Y19042095D01*
X9501286Y19232571D01*
X9501286Y19470667D01*
X9548905Y19661143D01*
X9596524Y19756381D01*
X9644143Y19804000D01*
X9739381Y19851619D01*
X10691762Y19851619D02*
X10787001Y19851619D01*
X10882239Y19804000D01*
X10929858Y19756381D01*
X10977477Y19661143D01*
X11025096Y19470667D01*
X11025096Y19232571D01*
X10977477Y19042095D01*
X10929858Y18946857D01*
X10882239Y18899238D01*
X10787001Y18851619D01*
X10691762Y18851619D01*
X10596524Y18899238D01*
X10548905Y18946857D01*
X10501286Y19042095D01*
X10453667Y19232571D01*
X10453667Y19470667D01*
X10501286Y19661143D01*
X10548905Y19756381D01*
X10596524Y19804000D01*
X10691762Y19851619D01*
X12025096Y18851619D02*
X11691762Y19327810D01*
X11453667Y18851619D02*
X11453667Y19851619D01*
X11834620Y19851619D01*
X11929858Y19804000D01*
X11977477Y19756381D01*
X12025096Y19661143D01*
X12025096Y19518286D01*
X11977477Y19423048D01*
X11929858Y19375429D01*
X11834620Y19327810D01*
X11453667Y19327810D01*
X86106096Y2278000D02*
X86010858Y2325619D01*
X85868001Y2325619D01*
X85725143Y2278000D01*
X85629905Y2182762D01*
X85582286Y2087524D01*
X85534667Y1897048D01*
X85534667Y1754190D01*
X85582286Y1563714D01*
X85629905Y1468476D01*
X85725143Y1373238D01*
X85868001Y1325619D01*
X85963239Y1325619D01*
X86106096Y1373238D01*
X86153715Y1420857D01*
X86153715Y1754190D01*
X85963239Y1754190D01*
X86582286Y1325619D02*
X86582286Y2325619D01*
X87153715Y1325619D01*
X87153715Y2325619D01*
X87629905Y1325619D02*
X87629905Y2325619D01*
X87868000Y2325619D01*
X88010858Y2278000D01*
X88106096Y2182762D01*
X88153715Y2087524D01*
X88201334Y1897048D01*
X88201334Y1754190D01*
X88153715Y1563714D01*
X88106096Y1468476D01*
X88010858Y1373238D01*
X87868000Y1325619D01*
X87629905Y1325619D01*
X93623000Y34789857D02*
X93575381Y34742238D01*
X93432524Y34694619D01*
X93337286Y34694619D01*
X93194428Y34742238D01*
X93099190Y34837476D01*
X93051571Y34932714D01*
X93003952Y35123190D01*
X93003952Y35266048D01*
X93051571Y35456524D01*
X93099190Y35551762D01*
X93194428Y35647000D01*
X93337286Y35694619D01*
X93432524Y35694619D01*
X93575381Y35647000D01*
X93623000Y35599381D01*
X94432524Y34742238D02*
X94337286Y34694619D01*
X94146809Y34694619D01*
X94051571Y34742238D01*
X94003952Y34837476D01*
X94003952Y35218429D01*
X94051571Y35313667D01*
X94146809Y35361286D01*
X94337286Y35361286D01*
X94432524Y35313667D01*
X94480143Y35218429D01*
X94480143Y35123190D01*
X94003952Y35027952D01*
X95051571Y34694619D02*
X94956333Y34742238D01*
X94908714Y34837476D01*
X94908714Y35694619D01*
X95575381Y34694619D02*
X95480143Y34742238D01*
X95432524Y34837476D01*
X95432524Y35694619D01*
X95718239Y34599381D02*
X96480144Y34599381D01*
X97242049Y34694619D02*
X96670620Y34694619D01*
X96956334Y34694619D02*
X96956334Y35694619D01*
X96861096Y35551762D01*
X96765858Y35456524D01*
X96670620Y35408905D01*
%LPC*%
D16*
X95123000Y84147000D03*
X84201000Y56080000D03*
X84201000Y60525000D03*
X84201000Y64970000D03*
X84201000Y69415000D03*
X84201000Y73860000D03*
X84201000Y52778000D03*
D17*
X11510000Y71955000D03*
X8810000Y71955000D03*
D18*
X4445000Y95450000D03*
D19*
X3175000Y61160000D03*
X3175000Y66875000D03*
X3175000Y82750000D03*
X3175000Y76400000D03*
D20*
X52832000Y75255000D03*
X52832000Y68655000D03*
D21*
X64135000Y73860000D03*
X64135000Y71320000D03*
X64135000Y68780000D03*
X64135000Y66240000D03*
X64135000Y63700000D03*
X64135000Y61160000D03*
X64135000Y58620000D03*
X64135000Y56080000D03*
X71755000Y56080000D03*
X71755000Y58620000D03*
X71755000Y61160000D03*
X71755000Y63700000D03*
X71755000Y66240000D03*
X71755000Y68780000D03*
X71755000Y71320000D03*
X71755000Y73860000D03*
D22*
X50165000Y80210000D03*
D23*
X52705000Y80210000D03*
X55245000Y80210000D03*
X57785000Y80210000D03*
X60325000Y80210000D03*
X62865000Y80210000D03*
X65405000Y80210000D03*
X67945000Y80210000D03*
X70485000Y80210000D03*
X73025000Y80210000D03*
X75565000Y80210000D03*
X78105000Y80210000D03*
X80645000Y80210000D03*
X83185000Y80210000D03*
X85725000Y80210000D03*
X85725000Y95450000D03*
X83185000Y95450000D03*
X80645000Y95450000D03*
X78105000Y95450000D03*
X75565000Y95450000D03*
X73025000Y95450000D03*
X70485000Y95450000D03*
X67945000Y95450000D03*
X65405000Y95450000D03*
X62865000Y95450000D03*
X60325000Y95450000D03*
X57785000Y95450000D03*
X55245000Y95450000D03*
X52705000Y95450000D03*
X50165000Y95450000D03*
D24*
X22225000Y78940000D03*
X22225000Y81480000D03*
X22225000Y76400000D03*
D25*
X38989000Y78940000D03*
D26*
X9365000Y80845000D03*
X9365000Y79575000D03*
X9365000Y78305000D03*
X9365000Y77035000D03*
X14765000Y77035000D03*
X14765000Y78305000D03*
X14765000Y79575000D03*
X14765000Y80845000D03*
D27*
X56475000Y63700000D03*
X53975000Y63700000D03*
X51475000Y63700000D03*
D28*
X49575000Y56700000D03*
X58375000Y56700000D03*
D17*
X88980000Y56080000D03*
X86280000Y56080000D03*
X88980000Y60525000D03*
X86280000Y60525000D03*
X88980000Y64970000D03*
X86280000Y64970000D03*
X88980000Y69415000D03*
X86280000Y69415000D03*
X88980000Y73860000D03*
X86280000Y73860000D03*
X81995000Y56080000D03*
X79295000Y56080000D03*
X81995000Y60525000D03*
X79295000Y60525000D03*
X81995000Y64970000D03*
X79295000Y64970000D03*
X81995000Y69415000D03*
X79295000Y69415000D03*
X81995000Y73860000D03*
X79295000Y73860000D03*
X43100000Y96720000D03*
X45800000Y96720000D03*
D29*
X10160000Y65605000D03*
X10160000Y68145000D03*
X10160000Y63065000D03*
D25*
X26924000Y65605000D03*
D30*
X95250000Y77035000D03*
D31*
X95250000Y74495000D03*
X95250000Y71955000D03*
X95250000Y69415000D03*
X95250000Y66875000D03*
X95250000Y64335000D03*
X95250000Y61795000D03*
D32*
X28575000Y88846000D03*
D33*
X26035000Y88846000D03*
X23495000Y88846000D03*
X20955000Y88846000D03*
D34*
X36195000Y95450000D03*
D35*
X38735000Y95450000D03*
D36*
X10159480Y84652460D03*
D37*
X20319480Y84652460D03*
D38*
X21570000Y73225000D03*
X19070000Y73225000D03*
D39*
X10635000Y95450000D03*
X16035000Y95450000D03*
D38*
X11958000Y89100000D03*
X14458000Y89100000D03*
D40*
X18415000Y77055000D03*
X18415000Y79555000D03*
D18*
X94615000Y95450000D03*
X4445000Y54810000D03*
X94615000Y54810000D03*
X94615000Y3810000D03*
X4445000Y3810000D03*
X94615000Y44450000D03*
D40*
X18415000Y26055000D03*
X18415000Y28555000D03*
D38*
X11958000Y38100000D03*
X14458000Y38100000D03*
D39*
X10635000Y44450000D03*
X16035000Y44450000D03*
D38*
X21570000Y22225000D03*
X19070000Y22225000D03*
D36*
X10159480Y33652460D03*
D37*
X20319480Y33652460D03*
D34*
X36195000Y44450000D03*
D35*
X38735000Y44450000D03*
D32*
X28575000Y37846000D03*
D33*
X26035000Y37846000D03*
X23495000Y37846000D03*
X20955000Y37846000D03*
D30*
X95250000Y26035000D03*
D31*
X95250000Y23495000D03*
X95250000Y20955000D03*
X95250000Y18415000D03*
X95250000Y15875000D03*
X95250000Y13335000D03*
X95250000Y10795000D03*
D29*
X10160000Y14605000D03*
X10160000Y17145000D03*
X10160000Y12065000D03*
D25*
X26924000Y14605000D03*
D17*
X43100000Y45720000D03*
X45800000Y45720000D03*
X81995000Y22860000D03*
X79295000Y22860000D03*
X81995000Y18415000D03*
X79295000Y18415000D03*
X81995000Y13970000D03*
X79295000Y13970000D03*
X81995000Y9525000D03*
X79295000Y9525000D03*
X81995000Y5080000D03*
X79295000Y5080000D03*
X88980000Y22860000D03*
X86280000Y22860000D03*
X88980000Y18415000D03*
X86280000Y18415000D03*
X88980000Y13970000D03*
X86280000Y13970000D03*
X88980000Y9525000D03*
X86280000Y9525000D03*
X88980000Y5080000D03*
X86280000Y5080000D03*
D27*
X56475000Y12700000D03*
X53975000Y12700000D03*
X51475000Y12700000D03*
D28*
X49575000Y5700000D03*
X58375000Y5700000D03*
D26*
X9365000Y29845000D03*
X9365000Y28575000D03*
X9365000Y27305000D03*
X9365000Y26035000D03*
X14765000Y26035000D03*
X14765000Y27305000D03*
X14765000Y28575000D03*
X14765000Y29845000D03*
D24*
X22225000Y27940000D03*
X22225000Y30480000D03*
X22225000Y25400000D03*
D25*
X38989000Y27940000D03*
D22*
X50165000Y29210000D03*
D23*
X52705000Y29210000D03*
X55245000Y29210000D03*
X57785000Y29210000D03*
X60325000Y29210000D03*
X62865000Y29210000D03*
X65405000Y29210000D03*
X67945000Y29210000D03*
X70485000Y29210000D03*
X73025000Y29210000D03*
X75565000Y29210000D03*
X78105000Y29210000D03*
X80645000Y29210000D03*
X83185000Y29210000D03*
X85725000Y29210000D03*
X85725000Y44450000D03*
X83185000Y44450000D03*
X80645000Y44450000D03*
X78105000Y44450000D03*
X75565000Y44450000D03*
X73025000Y44450000D03*
X70485000Y44450000D03*
X67945000Y44450000D03*
X65405000Y44450000D03*
X62865000Y44450000D03*
X60325000Y44450000D03*
X57785000Y44450000D03*
X55245000Y44450000D03*
X52705000Y44450000D03*
X50165000Y44450000D03*
D21*
X64135000Y22860000D03*
X64135000Y20320000D03*
X64135000Y17780000D03*
X64135000Y15240000D03*
X64135000Y12700000D03*
X64135000Y10160000D03*
X64135000Y7620000D03*
X64135000Y5080000D03*
X71755000Y5080000D03*
X71755000Y7620000D03*
X71755000Y10160000D03*
X71755000Y12700000D03*
X71755000Y15240000D03*
X71755000Y17780000D03*
X71755000Y20320000D03*
X71755000Y22860000D03*
D20*
X52832000Y24255000D03*
X52832000Y17655000D03*
D19*
X3175000Y25400000D03*
X3175000Y31750000D03*
X3175000Y15875000D03*
X3175000Y10160000D03*
D18*
X4445000Y44450000D03*
D17*
X11510000Y20955000D03*
X8810000Y20955000D03*
D16*
X84201000Y1778000D03*
X84201000Y22860000D03*
X84201000Y18415000D03*
X84201000Y13970000D03*
X84201000Y9525000D03*
X84201000Y5080000D03*
X95123000Y33147000D03*
M02*
