G04 #@! TF.FileFunction,Copper,L2,Bot,Signal*
%FSLAX46Y46*%
G04 Gerber Fmt 4.6, Leading zero omitted, Abs format (unit mm)*
G04 Created by KiCad (PCBNEW 4.0.4-stable) date 11/17/16 13:37:45*
%MOMM*%
%LPD*%
G01*
G04 APERTURE LIST*
%ADD10C,0.100000*%
%ADD11C,1.500000*%
%ADD12R,3.000000X3.000000*%
%ADD13C,1.524000*%
%ADD14O,2.300000X1.600000*%
%ADD15R,1.574800X2.286000*%
%ADD16O,1.574800X2.286000*%
%ADD17O,2.499360X1.501140*%
%ADD18O,1.524000X2.000000*%
%ADD19R,4.000000X4.000000*%
%ADD20O,3.500120X1.699260*%
%ADD21R,2.032000X1.727200*%
%ADD22O,2.032000X1.727200*%
%ADD23R,1.727200X2.032000*%
%ADD24O,1.727200X2.032000*%
%ADD25R,1.900000X2.000000*%
%ADD26C,1.900000*%
%ADD27C,1.699260*%
%ADD28R,1.699260X1.699260*%
%ADD29C,0.600000*%
%ADD30C,0.406400*%
%ADD31C,2.032000*%
%ADD32C,0.762000*%
%ADD33C,0.254000*%
G04 APERTURE END LIST*
D10*
D11*
X95123000Y84147000D03*
X84201000Y56080000D03*
X84201000Y60525000D03*
X84201000Y64970000D03*
X84201000Y69415000D03*
X84201000Y73860000D03*
X84201000Y52778000D03*
D12*
X3175000Y61160000D03*
X3175000Y66875000D03*
X3175000Y82750000D03*
X3175000Y76400000D03*
D13*
X52832000Y75255000D03*
X52832000Y68655000D03*
D14*
X64135000Y73860000D03*
X64135000Y71320000D03*
X64135000Y68780000D03*
X64135000Y66240000D03*
X64135000Y63700000D03*
X64135000Y61160000D03*
X64135000Y58620000D03*
X64135000Y56080000D03*
X71755000Y56080000D03*
X71755000Y58620000D03*
X71755000Y61160000D03*
X71755000Y63700000D03*
X71755000Y66240000D03*
X71755000Y68780000D03*
X71755000Y71320000D03*
X71755000Y73860000D03*
D15*
X50165000Y80210000D03*
D16*
X52705000Y80210000D03*
X55245000Y80210000D03*
X57785000Y80210000D03*
X60325000Y80210000D03*
X62865000Y80210000D03*
X65405000Y80210000D03*
X67945000Y80210000D03*
X70485000Y80210000D03*
X73025000Y80210000D03*
X75565000Y80210000D03*
X78105000Y80210000D03*
X80645000Y80210000D03*
X83185000Y80210000D03*
X85725000Y80210000D03*
X85725000Y95450000D03*
X83185000Y95450000D03*
X80645000Y95450000D03*
X78105000Y95450000D03*
X75565000Y95450000D03*
X73025000Y95450000D03*
X70485000Y95450000D03*
X67945000Y95450000D03*
X65405000Y95450000D03*
X62865000Y95450000D03*
X60325000Y95450000D03*
X57785000Y95450000D03*
X55245000Y95450000D03*
X52705000Y95450000D03*
X50165000Y95450000D03*
D17*
X22225000Y78940000D03*
X22225000Y81480000D03*
X22225000Y76400000D03*
D18*
X56475000Y63700000D03*
X53975000Y63700000D03*
X51475000Y63700000D03*
D19*
X49575000Y56700000D03*
X58375000Y56700000D03*
D20*
X10160000Y65605000D03*
X10160000Y68145000D03*
X10160000Y63065000D03*
D21*
X95250000Y77035000D03*
D22*
X95250000Y74495000D03*
X95250000Y71955000D03*
X95250000Y69415000D03*
X95250000Y66875000D03*
X95250000Y64335000D03*
X95250000Y61795000D03*
D23*
X28575000Y88846000D03*
D24*
X26035000Y88846000D03*
X23495000Y88846000D03*
X20955000Y88846000D03*
D25*
X36195000Y95450000D03*
D26*
X38735000Y95450000D03*
D27*
X10159480Y84652460D03*
D28*
X20319480Y84652460D03*
D27*
X10159480Y33652460D03*
D28*
X20319480Y33652460D03*
D25*
X36195000Y44450000D03*
D26*
X38735000Y44450000D03*
D23*
X28575000Y37846000D03*
D24*
X26035000Y37846000D03*
X23495000Y37846000D03*
X20955000Y37846000D03*
D21*
X95250000Y26035000D03*
D22*
X95250000Y23495000D03*
X95250000Y20955000D03*
X95250000Y18415000D03*
X95250000Y15875000D03*
X95250000Y13335000D03*
X95250000Y10795000D03*
D20*
X10160000Y14605000D03*
X10160000Y17145000D03*
X10160000Y12065000D03*
D18*
X56475000Y12700000D03*
X53975000Y12700000D03*
X51475000Y12700000D03*
D19*
X49575000Y5700000D03*
X58375000Y5700000D03*
D17*
X22225000Y27940000D03*
X22225000Y30480000D03*
X22225000Y25400000D03*
D15*
X50165000Y29210000D03*
D16*
X52705000Y29210000D03*
X55245000Y29210000D03*
X57785000Y29210000D03*
X60325000Y29210000D03*
X62865000Y29210000D03*
X65405000Y29210000D03*
X67945000Y29210000D03*
X70485000Y29210000D03*
X73025000Y29210000D03*
X75565000Y29210000D03*
X78105000Y29210000D03*
X80645000Y29210000D03*
X83185000Y29210000D03*
X85725000Y29210000D03*
X85725000Y44450000D03*
X83185000Y44450000D03*
X80645000Y44450000D03*
X78105000Y44450000D03*
X75565000Y44450000D03*
X73025000Y44450000D03*
X70485000Y44450000D03*
X67945000Y44450000D03*
X65405000Y44450000D03*
X62865000Y44450000D03*
X60325000Y44450000D03*
X57785000Y44450000D03*
X55245000Y44450000D03*
X52705000Y44450000D03*
X50165000Y44450000D03*
D14*
X64135000Y22860000D03*
X64135000Y20320000D03*
X64135000Y17780000D03*
X64135000Y15240000D03*
X64135000Y12700000D03*
X64135000Y10160000D03*
X64135000Y7620000D03*
X64135000Y5080000D03*
X71755000Y5080000D03*
X71755000Y7620000D03*
X71755000Y10160000D03*
X71755000Y12700000D03*
X71755000Y15240000D03*
X71755000Y17780000D03*
X71755000Y20320000D03*
X71755000Y22860000D03*
D13*
X52832000Y24255000D03*
X52832000Y17655000D03*
D12*
X3175000Y25400000D03*
X3175000Y31750000D03*
X3175000Y15875000D03*
X3175000Y10160000D03*
D11*
X84201000Y1778000D03*
X84201000Y22860000D03*
X84201000Y18415000D03*
X84201000Y13970000D03*
X84201000Y9525000D03*
X84201000Y5080000D03*
X95123000Y33147000D03*
D29*
X77470000Y73860000D03*
X77470000Y64970000D03*
X77470000Y60525000D03*
X77470000Y56080000D03*
X77470000Y69415000D03*
X77470000Y18415000D03*
X77470000Y5080000D03*
X77470000Y9525000D03*
X77470000Y13970000D03*
X77470000Y22860000D03*
X29972000Y72209000D03*
X25908000Y72209000D03*
X91186000Y75638000D03*
X92583000Y77670000D03*
X92583000Y26670000D03*
X91186000Y24638000D03*
X25908000Y21209000D03*
X29972000Y21209000D03*
X39370000Y88719000D03*
X42672000Y85417000D03*
X42672000Y34417000D03*
X39370000Y37719000D03*
X44323000Y85544000D03*
X40259000Y89481000D03*
X40259000Y38481000D03*
X44323000Y34544000D03*
X16383000Y79829000D03*
X44577000Y80210000D03*
X44577000Y29210000D03*
X16383000Y28829000D03*
X57658000Y75638000D03*
X57658000Y24638000D03*
X60325000Y75765000D03*
X60325000Y24765000D03*
X67945000Y86941000D03*
X67945000Y90116000D03*
X67945000Y39116000D03*
X67945000Y35941000D03*
D30*
X29972000Y72209000D02*
X25908000Y72209000D01*
X91186000Y75638000D02*
X92583000Y77035000D01*
X92583000Y77035000D02*
X92583000Y77670000D01*
X92583000Y26035000D02*
X92583000Y26670000D01*
X91186000Y24638000D02*
X92583000Y26035000D01*
X29972000Y21209000D02*
X25908000Y21209000D01*
X39370000Y88719000D02*
X42672000Y85417000D01*
X39370000Y37719000D02*
X42672000Y34417000D01*
X44196000Y85544000D02*
X44323000Y85544000D01*
X40259000Y89481000D02*
X44196000Y85544000D01*
X40259000Y38481000D02*
X44196000Y34544000D01*
X44196000Y34544000D02*
X44323000Y34544000D01*
D31*
X3300000Y66750000D02*
X3175000Y66875000D01*
X7185000Y65605000D02*
X6040000Y66750000D01*
X6040000Y66750000D02*
X3300000Y66750000D01*
X10160000Y65605000D02*
X7185000Y65605000D01*
X10160000Y14605000D02*
X7185000Y14605000D01*
X6040000Y15750000D02*
X3300000Y15750000D01*
X7185000Y14605000D02*
X6040000Y15750000D01*
X3300000Y15750000D02*
X3175000Y15875000D01*
D30*
X16383000Y79829000D02*
X19685000Y83131000D01*
X19685000Y83131000D02*
X41656000Y83131000D01*
X41656000Y83131000D02*
X44577000Y80210000D01*
X41656000Y32131000D02*
X44577000Y29210000D01*
X19685000Y32131000D02*
X41656000Y32131000D01*
X16383000Y28829000D02*
X19685000Y32131000D01*
X57658000Y75638000D02*
X57785000Y75765000D01*
X57785000Y75765000D02*
X57785000Y80210000D01*
X57785000Y24765000D02*
X57785000Y29210000D01*
X57658000Y24638000D02*
X57785000Y24765000D01*
X60325000Y75765000D02*
X60325000Y80210000D01*
X60325000Y24765000D02*
X60325000Y29210000D01*
X75565000Y86052000D02*
X76708000Y84909000D01*
X76708000Y84909000D02*
X87630000Y84909000D01*
X87630000Y84909000D02*
X90297000Y82242000D01*
X90297000Y82242000D02*
X90297000Y78686000D01*
X90297000Y78686000D02*
X88138000Y75130000D01*
X88138000Y75130000D02*
X76581000Y75130000D01*
X76581000Y75130000D02*
X74992261Y73986767D01*
X74992261Y73986767D02*
X74930000Y57350000D01*
X74930000Y57350000D02*
X73660000Y56080000D01*
X73660000Y56080000D02*
X71755000Y56080000D01*
X75565000Y95450000D02*
X75565000Y86052000D01*
X75565000Y44450000D02*
X75565000Y35052000D01*
X73660000Y5080000D02*
X71755000Y5080000D01*
X74930000Y6350000D02*
X73660000Y5080000D01*
X74992261Y22986767D02*
X74930000Y6350000D01*
X76581000Y24130000D02*
X74992261Y22986767D01*
X88138000Y24130000D02*
X76581000Y24130000D01*
X90297000Y27686000D02*
X88138000Y24130000D01*
X90297000Y31242000D02*
X90297000Y27686000D01*
X87630000Y33909000D02*
X90297000Y31242000D01*
X76708000Y33909000D02*
X87630000Y33909000D01*
X75565000Y35052000D02*
X76708000Y33909000D01*
X73025000Y84655000D02*
X73914000Y83766000D01*
X73914000Y83766000D02*
X87122000Y83766000D01*
X87122000Y83766000D02*
X89027000Y81861000D01*
X89027000Y81861000D02*
X89027000Y78813000D01*
X89027000Y78813000D02*
X87249000Y75892000D01*
X87249000Y75892000D02*
X76200000Y75892000D01*
X76200000Y75892000D02*
X73914000Y74114000D01*
X73914000Y74114000D02*
X73914000Y59255000D01*
X73914000Y59255000D02*
X73279000Y58620000D01*
X73279000Y58620000D02*
X71755000Y58620000D01*
X73025000Y95450000D02*
X73025000Y84655000D01*
X73025000Y44450000D02*
X73025000Y33655000D01*
X73279000Y7620000D02*
X71755000Y7620000D01*
X73914000Y8255000D02*
X73279000Y7620000D01*
X73914000Y23114000D02*
X73914000Y8255000D01*
X76200000Y24892000D02*
X73914000Y23114000D01*
X87249000Y24892000D02*
X76200000Y24892000D01*
X89027000Y27813000D02*
X87249000Y24892000D01*
X89027000Y30861000D02*
X89027000Y27813000D01*
X87122000Y32766000D02*
X89027000Y30861000D01*
X73914000Y32766000D02*
X87122000Y32766000D01*
X73025000Y33655000D02*
X73914000Y32766000D01*
X70485000Y85544000D02*
X73406000Y82623000D01*
X73406000Y82623000D02*
X86614000Y82623000D01*
X86614000Y82623000D02*
X87884000Y81353000D01*
X87884000Y81353000D02*
X87884000Y79321000D01*
X87884000Y79321000D02*
X86360082Y76770751D01*
X86360082Y76770751D02*
X71755000Y76781000D01*
X71755000Y76781000D02*
X69088000Y74622000D01*
X69088000Y74622000D02*
X69088000Y62303000D01*
X69088000Y62303000D02*
X70231000Y61160000D01*
X70231000Y61160000D02*
X71755000Y61160000D01*
X70485000Y95450000D02*
X70485000Y85544000D01*
X70485000Y44450000D02*
X70485000Y34544000D01*
X70231000Y10160000D02*
X71755000Y10160000D01*
X69088000Y11303000D02*
X70231000Y10160000D01*
X69088000Y23622000D02*
X69088000Y11303000D01*
X71755000Y25781000D02*
X69088000Y23622000D01*
X86360082Y25770751D02*
X71755000Y25781000D01*
X87884000Y28321000D02*
X86360082Y25770751D01*
X87884000Y30353000D02*
X87884000Y28321000D01*
X86614000Y31623000D02*
X87884000Y30353000D01*
X73406000Y31623000D02*
X86614000Y31623000D01*
X70485000Y34544000D02*
X73406000Y31623000D01*
D32*
X67945000Y86941000D02*
X67945000Y90116000D01*
X67945000Y35941000D02*
X67945000Y39116000D01*
D30*
X51183000Y75255000D02*
X50165000Y76273000D01*
X50165000Y76273000D02*
X50165000Y80210000D01*
X52832000Y75255000D02*
X51183000Y75255000D01*
X52832000Y24255000D02*
X51183000Y24255000D01*
X50165000Y25273000D02*
X50165000Y29210000D01*
X51183000Y24255000D02*
X50165000Y25273000D01*
D33*
G36*
X98330000Y460000D02*
X750000Y460000D01*
X750000Y1039855D01*
X83498776Y1039855D01*
X83574356Y872287D01*
X83968658Y701424D01*
X84398332Y694459D01*
X84797964Y852454D01*
X84827644Y872287D01*
X84903224Y1039855D01*
X84201000Y1742079D01*
X83498776Y1039855D01*
X750000Y1039855D01*
X750000Y3367381D01*
X2209613Y3367381D01*
X2549155Y2545628D01*
X3177321Y1916364D01*
X3998481Y1575389D01*
X4887619Y1574613D01*
X4902273Y1580668D01*
X83117459Y1580668D01*
X83275454Y1181036D01*
X83295287Y1151356D01*
X83462855Y1075776D01*
X84165079Y1778000D01*
X84236921Y1778000D01*
X84939145Y1075776D01*
X85106713Y1151356D01*
X85277576Y1545658D01*
X85284541Y1975332D01*
X85126546Y2374964D01*
X85106713Y2404644D01*
X84939145Y2480224D01*
X84236921Y1778000D01*
X84165079Y1778000D01*
X83462855Y2480224D01*
X83295287Y2404644D01*
X83124424Y2010342D01*
X83117459Y1580668D01*
X4902273Y1580668D01*
X5709372Y1914155D01*
X6312414Y2516145D01*
X83498776Y2516145D01*
X84201000Y1813921D01*
X84903224Y2516145D01*
X84827644Y2683713D01*
X84433342Y2854576D01*
X84003668Y2861541D01*
X83604036Y2703546D01*
X83574356Y2683713D01*
X83498776Y2516145D01*
X6312414Y2516145D01*
X6338636Y2542321D01*
X6679611Y3363481D01*
X6680387Y4252619D01*
X6340845Y5074372D01*
X5712679Y5703636D01*
X4891519Y6044611D01*
X4002381Y6045387D01*
X3180628Y5705845D01*
X2551364Y5077679D01*
X2210389Y4256519D01*
X2209613Y3367381D01*
X750000Y3367381D01*
X750000Y7700000D01*
X46927560Y7700000D01*
X46927560Y3700000D01*
X46971838Y3464683D01*
X47110910Y3248559D01*
X47323110Y3103569D01*
X47575000Y3052560D01*
X51575000Y3052560D01*
X51810317Y3096838D01*
X52026441Y3235910D01*
X52171431Y3448110D01*
X52222440Y3700000D01*
X52222440Y7700000D01*
X55727560Y7700000D01*
X55727560Y3700000D01*
X55771838Y3464683D01*
X55910910Y3248559D01*
X56123110Y3103569D01*
X56375000Y3052560D01*
X60375000Y3052560D01*
X60610317Y3096838D01*
X60826441Y3235910D01*
X60916271Y3367381D01*
X92379613Y3367381D01*
X92719155Y2545628D01*
X93347321Y1916364D01*
X94168481Y1575389D01*
X95057619Y1574613D01*
X95879372Y1914155D01*
X96508636Y2542321D01*
X96849611Y3363481D01*
X96850387Y4252619D01*
X96510845Y5074372D01*
X95882679Y5703636D01*
X95061519Y6044611D01*
X94172381Y6045387D01*
X93350628Y5705845D01*
X92721364Y5077679D01*
X92380389Y4256519D01*
X92379613Y3367381D01*
X60916271Y3367381D01*
X60971431Y3448110D01*
X61022440Y3700000D01*
X61022440Y4878155D01*
X62672970Y4878155D01*
X62731112Y4670958D01*
X62967868Y4298789D01*
X63329025Y4045552D01*
X63759600Y3949800D01*
X64109600Y3949800D01*
X64109600Y5054600D01*
X64160400Y5054600D01*
X64160400Y3949800D01*
X64510400Y3949800D01*
X64940975Y4045552D01*
X65302132Y4298789D01*
X65538888Y4670958D01*
X65597030Y4878155D01*
X65532342Y5054600D01*
X64160400Y5054600D01*
X64109600Y5054600D01*
X62737658Y5054600D01*
X62672970Y4878155D01*
X61022440Y4878155D01*
X61022440Y7700000D01*
X60978162Y7935317D01*
X60839090Y8151441D01*
X60626890Y8296431D01*
X60375000Y8347440D01*
X56375000Y8347440D01*
X56139683Y8303162D01*
X55923559Y8164090D01*
X55778569Y7951890D01*
X55727560Y7700000D01*
X52222440Y7700000D01*
X52178162Y7935317D01*
X52039090Y8151441D01*
X51826890Y8296431D01*
X51575000Y8347440D01*
X47575000Y8347440D01*
X47339683Y8303162D01*
X47123559Y8164090D01*
X46978569Y7951890D01*
X46927560Y7700000D01*
X750000Y7700000D01*
X750000Y10052050D01*
X1344800Y10052050D01*
X1344800Y8594319D01*
X1395070Y8472957D01*
X1487957Y8380070D01*
X1609319Y8329800D01*
X3067050Y8329800D01*
X3149600Y8412350D01*
X3149600Y10134600D01*
X3200400Y10134600D01*
X3200400Y8412350D01*
X3282950Y8329800D01*
X4740681Y8329800D01*
X4862043Y8380070D01*
X4954930Y8472957D01*
X5005200Y8594319D01*
X5005200Y10052050D01*
X4922650Y10134600D01*
X3200400Y10134600D01*
X3149600Y10134600D01*
X1427350Y10134600D01*
X1344800Y10052050D01*
X750000Y10052050D01*
X750000Y11725681D01*
X1344800Y11725681D01*
X1344800Y10267950D01*
X1427350Y10185400D01*
X3149600Y10185400D01*
X3149600Y11907650D01*
X3200400Y11907650D01*
X3200400Y10185400D01*
X4922650Y10185400D01*
X5005200Y10267950D01*
X5005200Y11725681D01*
X4954930Y11847043D01*
X4946584Y11855389D01*
X8098509Y11855389D01*
X8159828Y11636965D01*
X8407343Y11248694D01*
X8784602Y10984699D01*
X9234170Y10885170D01*
X10134600Y10885170D01*
X10134600Y12039600D01*
X10185400Y12039600D01*
X10185400Y10885170D01*
X11085830Y10885170D01*
X11535398Y10984699D01*
X11912657Y11248694D01*
X12160172Y11636965D01*
X12221491Y11855389D01*
X12157416Y12039600D01*
X10185400Y12039600D01*
X10134600Y12039600D01*
X8162584Y12039600D01*
X8098509Y11855389D01*
X4946584Y11855389D01*
X4862043Y11939930D01*
X4740681Y11990200D01*
X3282950Y11990200D01*
X3200400Y11907650D01*
X3149600Y11907650D01*
X3067050Y11990200D01*
X1609319Y11990200D01*
X1487957Y11939930D01*
X1395070Y11847043D01*
X1344800Y11725681D01*
X750000Y11725681D01*
X750000Y17375000D01*
X1027560Y17375000D01*
X1027560Y14375000D01*
X1071838Y14139683D01*
X1210910Y13923559D01*
X1423110Y13778569D01*
X1675000Y13727560D01*
X4675000Y13727560D01*
X4910317Y13771838D01*
X5126441Y13910910D01*
X5254957Y14099000D01*
X5356134Y14099000D01*
X6017567Y13437566D01*
X6553190Y13079675D01*
X7185000Y12954000D01*
X8511226Y12954000D01*
X8407343Y12881306D01*
X8159828Y12493035D01*
X8098509Y12274611D01*
X8162584Y12090400D01*
X10134600Y12090400D01*
X10134600Y12110400D01*
X10185400Y12110400D01*
X10185400Y12090400D01*
X12157416Y12090400D01*
X12221491Y12274611D01*
X12160172Y12493035D01*
X11912657Y12881306D01*
X11535398Y13145301D01*
X11392044Y13177038D01*
X11675299Y13233381D01*
X12156948Y13555208D01*
X12478775Y14036857D01*
X12491928Y14102985D01*
X24388641Y14102985D01*
X24773746Y13170959D01*
X25486208Y12457252D01*
X26417561Y12070521D01*
X27426015Y12069641D01*
X28358041Y12454746D01*
X28874227Y12970032D01*
X50078000Y12970032D01*
X50078000Y12429968D01*
X50184340Y11895359D01*
X50487172Y11442140D01*
X50940391Y11139308D01*
X51475000Y11032968D01*
X52009609Y11139308D01*
X52462828Y11442140D01*
X52725000Y11834507D01*
X52987172Y11442140D01*
X53440391Y11139308D01*
X53975000Y11032968D01*
X54509609Y11139308D01*
X54962828Y11442140D01*
X55265660Y11895359D01*
X55372000Y12429968D01*
X55372000Y12674600D01*
X55382800Y12674600D01*
X55382800Y12436600D01*
X55475659Y12020567D01*
X55720658Y11671738D01*
X56080499Y11443219D01*
X56279101Y11387512D01*
X56449600Y11452670D01*
X56449600Y12674600D01*
X56500400Y12674600D01*
X56500400Y11452670D01*
X56670899Y11387512D01*
X56869501Y11443219D01*
X57229342Y11671738D01*
X57474341Y12020567D01*
X57567200Y12436600D01*
X57567200Y12674600D01*
X56500400Y12674600D01*
X56449600Y12674600D01*
X55382800Y12674600D01*
X55372000Y12674600D01*
X55372000Y12963400D01*
X55382800Y12963400D01*
X55382800Y12725400D01*
X56449600Y12725400D01*
X56449600Y13947330D01*
X56500400Y13947330D01*
X56500400Y12725400D01*
X57567200Y12725400D01*
X57567200Y12963400D01*
X57474341Y13379433D01*
X57229342Y13728262D01*
X56869501Y13956781D01*
X56670899Y14012488D01*
X56500400Y13947330D01*
X56449600Y13947330D01*
X56279101Y14012488D01*
X56080499Y13956781D01*
X55720658Y13728262D01*
X55475659Y13379433D01*
X55382800Y12963400D01*
X55372000Y12963400D01*
X55372000Y12970032D01*
X55265660Y13504641D01*
X54962828Y13957860D01*
X54509609Y14260692D01*
X53975000Y14367032D01*
X53440391Y14260692D01*
X52987172Y13957860D01*
X52725000Y13565493D01*
X52462828Y13957860D01*
X52009609Y14260692D01*
X51475000Y14367032D01*
X50940391Y14260692D01*
X50487172Y13957860D01*
X50184340Y13504641D01*
X50078000Y12970032D01*
X28874227Y12970032D01*
X29071748Y13167208D01*
X29458479Y14098561D01*
X29459359Y15107015D01*
X29074254Y16039041D01*
X28361792Y16752748D01*
X27987422Y16908200D01*
X52121122Y16908200D01*
X52198164Y16739386D01*
X52596802Y16566524D01*
X53031248Y16559373D01*
X53435359Y16719022D01*
X53465836Y16739386D01*
X53542878Y16908200D01*
X52832000Y17619079D01*
X52121122Y16908200D01*
X27987422Y16908200D01*
X27430439Y17139479D01*
X26421985Y17140359D01*
X25489959Y16755254D01*
X24776252Y16042792D01*
X24389521Y15111439D01*
X24388641Y14102985D01*
X12491928Y14102985D01*
X12591786Y14605000D01*
X12478775Y15173143D01*
X12156948Y15654792D01*
X11827383Y15875000D01*
X12156948Y16095208D01*
X12478775Y16576857D01*
X12591786Y17145000D01*
X12529974Y17455752D01*
X51736373Y17455752D01*
X51896022Y17051641D01*
X51916386Y17021164D01*
X52085200Y16944122D01*
X52796079Y17655000D01*
X52867921Y17655000D01*
X53578800Y16944122D01*
X53747614Y17021164D01*
X53920476Y17419802D01*
X53927627Y17854248D01*
X53767978Y18258359D01*
X53747614Y18288836D01*
X53578800Y18365878D01*
X52867921Y17655000D01*
X52796079Y17655000D01*
X52085200Y18365878D01*
X51916386Y18288836D01*
X51743524Y17890198D01*
X51736373Y17455752D01*
X12529974Y17455752D01*
X12478775Y17713143D01*
X12156948Y18194792D01*
X11847139Y18401800D01*
X52121122Y18401800D01*
X52832000Y17690921D01*
X53542878Y18401800D01*
X53465836Y18570614D01*
X53067198Y18743476D01*
X52632752Y18750627D01*
X52228641Y18590978D01*
X52198164Y18570614D01*
X52121122Y18401800D01*
X11847139Y18401800D01*
X11675299Y18516619D01*
X11107156Y18629630D01*
X9212844Y18629630D01*
X8644701Y18516619D01*
X8163052Y18194792D01*
X7841225Y17713143D01*
X7728214Y17145000D01*
X7841225Y16576857D01*
X8055614Y16256000D01*
X7868867Y16256000D01*
X7207433Y16917433D01*
X6671811Y17275325D01*
X6040000Y17401000D01*
X5317548Y17401000D01*
X5278162Y17610317D01*
X5139090Y17826441D01*
X4926890Y17971431D01*
X4675000Y18022440D01*
X1675000Y18022440D01*
X1439683Y17978162D01*
X1223559Y17839090D01*
X1078569Y17626890D01*
X1027560Y17375000D01*
X750000Y17375000D01*
X750000Y21023833D01*
X24972838Y21023833D01*
X25114883Y20680057D01*
X25377673Y20416808D01*
X25721201Y20274162D01*
X26093167Y20273838D01*
X26327834Y20370800D01*
X29552472Y20370800D01*
X29785201Y20274162D01*
X30157167Y20273838D01*
X30500943Y20415883D01*
X30764192Y20678673D01*
X30906838Y21022201D01*
X30907162Y21394167D01*
X30765117Y21737943D01*
X30502327Y22001192D01*
X30158799Y22143838D01*
X29786833Y22144162D01*
X29552166Y22047200D01*
X26327528Y22047200D01*
X26094799Y22143838D01*
X25722833Y22144162D01*
X25379057Y22002117D01*
X25115808Y21739327D01*
X24973162Y21395799D01*
X24972838Y21023833D01*
X750000Y21023833D01*
X750000Y26900000D01*
X1027560Y26900000D01*
X1027560Y23900000D01*
X1071838Y23664683D01*
X1210910Y23448559D01*
X1423110Y23303569D01*
X1675000Y23252560D01*
X4675000Y23252560D01*
X4910317Y23296838D01*
X5126441Y23435910D01*
X5271431Y23648110D01*
X5322440Y23900000D01*
X5322440Y25400000D01*
X20303397Y25400000D01*
X20408867Y24869765D01*
X20709221Y24420254D01*
X21158732Y24119900D01*
X21688967Y24014430D01*
X22761033Y24014430D01*
X23291268Y24119900D01*
X23740779Y24420254D01*
X24041133Y24869765D01*
X24146603Y25400000D01*
X24041133Y25930235D01*
X23740779Y26379746D01*
X23291268Y26680100D01*
X22761033Y26785570D01*
X21688967Y26785570D01*
X21158732Y26680100D01*
X20709221Y26379746D01*
X20408867Y25930235D01*
X20303397Y25400000D01*
X5322440Y25400000D01*
X5322440Y26900000D01*
X5278162Y27135317D01*
X5139090Y27351441D01*
X4926890Y27496431D01*
X4675000Y27547440D01*
X1675000Y27547440D01*
X1439683Y27503162D01*
X1223559Y27364090D01*
X1078569Y27151890D01*
X1027560Y26900000D01*
X750000Y26900000D01*
X750000Y27745890D01*
X20662695Y27745890D01*
X20717669Y27549874D01*
X20943710Y27193741D01*
X21288831Y26951219D01*
X21700490Y26859230D01*
X22199600Y26859230D01*
X22199600Y27914600D01*
X22250400Y27914600D01*
X22250400Y26859230D01*
X22749510Y26859230D01*
X23161169Y26951219D01*
X23506290Y27193741D01*
X23661313Y27437985D01*
X36453641Y27437985D01*
X36838746Y26505959D01*
X37551208Y25792252D01*
X38482561Y25405521D01*
X39491015Y25404641D01*
X40423041Y25789746D01*
X41136748Y26502208D01*
X41523479Y27433561D01*
X41524359Y28442015D01*
X41139254Y29374041D01*
X40426792Y30087748D01*
X39495439Y30474479D01*
X38486985Y30475359D01*
X37554959Y30090254D01*
X36841252Y29377792D01*
X36454521Y28446439D01*
X36453641Y27437985D01*
X23661313Y27437985D01*
X23732331Y27549874D01*
X23787305Y27745890D01*
X23722007Y27914600D01*
X22250400Y27914600D01*
X22199600Y27914600D01*
X20727993Y27914600D01*
X20662695Y27745890D01*
X750000Y27745890D01*
X750000Y28643833D01*
X15447838Y28643833D01*
X15589883Y28300057D01*
X15852673Y28036808D01*
X16196201Y27894162D01*
X16568167Y27893838D01*
X16911943Y28035883D01*
X17010341Y28134110D01*
X20662695Y28134110D01*
X20727993Y27965400D01*
X22199600Y27965400D01*
X22199600Y29020770D01*
X22250400Y29020770D01*
X22250400Y27965400D01*
X23722007Y27965400D01*
X23787305Y28134110D01*
X23732331Y28330126D01*
X23506290Y28686259D01*
X23161169Y28928781D01*
X22749510Y29020770D01*
X22250400Y29020770D01*
X22199600Y29020770D01*
X21700490Y29020770D01*
X21288831Y28928781D01*
X20943710Y28686259D01*
X20717669Y28330126D01*
X20662695Y28134110D01*
X17010341Y28134110D01*
X17175192Y28298673D01*
X17272564Y28533170D01*
X20032194Y31292800D01*
X20597671Y31292800D01*
X20408867Y31010235D01*
X20303397Y30480000D01*
X20408867Y29949765D01*
X20709221Y29500254D01*
X21158732Y29199900D01*
X21688967Y29094430D01*
X22761033Y29094430D01*
X23291268Y29199900D01*
X23740779Y29500254D01*
X24041133Y29949765D01*
X24146603Y30480000D01*
X24041133Y31010235D01*
X23852329Y31292800D01*
X41308806Y31292800D01*
X43687652Y28913954D01*
X43783883Y28681057D01*
X44046673Y28417808D01*
X44390201Y28275162D01*
X44762167Y28274838D01*
X45105943Y28416883D01*
X45369192Y28679673D01*
X45511838Y29023201D01*
X45512162Y29395167D01*
X45370117Y29738943D01*
X45107327Y30002192D01*
X44872830Y30099564D01*
X44619394Y30353000D01*
X48730160Y30353000D01*
X48730160Y28067000D01*
X48774438Y27831683D01*
X48913510Y27615559D01*
X49125710Y27470569D01*
X49326800Y27429847D01*
X49326800Y25273000D01*
X49390604Y24952234D01*
X49572303Y24680303D01*
X50590303Y23662303D01*
X50862235Y23480604D01*
X51183000Y23416800D01*
X51694803Y23416800D01*
X52039630Y23071371D01*
X52552900Y22858243D01*
X53108661Y22857758D01*
X53114087Y22860000D01*
X62315030Y22860000D01*
X62424263Y22310849D01*
X62735332Y21845302D01*
X63117418Y21590000D01*
X62735332Y21334698D01*
X62424263Y20869151D01*
X62315030Y20320000D01*
X62424263Y19770849D01*
X62735332Y19305302D01*
X63117418Y19050000D01*
X62735332Y18794698D01*
X62424263Y18329151D01*
X62315030Y17780000D01*
X62424263Y17230849D01*
X62735332Y16765302D01*
X63117418Y16510000D01*
X62735332Y16254698D01*
X62424263Y15789151D01*
X62315030Y15240000D01*
X62424263Y14690849D01*
X62735332Y14225302D01*
X63117418Y13970000D01*
X62735332Y13714698D01*
X62424263Y13249151D01*
X62315030Y12700000D01*
X62424263Y12150849D01*
X62735332Y11685302D01*
X63117418Y11430000D01*
X62735332Y11174698D01*
X62424263Y10709151D01*
X62315030Y10160000D01*
X62424263Y9610849D01*
X62735332Y9145302D01*
X63117418Y8890000D01*
X62735332Y8634698D01*
X62424263Y8169151D01*
X62315030Y7620000D01*
X62424263Y7070849D01*
X62735332Y6605302D01*
X63200879Y6294233D01*
X63695266Y6195893D01*
X63329025Y6114448D01*
X62967868Y5861211D01*
X62731112Y5489042D01*
X62672970Y5281845D01*
X62737658Y5105400D01*
X64109600Y5105400D01*
X64109600Y5125400D01*
X64160400Y5125400D01*
X64160400Y5105400D01*
X65532342Y5105400D01*
X65597030Y5281845D01*
X65538888Y5489042D01*
X65302132Y5861211D01*
X64940975Y6114448D01*
X64574734Y6195893D01*
X65069121Y6294233D01*
X65534668Y6605302D01*
X65845737Y7070849D01*
X65954970Y7620000D01*
X65845737Y8169151D01*
X65534668Y8634698D01*
X65152582Y8890000D01*
X65534668Y9145302D01*
X65845737Y9610849D01*
X65954970Y10160000D01*
X65845737Y10709151D01*
X65534668Y11174698D01*
X65152582Y11430000D01*
X65534668Y11685302D01*
X65845737Y12150849D01*
X65954970Y12700000D01*
X65845737Y13249151D01*
X65534668Y13714698D01*
X65152582Y13970000D01*
X65534668Y14225302D01*
X65845737Y14690849D01*
X65954970Y15240000D01*
X65845737Y15789151D01*
X65534668Y16254698D01*
X65152582Y16510000D01*
X65534668Y16765302D01*
X65845737Y17230849D01*
X65954970Y17780000D01*
X65845737Y18329151D01*
X65534668Y18794698D01*
X65152582Y19050000D01*
X65534668Y19305302D01*
X65845737Y19770849D01*
X65954970Y20320000D01*
X65845737Y20869151D01*
X65534668Y21334698D01*
X65152582Y21590000D01*
X65534668Y21845302D01*
X65845737Y22310849D01*
X65954970Y22860000D01*
X65845737Y23409151D01*
X65534668Y23874698D01*
X65069121Y24185767D01*
X64519970Y24295000D01*
X63750030Y24295000D01*
X63200879Y24185767D01*
X62735332Y23874698D01*
X62424263Y23409151D01*
X62315030Y22860000D01*
X53114087Y22860000D01*
X53622303Y23069990D01*
X54015629Y23462630D01*
X54228757Y23975900D01*
X54229242Y24531661D01*
X54017010Y25045303D01*
X53624370Y25438629D01*
X53111100Y25651757D01*
X52555339Y25652242D01*
X52041697Y25440010D01*
X51694281Y25093200D01*
X51530194Y25093200D01*
X51003200Y25620194D01*
X51003200Y27429119D01*
X51187717Y27463838D01*
X51403841Y27602910D01*
X51548831Y27815110D01*
X51583600Y27986803D01*
X51699211Y27813778D01*
X52160671Y27505441D01*
X52705000Y27397167D01*
X53249329Y27505441D01*
X53710789Y27813778D01*
X53975000Y28209199D01*
X54239211Y27813778D01*
X54700671Y27505441D01*
X55245000Y27397167D01*
X55789329Y27505441D01*
X56250789Y27813778D01*
X56515000Y28209199D01*
X56779211Y27813778D01*
X56946800Y27701799D01*
X56946800Y25249178D01*
X56865808Y25168327D01*
X56723162Y24824799D01*
X56722838Y24452833D01*
X56864883Y24109057D01*
X57127673Y23845808D01*
X57471201Y23703162D01*
X57843167Y23702838D01*
X58186943Y23844883D01*
X58450192Y24107673D01*
X58592838Y24451201D01*
X58592979Y24613068D01*
X58623200Y24765000D01*
X58623200Y27701799D01*
X58790789Y27813778D01*
X59055000Y28209199D01*
X59319211Y27813778D01*
X59486800Y27701799D01*
X59486800Y25184528D01*
X59390162Y24951799D01*
X59389838Y24579833D01*
X59531883Y24236057D01*
X59794673Y23972808D01*
X60138201Y23830162D01*
X60510167Y23829838D01*
X60853943Y23971883D01*
X61117192Y24234673D01*
X61259838Y24578201D01*
X61260162Y24950167D01*
X61163200Y25184834D01*
X61163200Y27701799D01*
X61330789Y27813778D01*
X61595000Y28209199D01*
X61859211Y27813778D01*
X62320671Y27505441D01*
X62865000Y27397167D01*
X63409329Y27505441D01*
X63870789Y27813778D01*
X64135000Y28209199D01*
X64399211Y27813778D01*
X64860671Y27505441D01*
X65405000Y27397167D01*
X65949329Y27505441D01*
X66410789Y27813778D01*
X66675000Y28209199D01*
X66939211Y27813778D01*
X67400671Y27505441D01*
X67945000Y27397167D01*
X68489329Y27505441D01*
X68950789Y27813778D01*
X69215000Y28209199D01*
X69479211Y27813778D01*
X69940671Y27505441D01*
X70485000Y27397167D01*
X71029329Y27505441D01*
X71490789Y27813778D01*
X71755000Y28209199D01*
X72019211Y27813778D01*
X72480671Y27505441D01*
X73025000Y27397167D01*
X73569329Y27505441D01*
X74030789Y27813778D01*
X74295000Y28209199D01*
X74559211Y27813778D01*
X75020671Y27505441D01*
X75565000Y27397167D01*
X76109329Y27505441D01*
X76570789Y27813778D01*
X76835000Y28209199D01*
X77099211Y27813778D01*
X77560671Y27505441D01*
X78105000Y27397167D01*
X78649329Y27505441D01*
X79110789Y27813778D01*
X79375000Y28209199D01*
X79639211Y27813778D01*
X80100671Y27505441D01*
X80645000Y27397167D01*
X81189329Y27505441D01*
X81650789Y27813778D01*
X81959126Y28275238D01*
X82067400Y28819567D01*
X82067400Y28829000D01*
X82162192Y28403246D01*
X82412698Y28046176D01*
X82780780Y27812151D01*
X82985127Y27754818D01*
X83159600Y27819662D01*
X83159600Y29184600D01*
X82067400Y29184600D01*
X82067400Y29235400D01*
X83159600Y29235400D01*
X83159600Y30600338D01*
X82985127Y30665182D01*
X82780780Y30607849D01*
X82412698Y30373824D01*
X82162192Y30016754D01*
X82067400Y29591000D01*
X82067400Y29600433D01*
X81959126Y30144762D01*
X81650789Y30606222D01*
X81383528Y30784800D01*
X84986472Y30784800D01*
X84719211Y30606222D01*
X84410874Y30144762D01*
X84302600Y29600433D01*
X84302600Y29591000D01*
X84207808Y30016754D01*
X83957302Y30373824D01*
X83589220Y30607849D01*
X83384873Y30665182D01*
X83210400Y30600338D01*
X83210400Y29235400D01*
X84302600Y29235400D01*
X84302600Y29184600D01*
X83210400Y29184600D01*
X83210400Y27819662D01*
X83384873Y27754818D01*
X83589220Y27812151D01*
X83957302Y28046176D01*
X84207808Y28403246D01*
X84302600Y28829000D01*
X84302600Y28819567D01*
X84410874Y28275238D01*
X84719211Y27813778D01*
X85180671Y27505441D01*
X85725000Y27397167D01*
X86269329Y27505441D01*
X86520491Y27673262D01*
X85884705Y26609285D01*
X71755588Y26619200D01*
X71637225Y26595742D01*
X71517064Y26584720D01*
X71478035Y26564194D01*
X71434779Y26555621D01*
X71334404Y26488655D01*
X71227606Y26432487D01*
X68560606Y24273487D01*
X68532214Y24239360D01*
X68495303Y24214697D01*
X68428428Y24114612D01*
X68351438Y24022071D01*
X68338266Y23979675D01*
X68313604Y23942765D01*
X68290121Y23824707D01*
X68254405Y23709747D01*
X68258460Y23665538D01*
X68249800Y23622000D01*
X68249800Y11303000D01*
X68313604Y10982234D01*
X68495303Y10710303D01*
X69638303Y9567303D01*
X69910234Y9385604D01*
X70231000Y9321800D01*
X70237400Y9321800D01*
X70355332Y9145302D01*
X70737418Y8890000D01*
X70355332Y8634698D01*
X70044263Y8169151D01*
X69935030Y7620000D01*
X70044263Y7070849D01*
X70355332Y6605302D01*
X70737418Y6350000D01*
X70355332Y6094698D01*
X70044263Y5629151D01*
X69935030Y5080000D01*
X70044263Y4530849D01*
X70355332Y4065302D01*
X70820879Y3754233D01*
X71370030Y3645000D01*
X72139970Y3645000D01*
X72689121Y3754233D01*
X73154668Y4065302D01*
X73272600Y4241800D01*
X73660000Y4241800D01*
X73980766Y4305604D01*
X74252697Y4487303D01*
X74571109Y4805715D01*
X82815760Y4805715D01*
X83026169Y4296485D01*
X83415436Y3906539D01*
X83924298Y3695241D01*
X84475285Y3694760D01*
X84984515Y3905169D01*
X85374461Y4294436D01*
X85585759Y4803298D01*
X85586240Y5354285D01*
X85375831Y5863515D01*
X84986564Y6253461D01*
X84477702Y6464759D01*
X83926715Y6465240D01*
X83417485Y6254831D01*
X83027539Y5865564D01*
X82816241Y5356702D01*
X82815760Y4805715D01*
X74571109Y4805715D01*
X75522697Y5757303D01*
X75612718Y5892029D01*
X75703190Y6026339D01*
X75703507Y6027904D01*
X75704396Y6029234D01*
X75736009Y6188163D01*
X75768194Y6346863D01*
X75779061Y9250715D01*
X82815760Y9250715D01*
X83026169Y8741485D01*
X83415436Y8351539D01*
X83924298Y8140241D01*
X84475285Y8139760D01*
X84984515Y8350169D01*
X85374461Y8739436D01*
X85585759Y9248298D01*
X85586240Y9799285D01*
X85375831Y10308515D01*
X84986564Y10698461D01*
X84477702Y10909759D01*
X83926715Y10910240D01*
X83417485Y10699831D01*
X83027539Y10310564D01*
X82816241Y9801702D01*
X82815760Y9250715D01*
X75779061Y9250715D01*
X75795695Y13695715D01*
X82815760Y13695715D01*
X83026169Y13186485D01*
X83415436Y12796539D01*
X83924298Y12585241D01*
X84475285Y12584760D01*
X84984515Y12795169D01*
X85374461Y13184436D01*
X85585759Y13693298D01*
X85586240Y14244285D01*
X85375831Y14753515D01*
X84986564Y15143461D01*
X84477702Y15354759D01*
X83926715Y15355240D01*
X83417485Y15144831D01*
X83027539Y14755564D01*
X82816241Y14246702D01*
X82815760Y13695715D01*
X75795695Y13695715D01*
X75812330Y18140715D01*
X82815760Y18140715D01*
X83026169Y17631485D01*
X83415436Y17241539D01*
X83924298Y17030241D01*
X84475285Y17029760D01*
X84984515Y17240169D01*
X85374461Y17629436D01*
X85585759Y18138298D01*
X85586240Y18689285D01*
X85375831Y19198515D01*
X84986564Y19588461D01*
X84477702Y19799759D01*
X83926715Y19800240D01*
X83417485Y19589831D01*
X83027539Y19200564D01*
X82816241Y18691702D01*
X82815760Y18140715D01*
X75812330Y18140715D01*
X75828855Y22556112D01*
X76851233Y23291800D01*
X82880643Y23291800D01*
X82816241Y23136702D01*
X82815760Y22585715D01*
X83026169Y22076485D01*
X83415436Y21686539D01*
X83924298Y21475241D01*
X84475285Y21474760D01*
X84984515Y21685169D01*
X85374461Y22074436D01*
X85585759Y22583298D01*
X85586240Y23134285D01*
X85521156Y23291800D01*
X88138000Y23291800D01*
X88236597Y23311412D01*
X88337033Y23315773D01*
X88395501Y23343020D01*
X88458765Y23355604D01*
X88542351Y23411454D01*
X88633474Y23453919D01*
X88671135Y23495000D01*
X93566655Y23495000D01*
X93680729Y22921511D01*
X94005585Y22435330D01*
X94320366Y22225000D01*
X94005585Y22014670D01*
X93680729Y21528489D01*
X93566655Y20955000D01*
X93680729Y20381511D01*
X94005585Y19895330D01*
X94320366Y19685000D01*
X94005585Y19474670D01*
X93680729Y18988489D01*
X93566655Y18415000D01*
X93680729Y17841511D01*
X94005585Y17355330D01*
X94320366Y17145000D01*
X94005585Y16934670D01*
X93680729Y16448489D01*
X93566655Y15875000D01*
X93680729Y15301511D01*
X94005585Y14815330D01*
X94320366Y14605000D01*
X94005585Y14394670D01*
X93680729Y13908489D01*
X93566655Y13335000D01*
X93680729Y12761511D01*
X94005585Y12275330D01*
X94320366Y12065000D01*
X94005585Y11854670D01*
X93680729Y11368489D01*
X93566655Y10795000D01*
X93680729Y10221511D01*
X94005585Y9735330D01*
X94491766Y9410474D01*
X95065255Y9296400D01*
X95434745Y9296400D01*
X96008234Y9410474D01*
X96494415Y9735330D01*
X96819271Y10221511D01*
X96933345Y10795000D01*
X96819271Y11368489D01*
X96494415Y11854670D01*
X96179634Y12065000D01*
X96494415Y12275330D01*
X96819271Y12761511D01*
X96933345Y13335000D01*
X96819271Y13908489D01*
X96494415Y14394670D01*
X96179634Y14605000D01*
X96494415Y14815330D01*
X96819271Y15301511D01*
X96933345Y15875000D01*
X96819271Y16448489D01*
X96494415Y16934670D01*
X96179634Y17145000D01*
X96494415Y17355330D01*
X96819271Y17841511D01*
X96933345Y18415000D01*
X96819271Y18988489D01*
X96494415Y19474670D01*
X96179634Y19685000D01*
X96494415Y19895330D01*
X96819271Y20381511D01*
X96933345Y20955000D01*
X96819271Y21528489D01*
X96494415Y22014670D01*
X96179634Y22225000D01*
X96494415Y22435330D01*
X96819271Y22921511D01*
X96933345Y23495000D01*
X96819271Y24068489D01*
X96494415Y24554670D01*
X96065593Y24841200D01*
X96331681Y24841200D01*
X96453043Y24891470D01*
X96545930Y24984357D01*
X96596200Y25105719D01*
X96596200Y25927050D01*
X96513650Y26009600D01*
X95275400Y26009600D01*
X95275400Y25989600D01*
X95224600Y25989600D01*
X95224600Y26009600D01*
X93986350Y26009600D01*
X93903800Y25927050D01*
X93903800Y25105719D01*
X93954070Y24984357D01*
X94046957Y24891470D01*
X94168319Y24841200D01*
X94434407Y24841200D01*
X94005585Y24554670D01*
X93680729Y24068489D01*
X93566655Y23495000D01*
X88671135Y23495000D01*
X88677064Y23501467D01*
X88730697Y23537303D01*
X88786549Y23620891D01*
X88854483Y23694993D01*
X89314600Y24452833D01*
X90250838Y24452833D01*
X90392883Y24109057D01*
X90655673Y23845808D01*
X90999201Y23703162D01*
X91371167Y23702838D01*
X91714943Y23844883D01*
X91978192Y24107673D01*
X92075564Y24342170D01*
X93175697Y25442303D01*
X93357396Y25714234D01*
X93421200Y26035000D01*
X93421200Y26250472D01*
X93517838Y26483201D01*
X93518162Y26855167D01*
X93473078Y26964281D01*
X93903800Y26964281D01*
X93903800Y26142950D01*
X93986350Y26060400D01*
X95224600Y26060400D01*
X95224600Y27146250D01*
X95275400Y27146250D01*
X95275400Y26060400D01*
X96513650Y26060400D01*
X96596200Y26142950D01*
X96596200Y26964281D01*
X96545930Y27085643D01*
X96453043Y27178530D01*
X96331681Y27228800D01*
X95357950Y27228800D01*
X95275400Y27146250D01*
X95224600Y27146250D01*
X95142050Y27228800D01*
X94168319Y27228800D01*
X94046957Y27178530D01*
X93954070Y27085643D01*
X93903800Y26964281D01*
X93473078Y26964281D01*
X93376117Y27198943D01*
X93113327Y27462192D01*
X92769799Y27604838D01*
X92397833Y27605162D01*
X92054057Y27463117D01*
X91790808Y27200327D01*
X91648162Y26856799D01*
X91647838Y26484833D01*
X91706198Y26343592D01*
X90889954Y25527348D01*
X90657057Y25431117D01*
X90393808Y25168327D01*
X90251162Y24824799D01*
X90250838Y24452833D01*
X89314600Y24452833D01*
X91013483Y27250992D01*
X91035560Y27311602D01*
X91071396Y27365235D01*
X91091008Y27463832D01*
X91125414Y27558291D01*
X91122616Y27622735D01*
X91135200Y27686000D01*
X91135200Y31242000D01*
X91071396Y31562765D01*
X90889697Y31834697D01*
X89851679Y32872715D01*
X93737760Y32872715D01*
X93948169Y32363485D01*
X94337436Y31973539D01*
X94846298Y31762241D01*
X95397285Y31761760D01*
X95906515Y31972169D01*
X96296461Y32361436D01*
X96507759Y32870298D01*
X96508240Y33421285D01*
X96297831Y33930515D01*
X95908564Y34320461D01*
X95399702Y34531759D01*
X94848715Y34532240D01*
X94339485Y34321831D01*
X93949539Y33932564D01*
X93738241Y33423702D01*
X93737760Y32872715D01*
X89851679Y32872715D01*
X88222697Y34501697D01*
X87950766Y34683396D01*
X87630000Y34747200D01*
X77055194Y34747200D01*
X76403200Y35399194D01*
X76403200Y42941799D01*
X76570789Y43053778D01*
X76879126Y43515238D01*
X76987400Y44059567D01*
X76987400Y44069000D01*
X77082192Y43643246D01*
X77332698Y43286176D01*
X77700780Y43052151D01*
X77905127Y42994818D01*
X78079600Y43059662D01*
X78079600Y44424600D01*
X76987400Y44424600D01*
X76987400Y44475400D01*
X78079600Y44475400D01*
X78079600Y45840338D01*
X78130400Y45840338D01*
X78130400Y44475400D01*
X79222600Y44475400D01*
X79222600Y44424600D01*
X78130400Y44424600D01*
X78130400Y43059662D01*
X78304873Y42994818D01*
X78509220Y43052151D01*
X78877302Y43286176D01*
X79127808Y43643246D01*
X79222600Y44069000D01*
X79222600Y44059567D01*
X79330874Y43515238D01*
X79639211Y43053778D01*
X80100671Y42745441D01*
X80645000Y42637167D01*
X81189329Y42745441D01*
X81650789Y43053778D01*
X81915000Y43449199D01*
X82179211Y43053778D01*
X82640671Y42745441D01*
X83185000Y42637167D01*
X83729329Y42745441D01*
X84190789Y43053778D01*
X84455000Y43449199D01*
X84719211Y43053778D01*
X85180671Y42745441D01*
X85725000Y42637167D01*
X86269329Y42745441D01*
X86730789Y43053778D01*
X87039126Y43515238D01*
X87137019Y44007381D01*
X92379613Y44007381D01*
X92719155Y43185628D01*
X93347321Y42556364D01*
X94168481Y42215389D01*
X95057619Y42214613D01*
X95879372Y42554155D01*
X96508636Y43182321D01*
X96849611Y44003481D01*
X96850387Y44892619D01*
X96510845Y45714372D01*
X95882679Y46343636D01*
X95061519Y46684611D01*
X94172381Y46685387D01*
X93350628Y46345845D01*
X92721364Y45717679D01*
X92380389Y44896519D01*
X92379613Y44007381D01*
X87137019Y44007381D01*
X87147400Y44059567D01*
X87147400Y44840433D01*
X87039126Y45384762D01*
X86730789Y45846222D01*
X86269329Y46154559D01*
X85725000Y46262833D01*
X85180671Y46154559D01*
X84719211Y45846222D01*
X84455000Y45450801D01*
X84190789Y45846222D01*
X83729329Y46154559D01*
X83185000Y46262833D01*
X82640671Y46154559D01*
X82179211Y45846222D01*
X81915000Y45450801D01*
X81650789Y45846222D01*
X81189329Y46154559D01*
X80645000Y46262833D01*
X80100671Y46154559D01*
X79639211Y45846222D01*
X79330874Y45384762D01*
X79222600Y44840433D01*
X79222600Y44831000D01*
X79127808Y45256754D01*
X78877302Y45613824D01*
X78509220Y45847849D01*
X78304873Y45905182D01*
X78130400Y45840338D01*
X78079600Y45840338D01*
X77905127Y45905182D01*
X77700780Y45847849D01*
X77332698Y45613824D01*
X77082192Y45256754D01*
X76987400Y44831000D01*
X76987400Y44840433D01*
X76879126Y45384762D01*
X76570789Y45846222D01*
X76109329Y46154559D01*
X75565000Y46262833D01*
X75020671Y46154559D01*
X74559211Y45846222D01*
X74295000Y45450801D01*
X74030789Y45846222D01*
X73569329Y46154559D01*
X73025000Y46262833D01*
X72480671Y46154559D01*
X72019211Y45846222D01*
X71755000Y45450801D01*
X71490789Y45846222D01*
X71029329Y46154559D01*
X70485000Y46262833D01*
X69940671Y46154559D01*
X69479211Y45846222D01*
X69215000Y45450801D01*
X68950789Y45846222D01*
X68489329Y46154559D01*
X67945000Y46262833D01*
X67400671Y46154559D01*
X66939211Y45846222D01*
X66675000Y45450801D01*
X66410789Y45846222D01*
X65949329Y46154559D01*
X65405000Y46262833D01*
X64860671Y46154559D01*
X64399211Y45846222D01*
X64135000Y45450801D01*
X63870789Y45846222D01*
X63409329Y46154559D01*
X62865000Y46262833D01*
X62320671Y46154559D01*
X61859211Y45846222D01*
X61595000Y45450801D01*
X61330789Y45846222D01*
X60869329Y46154559D01*
X60325000Y46262833D01*
X59780671Y46154559D01*
X59319211Y45846222D01*
X59055000Y45450801D01*
X58790789Y45846222D01*
X58329329Y46154559D01*
X57785000Y46262833D01*
X57240671Y46154559D01*
X56779211Y45846222D01*
X56515000Y45450801D01*
X56250789Y45846222D01*
X55789329Y46154559D01*
X55245000Y46262833D01*
X54700671Y46154559D01*
X54239211Y45846222D01*
X53975000Y45450801D01*
X53710789Y45846222D01*
X53249329Y46154559D01*
X52705000Y46262833D01*
X52160671Y46154559D01*
X51699211Y45846222D01*
X51435000Y45450801D01*
X51170789Y45846222D01*
X50709329Y46154559D01*
X50165000Y46262833D01*
X49620671Y46154559D01*
X49159211Y45846222D01*
X48850874Y45384762D01*
X48742600Y44840433D01*
X48742600Y44059567D01*
X48850874Y43515238D01*
X49159211Y43053778D01*
X49620671Y42745441D01*
X50165000Y42637167D01*
X50709329Y42745441D01*
X51170789Y43053778D01*
X51435000Y43449199D01*
X51699211Y43053778D01*
X52160671Y42745441D01*
X52705000Y42637167D01*
X53249329Y42745441D01*
X53710789Y43053778D01*
X53975000Y43449199D01*
X54239211Y43053778D01*
X54700671Y42745441D01*
X55245000Y42637167D01*
X55789329Y42745441D01*
X56250789Y43053778D01*
X56515000Y43449199D01*
X56779211Y43053778D01*
X57240671Y42745441D01*
X57785000Y42637167D01*
X58329329Y42745441D01*
X58790789Y43053778D01*
X59055000Y43449199D01*
X59319211Y43053778D01*
X59780671Y42745441D01*
X60325000Y42637167D01*
X60869329Y42745441D01*
X61330789Y43053778D01*
X61595000Y43449199D01*
X61859211Y43053778D01*
X62320671Y42745441D01*
X62865000Y42637167D01*
X63409329Y42745441D01*
X63870789Y43053778D01*
X64135000Y43449199D01*
X64399211Y43053778D01*
X64860671Y42745441D01*
X65405000Y42637167D01*
X65949329Y42745441D01*
X66410789Y43053778D01*
X66675000Y43449199D01*
X66939211Y43053778D01*
X67400671Y42745441D01*
X67945000Y42637167D01*
X68489329Y42745441D01*
X68950789Y43053778D01*
X69215000Y43449199D01*
X69479211Y43053778D01*
X69646800Y42941799D01*
X69646800Y34544000D01*
X69710604Y34223234D01*
X69892303Y33951303D01*
X72813303Y31030303D01*
X72870482Y30992097D01*
X72480671Y30914559D01*
X72019211Y30606222D01*
X71755000Y30210801D01*
X71490789Y30606222D01*
X71029329Y30914559D01*
X70485000Y31022833D01*
X69940671Y30914559D01*
X69479211Y30606222D01*
X69215000Y30210801D01*
X68950789Y30606222D01*
X68489329Y30914559D01*
X67945000Y31022833D01*
X67400671Y30914559D01*
X66939211Y30606222D01*
X66675000Y30210801D01*
X66410789Y30606222D01*
X65949329Y30914559D01*
X65405000Y31022833D01*
X64860671Y30914559D01*
X64399211Y30606222D01*
X64135000Y30210801D01*
X63870789Y30606222D01*
X63409329Y30914559D01*
X62865000Y31022833D01*
X62320671Y30914559D01*
X61859211Y30606222D01*
X61595000Y30210801D01*
X61330789Y30606222D01*
X60869329Y30914559D01*
X60325000Y31022833D01*
X59780671Y30914559D01*
X59319211Y30606222D01*
X59055000Y30210801D01*
X58790789Y30606222D01*
X58329329Y30914559D01*
X57785000Y31022833D01*
X57240671Y30914559D01*
X56779211Y30606222D01*
X56515000Y30210801D01*
X56250789Y30606222D01*
X55789329Y30914559D01*
X55245000Y31022833D01*
X54700671Y30914559D01*
X54239211Y30606222D01*
X53975000Y30210801D01*
X53710789Y30606222D01*
X53249329Y30914559D01*
X52705000Y31022833D01*
X52160671Y30914559D01*
X51699211Y30606222D01*
X51584497Y30434540D01*
X51555562Y30588317D01*
X51416490Y30804441D01*
X51204290Y30949431D01*
X50952400Y31000440D01*
X49377600Y31000440D01*
X49142283Y30956162D01*
X48926159Y30817090D01*
X48781169Y30604890D01*
X48730160Y30353000D01*
X44619394Y30353000D01*
X42248697Y32723697D01*
X41976766Y32905396D01*
X41656000Y32969200D01*
X21816550Y32969200D01*
X21816550Y34502090D01*
X21772272Y34737407D01*
X21633200Y34953531D01*
X21421000Y35098521D01*
X21169110Y35149530D01*
X19469850Y35149530D01*
X19234533Y35105252D01*
X19018409Y34966180D01*
X18873419Y34753980D01*
X18822410Y34502090D01*
X18822410Y32802830D01*
X18866688Y32567513D01*
X18893873Y32525267D01*
X16086954Y29718348D01*
X15854057Y29622117D01*
X15590808Y29359327D01*
X15448162Y29015799D01*
X15447838Y28643833D01*
X750000Y28643833D01*
X750000Y33250000D01*
X1027560Y33250000D01*
X1027560Y30250000D01*
X1071838Y30014683D01*
X1210910Y29798559D01*
X1423110Y29653569D01*
X1675000Y29602560D01*
X4675000Y29602560D01*
X4910317Y29646838D01*
X5126441Y29785910D01*
X5271431Y29998110D01*
X5322440Y30250000D01*
X5322440Y33250000D01*
X5302035Y33358444D01*
X8674592Y33358444D01*
X8900138Y32812583D01*
X9317406Y32394586D01*
X9862873Y32168088D01*
X10453496Y32167572D01*
X10999357Y32393118D01*
X11417354Y32810386D01*
X11643852Y33355853D01*
X11644368Y33946476D01*
X11418822Y34492337D01*
X11001554Y34910334D01*
X10456087Y35136832D01*
X9865464Y35137348D01*
X9319603Y34911802D01*
X8901606Y34494534D01*
X8675108Y33949067D01*
X8674592Y33358444D01*
X5302035Y33358444D01*
X5278162Y33485317D01*
X5139090Y33701441D01*
X4926890Y33846431D01*
X4675000Y33897440D01*
X1675000Y33897440D01*
X1439683Y33853162D01*
X1223559Y33714090D01*
X1078569Y33501890D01*
X1027560Y33250000D01*
X750000Y33250000D01*
X750000Y37820600D01*
X19761200Y37820600D01*
X19761200Y37668200D01*
X19861793Y37213286D01*
X20128817Y36831496D01*
X20521619Y36580953D01*
X20743203Y36518738D01*
X20929600Y36582640D01*
X20929600Y37820600D01*
X19761200Y37820600D01*
X750000Y37820600D01*
X750000Y38023800D01*
X19761200Y38023800D01*
X19761200Y37871400D01*
X20929600Y37871400D01*
X20929600Y39109360D01*
X20980400Y39109360D01*
X20980400Y37871400D01*
X21000400Y37871400D01*
X21000400Y37820600D01*
X20980400Y37820600D01*
X20980400Y36582640D01*
X21166797Y36518738D01*
X21388381Y36580953D01*
X21781183Y36831496D01*
X22048207Y37213286D01*
X22067843Y37302086D01*
X22110474Y37087766D01*
X22435330Y36601585D01*
X22921511Y36276729D01*
X23495000Y36162655D01*
X24068489Y36276729D01*
X24554670Y36601585D01*
X24765000Y36916366D01*
X24975330Y36601585D01*
X25461511Y36276729D01*
X26035000Y36162655D01*
X26608489Y36276729D01*
X27094670Y36601585D01*
X27104243Y36615913D01*
X27108238Y36594683D01*
X27247310Y36378559D01*
X27459510Y36233569D01*
X27711400Y36182560D01*
X29438600Y36182560D01*
X29673917Y36226838D01*
X29890041Y36365910D01*
X30035031Y36578110D01*
X30086040Y36830000D01*
X30086040Y37533833D01*
X38434838Y37533833D01*
X38576883Y37190057D01*
X38839673Y36926808D01*
X39074170Y36829436D01*
X41782652Y34120954D01*
X41878883Y33888057D01*
X42141673Y33624808D01*
X42485201Y33482162D01*
X42857167Y33481838D01*
X43200943Y33623883D01*
X43464192Y33886673D01*
X43523708Y34030002D01*
X43529883Y34015057D01*
X43792673Y33751808D01*
X44136201Y33609162D01*
X44508167Y33608838D01*
X44851943Y33750883D01*
X45115192Y34013673D01*
X45257838Y34357201D01*
X45258162Y34729167D01*
X45116117Y35072943D01*
X44853327Y35336192D01*
X44509799Y35478838D01*
X44446501Y35478893D01*
X41148348Y38777046D01*
X41052117Y39009943D01*
X40946245Y39116000D01*
X66929000Y39116000D01*
X66929000Y35941000D01*
X67006338Y35552194D01*
X67226580Y35222580D01*
X67556194Y35002338D01*
X67945000Y34925000D01*
X68333806Y35002338D01*
X68663420Y35222580D01*
X68883662Y35552194D01*
X68961000Y35941000D01*
X68961000Y39116000D01*
X68883662Y39504806D01*
X68663420Y39834420D01*
X68333806Y40054662D01*
X67945000Y40132000D01*
X67556194Y40054662D01*
X67226580Y39834420D01*
X67006338Y39504806D01*
X66929000Y39116000D01*
X40946245Y39116000D01*
X40789327Y39273192D01*
X40445799Y39415838D01*
X40073833Y39416162D01*
X39730057Y39274117D01*
X39466808Y39011327D01*
X39324162Y38667799D01*
X39324150Y38654041D01*
X39184833Y38654162D01*
X38841057Y38512117D01*
X38577808Y38249327D01*
X38435162Y37905799D01*
X38434838Y37533833D01*
X30086040Y37533833D01*
X30086040Y38862000D01*
X30041762Y39097317D01*
X29902690Y39313441D01*
X29690490Y39458431D01*
X29438600Y39509440D01*
X27711400Y39509440D01*
X27476083Y39465162D01*
X27259959Y39326090D01*
X27114969Y39113890D01*
X27106600Y39072561D01*
X27094670Y39090415D01*
X26608489Y39415271D01*
X26035000Y39529345D01*
X25461511Y39415271D01*
X24975330Y39090415D01*
X24765000Y38775634D01*
X24554670Y39090415D01*
X24068489Y39415271D01*
X23495000Y39529345D01*
X22921511Y39415271D01*
X22435330Y39090415D01*
X22110474Y38604234D01*
X22067843Y38389914D01*
X22048207Y38478714D01*
X21781183Y38860504D01*
X21388381Y39111047D01*
X21166797Y39173262D01*
X20980400Y39109360D01*
X20929600Y39109360D01*
X20743203Y39173262D01*
X20521619Y39111047D01*
X20128817Y38860504D01*
X19861793Y38478714D01*
X19761200Y38023800D01*
X750000Y38023800D01*
X750000Y44007381D01*
X2209613Y44007381D01*
X2549155Y43185628D01*
X3177321Y42556364D01*
X3998481Y42215389D01*
X4887619Y42214613D01*
X5709372Y42554155D01*
X6338636Y43182321D01*
X6679611Y44003481D01*
X6679906Y44342050D01*
X34914800Y44342050D01*
X34914800Y43384319D01*
X34965070Y43262957D01*
X35057957Y43170070D01*
X35179319Y43119800D01*
X36087050Y43119800D01*
X36169600Y43202350D01*
X36169600Y44424600D01*
X34997350Y44424600D01*
X34914800Y44342050D01*
X6679906Y44342050D01*
X6680387Y44892619D01*
X6422943Y45515681D01*
X34914800Y45515681D01*
X34914800Y44557950D01*
X34997350Y44475400D01*
X36169600Y44475400D01*
X36169600Y45697650D01*
X36220400Y45697650D01*
X36220400Y44475400D01*
X36240400Y44475400D01*
X36240400Y44424600D01*
X36220400Y44424600D01*
X36220400Y43202350D01*
X36302950Y43119800D01*
X37210681Y43119800D01*
X37332043Y43170070D01*
X37424930Y43262957D01*
X37475200Y43384319D01*
X37475200Y43468514D01*
X37835997Y43107086D01*
X38418341Y42865276D01*
X39048893Y42864725D01*
X39631657Y43105519D01*
X40077914Y43550997D01*
X40319724Y44133341D01*
X40320275Y44763893D01*
X40079481Y45346657D01*
X39634003Y45792914D01*
X39051659Y46034724D01*
X38421107Y46035275D01*
X37838343Y45794481D01*
X37475200Y45431972D01*
X37475200Y45515681D01*
X37424930Y45637043D01*
X37332043Y45729930D01*
X37210681Y45780200D01*
X36302950Y45780200D01*
X36220400Y45697650D01*
X36169600Y45697650D01*
X36087050Y45780200D01*
X35179319Y45780200D01*
X35057957Y45729930D01*
X34965070Y45637043D01*
X34914800Y45515681D01*
X6422943Y45515681D01*
X6340845Y45714372D01*
X5712679Y46343636D01*
X4891519Y46684611D01*
X4002381Y46685387D01*
X3180628Y46345845D01*
X2551364Y45717679D01*
X2210389Y44896519D01*
X2209613Y44007381D01*
X750000Y44007381D01*
X750000Y48623000D01*
X98330000Y48623000D01*
X98330000Y460000D01*
X98330000Y460000D01*
G37*
X98330000Y460000D02*
X750000Y460000D01*
X750000Y1039855D01*
X83498776Y1039855D01*
X83574356Y872287D01*
X83968658Y701424D01*
X84398332Y694459D01*
X84797964Y852454D01*
X84827644Y872287D01*
X84903224Y1039855D01*
X84201000Y1742079D01*
X83498776Y1039855D01*
X750000Y1039855D01*
X750000Y3367381D01*
X2209613Y3367381D01*
X2549155Y2545628D01*
X3177321Y1916364D01*
X3998481Y1575389D01*
X4887619Y1574613D01*
X4902273Y1580668D01*
X83117459Y1580668D01*
X83275454Y1181036D01*
X83295287Y1151356D01*
X83462855Y1075776D01*
X84165079Y1778000D01*
X84236921Y1778000D01*
X84939145Y1075776D01*
X85106713Y1151356D01*
X85277576Y1545658D01*
X85284541Y1975332D01*
X85126546Y2374964D01*
X85106713Y2404644D01*
X84939145Y2480224D01*
X84236921Y1778000D01*
X84165079Y1778000D01*
X83462855Y2480224D01*
X83295287Y2404644D01*
X83124424Y2010342D01*
X83117459Y1580668D01*
X4902273Y1580668D01*
X5709372Y1914155D01*
X6312414Y2516145D01*
X83498776Y2516145D01*
X84201000Y1813921D01*
X84903224Y2516145D01*
X84827644Y2683713D01*
X84433342Y2854576D01*
X84003668Y2861541D01*
X83604036Y2703546D01*
X83574356Y2683713D01*
X83498776Y2516145D01*
X6312414Y2516145D01*
X6338636Y2542321D01*
X6679611Y3363481D01*
X6680387Y4252619D01*
X6340845Y5074372D01*
X5712679Y5703636D01*
X4891519Y6044611D01*
X4002381Y6045387D01*
X3180628Y5705845D01*
X2551364Y5077679D01*
X2210389Y4256519D01*
X2209613Y3367381D01*
X750000Y3367381D01*
X750000Y7700000D01*
X46927560Y7700000D01*
X46927560Y3700000D01*
X46971838Y3464683D01*
X47110910Y3248559D01*
X47323110Y3103569D01*
X47575000Y3052560D01*
X51575000Y3052560D01*
X51810317Y3096838D01*
X52026441Y3235910D01*
X52171431Y3448110D01*
X52222440Y3700000D01*
X52222440Y7700000D01*
X55727560Y7700000D01*
X55727560Y3700000D01*
X55771838Y3464683D01*
X55910910Y3248559D01*
X56123110Y3103569D01*
X56375000Y3052560D01*
X60375000Y3052560D01*
X60610317Y3096838D01*
X60826441Y3235910D01*
X60916271Y3367381D01*
X92379613Y3367381D01*
X92719155Y2545628D01*
X93347321Y1916364D01*
X94168481Y1575389D01*
X95057619Y1574613D01*
X95879372Y1914155D01*
X96508636Y2542321D01*
X96849611Y3363481D01*
X96850387Y4252619D01*
X96510845Y5074372D01*
X95882679Y5703636D01*
X95061519Y6044611D01*
X94172381Y6045387D01*
X93350628Y5705845D01*
X92721364Y5077679D01*
X92380389Y4256519D01*
X92379613Y3367381D01*
X60916271Y3367381D01*
X60971431Y3448110D01*
X61022440Y3700000D01*
X61022440Y4878155D01*
X62672970Y4878155D01*
X62731112Y4670958D01*
X62967868Y4298789D01*
X63329025Y4045552D01*
X63759600Y3949800D01*
X64109600Y3949800D01*
X64109600Y5054600D01*
X64160400Y5054600D01*
X64160400Y3949800D01*
X64510400Y3949800D01*
X64940975Y4045552D01*
X65302132Y4298789D01*
X65538888Y4670958D01*
X65597030Y4878155D01*
X65532342Y5054600D01*
X64160400Y5054600D01*
X64109600Y5054600D01*
X62737658Y5054600D01*
X62672970Y4878155D01*
X61022440Y4878155D01*
X61022440Y7700000D01*
X60978162Y7935317D01*
X60839090Y8151441D01*
X60626890Y8296431D01*
X60375000Y8347440D01*
X56375000Y8347440D01*
X56139683Y8303162D01*
X55923559Y8164090D01*
X55778569Y7951890D01*
X55727560Y7700000D01*
X52222440Y7700000D01*
X52178162Y7935317D01*
X52039090Y8151441D01*
X51826890Y8296431D01*
X51575000Y8347440D01*
X47575000Y8347440D01*
X47339683Y8303162D01*
X47123559Y8164090D01*
X46978569Y7951890D01*
X46927560Y7700000D01*
X750000Y7700000D01*
X750000Y10052050D01*
X1344800Y10052050D01*
X1344800Y8594319D01*
X1395070Y8472957D01*
X1487957Y8380070D01*
X1609319Y8329800D01*
X3067050Y8329800D01*
X3149600Y8412350D01*
X3149600Y10134600D01*
X3200400Y10134600D01*
X3200400Y8412350D01*
X3282950Y8329800D01*
X4740681Y8329800D01*
X4862043Y8380070D01*
X4954930Y8472957D01*
X5005200Y8594319D01*
X5005200Y10052050D01*
X4922650Y10134600D01*
X3200400Y10134600D01*
X3149600Y10134600D01*
X1427350Y10134600D01*
X1344800Y10052050D01*
X750000Y10052050D01*
X750000Y11725681D01*
X1344800Y11725681D01*
X1344800Y10267950D01*
X1427350Y10185400D01*
X3149600Y10185400D01*
X3149600Y11907650D01*
X3200400Y11907650D01*
X3200400Y10185400D01*
X4922650Y10185400D01*
X5005200Y10267950D01*
X5005200Y11725681D01*
X4954930Y11847043D01*
X4946584Y11855389D01*
X8098509Y11855389D01*
X8159828Y11636965D01*
X8407343Y11248694D01*
X8784602Y10984699D01*
X9234170Y10885170D01*
X10134600Y10885170D01*
X10134600Y12039600D01*
X10185400Y12039600D01*
X10185400Y10885170D01*
X11085830Y10885170D01*
X11535398Y10984699D01*
X11912657Y11248694D01*
X12160172Y11636965D01*
X12221491Y11855389D01*
X12157416Y12039600D01*
X10185400Y12039600D01*
X10134600Y12039600D01*
X8162584Y12039600D01*
X8098509Y11855389D01*
X4946584Y11855389D01*
X4862043Y11939930D01*
X4740681Y11990200D01*
X3282950Y11990200D01*
X3200400Y11907650D01*
X3149600Y11907650D01*
X3067050Y11990200D01*
X1609319Y11990200D01*
X1487957Y11939930D01*
X1395070Y11847043D01*
X1344800Y11725681D01*
X750000Y11725681D01*
X750000Y17375000D01*
X1027560Y17375000D01*
X1027560Y14375000D01*
X1071838Y14139683D01*
X1210910Y13923559D01*
X1423110Y13778569D01*
X1675000Y13727560D01*
X4675000Y13727560D01*
X4910317Y13771838D01*
X5126441Y13910910D01*
X5254957Y14099000D01*
X5356134Y14099000D01*
X6017567Y13437566D01*
X6553190Y13079675D01*
X7185000Y12954000D01*
X8511226Y12954000D01*
X8407343Y12881306D01*
X8159828Y12493035D01*
X8098509Y12274611D01*
X8162584Y12090400D01*
X10134600Y12090400D01*
X10134600Y12110400D01*
X10185400Y12110400D01*
X10185400Y12090400D01*
X12157416Y12090400D01*
X12221491Y12274611D01*
X12160172Y12493035D01*
X11912657Y12881306D01*
X11535398Y13145301D01*
X11392044Y13177038D01*
X11675299Y13233381D01*
X12156948Y13555208D01*
X12478775Y14036857D01*
X12491928Y14102985D01*
X24388641Y14102985D01*
X24773746Y13170959D01*
X25486208Y12457252D01*
X26417561Y12070521D01*
X27426015Y12069641D01*
X28358041Y12454746D01*
X28874227Y12970032D01*
X50078000Y12970032D01*
X50078000Y12429968D01*
X50184340Y11895359D01*
X50487172Y11442140D01*
X50940391Y11139308D01*
X51475000Y11032968D01*
X52009609Y11139308D01*
X52462828Y11442140D01*
X52725000Y11834507D01*
X52987172Y11442140D01*
X53440391Y11139308D01*
X53975000Y11032968D01*
X54509609Y11139308D01*
X54962828Y11442140D01*
X55265660Y11895359D01*
X55372000Y12429968D01*
X55372000Y12674600D01*
X55382800Y12674600D01*
X55382800Y12436600D01*
X55475659Y12020567D01*
X55720658Y11671738D01*
X56080499Y11443219D01*
X56279101Y11387512D01*
X56449600Y11452670D01*
X56449600Y12674600D01*
X56500400Y12674600D01*
X56500400Y11452670D01*
X56670899Y11387512D01*
X56869501Y11443219D01*
X57229342Y11671738D01*
X57474341Y12020567D01*
X57567200Y12436600D01*
X57567200Y12674600D01*
X56500400Y12674600D01*
X56449600Y12674600D01*
X55382800Y12674600D01*
X55372000Y12674600D01*
X55372000Y12963400D01*
X55382800Y12963400D01*
X55382800Y12725400D01*
X56449600Y12725400D01*
X56449600Y13947330D01*
X56500400Y13947330D01*
X56500400Y12725400D01*
X57567200Y12725400D01*
X57567200Y12963400D01*
X57474341Y13379433D01*
X57229342Y13728262D01*
X56869501Y13956781D01*
X56670899Y14012488D01*
X56500400Y13947330D01*
X56449600Y13947330D01*
X56279101Y14012488D01*
X56080499Y13956781D01*
X55720658Y13728262D01*
X55475659Y13379433D01*
X55382800Y12963400D01*
X55372000Y12963400D01*
X55372000Y12970032D01*
X55265660Y13504641D01*
X54962828Y13957860D01*
X54509609Y14260692D01*
X53975000Y14367032D01*
X53440391Y14260692D01*
X52987172Y13957860D01*
X52725000Y13565493D01*
X52462828Y13957860D01*
X52009609Y14260692D01*
X51475000Y14367032D01*
X50940391Y14260692D01*
X50487172Y13957860D01*
X50184340Y13504641D01*
X50078000Y12970032D01*
X28874227Y12970032D01*
X29071748Y13167208D01*
X29458479Y14098561D01*
X29459359Y15107015D01*
X29074254Y16039041D01*
X28361792Y16752748D01*
X27987422Y16908200D01*
X52121122Y16908200D01*
X52198164Y16739386D01*
X52596802Y16566524D01*
X53031248Y16559373D01*
X53435359Y16719022D01*
X53465836Y16739386D01*
X53542878Y16908200D01*
X52832000Y17619079D01*
X52121122Y16908200D01*
X27987422Y16908200D01*
X27430439Y17139479D01*
X26421985Y17140359D01*
X25489959Y16755254D01*
X24776252Y16042792D01*
X24389521Y15111439D01*
X24388641Y14102985D01*
X12491928Y14102985D01*
X12591786Y14605000D01*
X12478775Y15173143D01*
X12156948Y15654792D01*
X11827383Y15875000D01*
X12156948Y16095208D01*
X12478775Y16576857D01*
X12591786Y17145000D01*
X12529974Y17455752D01*
X51736373Y17455752D01*
X51896022Y17051641D01*
X51916386Y17021164D01*
X52085200Y16944122D01*
X52796079Y17655000D01*
X52867921Y17655000D01*
X53578800Y16944122D01*
X53747614Y17021164D01*
X53920476Y17419802D01*
X53927627Y17854248D01*
X53767978Y18258359D01*
X53747614Y18288836D01*
X53578800Y18365878D01*
X52867921Y17655000D01*
X52796079Y17655000D01*
X52085200Y18365878D01*
X51916386Y18288836D01*
X51743524Y17890198D01*
X51736373Y17455752D01*
X12529974Y17455752D01*
X12478775Y17713143D01*
X12156948Y18194792D01*
X11847139Y18401800D01*
X52121122Y18401800D01*
X52832000Y17690921D01*
X53542878Y18401800D01*
X53465836Y18570614D01*
X53067198Y18743476D01*
X52632752Y18750627D01*
X52228641Y18590978D01*
X52198164Y18570614D01*
X52121122Y18401800D01*
X11847139Y18401800D01*
X11675299Y18516619D01*
X11107156Y18629630D01*
X9212844Y18629630D01*
X8644701Y18516619D01*
X8163052Y18194792D01*
X7841225Y17713143D01*
X7728214Y17145000D01*
X7841225Y16576857D01*
X8055614Y16256000D01*
X7868867Y16256000D01*
X7207433Y16917433D01*
X6671811Y17275325D01*
X6040000Y17401000D01*
X5317548Y17401000D01*
X5278162Y17610317D01*
X5139090Y17826441D01*
X4926890Y17971431D01*
X4675000Y18022440D01*
X1675000Y18022440D01*
X1439683Y17978162D01*
X1223559Y17839090D01*
X1078569Y17626890D01*
X1027560Y17375000D01*
X750000Y17375000D01*
X750000Y21023833D01*
X24972838Y21023833D01*
X25114883Y20680057D01*
X25377673Y20416808D01*
X25721201Y20274162D01*
X26093167Y20273838D01*
X26327834Y20370800D01*
X29552472Y20370800D01*
X29785201Y20274162D01*
X30157167Y20273838D01*
X30500943Y20415883D01*
X30764192Y20678673D01*
X30906838Y21022201D01*
X30907162Y21394167D01*
X30765117Y21737943D01*
X30502327Y22001192D01*
X30158799Y22143838D01*
X29786833Y22144162D01*
X29552166Y22047200D01*
X26327528Y22047200D01*
X26094799Y22143838D01*
X25722833Y22144162D01*
X25379057Y22002117D01*
X25115808Y21739327D01*
X24973162Y21395799D01*
X24972838Y21023833D01*
X750000Y21023833D01*
X750000Y26900000D01*
X1027560Y26900000D01*
X1027560Y23900000D01*
X1071838Y23664683D01*
X1210910Y23448559D01*
X1423110Y23303569D01*
X1675000Y23252560D01*
X4675000Y23252560D01*
X4910317Y23296838D01*
X5126441Y23435910D01*
X5271431Y23648110D01*
X5322440Y23900000D01*
X5322440Y25400000D01*
X20303397Y25400000D01*
X20408867Y24869765D01*
X20709221Y24420254D01*
X21158732Y24119900D01*
X21688967Y24014430D01*
X22761033Y24014430D01*
X23291268Y24119900D01*
X23740779Y24420254D01*
X24041133Y24869765D01*
X24146603Y25400000D01*
X24041133Y25930235D01*
X23740779Y26379746D01*
X23291268Y26680100D01*
X22761033Y26785570D01*
X21688967Y26785570D01*
X21158732Y26680100D01*
X20709221Y26379746D01*
X20408867Y25930235D01*
X20303397Y25400000D01*
X5322440Y25400000D01*
X5322440Y26900000D01*
X5278162Y27135317D01*
X5139090Y27351441D01*
X4926890Y27496431D01*
X4675000Y27547440D01*
X1675000Y27547440D01*
X1439683Y27503162D01*
X1223559Y27364090D01*
X1078569Y27151890D01*
X1027560Y26900000D01*
X750000Y26900000D01*
X750000Y27745890D01*
X20662695Y27745890D01*
X20717669Y27549874D01*
X20943710Y27193741D01*
X21288831Y26951219D01*
X21700490Y26859230D01*
X22199600Y26859230D01*
X22199600Y27914600D01*
X22250400Y27914600D01*
X22250400Y26859230D01*
X22749510Y26859230D01*
X23161169Y26951219D01*
X23506290Y27193741D01*
X23661313Y27437985D01*
X36453641Y27437985D01*
X36838746Y26505959D01*
X37551208Y25792252D01*
X38482561Y25405521D01*
X39491015Y25404641D01*
X40423041Y25789746D01*
X41136748Y26502208D01*
X41523479Y27433561D01*
X41524359Y28442015D01*
X41139254Y29374041D01*
X40426792Y30087748D01*
X39495439Y30474479D01*
X38486985Y30475359D01*
X37554959Y30090254D01*
X36841252Y29377792D01*
X36454521Y28446439D01*
X36453641Y27437985D01*
X23661313Y27437985D01*
X23732331Y27549874D01*
X23787305Y27745890D01*
X23722007Y27914600D01*
X22250400Y27914600D01*
X22199600Y27914600D01*
X20727993Y27914600D01*
X20662695Y27745890D01*
X750000Y27745890D01*
X750000Y28643833D01*
X15447838Y28643833D01*
X15589883Y28300057D01*
X15852673Y28036808D01*
X16196201Y27894162D01*
X16568167Y27893838D01*
X16911943Y28035883D01*
X17010341Y28134110D01*
X20662695Y28134110D01*
X20727993Y27965400D01*
X22199600Y27965400D01*
X22199600Y29020770D01*
X22250400Y29020770D01*
X22250400Y27965400D01*
X23722007Y27965400D01*
X23787305Y28134110D01*
X23732331Y28330126D01*
X23506290Y28686259D01*
X23161169Y28928781D01*
X22749510Y29020770D01*
X22250400Y29020770D01*
X22199600Y29020770D01*
X21700490Y29020770D01*
X21288831Y28928781D01*
X20943710Y28686259D01*
X20717669Y28330126D01*
X20662695Y28134110D01*
X17010341Y28134110D01*
X17175192Y28298673D01*
X17272564Y28533170D01*
X20032194Y31292800D01*
X20597671Y31292800D01*
X20408867Y31010235D01*
X20303397Y30480000D01*
X20408867Y29949765D01*
X20709221Y29500254D01*
X21158732Y29199900D01*
X21688967Y29094430D01*
X22761033Y29094430D01*
X23291268Y29199900D01*
X23740779Y29500254D01*
X24041133Y29949765D01*
X24146603Y30480000D01*
X24041133Y31010235D01*
X23852329Y31292800D01*
X41308806Y31292800D01*
X43687652Y28913954D01*
X43783883Y28681057D01*
X44046673Y28417808D01*
X44390201Y28275162D01*
X44762167Y28274838D01*
X45105943Y28416883D01*
X45369192Y28679673D01*
X45511838Y29023201D01*
X45512162Y29395167D01*
X45370117Y29738943D01*
X45107327Y30002192D01*
X44872830Y30099564D01*
X44619394Y30353000D01*
X48730160Y30353000D01*
X48730160Y28067000D01*
X48774438Y27831683D01*
X48913510Y27615559D01*
X49125710Y27470569D01*
X49326800Y27429847D01*
X49326800Y25273000D01*
X49390604Y24952234D01*
X49572303Y24680303D01*
X50590303Y23662303D01*
X50862235Y23480604D01*
X51183000Y23416800D01*
X51694803Y23416800D01*
X52039630Y23071371D01*
X52552900Y22858243D01*
X53108661Y22857758D01*
X53114087Y22860000D01*
X62315030Y22860000D01*
X62424263Y22310849D01*
X62735332Y21845302D01*
X63117418Y21590000D01*
X62735332Y21334698D01*
X62424263Y20869151D01*
X62315030Y20320000D01*
X62424263Y19770849D01*
X62735332Y19305302D01*
X63117418Y19050000D01*
X62735332Y18794698D01*
X62424263Y18329151D01*
X62315030Y17780000D01*
X62424263Y17230849D01*
X62735332Y16765302D01*
X63117418Y16510000D01*
X62735332Y16254698D01*
X62424263Y15789151D01*
X62315030Y15240000D01*
X62424263Y14690849D01*
X62735332Y14225302D01*
X63117418Y13970000D01*
X62735332Y13714698D01*
X62424263Y13249151D01*
X62315030Y12700000D01*
X62424263Y12150849D01*
X62735332Y11685302D01*
X63117418Y11430000D01*
X62735332Y11174698D01*
X62424263Y10709151D01*
X62315030Y10160000D01*
X62424263Y9610849D01*
X62735332Y9145302D01*
X63117418Y8890000D01*
X62735332Y8634698D01*
X62424263Y8169151D01*
X62315030Y7620000D01*
X62424263Y7070849D01*
X62735332Y6605302D01*
X63200879Y6294233D01*
X63695266Y6195893D01*
X63329025Y6114448D01*
X62967868Y5861211D01*
X62731112Y5489042D01*
X62672970Y5281845D01*
X62737658Y5105400D01*
X64109600Y5105400D01*
X64109600Y5125400D01*
X64160400Y5125400D01*
X64160400Y5105400D01*
X65532342Y5105400D01*
X65597030Y5281845D01*
X65538888Y5489042D01*
X65302132Y5861211D01*
X64940975Y6114448D01*
X64574734Y6195893D01*
X65069121Y6294233D01*
X65534668Y6605302D01*
X65845737Y7070849D01*
X65954970Y7620000D01*
X65845737Y8169151D01*
X65534668Y8634698D01*
X65152582Y8890000D01*
X65534668Y9145302D01*
X65845737Y9610849D01*
X65954970Y10160000D01*
X65845737Y10709151D01*
X65534668Y11174698D01*
X65152582Y11430000D01*
X65534668Y11685302D01*
X65845737Y12150849D01*
X65954970Y12700000D01*
X65845737Y13249151D01*
X65534668Y13714698D01*
X65152582Y13970000D01*
X65534668Y14225302D01*
X65845737Y14690849D01*
X65954970Y15240000D01*
X65845737Y15789151D01*
X65534668Y16254698D01*
X65152582Y16510000D01*
X65534668Y16765302D01*
X65845737Y17230849D01*
X65954970Y17780000D01*
X65845737Y18329151D01*
X65534668Y18794698D01*
X65152582Y19050000D01*
X65534668Y19305302D01*
X65845737Y19770849D01*
X65954970Y20320000D01*
X65845737Y20869151D01*
X65534668Y21334698D01*
X65152582Y21590000D01*
X65534668Y21845302D01*
X65845737Y22310849D01*
X65954970Y22860000D01*
X65845737Y23409151D01*
X65534668Y23874698D01*
X65069121Y24185767D01*
X64519970Y24295000D01*
X63750030Y24295000D01*
X63200879Y24185767D01*
X62735332Y23874698D01*
X62424263Y23409151D01*
X62315030Y22860000D01*
X53114087Y22860000D01*
X53622303Y23069990D01*
X54015629Y23462630D01*
X54228757Y23975900D01*
X54229242Y24531661D01*
X54017010Y25045303D01*
X53624370Y25438629D01*
X53111100Y25651757D01*
X52555339Y25652242D01*
X52041697Y25440010D01*
X51694281Y25093200D01*
X51530194Y25093200D01*
X51003200Y25620194D01*
X51003200Y27429119D01*
X51187717Y27463838D01*
X51403841Y27602910D01*
X51548831Y27815110D01*
X51583600Y27986803D01*
X51699211Y27813778D01*
X52160671Y27505441D01*
X52705000Y27397167D01*
X53249329Y27505441D01*
X53710789Y27813778D01*
X53975000Y28209199D01*
X54239211Y27813778D01*
X54700671Y27505441D01*
X55245000Y27397167D01*
X55789329Y27505441D01*
X56250789Y27813778D01*
X56515000Y28209199D01*
X56779211Y27813778D01*
X56946800Y27701799D01*
X56946800Y25249178D01*
X56865808Y25168327D01*
X56723162Y24824799D01*
X56722838Y24452833D01*
X56864883Y24109057D01*
X57127673Y23845808D01*
X57471201Y23703162D01*
X57843167Y23702838D01*
X58186943Y23844883D01*
X58450192Y24107673D01*
X58592838Y24451201D01*
X58592979Y24613068D01*
X58623200Y24765000D01*
X58623200Y27701799D01*
X58790789Y27813778D01*
X59055000Y28209199D01*
X59319211Y27813778D01*
X59486800Y27701799D01*
X59486800Y25184528D01*
X59390162Y24951799D01*
X59389838Y24579833D01*
X59531883Y24236057D01*
X59794673Y23972808D01*
X60138201Y23830162D01*
X60510167Y23829838D01*
X60853943Y23971883D01*
X61117192Y24234673D01*
X61259838Y24578201D01*
X61260162Y24950167D01*
X61163200Y25184834D01*
X61163200Y27701799D01*
X61330789Y27813778D01*
X61595000Y28209199D01*
X61859211Y27813778D01*
X62320671Y27505441D01*
X62865000Y27397167D01*
X63409329Y27505441D01*
X63870789Y27813778D01*
X64135000Y28209199D01*
X64399211Y27813778D01*
X64860671Y27505441D01*
X65405000Y27397167D01*
X65949329Y27505441D01*
X66410789Y27813778D01*
X66675000Y28209199D01*
X66939211Y27813778D01*
X67400671Y27505441D01*
X67945000Y27397167D01*
X68489329Y27505441D01*
X68950789Y27813778D01*
X69215000Y28209199D01*
X69479211Y27813778D01*
X69940671Y27505441D01*
X70485000Y27397167D01*
X71029329Y27505441D01*
X71490789Y27813778D01*
X71755000Y28209199D01*
X72019211Y27813778D01*
X72480671Y27505441D01*
X73025000Y27397167D01*
X73569329Y27505441D01*
X74030789Y27813778D01*
X74295000Y28209199D01*
X74559211Y27813778D01*
X75020671Y27505441D01*
X75565000Y27397167D01*
X76109329Y27505441D01*
X76570789Y27813778D01*
X76835000Y28209199D01*
X77099211Y27813778D01*
X77560671Y27505441D01*
X78105000Y27397167D01*
X78649329Y27505441D01*
X79110789Y27813778D01*
X79375000Y28209199D01*
X79639211Y27813778D01*
X80100671Y27505441D01*
X80645000Y27397167D01*
X81189329Y27505441D01*
X81650789Y27813778D01*
X81959126Y28275238D01*
X82067400Y28819567D01*
X82067400Y28829000D01*
X82162192Y28403246D01*
X82412698Y28046176D01*
X82780780Y27812151D01*
X82985127Y27754818D01*
X83159600Y27819662D01*
X83159600Y29184600D01*
X82067400Y29184600D01*
X82067400Y29235400D01*
X83159600Y29235400D01*
X83159600Y30600338D01*
X82985127Y30665182D01*
X82780780Y30607849D01*
X82412698Y30373824D01*
X82162192Y30016754D01*
X82067400Y29591000D01*
X82067400Y29600433D01*
X81959126Y30144762D01*
X81650789Y30606222D01*
X81383528Y30784800D01*
X84986472Y30784800D01*
X84719211Y30606222D01*
X84410874Y30144762D01*
X84302600Y29600433D01*
X84302600Y29591000D01*
X84207808Y30016754D01*
X83957302Y30373824D01*
X83589220Y30607849D01*
X83384873Y30665182D01*
X83210400Y30600338D01*
X83210400Y29235400D01*
X84302600Y29235400D01*
X84302600Y29184600D01*
X83210400Y29184600D01*
X83210400Y27819662D01*
X83384873Y27754818D01*
X83589220Y27812151D01*
X83957302Y28046176D01*
X84207808Y28403246D01*
X84302600Y28829000D01*
X84302600Y28819567D01*
X84410874Y28275238D01*
X84719211Y27813778D01*
X85180671Y27505441D01*
X85725000Y27397167D01*
X86269329Y27505441D01*
X86520491Y27673262D01*
X85884705Y26609285D01*
X71755588Y26619200D01*
X71637225Y26595742D01*
X71517064Y26584720D01*
X71478035Y26564194D01*
X71434779Y26555621D01*
X71334404Y26488655D01*
X71227606Y26432487D01*
X68560606Y24273487D01*
X68532214Y24239360D01*
X68495303Y24214697D01*
X68428428Y24114612D01*
X68351438Y24022071D01*
X68338266Y23979675D01*
X68313604Y23942765D01*
X68290121Y23824707D01*
X68254405Y23709747D01*
X68258460Y23665538D01*
X68249800Y23622000D01*
X68249800Y11303000D01*
X68313604Y10982234D01*
X68495303Y10710303D01*
X69638303Y9567303D01*
X69910234Y9385604D01*
X70231000Y9321800D01*
X70237400Y9321800D01*
X70355332Y9145302D01*
X70737418Y8890000D01*
X70355332Y8634698D01*
X70044263Y8169151D01*
X69935030Y7620000D01*
X70044263Y7070849D01*
X70355332Y6605302D01*
X70737418Y6350000D01*
X70355332Y6094698D01*
X70044263Y5629151D01*
X69935030Y5080000D01*
X70044263Y4530849D01*
X70355332Y4065302D01*
X70820879Y3754233D01*
X71370030Y3645000D01*
X72139970Y3645000D01*
X72689121Y3754233D01*
X73154668Y4065302D01*
X73272600Y4241800D01*
X73660000Y4241800D01*
X73980766Y4305604D01*
X74252697Y4487303D01*
X74571109Y4805715D01*
X82815760Y4805715D01*
X83026169Y4296485D01*
X83415436Y3906539D01*
X83924298Y3695241D01*
X84475285Y3694760D01*
X84984515Y3905169D01*
X85374461Y4294436D01*
X85585759Y4803298D01*
X85586240Y5354285D01*
X85375831Y5863515D01*
X84986564Y6253461D01*
X84477702Y6464759D01*
X83926715Y6465240D01*
X83417485Y6254831D01*
X83027539Y5865564D01*
X82816241Y5356702D01*
X82815760Y4805715D01*
X74571109Y4805715D01*
X75522697Y5757303D01*
X75612718Y5892029D01*
X75703190Y6026339D01*
X75703507Y6027904D01*
X75704396Y6029234D01*
X75736009Y6188163D01*
X75768194Y6346863D01*
X75779061Y9250715D01*
X82815760Y9250715D01*
X83026169Y8741485D01*
X83415436Y8351539D01*
X83924298Y8140241D01*
X84475285Y8139760D01*
X84984515Y8350169D01*
X85374461Y8739436D01*
X85585759Y9248298D01*
X85586240Y9799285D01*
X85375831Y10308515D01*
X84986564Y10698461D01*
X84477702Y10909759D01*
X83926715Y10910240D01*
X83417485Y10699831D01*
X83027539Y10310564D01*
X82816241Y9801702D01*
X82815760Y9250715D01*
X75779061Y9250715D01*
X75795695Y13695715D01*
X82815760Y13695715D01*
X83026169Y13186485D01*
X83415436Y12796539D01*
X83924298Y12585241D01*
X84475285Y12584760D01*
X84984515Y12795169D01*
X85374461Y13184436D01*
X85585759Y13693298D01*
X85586240Y14244285D01*
X85375831Y14753515D01*
X84986564Y15143461D01*
X84477702Y15354759D01*
X83926715Y15355240D01*
X83417485Y15144831D01*
X83027539Y14755564D01*
X82816241Y14246702D01*
X82815760Y13695715D01*
X75795695Y13695715D01*
X75812330Y18140715D01*
X82815760Y18140715D01*
X83026169Y17631485D01*
X83415436Y17241539D01*
X83924298Y17030241D01*
X84475285Y17029760D01*
X84984515Y17240169D01*
X85374461Y17629436D01*
X85585759Y18138298D01*
X85586240Y18689285D01*
X85375831Y19198515D01*
X84986564Y19588461D01*
X84477702Y19799759D01*
X83926715Y19800240D01*
X83417485Y19589831D01*
X83027539Y19200564D01*
X82816241Y18691702D01*
X82815760Y18140715D01*
X75812330Y18140715D01*
X75828855Y22556112D01*
X76851233Y23291800D01*
X82880643Y23291800D01*
X82816241Y23136702D01*
X82815760Y22585715D01*
X83026169Y22076485D01*
X83415436Y21686539D01*
X83924298Y21475241D01*
X84475285Y21474760D01*
X84984515Y21685169D01*
X85374461Y22074436D01*
X85585759Y22583298D01*
X85586240Y23134285D01*
X85521156Y23291800D01*
X88138000Y23291800D01*
X88236597Y23311412D01*
X88337033Y23315773D01*
X88395501Y23343020D01*
X88458765Y23355604D01*
X88542351Y23411454D01*
X88633474Y23453919D01*
X88671135Y23495000D01*
X93566655Y23495000D01*
X93680729Y22921511D01*
X94005585Y22435330D01*
X94320366Y22225000D01*
X94005585Y22014670D01*
X93680729Y21528489D01*
X93566655Y20955000D01*
X93680729Y20381511D01*
X94005585Y19895330D01*
X94320366Y19685000D01*
X94005585Y19474670D01*
X93680729Y18988489D01*
X93566655Y18415000D01*
X93680729Y17841511D01*
X94005585Y17355330D01*
X94320366Y17145000D01*
X94005585Y16934670D01*
X93680729Y16448489D01*
X93566655Y15875000D01*
X93680729Y15301511D01*
X94005585Y14815330D01*
X94320366Y14605000D01*
X94005585Y14394670D01*
X93680729Y13908489D01*
X93566655Y13335000D01*
X93680729Y12761511D01*
X94005585Y12275330D01*
X94320366Y12065000D01*
X94005585Y11854670D01*
X93680729Y11368489D01*
X93566655Y10795000D01*
X93680729Y10221511D01*
X94005585Y9735330D01*
X94491766Y9410474D01*
X95065255Y9296400D01*
X95434745Y9296400D01*
X96008234Y9410474D01*
X96494415Y9735330D01*
X96819271Y10221511D01*
X96933345Y10795000D01*
X96819271Y11368489D01*
X96494415Y11854670D01*
X96179634Y12065000D01*
X96494415Y12275330D01*
X96819271Y12761511D01*
X96933345Y13335000D01*
X96819271Y13908489D01*
X96494415Y14394670D01*
X96179634Y14605000D01*
X96494415Y14815330D01*
X96819271Y15301511D01*
X96933345Y15875000D01*
X96819271Y16448489D01*
X96494415Y16934670D01*
X96179634Y17145000D01*
X96494415Y17355330D01*
X96819271Y17841511D01*
X96933345Y18415000D01*
X96819271Y18988489D01*
X96494415Y19474670D01*
X96179634Y19685000D01*
X96494415Y19895330D01*
X96819271Y20381511D01*
X96933345Y20955000D01*
X96819271Y21528489D01*
X96494415Y22014670D01*
X96179634Y22225000D01*
X96494415Y22435330D01*
X96819271Y22921511D01*
X96933345Y23495000D01*
X96819271Y24068489D01*
X96494415Y24554670D01*
X96065593Y24841200D01*
X96331681Y24841200D01*
X96453043Y24891470D01*
X96545930Y24984357D01*
X96596200Y25105719D01*
X96596200Y25927050D01*
X96513650Y26009600D01*
X95275400Y26009600D01*
X95275400Y25989600D01*
X95224600Y25989600D01*
X95224600Y26009600D01*
X93986350Y26009600D01*
X93903800Y25927050D01*
X93903800Y25105719D01*
X93954070Y24984357D01*
X94046957Y24891470D01*
X94168319Y24841200D01*
X94434407Y24841200D01*
X94005585Y24554670D01*
X93680729Y24068489D01*
X93566655Y23495000D01*
X88671135Y23495000D01*
X88677064Y23501467D01*
X88730697Y23537303D01*
X88786549Y23620891D01*
X88854483Y23694993D01*
X89314600Y24452833D01*
X90250838Y24452833D01*
X90392883Y24109057D01*
X90655673Y23845808D01*
X90999201Y23703162D01*
X91371167Y23702838D01*
X91714943Y23844883D01*
X91978192Y24107673D01*
X92075564Y24342170D01*
X93175697Y25442303D01*
X93357396Y25714234D01*
X93421200Y26035000D01*
X93421200Y26250472D01*
X93517838Y26483201D01*
X93518162Y26855167D01*
X93473078Y26964281D01*
X93903800Y26964281D01*
X93903800Y26142950D01*
X93986350Y26060400D01*
X95224600Y26060400D01*
X95224600Y27146250D01*
X95275400Y27146250D01*
X95275400Y26060400D01*
X96513650Y26060400D01*
X96596200Y26142950D01*
X96596200Y26964281D01*
X96545930Y27085643D01*
X96453043Y27178530D01*
X96331681Y27228800D01*
X95357950Y27228800D01*
X95275400Y27146250D01*
X95224600Y27146250D01*
X95142050Y27228800D01*
X94168319Y27228800D01*
X94046957Y27178530D01*
X93954070Y27085643D01*
X93903800Y26964281D01*
X93473078Y26964281D01*
X93376117Y27198943D01*
X93113327Y27462192D01*
X92769799Y27604838D01*
X92397833Y27605162D01*
X92054057Y27463117D01*
X91790808Y27200327D01*
X91648162Y26856799D01*
X91647838Y26484833D01*
X91706198Y26343592D01*
X90889954Y25527348D01*
X90657057Y25431117D01*
X90393808Y25168327D01*
X90251162Y24824799D01*
X90250838Y24452833D01*
X89314600Y24452833D01*
X91013483Y27250992D01*
X91035560Y27311602D01*
X91071396Y27365235D01*
X91091008Y27463832D01*
X91125414Y27558291D01*
X91122616Y27622735D01*
X91135200Y27686000D01*
X91135200Y31242000D01*
X91071396Y31562765D01*
X90889697Y31834697D01*
X89851679Y32872715D01*
X93737760Y32872715D01*
X93948169Y32363485D01*
X94337436Y31973539D01*
X94846298Y31762241D01*
X95397285Y31761760D01*
X95906515Y31972169D01*
X96296461Y32361436D01*
X96507759Y32870298D01*
X96508240Y33421285D01*
X96297831Y33930515D01*
X95908564Y34320461D01*
X95399702Y34531759D01*
X94848715Y34532240D01*
X94339485Y34321831D01*
X93949539Y33932564D01*
X93738241Y33423702D01*
X93737760Y32872715D01*
X89851679Y32872715D01*
X88222697Y34501697D01*
X87950766Y34683396D01*
X87630000Y34747200D01*
X77055194Y34747200D01*
X76403200Y35399194D01*
X76403200Y42941799D01*
X76570789Y43053778D01*
X76879126Y43515238D01*
X76987400Y44059567D01*
X76987400Y44069000D01*
X77082192Y43643246D01*
X77332698Y43286176D01*
X77700780Y43052151D01*
X77905127Y42994818D01*
X78079600Y43059662D01*
X78079600Y44424600D01*
X76987400Y44424600D01*
X76987400Y44475400D01*
X78079600Y44475400D01*
X78079600Y45840338D01*
X78130400Y45840338D01*
X78130400Y44475400D01*
X79222600Y44475400D01*
X79222600Y44424600D01*
X78130400Y44424600D01*
X78130400Y43059662D01*
X78304873Y42994818D01*
X78509220Y43052151D01*
X78877302Y43286176D01*
X79127808Y43643246D01*
X79222600Y44069000D01*
X79222600Y44059567D01*
X79330874Y43515238D01*
X79639211Y43053778D01*
X80100671Y42745441D01*
X80645000Y42637167D01*
X81189329Y42745441D01*
X81650789Y43053778D01*
X81915000Y43449199D01*
X82179211Y43053778D01*
X82640671Y42745441D01*
X83185000Y42637167D01*
X83729329Y42745441D01*
X84190789Y43053778D01*
X84455000Y43449199D01*
X84719211Y43053778D01*
X85180671Y42745441D01*
X85725000Y42637167D01*
X86269329Y42745441D01*
X86730789Y43053778D01*
X87039126Y43515238D01*
X87137019Y44007381D01*
X92379613Y44007381D01*
X92719155Y43185628D01*
X93347321Y42556364D01*
X94168481Y42215389D01*
X95057619Y42214613D01*
X95879372Y42554155D01*
X96508636Y43182321D01*
X96849611Y44003481D01*
X96850387Y44892619D01*
X96510845Y45714372D01*
X95882679Y46343636D01*
X95061519Y46684611D01*
X94172381Y46685387D01*
X93350628Y46345845D01*
X92721364Y45717679D01*
X92380389Y44896519D01*
X92379613Y44007381D01*
X87137019Y44007381D01*
X87147400Y44059567D01*
X87147400Y44840433D01*
X87039126Y45384762D01*
X86730789Y45846222D01*
X86269329Y46154559D01*
X85725000Y46262833D01*
X85180671Y46154559D01*
X84719211Y45846222D01*
X84455000Y45450801D01*
X84190789Y45846222D01*
X83729329Y46154559D01*
X83185000Y46262833D01*
X82640671Y46154559D01*
X82179211Y45846222D01*
X81915000Y45450801D01*
X81650789Y45846222D01*
X81189329Y46154559D01*
X80645000Y46262833D01*
X80100671Y46154559D01*
X79639211Y45846222D01*
X79330874Y45384762D01*
X79222600Y44840433D01*
X79222600Y44831000D01*
X79127808Y45256754D01*
X78877302Y45613824D01*
X78509220Y45847849D01*
X78304873Y45905182D01*
X78130400Y45840338D01*
X78079600Y45840338D01*
X77905127Y45905182D01*
X77700780Y45847849D01*
X77332698Y45613824D01*
X77082192Y45256754D01*
X76987400Y44831000D01*
X76987400Y44840433D01*
X76879126Y45384762D01*
X76570789Y45846222D01*
X76109329Y46154559D01*
X75565000Y46262833D01*
X75020671Y46154559D01*
X74559211Y45846222D01*
X74295000Y45450801D01*
X74030789Y45846222D01*
X73569329Y46154559D01*
X73025000Y46262833D01*
X72480671Y46154559D01*
X72019211Y45846222D01*
X71755000Y45450801D01*
X71490789Y45846222D01*
X71029329Y46154559D01*
X70485000Y46262833D01*
X69940671Y46154559D01*
X69479211Y45846222D01*
X69215000Y45450801D01*
X68950789Y45846222D01*
X68489329Y46154559D01*
X67945000Y46262833D01*
X67400671Y46154559D01*
X66939211Y45846222D01*
X66675000Y45450801D01*
X66410789Y45846222D01*
X65949329Y46154559D01*
X65405000Y46262833D01*
X64860671Y46154559D01*
X64399211Y45846222D01*
X64135000Y45450801D01*
X63870789Y45846222D01*
X63409329Y46154559D01*
X62865000Y46262833D01*
X62320671Y46154559D01*
X61859211Y45846222D01*
X61595000Y45450801D01*
X61330789Y45846222D01*
X60869329Y46154559D01*
X60325000Y46262833D01*
X59780671Y46154559D01*
X59319211Y45846222D01*
X59055000Y45450801D01*
X58790789Y45846222D01*
X58329329Y46154559D01*
X57785000Y46262833D01*
X57240671Y46154559D01*
X56779211Y45846222D01*
X56515000Y45450801D01*
X56250789Y45846222D01*
X55789329Y46154559D01*
X55245000Y46262833D01*
X54700671Y46154559D01*
X54239211Y45846222D01*
X53975000Y45450801D01*
X53710789Y45846222D01*
X53249329Y46154559D01*
X52705000Y46262833D01*
X52160671Y46154559D01*
X51699211Y45846222D01*
X51435000Y45450801D01*
X51170789Y45846222D01*
X50709329Y46154559D01*
X50165000Y46262833D01*
X49620671Y46154559D01*
X49159211Y45846222D01*
X48850874Y45384762D01*
X48742600Y44840433D01*
X48742600Y44059567D01*
X48850874Y43515238D01*
X49159211Y43053778D01*
X49620671Y42745441D01*
X50165000Y42637167D01*
X50709329Y42745441D01*
X51170789Y43053778D01*
X51435000Y43449199D01*
X51699211Y43053778D01*
X52160671Y42745441D01*
X52705000Y42637167D01*
X53249329Y42745441D01*
X53710789Y43053778D01*
X53975000Y43449199D01*
X54239211Y43053778D01*
X54700671Y42745441D01*
X55245000Y42637167D01*
X55789329Y42745441D01*
X56250789Y43053778D01*
X56515000Y43449199D01*
X56779211Y43053778D01*
X57240671Y42745441D01*
X57785000Y42637167D01*
X58329329Y42745441D01*
X58790789Y43053778D01*
X59055000Y43449199D01*
X59319211Y43053778D01*
X59780671Y42745441D01*
X60325000Y42637167D01*
X60869329Y42745441D01*
X61330789Y43053778D01*
X61595000Y43449199D01*
X61859211Y43053778D01*
X62320671Y42745441D01*
X62865000Y42637167D01*
X63409329Y42745441D01*
X63870789Y43053778D01*
X64135000Y43449199D01*
X64399211Y43053778D01*
X64860671Y42745441D01*
X65405000Y42637167D01*
X65949329Y42745441D01*
X66410789Y43053778D01*
X66675000Y43449199D01*
X66939211Y43053778D01*
X67400671Y42745441D01*
X67945000Y42637167D01*
X68489329Y42745441D01*
X68950789Y43053778D01*
X69215000Y43449199D01*
X69479211Y43053778D01*
X69646800Y42941799D01*
X69646800Y34544000D01*
X69710604Y34223234D01*
X69892303Y33951303D01*
X72813303Y31030303D01*
X72870482Y30992097D01*
X72480671Y30914559D01*
X72019211Y30606222D01*
X71755000Y30210801D01*
X71490789Y30606222D01*
X71029329Y30914559D01*
X70485000Y31022833D01*
X69940671Y30914559D01*
X69479211Y30606222D01*
X69215000Y30210801D01*
X68950789Y30606222D01*
X68489329Y30914559D01*
X67945000Y31022833D01*
X67400671Y30914559D01*
X66939211Y30606222D01*
X66675000Y30210801D01*
X66410789Y30606222D01*
X65949329Y30914559D01*
X65405000Y31022833D01*
X64860671Y30914559D01*
X64399211Y30606222D01*
X64135000Y30210801D01*
X63870789Y30606222D01*
X63409329Y30914559D01*
X62865000Y31022833D01*
X62320671Y30914559D01*
X61859211Y30606222D01*
X61595000Y30210801D01*
X61330789Y30606222D01*
X60869329Y30914559D01*
X60325000Y31022833D01*
X59780671Y30914559D01*
X59319211Y30606222D01*
X59055000Y30210801D01*
X58790789Y30606222D01*
X58329329Y30914559D01*
X57785000Y31022833D01*
X57240671Y30914559D01*
X56779211Y30606222D01*
X56515000Y30210801D01*
X56250789Y30606222D01*
X55789329Y30914559D01*
X55245000Y31022833D01*
X54700671Y30914559D01*
X54239211Y30606222D01*
X53975000Y30210801D01*
X53710789Y30606222D01*
X53249329Y30914559D01*
X52705000Y31022833D01*
X52160671Y30914559D01*
X51699211Y30606222D01*
X51584497Y30434540D01*
X51555562Y30588317D01*
X51416490Y30804441D01*
X51204290Y30949431D01*
X50952400Y31000440D01*
X49377600Y31000440D01*
X49142283Y30956162D01*
X48926159Y30817090D01*
X48781169Y30604890D01*
X48730160Y30353000D01*
X44619394Y30353000D01*
X42248697Y32723697D01*
X41976766Y32905396D01*
X41656000Y32969200D01*
X21816550Y32969200D01*
X21816550Y34502090D01*
X21772272Y34737407D01*
X21633200Y34953531D01*
X21421000Y35098521D01*
X21169110Y35149530D01*
X19469850Y35149530D01*
X19234533Y35105252D01*
X19018409Y34966180D01*
X18873419Y34753980D01*
X18822410Y34502090D01*
X18822410Y32802830D01*
X18866688Y32567513D01*
X18893873Y32525267D01*
X16086954Y29718348D01*
X15854057Y29622117D01*
X15590808Y29359327D01*
X15448162Y29015799D01*
X15447838Y28643833D01*
X750000Y28643833D01*
X750000Y33250000D01*
X1027560Y33250000D01*
X1027560Y30250000D01*
X1071838Y30014683D01*
X1210910Y29798559D01*
X1423110Y29653569D01*
X1675000Y29602560D01*
X4675000Y29602560D01*
X4910317Y29646838D01*
X5126441Y29785910D01*
X5271431Y29998110D01*
X5322440Y30250000D01*
X5322440Y33250000D01*
X5302035Y33358444D01*
X8674592Y33358444D01*
X8900138Y32812583D01*
X9317406Y32394586D01*
X9862873Y32168088D01*
X10453496Y32167572D01*
X10999357Y32393118D01*
X11417354Y32810386D01*
X11643852Y33355853D01*
X11644368Y33946476D01*
X11418822Y34492337D01*
X11001554Y34910334D01*
X10456087Y35136832D01*
X9865464Y35137348D01*
X9319603Y34911802D01*
X8901606Y34494534D01*
X8675108Y33949067D01*
X8674592Y33358444D01*
X5302035Y33358444D01*
X5278162Y33485317D01*
X5139090Y33701441D01*
X4926890Y33846431D01*
X4675000Y33897440D01*
X1675000Y33897440D01*
X1439683Y33853162D01*
X1223559Y33714090D01*
X1078569Y33501890D01*
X1027560Y33250000D01*
X750000Y33250000D01*
X750000Y37820600D01*
X19761200Y37820600D01*
X19761200Y37668200D01*
X19861793Y37213286D01*
X20128817Y36831496D01*
X20521619Y36580953D01*
X20743203Y36518738D01*
X20929600Y36582640D01*
X20929600Y37820600D01*
X19761200Y37820600D01*
X750000Y37820600D01*
X750000Y38023800D01*
X19761200Y38023800D01*
X19761200Y37871400D01*
X20929600Y37871400D01*
X20929600Y39109360D01*
X20980400Y39109360D01*
X20980400Y37871400D01*
X21000400Y37871400D01*
X21000400Y37820600D01*
X20980400Y37820600D01*
X20980400Y36582640D01*
X21166797Y36518738D01*
X21388381Y36580953D01*
X21781183Y36831496D01*
X22048207Y37213286D01*
X22067843Y37302086D01*
X22110474Y37087766D01*
X22435330Y36601585D01*
X22921511Y36276729D01*
X23495000Y36162655D01*
X24068489Y36276729D01*
X24554670Y36601585D01*
X24765000Y36916366D01*
X24975330Y36601585D01*
X25461511Y36276729D01*
X26035000Y36162655D01*
X26608489Y36276729D01*
X27094670Y36601585D01*
X27104243Y36615913D01*
X27108238Y36594683D01*
X27247310Y36378559D01*
X27459510Y36233569D01*
X27711400Y36182560D01*
X29438600Y36182560D01*
X29673917Y36226838D01*
X29890041Y36365910D01*
X30035031Y36578110D01*
X30086040Y36830000D01*
X30086040Y37533833D01*
X38434838Y37533833D01*
X38576883Y37190057D01*
X38839673Y36926808D01*
X39074170Y36829436D01*
X41782652Y34120954D01*
X41878883Y33888057D01*
X42141673Y33624808D01*
X42485201Y33482162D01*
X42857167Y33481838D01*
X43200943Y33623883D01*
X43464192Y33886673D01*
X43523708Y34030002D01*
X43529883Y34015057D01*
X43792673Y33751808D01*
X44136201Y33609162D01*
X44508167Y33608838D01*
X44851943Y33750883D01*
X45115192Y34013673D01*
X45257838Y34357201D01*
X45258162Y34729167D01*
X45116117Y35072943D01*
X44853327Y35336192D01*
X44509799Y35478838D01*
X44446501Y35478893D01*
X41148348Y38777046D01*
X41052117Y39009943D01*
X40946245Y39116000D01*
X66929000Y39116000D01*
X66929000Y35941000D01*
X67006338Y35552194D01*
X67226580Y35222580D01*
X67556194Y35002338D01*
X67945000Y34925000D01*
X68333806Y35002338D01*
X68663420Y35222580D01*
X68883662Y35552194D01*
X68961000Y35941000D01*
X68961000Y39116000D01*
X68883662Y39504806D01*
X68663420Y39834420D01*
X68333806Y40054662D01*
X67945000Y40132000D01*
X67556194Y40054662D01*
X67226580Y39834420D01*
X67006338Y39504806D01*
X66929000Y39116000D01*
X40946245Y39116000D01*
X40789327Y39273192D01*
X40445799Y39415838D01*
X40073833Y39416162D01*
X39730057Y39274117D01*
X39466808Y39011327D01*
X39324162Y38667799D01*
X39324150Y38654041D01*
X39184833Y38654162D01*
X38841057Y38512117D01*
X38577808Y38249327D01*
X38435162Y37905799D01*
X38434838Y37533833D01*
X30086040Y37533833D01*
X30086040Y38862000D01*
X30041762Y39097317D01*
X29902690Y39313441D01*
X29690490Y39458431D01*
X29438600Y39509440D01*
X27711400Y39509440D01*
X27476083Y39465162D01*
X27259959Y39326090D01*
X27114969Y39113890D01*
X27106600Y39072561D01*
X27094670Y39090415D01*
X26608489Y39415271D01*
X26035000Y39529345D01*
X25461511Y39415271D01*
X24975330Y39090415D01*
X24765000Y38775634D01*
X24554670Y39090415D01*
X24068489Y39415271D01*
X23495000Y39529345D01*
X22921511Y39415271D01*
X22435330Y39090415D01*
X22110474Y38604234D01*
X22067843Y38389914D01*
X22048207Y38478714D01*
X21781183Y38860504D01*
X21388381Y39111047D01*
X21166797Y39173262D01*
X20980400Y39109360D01*
X20929600Y39109360D01*
X20743203Y39173262D01*
X20521619Y39111047D01*
X20128817Y38860504D01*
X19861793Y38478714D01*
X19761200Y38023800D01*
X750000Y38023800D01*
X750000Y44007381D01*
X2209613Y44007381D01*
X2549155Y43185628D01*
X3177321Y42556364D01*
X3998481Y42215389D01*
X4887619Y42214613D01*
X5709372Y42554155D01*
X6338636Y43182321D01*
X6679611Y44003481D01*
X6679906Y44342050D01*
X34914800Y44342050D01*
X34914800Y43384319D01*
X34965070Y43262957D01*
X35057957Y43170070D01*
X35179319Y43119800D01*
X36087050Y43119800D01*
X36169600Y43202350D01*
X36169600Y44424600D01*
X34997350Y44424600D01*
X34914800Y44342050D01*
X6679906Y44342050D01*
X6680387Y44892619D01*
X6422943Y45515681D01*
X34914800Y45515681D01*
X34914800Y44557950D01*
X34997350Y44475400D01*
X36169600Y44475400D01*
X36169600Y45697650D01*
X36220400Y45697650D01*
X36220400Y44475400D01*
X36240400Y44475400D01*
X36240400Y44424600D01*
X36220400Y44424600D01*
X36220400Y43202350D01*
X36302950Y43119800D01*
X37210681Y43119800D01*
X37332043Y43170070D01*
X37424930Y43262957D01*
X37475200Y43384319D01*
X37475200Y43468514D01*
X37835997Y43107086D01*
X38418341Y42865276D01*
X39048893Y42864725D01*
X39631657Y43105519D01*
X40077914Y43550997D01*
X40319724Y44133341D01*
X40320275Y44763893D01*
X40079481Y45346657D01*
X39634003Y45792914D01*
X39051659Y46034724D01*
X38421107Y46035275D01*
X37838343Y45794481D01*
X37475200Y45431972D01*
X37475200Y45515681D01*
X37424930Y45637043D01*
X37332043Y45729930D01*
X37210681Y45780200D01*
X36302950Y45780200D01*
X36220400Y45697650D01*
X36169600Y45697650D01*
X36087050Y45780200D01*
X35179319Y45780200D01*
X35057957Y45729930D01*
X34965070Y45637043D01*
X34914800Y45515681D01*
X6422943Y45515681D01*
X6340845Y45714372D01*
X5712679Y46343636D01*
X4891519Y46684611D01*
X4002381Y46685387D01*
X3180628Y46345845D01*
X2551364Y45717679D01*
X2210389Y44896519D01*
X2209613Y44007381D01*
X750000Y44007381D01*
X750000Y48623000D01*
X98330000Y48623000D01*
X98330000Y460000D01*
G36*
X98330000Y50877000D02*
X750000Y50877000D01*
X750000Y52039855D01*
X83498776Y52039855D01*
X83574356Y51872287D01*
X83968658Y51701424D01*
X84398332Y51694459D01*
X84797964Y51852454D01*
X84827644Y51872287D01*
X84903224Y52039855D01*
X84201000Y52742079D01*
X83498776Y52039855D01*
X750000Y52039855D01*
X750000Y54367381D01*
X2209613Y54367381D01*
X2549155Y53545628D01*
X3177321Y52916364D01*
X3998481Y52575389D01*
X4887619Y52574613D01*
X4902273Y52580668D01*
X83117459Y52580668D01*
X83275454Y52181036D01*
X83295287Y52151356D01*
X83462855Y52075776D01*
X84165079Y52778000D01*
X84236921Y52778000D01*
X84939145Y52075776D01*
X85106713Y52151356D01*
X85277576Y52545658D01*
X85284541Y52975332D01*
X85126546Y53374964D01*
X85106713Y53404644D01*
X84939145Y53480224D01*
X84236921Y52778000D01*
X84165079Y52778000D01*
X83462855Y53480224D01*
X83295287Y53404644D01*
X83124424Y53010342D01*
X83117459Y52580668D01*
X4902273Y52580668D01*
X5709372Y52914155D01*
X6312414Y53516145D01*
X83498776Y53516145D01*
X84201000Y52813921D01*
X84903224Y53516145D01*
X84827644Y53683713D01*
X84433342Y53854576D01*
X84003668Y53861541D01*
X83604036Y53703546D01*
X83574356Y53683713D01*
X83498776Y53516145D01*
X6312414Y53516145D01*
X6338636Y53542321D01*
X6679611Y54363481D01*
X6680387Y55252619D01*
X6340845Y56074372D01*
X5712679Y56703636D01*
X4891519Y57044611D01*
X4002381Y57045387D01*
X3180628Y56705845D01*
X2551364Y56077679D01*
X2210389Y55256519D01*
X2209613Y54367381D01*
X750000Y54367381D01*
X750000Y58700000D01*
X46927560Y58700000D01*
X46927560Y54700000D01*
X46971838Y54464683D01*
X47110910Y54248559D01*
X47323110Y54103569D01*
X47575000Y54052560D01*
X51575000Y54052560D01*
X51810317Y54096838D01*
X52026441Y54235910D01*
X52171431Y54448110D01*
X52222440Y54700000D01*
X52222440Y58700000D01*
X55727560Y58700000D01*
X55727560Y54700000D01*
X55771838Y54464683D01*
X55910910Y54248559D01*
X56123110Y54103569D01*
X56375000Y54052560D01*
X60375000Y54052560D01*
X60610317Y54096838D01*
X60826441Y54235910D01*
X60916271Y54367381D01*
X92379613Y54367381D01*
X92719155Y53545628D01*
X93347321Y52916364D01*
X94168481Y52575389D01*
X95057619Y52574613D01*
X95879372Y52914155D01*
X96508636Y53542321D01*
X96849611Y54363481D01*
X96850387Y55252619D01*
X96510845Y56074372D01*
X95882679Y56703636D01*
X95061519Y57044611D01*
X94172381Y57045387D01*
X93350628Y56705845D01*
X92721364Y56077679D01*
X92380389Y55256519D01*
X92379613Y54367381D01*
X60916271Y54367381D01*
X60971431Y54448110D01*
X61022440Y54700000D01*
X61022440Y55878155D01*
X62672970Y55878155D01*
X62731112Y55670958D01*
X62967868Y55298789D01*
X63329025Y55045552D01*
X63759600Y54949800D01*
X64109600Y54949800D01*
X64109600Y56054600D01*
X64160400Y56054600D01*
X64160400Y54949800D01*
X64510400Y54949800D01*
X64940975Y55045552D01*
X65302132Y55298789D01*
X65538888Y55670958D01*
X65597030Y55878155D01*
X65532342Y56054600D01*
X64160400Y56054600D01*
X64109600Y56054600D01*
X62737658Y56054600D01*
X62672970Y55878155D01*
X61022440Y55878155D01*
X61022440Y58700000D01*
X60978162Y58935317D01*
X60839090Y59151441D01*
X60626890Y59296431D01*
X60375000Y59347440D01*
X56375000Y59347440D01*
X56139683Y59303162D01*
X55923559Y59164090D01*
X55778569Y58951890D01*
X55727560Y58700000D01*
X52222440Y58700000D01*
X52178162Y58935317D01*
X52039090Y59151441D01*
X51826890Y59296431D01*
X51575000Y59347440D01*
X47575000Y59347440D01*
X47339683Y59303162D01*
X47123559Y59164090D01*
X46978569Y58951890D01*
X46927560Y58700000D01*
X750000Y58700000D01*
X750000Y61052050D01*
X1344800Y61052050D01*
X1344800Y59594319D01*
X1395070Y59472957D01*
X1487957Y59380070D01*
X1609319Y59329800D01*
X3067050Y59329800D01*
X3149600Y59412350D01*
X3149600Y61134600D01*
X3200400Y61134600D01*
X3200400Y59412350D01*
X3282950Y59329800D01*
X4740681Y59329800D01*
X4862043Y59380070D01*
X4954930Y59472957D01*
X5005200Y59594319D01*
X5005200Y61052050D01*
X4922650Y61134600D01*
X3200400Y61134600D01*
X3149600Y61134600D01*
X1427350Y61134600D01*
X1344800Y61052050D01*
X750000Y61052050D01*
X750000Y62725681D01*
X1344800Y62725681D01*
X1344800Y61267950D01*
X1427350Y61185400D01*
X3149600Y61185400D01*
X3149600Y62907650D01*
X3200400Y62907650D01*
X3200400Y61185400D01*
X4922650Y61185400D01*
X5005200Y61267950D01*
X5005200Y62725681D01*
X4954930Y62847043D01*
X4946584Y62855389D01*
X8098509Y62855389D01*
X8159828Y62636965D01*
X8407343Y62248694D01*
X8784602Y61984699D01*
X9234170Y61885170D01*
X10134600Y61885170D01*
X10134600Y63039600D01*
X10185400Y63039600D01*
X10185400Y61885170D01*
X11085830Y61885170D01*
X11535398Y61984699D01*
X11912657Y62248694D01*
X12160172Y62636965D01*
X12221491Y62855389D01*
X12157416Y63039600D01*
X10185400Y63039600D01*
X10134600Y63039600D01*
X8162584Y63039600D01*
X8098509Y62855389D01*
X4946584Y62855389D01*
X4862043Y62939930D01*
X4740681Y62990200D01*
X3282950Y62990200D01*
X3200400Y62907650D01*
X3149600Y62907650D01*
X3067050Y62990200D01*
X1609319Y62990200D01*
X1487957Y62939930D01*
X1395070Y62847043D01*
X1344800Y62725681D01*
X750000Y62725681D01*
X750000Y68375000D01*
X1027560Y68375000D01*
X1027560Y65375000D01*
X1071838Y65139683D01*
X1210910Y64923559D01*
X1423110Y64778569D01*
X1675000Y64727560D01*
X4675000Y64727560D01*
X4910317Y64771838D01*
X5126441Y64910910D01*
X5254957Y65099000D01*
X5356134Y65099000D01*
X6017567Y64437566D01*
X6553190Y64079675D01*
X7185000Y63954000D01*
X8511226Y63954000D01*
X8407343Y63881306D01*
X8159828Y63493035D01*
X8098509Y63274611D01*
X8162584Y63090400D01*
X10134600Y63090400D01*
X10134600Y63110400D01*
X10185400Y63110400D01*
X10185400Y63090400D01*
X12157416Y63090400D01*
X12221491Y63274611D01*
X12160172Y63493035D01*
X11912657Y63881306D01*
X11535398Y64145301D01*
X11392044Y64177038D01*
X11675299Y64233381D01*
X12156948Y64555208D01*
X12478775Y65036857D01*
X12491928Y65102985D01*
X24388641Y65102985D01*
X24773746Y64170959D01*
X25486208Y63457252D01*
X26417561Y63070521D01*
X27426015Y63069641D01*
X28358041Y63454746D01*
X28874227Y63970032D01*
X50078000Y63970032D01*
X50078000Y63429968D01*
X50184340Y62895359D01*
X50487172Y62442140D01*
X50940391Y62139308D01*
X51475000Y62032968D01*
X52009609Y62139308D01*
X52462828Y62442140D01*
X52725000Y62834507D01*
X52987172Y62442140D01*
X53440391Y62139308D01*
X53975000Y62032968D01*
X54509609Y62139308D01*
X54962828Y62442140D01*
X55265660Y62895359D01*
X55372000Y63429968D01*
X55372000Y63674600D01*
X55382800Y63674600D01*
X55382800Y63436600D01*
X55475659Y63020567D01*
X55720658Y62671738D01*
X56080499Y62443219D01*
X56279101Y62387512D01*
X56449600Y62452670D01*
X56449600Y63674600D01*
X56500400Y63674600D01*
X56500400Y62452670D01*
X56670899Y62387512D01*
X56869501Y62443219D01*
X57229342Y62671738D01*
X57474341Y63020567D01*
X57567200Y63436600D01*
X57567200Y63674600D01*
X56500400Y63674600D01*
X56449600Y63674600D01*
X55382800Y63674600D01*
X55372000Y63674600D01*
X55372000Y63963400D01*
X55382800Y63963400D01*
X55382800Y63725400D01*
X56449600Y63725400D01*
X56449600Y64947330D01*
X56500400Y64947330D01*
X56500400Y63725400D01*
X57567200Y63725400D01*
X57567200Y63963400D01*
X57474341Y64379433D01*
X57229342Y64728262D01*
X56869501Y64956781D01*
X56670899Y65012488D01*
X56500400Y64947330D01*
X56449600Y64947330D01*
X56279101Y65012488D01*
X56080499Y64956781D01*
X55720658Y64728262D01*
X55475659Y64379433D01*
X55382800Y63963400D01*
X55372000Y63963400D01*
X55372000Y63970032D01*
X55265660Y64504641D01*
X54962828Y64957860D01*
X54509609Y65260692D01*
X53975000Y65367032D01*
X53440391Y65260692D01*
X52987172Y64957860D01*
X52725000Y64565493D01*
X52462828Y64957860D01*
X52009609Y65260692D01*
X51475000Y65367032D01*
X50940391Y65260692D01*
X50487172Y64957860D01*
X50184340Y64504641D01*
X50078000Y63970032D01*
X28874227Y63970032D01*
X29071748Y64167208D01*
X29458479Y65098561D01*
X29459359Y66107015D01*
X29074254Y67039041D01*
X28361792Y67752748D01*
X27987422Y67908200D01*
X52121122Y67908200D01*
X52198164Y67739386D01*
X52596802Y67566524D01*
X53031248Y67559373D01*
X53435359Y67719022D01*
X53465836Y67739386D01*
X53542878Y67908200D01*
X52832000Y68619079D01*
X52121122Y67908200D01*
X27987422Y67908200D01*
X27430439Y68139479D01*
X26421985Y68140359D01*
X25489959Y67755254D01*
X24776252Y67042792D01*
X24389521Y66111439D01*
X24388641Y65102985D01*
X12491928Y65102985D01*
X12591786Y65605000D01*
X12478775Y66173143D01*
X12156948Y66654792D01*
X11827383Y66875000D01*
X12156948Y67095208D01*
X12478775Y67576857D01*
X12591786Y68145000D01*
X12529974Y68455752D01*
X51736373Y68455752D01*
X51896022Y68051641D01*
X51916386Y68021164D01*
X52085200Y67944122D01*
X52796079Y68655000D01*
X52867921Y68655000D01*
X53578800Y67944122D01*
X53747614Y68021164D01*
X53920476Y68419802D01*
X53927627Y68854248D01*
X53767978Y69258359D01*
X53747614Y69288836D01*
X53578800Y69365878D01*
X52867921Y68655000D01*
X52796079Y68655000D01*
X52085200Y69365878D01*
X51916386Y69288836D01*
X51743524Y68890198D01*
X51736373Y68455752D01*
X12529974Y68455752D01*
X12478775Y68713143D01*
X12156948Y69194792D01*
X11847139Y69401800D01*
X52121122Y69401800D01*
X52832000Y68690921D01*
X53542878Y69401800D01*
X53465836Y69570614D01*
X53067198Y69743476D01*
X52632752Y69750627D01*
X52228641Y69590978D01*
X52198164Y69570614D01*
X52121122Y69401800D01*
X11847139Y69401800D01*
X11675299Y69516619D01*
X11107156Y69629630D01*
X9212844Y69629630D01*
X8644701Y69516619D01*
X8163052Y69194792D01*
X7841225Y68713143D01*
X7728214Y68145000D01*
X7841225Y67576857D01*
X8055614Y67256000D01*
X7868867Y67256000D01*
X7207433Y67917433D01*
X6671811Y68275325D01*
X6040000Y68401000D01*
X5317548Y68401000D01*
X5278162Y68610317D01*
X5139090Y68826441D01*
X4926890Y68971431D01*
X4675000Y69022440D01*
X1675000Y69022440D01*
X1439683Y68978162D01*
X1223559Y68839090D01*
X1078569Y68626890D01*
X1027560Y68375000D01*
X750000Y68375000D01*
X750000Y72023833D01*
X24972838Y72023833D01*
X25114883Y71680057D01*
X25377673Y71416808D01*
X25721201Y71274162D01*
X26093167Y71273838D01*
X26327834Y71370800D01*
X29552472Y71370800D01*
X29785201Y71274162D01*
X30157167Y71273838D01*
X30500943Y71415883D01*
X30764192Y71678673D01*
X30906838Y72022201D01*
X30907162Y72394167D01*
X30765117Y72737943D01*
X30502327Y73001192D01*
X30158799Y73143838D01*
X29786833Y73144162D01*
X29552166Y73047200D01*
X26327528Y73047200D01*
X26094799Y73143838D01*
X25722833Y73144162D01*
X25379057Y73002117D01*
X25115808Y72739327D01*
X24973162Y72395799D01*
X24972838Y72023833D01*
X750000Y72023833D01*
X750000Y77900000D01*
X1027560Y77900000D01*
X1027560Y74900000D01*
X1071838Y74664683D01*
X1210910Y74448559D01*
X1423110Y74303569D01*
X1675000Y74252560D01*
X4675000Y74252560D01*
X4910317Y74296838D01*
X5126441Y74435910D01*
X5271431Y74648110D01*
X5322440Y74900000D01*
X5322440Y76400000D01*
X20303397Y76400000D01*
X20408867Y75869765D01*
X20709221Y75420254D01*
X21158732Y75119900D01*
X21688967Y75014430D01*
X22761033Y75014430D01*
X23291268Y75119900D01*
X23740779Y75420254D01*
X24041133Y75869765D01*
X24146603Y76400000D01*
X24041133Y76930235D01*
X23740779Y77379746D01*
X23291268Y77680100D01*
X22761033Y77785570D01*
X21688967Y77785570D01*
X21158732Y77680100D01*
X20709221Y77379746D01*
X20408867Y76930235D01*
X20303397Y76400000D01*
X5322440Y76400000D01*
X5322440Y77900000D01*
X5278162Y78135317D01*
X5139090Y78351441D01*
X4926890Y78496431D01*
X4675000Y78547440D01*
X1675000Y78547440D01*
X1439683Y78503162D01*
X1223559Y78364090D01*
X1078569Y78151890D01*
X1027560Y77900000D01*
X750000Y77900000D01*
X750000Y78745890D01*
X20662695Y78745890D01*
X20717669Y78549874D01*
X20943710Y78193741D01*
X21288831Y77951219D01*
X21700490Y77859230D01*
X22199600Y77859230D01*
X22199600Y78914600D01*
X22250400Y78914600D01*
X22250400Y77859230D01*
X22749510Y77859230D01*
X23161169Y77951219D01*
X23506290Y78193741D01*
X23661313Y78437985D01*
X36453641Y78437985D01*
X36838746Y77505959D01*
X37551208Y76792252D01*
X38482561Y76405521D01*
X39491015Y76404641D01*
X40423041Y76789746D01*
X41136748Y77502208D01*
X41523479Y78433561D01*
X41524359Y79442015D01*
X41139254Y80374041D01*
X40426792Y81087748D01*
X39495439Y81474479D01*
X38486985Y81475359D01*
X37554959Y81090254D01*
X36841252Y80377792D01*
X36454521Y79446439D01*
X36453641Y78437985D01*
X23661313Y78437985D01*
X23732331Y78549874D01*
X23787305Y78745890D01*
X23722007Y78914600D01*
X22250400Y78914600D01*
X22199600Y78914600D01*
X20727993Y78914600D01*
X20662695Y78745890D01*
X750000Y78745890D01*
X750000Y79643833D01*
X15447838Y79643833D01*
X15589883Y79300057D01*
X15852673Y79036808D01*
X16196201Y78894162D01*
X16568167Y78893838D01*
X16911943Y79035883D01*
X17010341Y79134110D01*
X20662695Y79134110D01*
X20727993Y78965400D01*
X22199600Y78965400D01*
X22199600Y80020770D01*
X22250400Y80020770D01*
X22250400Y78965400D01*
X23722007Y78965400D01*
X23787305Y79134110D01*
X23732331Y79330126D01*
X23506290Y79686259D01*
X23161169Y79928781D01*
X22749510Y80020770D01*
X22250400Y80020770D01*
X22199600Y80020770D01*
X21700490Y80020770D01*
X21288831Y79928781D01*
X20943710Y79686259D01*
X20717669Y79330126D01*
X20662695Y79134110D01*
X17010341Y79134110D01*
X17175192Y79298673D01*
X17272564Y79533170D01*
X20032194Y82292800D01*
X20597671Y82292800D01*
X20408867Y82010235D01*
X20303397Y81480000D01*
X20408867Y80949765D01*
X20709221Y80500254D01*
X21158732Y80199900D01*
X21688967Y80094430D01*
X22761033Y80094430D01*
X23291268Y80199900D01*
X23740779Y80500254D01*
X24041133Y80949765D01*
X24146603Y81480000D01*
X24041133Y82010235D01*
X23852329Y82292800D01*
X41308806Y82292800D01*
X43687652Y79913954D01*
X43783883Y79681057D01*
X44046673Y79417808D01*
X44390201Y79275162D01*
X44762167Y79274838D01*
X45105943Y79416883D01*
X45369192Y79679673D01*
X45511838Y80023201D01*
X45512162Y80395167D01*
X45370117Y80738943D01*
X45107327Y81002192D01*
X44872830Y81099564D01*
X44619394Y81353000D01*
X48730160Y81353000D01*
X48730160Y79067000D01*
X48774438Y78831683D01*
X48913510Y78615559D01*
X49125710Y78470569D01*
X49326800Y78429847D01*
X49326800Y76273000D01*
X49390604Y75952234D01*
X49572303Y75680303D01*
X50590303Y74662303D01*
X50862235Y74480604D01*
X51183000Y74416800D01*
X51694803Y74416800D01*
X52039630Y74071371D01*
X52552900Y73858243D01*
X53108661Y73857758D01*
X53114087Y73860000D01*
X62315030Y73860000D01*
X62424263Y73310849D01*
X62735332Y72845302D01*
X63117418Y72590000D01*
X62735332Y72334698D01*
X62424263Y71869151D01*
X62315030Y71320000D01*
X62424263Y70770849D01*
X62735332Y70305302D01*
X63117418Y70050000D01*
X62735332Y69794698D01*
X62424263Y69329151D01*
X62315030Y68780000D01*
X62424263Y68230849D01*
X62735332Y67765302D01*
X63117418Y67510000D01*
X62735332Y67254698D01*
X62424263Y66789151D01*
X62315030Y66240000D01*
X62424263Y65690849D01*
X62735332Y65225302D01*
X63117418Y64970000D01*
X62735332Y64714698D01*
X62424263Y64249151D01*
X62315030Y63700000D01*
X62424263Y63150849D01*
X62735332Y62685302D01*
X63117418Y62430000D01*
X62735332Y62174698D01*
X62424263Y61709151D01*
X62315030Y61160000D01*
X62424263Y60610849D01*
X62735332Y60145302D01*
X63117418Y59890000D01*
X62735332Y59634698D01*
X62424263Y59169151D01*
X62315030Y58620000D01*
X62424263Y58070849D01*
X62735332Y57605302D01*
X63200879Y57294233D01*
X63695266Y57195893D01*
X63329025Y57114448D01*
X62967868Y56861211D01*
X62731112Y56489042D01*
X62672970Y56281845D01*
X62737658Y56105400D01*
X64109600Y56105400D01*
X64109600Y56125400D01*
X64160400Y56125400D01*
X64160400Y56105400D01*
X65532342Y56105400D01*
X65597030Y56281845D01*
X65538888Y56489042D01*
X65302132Y56861211D01*
X64940975Y57114448D01*
X64574734Y57195893D01*
X65069121Y57294233D01*
X65534668Y57605302D01*
X65845737Y58070849D01*
X65954970Y58620000D01*
X65845737Y59169151D01*
X65534668Y59634698D01*
X65152582Y59890000D01*
X65534668Y60145302D01*
X65845737Y60610849D01*
X65954970Y61160000D01*
X65845737Y61709151D01*
X65534668Y62174698D01*
X65152582Y62430000D01*
X65534668Y62685302D01*
X65845737Y63150849D01*
X65954970Y63700000D01*
X65845737Y64249151D01*
X65534668Y64714698D01*
X65152582Y64970000D01*
X65534668Y65225302D01*
X65845737Y65690849D01*
X65954970Y66240000D01*
X65845737Y66789151D01*
X65534668Y67254698D01*
X65152582Y67510000D01*
X65534668Y67765302D01*
X65845737Y68230849D01*
X65954970Y68780000D01*
X65845737Y69329151D01*
X65534668Y69794698D01*
X65152582Y70050000D01*
X65534668Y70305302D01*
X65845737Y70770849D01*
X65954970Y71320000D01*
X65845737Y71869151D01*
X65534668Y72334698D01*
X65152582Y72590000D01*
X65534668Y72845302D01*
X65845737Y73310849D01*
X65954970Y73860000D01*
X65845737Y74409151D01*
X65534668Y74874698D01*
X65069121Y75185767D01*
X64519970Y75295000D01*
X63750030Y75295000D01*
X63200879Y75185767D01*
X62735332Y74874698D01*
X62424263Y74409151D01*
X62315030Y73860000D01*
X53114087Y73860000D01*
X53622303Y74069990D01*
X54015629Y74462630D01*
X54228757Y74975900D01*
X54229242Y75531661D01*
X54017010Y76045303D01*
X53624370Y76438629D01*
X53111100Y76651757D01*
X52555339Y76652242D01*
X52041697Y76440010D01*
X51694281Y76093200D01*
X51530194Y76093200D01*
X51003200Y76620194D01*
X51003200Y78429119D01*
X51187717Y78463838D01*
X51403841Y78602910D01*
X51548831Y78815110D01*
X51583600Y78986803D01*
X51699211Y78813778D01*
X52160671Y78505441D01*
X52705000Y78397167D01*
X53249329Y78505441D01*
X53710789Y78813778D01*
X53975000Y79209199D01*
X54239211Y78813778D01*
X54700671Y78505441D01*
X55245000Y78397167D01*
X55789329Y78505441D01*
X56250789Y78813778D01*
X56515000Y79209199D01*
X56779211Y78813778D01*
X56946800Y78701799D01*
X56946800Y76249178D01*
X56865808Y76168327D01*
X56723162Y75824799D01*
X56722838Y75452833D01*
X56864883Y75109057D01*
X57127673Y74845808D01*
X57471201Y74703162D01*
X57843167Y74702838D01*
X58186943Y74844883D01*
X58450192Y75107673D01*
X58592838Y75451201D01*
X58592979Y75613068D01*
X58623200Y75765000D01*
X58623200Y78701799D01*
X58790789Y78813778D01*
X59055000Y79209199D01*
X59319211Y78813778D01*
X59486800Y78701799D01*
X59486800Y76184528D01*
X59390162Y75951799D01*
X59389838Y75579833D01*
X59531883Y75236057D01*
X59794673Y74972808D01*
X60138201Y74830162D01*
X60510167Y74829838D01*
X60853943Y74971883D01*
X61117192Y75234673D01*
X61259838Y75578201D01*
X61260162Y75950167D01*
X61163200Y76184834D01*
X61163200Y78701799D01*
X61330789Y78813778D01*
X61595000Y79209199D01*
X61859211Y78813778D01*
X62320671Y78505441D01*
X62865000Y78397167D01*
X63409329Y78505441D01*
X63870789Y78813778D01*
X64135000Y79209199D01*
X64399211Y78813778D01*
X64860671Y78505441D01*
X65405000Y78397167D01*
X65949329Y78505441D01*
X66410789Y78813778D01*
X66675000Y79209199D01*
X66939211Y78813778D01*
X67400671Y78505441D01*
X67945000Y78397167D01*
X68489329Y78505441D01*
X68950789Y78813778D01*
X69215000Y79209199D01*
X69479211Y78813778D01*
X69940671Y78505441D01*
X70485000Y78397167D01*
X71029329Y78505441D01*
X71490789Y78813778D01*
X71755000Y79209199D01*
X72019211Y78813778D01*
X72480671Y78505441D01*
X73025000Y78397167D01*
X73569329Y78505441D01*
X74030789Y78813778D01*
X74295000Y79209199D01*
X74559211Y78813778D01*
X75020671Y78505441D01*
X75565000Y78397167D01*
X76109329Y78505441D01*
X76570789Y78813778D01*
X76835000Y79209199D01*
X77099211Y78813778D01*
X77560671Y78505441D01*
X78105000Y78397167D01*
X78649329Y78505441D01*
X79110789Y78813778D01*
X79375000Y79209199D01*
X79639211Y78813778D01*
X80100671Y78505441D01*
X80645000Y78397167D01*
X81189329Y78505441D01*
X81650789Y78813778D01*
X81959126Y79275238D01*
X82067400Y79819567D01*
X82067400Y79829000D01*
X82162192Y79403246D01*
X82412698Y79046176D01*
X82780780Y78812151D01*
X82985127Y78754818D01*
X83159600Y78819662D01*
X83159600Y80184600D01*
X82067400Y80184600D01*
X82067400Y80235400D01*
X83159600Y80235400D01*
X83159600Y81600338D01*
X82985127Y81665182D01*
X82780780Y81607849D01*
X82412698Y81373824D01*
X82162192Y81016754D01*
X82067400Y80591000D01*
X82067400Y80600433D01*
X81959126Y81144762D01*
X81650789Y81606222D01*
X81383528Y81784800D01*
X84986472Y81784800D01*
X84719211Y81606222D01*
X84410874Y81144762D01*
X84302600Y80600433D01*
X84302600Y80591000D01*
X84207808Y81016754D01*
X83957302Y81373824D01*
X83589220Y81607849D01*
X83384873Y81665182D01*
X83210400Y81600338D01*
X83210400Y80235400D01*
X84302600Y80235400D01*
X84302600Y80184600D01*
X83210400Y80184600D01*
X83210400Y78819662D01*
X83384873Y78754818D01*
X83589220Y78812151D01*
X83957302Y79046176D01*
X84207808Y79403246D01*
X84302600Y79829000D01*
X84302600Y79819567D01*
X84410874Y79275238D01*
X84719211Y78813778D01*
X85180671Y78505441D01*
X85725000Y78397167D01*
X86269329Y78505441D01*
X86520491Y78673262D01*
X85884705Y77609285D01*
X71755588Y77619200D01*
X71637225Y77595742D01*
X71517064Y77584720D01*
X71478035Y77564194D01*
X71434779Y77555621D01*
X71334404Y77488655D01*
X71227606Y77432487D01*
X68560606Y75273487D01*
X68532214Y75239360D01*
X68495303Y75214697D01*
X68428428Y75114612D01*
X68351438Y75022071D01*
X68338266Y74979675D01*
X68313604Y74942765D01*
X68290121Y74824707D01*
X68254405Y74709747D01*
X68258460Y74665538D01*
X68249800Y74622000D01*
X68249800Y62303000D01*
X68313604Y61982234D01*
X68495303Y61710303D01*
X69638303Y60567303D01*
X69910234Y60385604D01*
X70231000Y60321800D01*
X70237400Y60321800D01*
X70355332Y60145302D01*
X70737418Y59890000D01*
X70355332Y59634698D01*
X70044263Y59169151D01*
X69935030Y58620000D01*
X70044263Y58070849D01*
X70355332Y57605302D01*
X70737418Y57350000D01*
X70355332Y57094698D01*
X70044263Y56629151D01*
X69935030Y56080000D01*
X70044263Y55530849D01*
X70355332Y55065302D01*
X70820879Y54754233D01*
X71370030Y54645000D01*
X72139970Y54645000D01*
X72689121Y54754233D01*
X73154668Y55065302D01*
X73272600Y55241800D01*
X73660000Y55241800D01*
X73980766Y55305604D01*
X74252697Y55487303D01*
X74571109Y55805715D01*
X82815760Y55805715D01*
X83026169Y55296485D01*
X83415436Y54906539D01*
X83924298Y54695241D01*
X84475285Y54694760D01*
X84984515Y54905169D01*
X85374461Y55294436D01*
X85585759Y55803298D01*
X85586240Y56354285D01*
X85375831Y56863515D01*
X84986564Y57253461D01*
X84477702Y57464759D01*
X83926715Y57465240D01*
X83417485Y57254831D01*
X83027539Y56865564D01*
X82816241Y56356702D01*
X82815760Y55805715D01*
X74571109Y55805715D01*
X75522697Y56757303D01*
X75612718Y56892029D01*
X75703190Y57026339D01*
X75703507Y57027904D01*
X75704396Y57029234D01*
X75736009Y57188163D01*
X75768194Y57346863D01*
X75779061Y60250715D01*
X82815760Y60250715D01*
X83026169Y59741485D01*
X83415436Y59351539D01*
X83924298Y59140241D01*
X84475285Y59139760D01*
X84984515Y59350169D01*
X85374461Y59739436D01*
X85585759Y60248298D01*
X85586240Y60799285D01*
X85375831Y61308515D01*
X84986564Y61698461D01*
X84477702Y61909759D01*
X83926715Y61910240D01*
X83417485Y61699831D01*
X83027539Y61310564D01*
X82816241Y60801702D01*
X82815760Y60250715D01*
X75779061Y60250715D01*
X75795695Y64695715D01*
X82815760Y64695715D01*
X83026169Y64186485D01*
X83415436Y63796539D01*
X83924298Y63585241D01*
X84475285Y63584760D01*
X84984515Y63795169D01*
X85374461Y64184436D01*
X85585759Y64693298D01*
X85586240Y65244285D01*
X85375831Y65753515D01*
X84986564Y66143461D01*
X84477702Y66354759D01*
X83926715Y66355240D01*
X83417485Y66144831D01*
X83027539Y65755564D01*
X82816241Y65246702D01*
X82815760Y64695715D01*
X75795695Y64695715D01*
X75812330Y69140715D01*
X82815760Y69140715D01*
X83026169Y68631485D01*
X83415436Y68241539D01*
X83924298Y68030241D01*
X84475285Y68029760D01*
X84984515Y68240169D01*
X85374461Y68629436D01*
X85585759Y69138298D01*
X85586240Y69689285D01*
X85375831Y70198515D01*
X84986564Y70588461D01*
X84477702Y70799759D01*
X83926715Y70800240D01*
X83417485Y70589831D01*
X83027539Y70200564D01*
X82816241Y69691702D01*
X82815760Y69140715D01*
X75812330Y69140715D01*
X75828855Y73556112D01*
X76851233Y74291800D01*
X82880643Y74291800D01*
X82816241Y74136702D01*
X82815760Y73585715D01*
X83026169Y73076485D01*
X83415436Y72686539D01*
X83924298Y72475241D01*
X84475285Y72474760D01*
X84984515Y72685169D01*
X85374461Y73074436D01*
X85585759Y73583298D01*
X85586240Y74134285D01*
X85521156Y74291800D01*
X88138000Y74291800D01*
X88236597Y74311412D01*
X88337033Y74315773D01*
X88395501Y74343020D01*
X88458765Y74355604D01*
X88542351Y74411454D01*
X88633474Y74453919D01*
X88671135Y74495000D01*
X93566655Y74495000D01*
X93680729Y73921511D01*
X94005585Y73435330D01*
X94320366Y73225000D01*
X94005585Y73014670D01*
X93680729Y72528489D01*
X93566655Y71955000D01*
X93680729Y71381511D01*
X94005585Y70895330D01*
X94320366Y70685000D01*
X94005585Y70474670D01*
X93680729Y69988489D01*
X93566655Y69415000D01*
X93680729Y68841511D01*
X94005585Y68355330D01*
X94320366Y68145000D01*
X94005585Y67934670D01*
X93680729Y67448489D01*
X93566655Y66875000D01*
X93680729Y66301511D01*
X94005585Y65815330D01*
X94320366Y65605000D01*
X94005585Y65394670D01*
X93680729Y64908489D01*
X93566655Y64335000D01*
X93680729Y63761511D01*
X94005585Y63275330D01*
X94320366Y63065000D01*
X94005585Y62854670D01*
X93680729Y62368489D01*
X93566655Y61795000D01*
X93680729Y61221511D01*
X94005585Y60735330D01*
X94491766Y60410474D01*
X95065255Y60296400D01*
X95434745Y60296400D01*
X96008234Y60410474D01*
X96494415Y60735330D01*
X96819271Y61221511D01*
X96933345Y61795000D01*
X96819271Y62368489D01*
X96494415Y62854670D01*
X96179634Y63065000D01*
X96494415Y63275330D01*
X96819271Y63761511D01*
X96933345Y64335000D01*
X96819271Y64908489D01*
X96494415Y65394670D01*
X96179634Y65605000D01*
X96494415Y65815330D01*
X96819271Y66301511D01*
X96933345Y66875000D01*
X96819271Y67448489D01*
X96494415Y67934670D01*
X96179634Y68145000D01*
X96494415Y68355330D01*
X96819271Y68841511D01*
X96933345Y69415000D01*
X96819271Y69988489D01*
X96494415Y70474670D01*
X96179634Y70685000D01*
X96494415Y70895330D01*
X96819271Y71381511D01*
X96933345Y71955000D01*
X96819271Y72528489D01*
X96494415Y73014670D01*
X96179634Y73225000D01*
X96494415Y73435330D01*
X96819271Y73921511D01*
X96933345Y74495000D01*
X96819271Y75068489D01*
X96494415Y75554670D01*
X96065593Y75841200D01*
X96331681Y75841200D01*
X96453043Y75891470D01*
X96545930Y75984357D01*
X96596200Y76105719D01*
X96596200Y76927050D01*
X96513650Y77009600D01*
X95275400Y77009600D01*
X95275400Y76989600D01*
X95224600Y76989600D01*
X95224600Y77009600D01*
X93986350Y77009600D01*
X93903800Y76927050D01*
X93903800Y76105719D01*
X93954070Y75984357D01*
X94046957Y75891470D01*
X94168319Y75841200D01*
X94434407Y75841200D01*
X94005585Y75554670D01*
X93680729Y75068489D01*
X93566655Y74495000D01*
X88671135Y74495000D01*
X88677064Y74501467D01*
X88730697Y74537303D01*
X88786549Y74620891D01*
X88854483Y74694993D01*
X89314600Y75452833D01*
X90250838Y75452833D01*
X90392883Y75109057D01*
X90655673Y74845808D01*
X90999201Y74703162D01*
X91371167Y74702838D01*
X91714943Y74844883D01*
X91978192Y75107673D01*
X92075564Y75342170D01*
X93175697Y76442303D01*
X93357396Y76714234D01*
X93421200Y77035000D01*
X93421200Y77250472D01*
X93517838Y77483201D01*
X93518162Y77855167D01*
X93473078Y77964281D01*
X93903800Y77964281D01*
X93903800Y77142950D01*
X93986350Y77060400D01*
X95224600Y77060400D01*
X95224600Y78146250D01*
X95275400Y78146250D01*
X95275400Y77060400D01*
X96513650Y77060400D01*
X96596200Y77142950D01*
X96596200Y77964281D01*
X96545930Y78085643D01*
X96453043Y78178530D01*
X96331681Y78228800D01*
X95357950Y78228800D01*
X95275400Y78146250D01*
X95224600Y78146250D01*
X95142050Y78228800D01*
X94168319Y78228800D01*
X94046957Y78178530D01*
X93954070Y78085643D01*
X93903800Y77964281D01*
X93473078Y77964281D01*
X93376117Y78198943D01*
X93113327Y78462192D01*
X92769799Y78604838D01*
X92397833Y78605162D01*
X92054057Y78463117D01*
X91790808Y78200327D01*
X91648162Y77856799D01*
X91647838Y77484833D01*
X91706198Y77343592D01*
X90889954Y76527348D01*
X90657057Y76431117D01*
X90393808Y76168327D01*
X90251162Y75824799D01*
X90250838Y75452833D01*
X89314600Y75452833D01*
X91013483Y78250992D01*
X91035560Y78311602D01*
X91071396Y78365235D01*
X91091008Y78463832D01*
X91125414Y78558291D01*
X91122616Y78622735D01*
X91135200Y78686000D01*
X91135200Y82242000D01*
X91071396Y82562765D01*
X90889697Y82834697D01*
X89851679Y83872715D01*
X93737760Y83872715D01*
X93948169Y83363485D01*
X94337436Y82973539D01*
X94846298Y82762241D01*
X95397285Y82761760D01*
X95906515Y82972169D01*
X96296461Y83361436D01*
X96507759Y83870298D01*
X96508240Y84421285D01*
X96297831Y84930515D01*
X95908564Y85320461D01*
X95399702Y85531759D01*
X94848715Y85532240D01*
X94339485Y85321831D01*
X93949539Y84932564D01*
X93738241Y84423702D01*
X93737760Y83872715D01*
X89851679Y83872715D01*
X88222697Y85501697D01*
X87950766Y85683396D01*
X87630000Y85747200D01*
X77055194Y85747200D01*
X76403200Y86399194D01*
X76403200Y93941799D01*
X76570789Y94053778D01*
X76879126Y94515238D01*
X76987400Y95059567D01*
X76987400Y95069000D01*
X77082192Y94643246D01*
X77332698Y94286176D01*
X77700780Y94052151D01*
X77905127Y93994818D01*
X78079600Y94059662D01*
X78079600Y95424600D01*
X76987400Y95424600D01*
X76987400Y95475400D01*
X78079600Y95475400D01*
X78079600Y96840338D01*
X78130400Y96840338D01*
X78130400Y95475400D01*
X79222600Y95475400D01*
X79222600Y95424600D01*
X78130400Y95424600D01*
X78130400Y94059662D01*
X78304873Y93994818D01*
X78509220Y94052151D01*
X78877302Y94286176D01*
X79127808Y94643246D01*
X79222600Y95069000D01*
X79222600Y95059567D01*
X79330874Y94515238D01*
X79639211Y94053778D01*
X80100671Y93745441D01*
X80645000Y93637167D01*
X81189329Y93745441D01*
X81650789Y94053778D01*
X81915000Y94449199D01*
X82179211Y94053778D01*
X82640671Y93745441D01*
X83185000Y93637167D01*
X83729329Y93745441D01*
X84190789Y94053778D01*
X84455000Y94449199D01*
X84719211Y94053778D01*
X85180671Y93745441D01*
X85725000Y93637167D01*
X86269329Y93745441D01*
X86730789Y94053778D01*
X87039126Y94515238D01*
X87137019Y95007381D01*
X92379613Y95007381D01*
X92719155Y94185628D01*
X93347321Y93556364D01*
X94168481Y93215389D01*
X95057619Y93214613D01*
X95879372Y93554155D01*
X96508636Y94182321D01*
X96849611Y95003481D01*
X96850387Y95892619D01*
X96510845Y96714372D01*
X95882679Y97343636D01*
X95061519Y97684611D01*
X94172381Y97685387D01*
X93350628Y97345845D01*
X92721364Y96717679D01*
X92380389Y95896519D01*
X92379613Y95007381D01*
X87137019Y95007381D01*
X87147400Y95059567D01*
X87147400Y95840433D01*
X87039126Y96384762D01*
X86730789Y96846222D01*
X86269329Y97154559D01*
X85725000Y97262833D01*
X85180671Y97154559D01*
X84719211Y96846222D01*
X84455000Y96450801D01*
X84190789Y96846222D01*
X83729329Y97154559D01*
X83185000Y97262833D01*
X82640671Y97154559D01*
X82179211Y96846222D01*
X81915000Y96450801D01*
X81650789Y96846222D01*
X81189329Y97154559D01*
X80645000Y97262833D01*
X80100671Y97154559D01*
X79639211Y96846222D01*
X79330874Y96384762D01*
X79222600Y95840433D01*
X79222600Y95831000D01*
X79127808Y96256754D01*
X78877302Y96613824D01*
X78509220Y96847849D01*
X78304873Y96905182D01*
X78130400Y96840338D01*
X78079600Y96840338D01*
X77905127Y96905182D01*
X77700780Y96847849D01*
X77332698Y96613824D01*
X77082192Y96256754D01*
X76987400Y95831000D01*
X76987400Y95840433D01*
X76879126Y96384762D01*
X76570789Y96846222D01*
X76109329Y97154559D01*
X75565000Y97262833D01*
X75020671Y97154559D01*
X74559211Y96846222D01*
X74295000Y96450801D01*
X74030789Y96846222D01*
X73569329Y97154559D01*
X73025000Y97262833D01*
X72480671Y97154559D01*
X72019211Y96846222D01*
X71755000Y96450801D01*
X71490789Y96846222D01*
X71029329Y97154559D01*
X70485000Y97262833D01*
X69940671Y97154559D01*
X69479211Y96846222D01*
X69215000Y96450801D01*
X68950789Y96846222D01*
X68489329Y97154559D01*
X67945000Y97262833D01*
X67400671Y97154559D01*
X66939211Y96846222D01*
X66675000Y96450801D01*
X66410789Y96846222D01*
X65949329Y97154559D01*
X65405000Y97262833D01*
X64860671Y97154559D01*
X64399211Y96846222D01*
X64135000Y96450801D01*
X63870789Y96846222D01*
X63409329Y97154559D01*
X62865000Y97262833D01*
X62320671Y97154559D01*
X61859211Y96846222D01*
X61595000Y96450801D01*
X61330789Y96846222D01*
X60869329Y97154559D01*
X60325000Y97262833D01*
X59780671Y97154559D01*
X59319211Y96846222D01*
X59055000Y96450801D01*
X58790789Y96846222D01*
X58329329Y97154559D01*
X57785000Y97262833D01*
X57240671Y97154559D01*
X56779211Y96846222D01*
X56515000Y96450801D01*
X56250789Y96846222D01*
X55789329Y97154559D01*
X55245000Y97262833D01*
X54700671Y97154559D01*
X54239211Y96846222D01*
X53975000Y96450801D01*
X53710789Y96846222D01*
X53249329Y97154559D01*
X52705000Y97262833D01*
X52160671Y97154559D01*
X51699211Y96846222D01*
X51435000Y96450801D01*
X51170789Y96846222D01*
X50709329Y97154559D01*
X50165000Y97262833D01*
X49620671Y97154559D01*
X49159211Y96846222D01*
X48850874Y96384762D01*
X48742600Y95840433D01*
X48742600Y95059567D01*
X48850874Y94515238D01*
X49159211Y94053778D01*
X49620671Y93745441D01*
X50165000Y93637167D01*
X50709329Y93745441D01*
X51170789Y94053778D01*
X51435000Y94449199D01*
X51699211Y94053778D01*
X52160671Y93745441D01*
X52705000Y93637167D01*
X53249329Y93745441D01*
X53710789Y94053778D01*
X53975000Y94449199D01*
X54239211Y94053778D01*
X54700671Y93745441D01*
X55245000Y93637167D01*
X55789329Y93745441D01*
X56250789Y94053778D01*
X56515000Y94449199D01*
X56779211Y94053778D01*
X57240671Y93745441D01*
X57785000Y93637167D01*
X58329329Y93745441D01*
X58790789Y94053778D01*
X59055000Y94449199D01*
X59319211Y94053778D01*
X59780671Y93745441D01*
X60325000Y93637167D01*
X60869329Y93745441D01*
X61330789Y94053778D01*
X61595000Y94449199D01*
X61859211Y94053778D01*
X62320671Y93745441D01*
X62865000Y93637167D01*
X63409329Y93745441D01*
X63870789Y94053778D01*
X64135000Y94449199D01*
X64399211Y94053778D01*
X64860671Y93745441D01*
X65405000Y93637167D01*
X65949329Y93745441D01*
X66410789Y94053778D01*
X66675000Y94449199D01*
X66939211Y94053778D01*
X67400671Y93745441D01*
X67945000Y93637167D01*
X68489329Y93745441D01*
X68950789Y94053778D01*
X69215000Y94449199D01*
X69479211Y94053778D01*
X69646800Y93941799D01*
X69646800Y85544000D01*
X69710604Y85223234D01*
X69892303Y84951303D01*
X72813303Y82030303D01*
X72870482Y81992097D01*
X72480671Y81914559D01*
X72019211Y81606222D01*
X71755000Y81210801D01*
X71490789Y81606222D01*
X71029329Y81914559D01*
X70485000Y82022833D01*
X69940671Y81914559D01*
X69479211Y81606222D01*
X69215000Y81210801D01*
X68950789Y81606222D01*
X68489329Y81914559D01*
X67945000Y82022833D01*
X67400671Y81914559D01*
X66939211Y81606222D01*
X66675000Y81210801D01*
X66410789Y81606222D01*
X65949329Y81914559D01*
X65405000Y82022833D01*
X64860671Y81914559D01*
X64399211Y81606222D01*
X64135000Y81210801D01*
X63870789Y81606222D01*
X63409329Y81914559D01*
X62865000Y82022833D01*
X62320671Y81914559D01*
X61859211Y81606222D01*
X61595000Y81210801D01*
X61330789Y81606222D01*
X60869329Y81914559D01*
X60325000Y82022833D01*
X59780671Y81914559D01*
X59319211Y81606222D01*
X59055000Y81210801D01*
X58790789Y81606222D01*
X58329329Y81914559D01*
X57785000Y82022833D01*
X57240671Y81914559D01*
X56779211Y81606222D01*
X56515000Y81210801D01*
X56250789Y81606222D01*
X55789329Y81914559D01*
X55245000Y82022833D01*
X54700671Y81914559D01*
X54239211Y81606222D01*
X53975000Y81210801D01*
X53710789Y81606222D01*
X53249329Y81914559D01*
X52705000Y82022833D01*
X52160671Y81914559D01*
X51699211Y81606222D01*
X51584497Y81434540D01*
X51555562Y81588317D01*
X51416490Y81804441D01*
X51204290Y81949431D01*
X50952400Y82000440D01*
X49377600Y82000440D01*
X49142283Y81956162D01*
X48926159Y81817090D01*
X48781169Y81604890D01*
X48730160Y81353000D01*
X44619394Y81353000D01*
X42248697Y83723697D01*
X41976766Y83905396D01*
X41656000Y83969200D01*
X21816550Y83969200D01*
X21816550Y85502090D01*
X21772272Y85737407D01*
X21633200Y85953531D01*
X21421000Y86098521D01*
X21169110Y86149530D01*
X19469850Y86149530D01*
X19234533Y86105252D01*
X19018409Y85966180D01*
X18873419Y85753980D01*
X18822410Y85502090D01*
X18822410Y83802830D01*
X18866688Y83567513D01*
X18893873Y83525267D01*
X16086954Y80718348D01*
X15854057Y80622117D01*
X15590808Y80359327D01*
X15448162Y80015799D01*
X15447838Y79643833D01*
X750000Y79643833D01*
X750000Y84250000D01*
X1027560Y84250000D01*
X1027560Y81250000D01*
X1071838Y81014683D01*
X1210910Y80798559D01*
X1423110Y80653569D01*
X1675000Y80602560D01*
X4675000Y80602560D01*
X4910317Y80646838D01*
X5126441Y80785910D01*
X5271431Y80998110D01*
X5322440Y81250000D01*
X5322440Y84250000D01*
X5302035Y84358444D01*
X8674592Y84358444D01*
X8900138Y83812583D01*
X9317406Y83394586D01*
X9862873Y83168088D01*
X10453496Y83167572D01*
X10999357Y83393118D01*
X11417354Y83810386D01*
X11643852Y84355853D01*
X11644368Y84946476D01*
X11418822Y85492337D01*
X11001554Y85910334D01*
X10456087Y86136832D01*
X9865464Y86137348D01*
X9319603Y85911802D01*
X8901606Y85494534D01*
X8675108Y84949067D01*
X8674592Y84358444D01*
X5302035Y84358444D01*
X5278162Y84485317D01*
X5139090Y84701441D01*
X4926890Y84846431D01*
X4675000Y84897440D01*
X1675000Y84897440D01*
X1439683Y84853162D01*
X1223559Y84714090D01*
X1078569Y84501890D01*
X1027560Y84250000D01*
X750000Y84250000D01*
X750000Y88820600D01*
X19761200Y88820600D01*
X19761200Y88668200D01*
X19861793Y88213286D01*
X20128817Y87831496D01*
X20521619Y87580953D01*
X20743203Y87518738D01*
X20929600Y87582640D01*
X20929600Y88820600D01*
X19761200Y88820600D01*
X750000Y88820600D01*
X750000Y89023800D01*
X19761200Y89023800D01*
X19761200Y88871400D01*
X20929600Y88871400D01*
X20929600Y90109360D01*
X20980400Y90109360D01*
X20980400Y88871400D01*
X21000400Y88871400D01*
X21000400Y88820600D01*
X20980400Y88820600D01*
X20980400Y87582640D01*
X21166797Y87518738D01*
X21388381Y87580953D01*
X21781183Y87831496D01*
X22048207Y88213286D01*
X22067843Y88302086D01*
X22110474Y88087766D01*
X22435330Y87601585D01*
X22921511Y87276729D01*
X23495000Y87162655D01*
X24068489Y87276729D01*
X24554670Y87601585D01*
X24765000Y87916366D01*
X24975330Y87601585D01*
X25461511Y87276729D01*
X26035000Y87162655D01*
X26608489Y87276729D01*
X27094670Y87601585D01*
X27104243Y87615913D01*
X27108238Y87594683D01*
X27247310Y87378559D01*
X27459510Y87233569D01*
X27711400Y87182560D01*
X29438600Y87182560D01*
X29673917Y87226838D01*
X29890041Y87365910D01*
X30035031Y87578110D01*
X30086040Y87830000D01*
X30086040Y88533833D01*
X38434838Y88533833D01*
X38576883Y88190057D01*
X38839673Y87926808D01*
X39074170Y87829436D01*
X41782652Y85120954D01*
X41878883Y84888057D01*
X42141673Y84624808D01*
X42485201Y84482162D01*
X42857167Y84481838D01*
X43200943Y84623883D01*
X43464192Y84886673D01*
X43523708Y85030002D01*
X43529883Y85015057D01*
X43792673Y84751808D01*
X44136201Y84609162D01*
X44508167Y84608838D01*
X44851943Y84750883D01*
X45115192Y85013673D01*
X45257838Y85357201D01*
X45258162Y85729167D01*
X45116117Y86072943D01*
X44853327Y86336192D01*
X44509799Y86478838D01*
X44446501Y86478893D01*
X41148348Y89777046D01*
X41052117Y90009943D01*
X40946245Y90116000D01*
X66929000Y90116000D01*
X66929000Y86941000D01*
X67006338Y86552194D01*
X67226580Y86222580D01*
X67556194Y86002338D01*
X67945000Y85925000D01*
X68333806Y86002338D01*
X68663420Y86222580D01*
X68883662Y86552194D01*
X68961000Y86941000D01*
X68961000Y90116000D01*
X68883662Y90504806D01*
X68663420Y90834420D01*
X68333806Y91054662D01*
X67945000Y91132000D01*
X67556194Y91054662D01*
X67226580Y90834420D01*
X67006338Y90504806D01*
X66929000Y90116000D01*
X40946245Y90116000D01*
X40789327Y90273192D01*
X40445799Y90415838D01*
X40073833Y90416162D01*
X39730057Y90274117D01*
X39466808Y90011327D01*
X39324162Y89667799D01*
X39324150Y89654041D01*
X39184833Y89654162D01*
X38841057Y89512117D01*
X38577808Y89249327D01*
X38435162Y88905799D01*
X38434838Y88533833D01*
X30086040Y88533833D01*
X30086040Y89862000D01*
X30041762Y90097317D01*
X29902690Y90313441D01*
X29690490Y90458431D01*
X29438600Y90509440D01*
X27711400Y90509440D01*
X27476083Y90465162D01*
X27259959Y90326090D01*
X27114969Y90113890D01*
X27106600Y90072561D01*
X27094670Y90090415D01*
X26608489Y90415271D01*
X26035000Y90529345D01*
X25461511Y90415271D01*
X24975330Y90090415D01*
X24765000Y89775634D01*
X24554670Y90090415D01*
X24068489Y90415271D01*
X23495000Y90529345D01*
X22921511Y90415271D01*
X22435330Y90090415D01*
X22110474Y89604234D01*
X22067843Y89389914D01*
X22048207Y89478714D01*
X21781183Y89860504D01*
X21388381Y90111047D01*
X21166797Y90173262D01*
X20980400Y90109360D01*
X20929600Y90109360D01*
X20743203Y90173262D01*
X20521619Y90111047D01*
X20128817Y89860504D01*
X19861793Y89478714D01*
X19761200Y89023800D01*
X750000Y89023800D01*
X750000Y95007381D01*
X2209613Y95007381D01*
X2549155Y94185628D01*
X3177321Y93556364D01*
X3998481Y93215389D01*
X4887619Y93214613D01*
X5709372Y93554155D01*
X6338636Y94182321D01*
X6679611Y95003481D01*
X6679906Y95342050D01*
X34914800Y95342050D01*
X34914800Y94384319D01*
X34965070Y94262957D01*
X35057957Y94170070D01*
X35179319Y94119800D01*
X36087050Y94119800D01*
X36169600Y94202350D01*
X36169600Y95424600D01*
X34997350Y95424600D01*
X34914800Y95342050D01*
X6679906Y95342050D01*
X6680387Y95892619D01*
X6422943Y96515681D01*
X34914800Y96515681D01*
X34914800Y95557950D01*
X34997350Y95475400D01*
X36169600Y95475400D01*
X36169600Y96697650D01*
X36220400Y96697650D01*
X36220400Y95475400D01*
X36240400Y95475400D01*
X36240400Y95424600D01*
X36220400Y95424600D01*
X36220400Y94202350D01*
X36302950Y94119800D01*
X37210681Y94119800D01*
X37332043Y94170070D01*
X37424930Y94262957D01*
X37475200Y94384319D01*
X37475200Y94468514D01*
X37835997Y94107086D01*
X38418341Y93865276D01*
X39048893Y93864725D01*
X39631657Y94105519D01*
X40077914Y94550997D01*
X40319724Y95133341D01*
X40320275Y95763893D01*
X40079481Y96346657D01*
X39634003Y96792914D01*
X39051659Y97034724D01*
X38421107Y97035275D01*
X37838343Y96794481D01*
X37475200Y96431972D01*
X37475200Y96515681D01*
X37424930Y96637043D01*
X37332043Y96729930D01*
X37210681Y96780200D01*
X36302950Y96780200D01*
X36220400Y96697650D01*
X36169600Y96697650D01*
X36087050Y96780200D01*
X35179319Y96780200D01*
X35057957Y96729930D01*
X34965070Y96637043D01*
X34914800Y96515681D01*
X6422943Y96515681D01*
X6340845Y96714372D01*
X5712679Y97343636D01*
X4891519Y97684611D01*
X4002381Y97685387D01*
X3180628Y97345845D01*
X2551364Y96717679D01*
X2210389Y95896519D01*
X2209613Y95007381D01*
X750000Y95007381D01*
X750000Y99040000D01*
X98330000Y99040000D01*
X98330000Y50877000D01*
X98330000Y50877000D01*
G37*
X98330000Y50877000D02*
X750000Y50877000D01*
X750000Y52039855D01*
X83498776Y52039855D01*
X83574356Y51872287D01*
X83968658Y51701424D01*
X84398332Y51694459D01*
X84797964Y51852454D01*
X84827644Y51872287D01*
X84903224Y52039855D01*
X84201000Y52742079D01*
X83498776Y52039855D01*
X750000Y52039855D01*
X750000Y54367381D01*
X2209613Y54367381D01*
X2549155Y53545628D01*
X3177321Y52916364D01*
X3998481Y52575389D01*
X4887619Y52574613D01*
X4902273Y52580668D01*
X83117459Y52580668D01*
X83275454Y52181036D01*
X83295287Y52151356D01*
X83462855Y52075776D01*
X84165079Y52778000D01*
X84236921Y52778000D01*
X84939145Y52075776D01*
X85106713Y52151356D01*
X85277576Y52545658D01*
X85284541Y52975332D01*
X85126546Y53374964D01*
X85106713Y53404644D01*
X84939145Y53480224D01*
X84236921Y52778000D01*
X84165079Y52778000D01*
X83462855Y53480224D01*
X83295287Y53404644D01*
X83124424Y53010342D01*
X83117459Y52580668D01*
X4902273Y52580668D01*
X5709372Y52914155D01*
X6312414Y53516145D01*
X83498776Y53516145D01*
X84201000Y52813921D01*
X84903224Y53516145D01*
X84827644Y53683713D01*
X84433342Y53854576D01*
X84003668Y53861541D01*
X83604036Y53703546D01*
X83574356Y53683713D01*
X83498776Y53516145D01*
X6312414Y53516145D01*
X6338636Y53542321D01*
X6679611Y54363481D01*
X6680387Y55252619D01*
X6340845Y56074372D01*
X5712679Y56703636D01*
X4891519Y57044611D01*
X4002381Y57045387D01*
X3180628Y56705845D01*
X2551364Y56077679D01*
X2210389Y55256519D01*
X2209613Y54367381D01*
X750000Y54367381D01*
X750000Y58700000D01*
X46927560Y58700000D01*
X46927560Y54700000D01*
X46971838Y54464683D01*
X47110910Y54248559D01*
X47323110Y54103569D01*
X47575000Y54052560D01*
X51575000Y54052560D01*
X51810317Y54096838D01*
X52026441Y54235910D01*
X52171431Y54448110D01*
X52222440Y54700000D01*
X52222440Y58700000D01*
X55727560Y58700000D01*
X55727560Y54700000D01*
X55771838Y54464683D01*
X55910910Y54248559D01*
X56123110Y54103569D01*
X56375000Y54052560D01*
X60375000Y54052560D01*
X60610317Y54096838D01*
X60826441Y54235910D01*
X60916271Y54367381D01*
X92379613Y54367381D01*
X92719155Y53545628D01*
X93347321Y52916364D01*
X94168481Y52575389D01*
X95057619Y52574613D01*
X95879372Y52914155D01*
X96508636Y53542321D01*
X96849611Y54363481D01*
X96850387Y55252619D01*
X96510845Y56074372D01*
X95882679Y56703636D01*
X95061519Y57044611D01*
X94172381Y57045387D01*
X93350628Y56705845D01*
X92721364Y56077679D01*
X92380389Y55256519D01*
X92379613Y54367381D01*
X60916271Y54367381D01*
X60971431Y54448110D01*
X61022440Y54700000D01*
X61022440Y55878155D01*
X62672970Y55878155D01*
X62731112Y55670958D01*
X62967868Y55298789D01*
X63329025Y55045552D01*
X63759600Y54949800D01*
X64109600Y54949800D01*
X64109600Y56054600D01*
X64160400Y56054600D01*
X64160400Y54949800D01*
X64510400Y54949800D01*
X64940975Y55045552D01*
X65302132Y55298789D01*
X65538888Y55670958D01*
X65597030Y55878155D01*
X65532342Y56054600D01*
X64160400Y56054600D01*
X64109600Y56054600D01*
X62737658Y56054600D01*
X62672970Y55878155D01*
X61022440Y55878155D01*
X61022440Y58700000D01*
X60978162Y58935317D01*
X60839090Y59151441D01*
X60626890Y59296431D01*
X60375000Y59347440D01*
X56375000Y59347440D01*
X56139683Y59303162D01*
X55923559Y59164090D01*
X55778569Y58951890D01*
X55727560Y58700000D01*
X52222440Y58700000D01*
X52178162Y58935317D01*
X52039090Y59151441D01*
X51826890Y59296431D01*
X51575000Y59347440D01*
X47575000Y59347440D01*
X47339683Y59303162D01*
X47123559Y59164090D01*
X46978569Y58951890D01*
X46927560Y58700000D01*
X750000Y58700000D01*
X750000Y61052050D01*
X1344800Y61052050D01*
X1344800Y59594319D01*
X1395070Y59472957D01*
X1487957Y59380070D01*
X1609319Y59329800D01*
X3067050Y59329800D01*
X3149600Y59412350D01*
X3149600Y61134600D01*
X3200400Y61134600D01*
X3200400Y59412350D01*
X3282950Y59329800D01*
X4740681Y59329800D01*
X4862043Y59380070D01*
X4954930Y59472957D01*
X5005200Y59594319D01*
X5005200Y61052050D01*
X4922650Y61134600D01*
X3200400Y61134600D01*
X3149600Y61134600D01*
X1427350Y61134600D01*
X1344800Y61052050D01*
X750000Y61052050D01*
X750000Y62725681D01*
X1344800Y62725681D01*
X1344800Y61267950D01*
X1427350Y61185400D01*
X3149600Y61185400D01*
X3149600Y62907650D01*
X3200400Y62907650D01*
X3200400Y61185400D01*
X4922650Y61185400D01*
X5005200Y61267950D01*
X5005200Y62725681D01*
X4954930Y62847043D01*
X4946584Y62855389D01*
X8098509Y62855389D01*
X8159828Y62636965D01*
X8407343Y62248694D01*
X8784602Y61984699D01*
X9234170Y61885170D01*
X10134600Y61885170D01*
X10134600Y63039600D01*
X10185400Y63039600D01*
X10185400Y61885170D01*
X11085830Y61885170D01*
X11535398Y61984699D01*
X11912657Y62248694D01*
X12160172Y62636965D01*
X12221491Y62855389D01*
X12157416Y63039600D01*
X10185400Y63039600D01*
X10134600Y63039600D01*
X8162584Y63039600D01*
X8098509Y62855389D01*
X4946584Y62855389D01*
X4862043Y62939930D01*
X4740681Y62990200D01*
X3282950Y62990200D01*
X3200400Y62907650D01*
X3149600Y62907650D01*
X3067050Y62990200D01*
X1609319Y62990200D01*
X1487957Y62939930D01*
X1395070Y62847043D01*
X1344800Y62725681D01*
X750000Y62725681D01*
X750000Y68375000D01*
X1027560Y68375000D01*
X1027560Y65375000D01*
X1071838Y65139683D01*
X1210910Y64923559D01*
X1423110Y64778569D01*
X1675000Y64727560D01*
X4675000Y64727560D01*
X4910317Y64771838D01*
X5126441Y64910910D01*
X5254957Y65099000D01*
X5356134Y65099000D01*
X6017567Y64437566D01*
X6553190Y64079675D01*
X7185000Y63954000D01*
X8511226Y63954000D01*
X8407343Y63881306D01*
X8159828Y63493035D01*
X8098509Y63274611D01*
X8162584Y63090400D01*
X10134600Y63090400D01*
X10134600Y63110400D01*
X10185400Y63110400D01*
X10185400Y63090400D01*
X12157416Y63090400D01*
X12221491Y63274611D01*
X12160172Y63493035D01*
X11912657Y63881306D01*
X11535398Y64145301D01*
X11392044Y64177038D01*
X11675299Y64233381D01*
X12156948Y64555208D01*
X12478775Y65036857D01*
X12491928Y65102985D01*
X24388641Y65102985D01*
X24773746Y64170959D01*
X25486208Y63457252D01*
X26417561Y63070521D01*
X27426015Y63069641D01*
X28358041Y63454746D01*
X28874227Y63970032D01*
X50078000Y63970032D01*
X50078000Y63429968D01*
X50184340Y62895359D01*
X50487172Y62442140D01*
X50940391Y62139308D01*
X51475000Y62032968D01*
X52009609Y62139308D01*
X52462828Y62442140D01*
X52725000Y62834507D01*
X52987172Y62442140D01*
X53440391Y62139308D01*
X53975000Y62032968D01*
X54509609Y62139308D01*
X54962828Y62442140D01*
X55265660Y62895359D01*
X55372000Y63429968D01*
X55372000Y63674600D01*
X55382800Y63674600D01*
X55382800Y63436600D01*
X55475659Y63020567D01*
X55720658Y62671738D01*
X56080499Y62443219D01*
X56279101Y62387512D01*
X56449600Y62452670D01*
X56449600Y63674600D01*
X56500400Y63674600D01*
X56500400Y62452670D01*
X56670899Y62387512D01*
X56869501Y62443219D01*
X57229342Y62671738D01*
X57474341Y63020567D01*
X57567200Y63436600D01*
X57567200Y63674600D01*
X56500400Y63674600D01*
X56449600Y63674600D01*
X55382800Y63674600D01*
X55372000Y63674600D01*
X55372000Y63963400D01*
X55382800Y63963400D01*
X55382800Y63725400D01*
X56449600Y63725400D01*
X56449600Y64947330D01*
X56500400Y64947330D01*
X56500400Y63725400D01*
X57567200Y63725400D01*
X57567200Y63963400D01*
X57474341Y64379433D01*
X57229342Y64728262D01*
X56869501Y64956781D01*
X56670899Y65012488D01*
X56500400Y64947330D01*
X56449600Y64947330D01*
X56279101Y65012488D01*
X56080499Y64956781D01*
X55720658Y64728262D01*
X55475659Y64379433D01*
X55382800Y63963400D01*
X55372000Y63963400D01*
X55372000Y63970032D01*
X55265660Y64504641D01*
X54962828Y64957860D01*
X54509609Y65260692D01*
X53975000Y65367032D01*
X53440391Y65260692D01*
X52987172Y64957860D01*
X52725000Y64565493D01*
X52462828Y64957860D01*
X52009609Y65260692D01*
X51475000Y65367032D01*
X50940391Y65260692D01*
X50487172Y64957860D01*
X50184340Y64504641D01*
X50078000Y63970032D01*
X28874227Y63970032D01*
X29071748Y64167208D01*
X29458479Y65098561D01*
X29459359Y66107015D01*
X29074254Y67039041D01*
X28361792Y67752748D01*
X27987422Y67908200D01*
X52121122Y67908200D01*
X52198164Y67739386D01*
X52596802Y67566524D01*
X53031248Y67559373D01*
X53435359Y67719022D01*
X53465836Y67739386D01*
X53542878Y67908200D01*
X52832000Y68619079D01*
X52121122Y67908200D01*
X27987422Y67908200D01*
X27430439Y68139479D01*
X26421985Y68140359D01*
X25489959Y67755254D01*
X24776252Y67042792D01*
X24389521Y66111439D01*
X24388641Y65102985D01*
X12491928Y65102985D01*
X12591786Y65605000D01*
X12478775Y66173143D01*
X12156948Y66654792D01*
X11827383Y66875000D01*
X12156948Y67095208D01*
X12478775Y67576857D01*
X12591786Y68145000D01*
X12529974Y68455752D01*
X51736373Y68455752D01*
X51896022Y68051641D01*
X51916386Y68021164D01*
X52085200Y67944122D01*
X52796079Y68655000D01*
X52867921Y68655000D01*
X53578800Y67944122D01*
X53747614Y68021164D01*
X53920476Y68419802D01*
X53927627Y68854248D01*
X53767978Y69258359D01*
X53747614Y69288836D01*
X53578800Y69365878D01*
X52867921Y68655000D01*
X52796079Y68655000D01*
X52085200Y69365878D01*
X51916386Y69288836D01*
X51743524Y68890198D01*
X51736373Y68455752D01*
X12529974Y68455752D01*
X12478775Y68713143D01*
X12156948Y69194792D01*
X11847139Y69401800D01*
X52121122Y69401800D01*
X52832000Y68690921D01*
X53542878Y69401800D01*
X53465836Y69570614D01*
X53067198Y69743476D01*
X52632752Y69750627D01*
X52228641Y69590978D01*
X52198164Y69570614D01*
X52121122Y69401800D01*
X11847139Y69401800D01*
X11675299Y69516619D01*
X11107156Y69629630D01*
X9212844Y69629630D01*
X8644701Y69516619D01*
X8163052Y69194792D01*
X7841225Y68713143D01*
X7728214Y68145000D01*
X7841225Y67576857D01*
X8055614Y67256000D01*
X7868867Y67256000D01*
X7207433Y67917433D01*
X6671811Y68275325D01*
X6040000Y68401000D01*
X5317548Y68401000D01*
X5278162Y68610317D01*
X5139090Y68826441D01*
X4926890Y68971431D01*
X4675000Y69022440D01*
X1675000Y69022440D01*
X1439683Y68978162D01*
X1223559Y68839090D01*
X1078569Y68626890D01*
X1027560Y68375000D01*
X750000Y68375000D01*
X750000Y72023833D01*
X24972838Y72023833D01*
X25114883Y71680057D01*
X25377673Y71416808D01*
X25721201Y71274162D01*
X26093167Y71273838D01*
X26327834Y71370800D01*
X29552472Y71370800D01*
X29785201Y71274162D01*
X30157167Y71273838D01*
X30500943Y71415883D01*
X30764192Y71678673D01*
X30906838Y72022201D01*
X30907162Y72394167D01*
X30765117Y72737943D01*
X30502327Y73001192D01*
X30158799Y73143838D01*
X29786833Y73144162D01*
X29552166Y73047200D01*
X26327528Y73047200D01*
X26094799Y73143838D01*
X25722833Y73144162D01*
X25379057Y73002117D01*
X25115808Y72739327D01*
X24973162Y72395799D01*
X24972838Y72023833D01*
X750000Y72023833D01*
X750000Y77900000D01*
X1027560Y77900000D01*
X1027560Y74900000D01*
X1071838Y74664683D01*
X1210910Y74448559D01*
X1423110Y74303569D01*
X1675000Y74252560D01*
X4675000Y74252560D01*
X4910317Y74296838D01*
X5126441Y74435910D01*
X5271431Y74648110D01*
X5322440Y74900000D01*
X5322440Y76400000D01*
X20303397Y76400000D01*
X20408867Y75869765D01*
X20709221Y75420254D01*
X21158732Y75119900D01*
X21688967Y75014430D01*
X22761033Y75014430D01*
X23291268Y75119900D01*
X23740779Y75420254D01*
X24041133Y75869765D01*
X24146603Y76400000D01*
X24041133Y76930235D01*
X23740779Y77379746D01*
X23291268Y77680100D01*
X22761033Y77785570D01*
X21688967Y77785570D01*
X21158732Y77680100D01*
X20709221Y77379746D01*
X20408867Y76930235D01*
X20303397Y76400000D01*
X5322440Y76400000D01*
X5322440Y77900000D01*
X5278162Y78135317D01*
X5139090Y78351441D01*
X4926890Y78496431D01*
X4675000Y78547440D01*
X1675000Y78547440D01*
X1439683Y78503162D01*
X1223559Y78364090D01*
X1078569Y78151890D01*
X1027560Y77900000D01*
X750000Y77900000D01*
X750000Y78745890D01*
X20662695Y78745890D01*
X20717669Y78549874D01*
X20943710Y78193741D01*
X21288831Y77951219D01*
X21700490Y77859230D01*
X22199600Y77859230D01*
X22199600Y78914600D01*
X22250400Y78914600D01*
X22250400Y77859230D01*
X22749510Y77859230D01*
X23161169Y77951219D01*
X23506290Y78193741D01*
X23661313Y78437985D01*
X36453641Y78437985D01*
X36838746Y77505959D01*
X37551208Y76792252D01*
X38482561Y76405521D01*
X39491015Y76404641D01*
X40423041Y76789746D01*
X41136748Y77502208D01*
X41523479Y78433561D01*
X41524359Y79442015D01*
X41139254Y80374041D01*
X40426792Y81087748D01*
X39495439Y81474479D01*
X38486985Y81475359D01*
X37554959Y81090254D01*
X36841252Y80377792D01*
X36454521Y79446439D01*
X36453641Y78437985D01*
X23661313Y78437985D01*
X23732331Y78549874D01*
X23787305Y78745890D01*
X23722007Y78914600D01*
X22250400Y78914600D01*
X22199600Y78914600D01*
X20727993Y78914600D01*
X20662695Y78745890D01*
X750000Y78745890D01*
X750000Y79643833D01*
X15447838Y79643833D01*
X15589883Y79300057D01*
X15852673Y79036808D01*
X16196201Y78894162D01*
X16568167Y78893838D01*
X16911943Y79035883D01*
X17010341Y79134110D01*
X20662695Y79134110D01*
X20727993Y78965400D01*
X22199600Y78965400D01*
X22199600Y80020770D01*
X22250400Y80020770D01*
X22250400Y78965400D01*
X23722007Y78965400D01*
X23787305Y79134110D01*
X23732331Y79330126D01*
X23506290Y79686259D01*
X23161169Y79928781D01*
X22749510Y80020770D01*
X22250400Y80020770D01*
X22199600Y80020770D01*
X21700490Y80020770D01*
X21288831Y79928781D01*
X20943710Y79686259D01*
X20717669Y79330126D01*
X20662695Y79134110D01*
X17010341Y79134110D01*
X17175192Y79298673D01*
X17272564Y79533170D01*
X20032194Y82292800D01*
X20597671Y82292800D01*
X20408867Y82010235D01*
X20303397Y81480000D01*
X20408867Y80949765D01*
X20709221Y80500254D01*
X21158732Y80199900D01*
X21688967Y80094430D01*
X22761033Y80094430D01*
X23291268Y80199900D01*
X23740779Y80500254D01*
X24041133Y80949765D01*
X24146603Y81480000D01*
X24041133Y82010235D01*
X23852329Y82292800D01*
X41308806Y82292800D01*
X43687652Y79913954D01*
X43783883Y79681057D01*
X44046673Y79417808D01*
X44390201Y79275162D01*
X44762167Y79274838D01*
X45105943Y79416883D01*
X45369192Y79679673D01*
X45511838Y80023201D01*
X45512162Y80395167D01*
X45370117Y80738943D01*
X45107327Y81002192D01*
X44872830Y81099564D01*
X44619394Y81353000D01*
X48730160Y81353000D01*
X48730160Y79067000D01*
X48774438Y78831683D01*
X48913510Y78615559D01*
X49125710Y78470569D01*
X49326800Y78429847D01*
X49326800Y76273000D01*
X49390604Y75952234D01*
X49572303Y75680303D01*
X50590303Y74662303D01*
X50862235Y74480604D01*
X51183000Y74416800D01*
X51694803Y74416800D01*
X52039630Y74071371D01*
X52552900Y73858243D01*
X53108661Y73857758D01*
X53114087Y73860000D01*
X62315030Y73860000D01*
X62424263Y73310849D01*
X62735332Y72845302D01*
X63117418Y72590000D01*
X62735332Y72334698D01*
X62424263Y71869151D01*
X62315030Y71320000D01*
X62424263Y70770849D01*
X62735332Y70305302D01*
X63117418Y70050000D01*
X62735332Y69794698D01*
X62424263Y69329151D01*
X62315030Y68780000D01*
X62424263Y68230849D01*
X62735332Y67765302D01*
X63117418Y67510000D01*
X62735332Y67254698D01*
X62424263Y66789151D01*
X62315030Y66240000D01*
X62424263Y65690849D01*
X62735332Y65225302D01*
X63117418Y64970000D01*
X62735332Y64714698D01*
X62424263Y64249151D01*
X62315030Y63700000D01*
X62424263Y63150849D01*
X62735332Y62685302D01*
X63117418Y62430000D01*
X62735332Y62174698D01*
X62424263Y61709151D01*
X62315030Y61160000D01*
X62424263Y60610849D01*
X62735332Y60145302D01*
X63117418Y59890000D01*
X62735332Y59634698D01*
X62424263Y59169151D01*
X62315030Y58620000D01*
X62424263Y58070849D01*
X62735332Y57605302D01*
X63200879Y57294233D01*
X63695266Y57195893D01*
X63329025Y57114448D01*
X62967868Y56861211D01*
X62731112Y56489042D01*
X62672970Y56281845D01*
X62737658Y56105400D01*
X64109600Y56105400D01*
X64109600Y56125400D01*
X64160400Y56125400D01*
X64160400Y56105400D01*
X65532342Y56105400D01*
X65597030Y56281845D01*
X65538888Y56489042D01*
X65302132Y56861211D01*
X64940975Y57114448D01*
X64574734Y57195893D01*
X65069121Y57294233D01*
X65534668Y57605302D01*
X65845737Y58070849D01*
X65954970Y58620000D01*
X65845737Y59169151D01*
X65534668Y59634698D01*
X65152582Y59890000D01*
X65534668Y60145302D01*
X65845737Y60610849D01*
X65954970Y61160000D01*
X65845737Y61709151D01*
X65534668Y62174698D01*
X65152582Y62430000D01*
X65534668Y62685302D01*
X65845737Y63150849D01*
X65954970Y63700000D01*
X65845737Y64249151D01*
X65534668Y64714698D01*
X65152582Y64970000D01*
X65534668Y65225302D01*
X65845737Y65690849D01*
X65954970Y66240000D01*
X65845737Y66789151D01*
X65534668Y67254698D01*
X65152582Y67510000D01*
X65534668Y67765302D01*
X65845737Y68230849D01*
X65954970Y68780000D01*
X65845737Y69329151D01*
X65534668Y69794698D01*
X65152582Y70050000D01*
X65534668Y70305302D01*
X65845737Y70770849D01*
X65954970Y71320000D01*
X65845737Y71869151D01*
X65534668Y72334698D01*
X65152582Y72590000D01*
X65534668Y72845302D01*
X65845737Y73310849D01*
X65954970Y73860000D01*
X65845737Y74409151D01*
X65534668Y74874698D01*
X65069121Y75185767D01*
X64519970Y75295000D01*
X63750030Y75295000D01*
X63200879Y75185767D01*
X62735332Y74874698D01*
X62424263Y74409151D01*
X62315030Y73860000D01*
X53114087Y73860000D01*
X53622303Y74069990D01*
X54015629Y74462630D01*
X54228757Y74975900D01*
X54229242Y75531661D01*
X54017010Y76045303D01*
X53624370Y76438629D01*
X53111100Y76651757D01*
X52555339Y76652242D01*
X52041697Y76440010D01*
X51694281Y76093200D01*
X51530194Y76093200D01*
X51003200Y76620194D01*
X51003200Y78429119D01*
X51187717Y78463838D01*
X51403841Y78602910D01*
X51548831Y78815110D01*
X51583600Y78986803D01*
X51699211Y78813778D01*
X52160671Y78505441D01*
X52705000Y78397167D01*
X53249329Y78505441D01*
X53710789Y78813778D01*
X53975000Y79209199D01*
X54239211Y78813778D01*
X54700671Y78505441D01*
X55245000Y78397167D01*
X55789329Y78505441D01*
X56250789Y78813778D01*
X56515000Y79209199D01*
X56779211Y78813778D01*
X56946800Y78701799D01*
X56946800Y76249178D01*
X56865808Y76168327D01*
X56723162Y75824799D01*
X56722838Y75452833D01*
X56864883Y75109057D01*
X57127673Y74845808D01*
X57471201Y74703162D01*
X57843167Y74702838D01*
X58186943Y74844883D01*
X58450192Y75107673D01*
X58592838Y75451201D01*
X58592979Y75613068D01*
X58623200Y75765000D01*
X58623200Y78701799D01*
X58790789Y78813778D01*
X59055000Y79209199D01*
X59319211Y78813778D01*
X59486800Y78701799D01*
X59486800Y76184528D01*
X59390162Y75951799D01*
X59389838Y75579833D01*
X59531883Y75236057D01*
X59794673Y74972808D01*
X60138201Y74830162D01*
X60510167Y74829838D01*
X60853943Y74971883D01*
X61117192Y75234673D01*
X61259838Y75578201D01*
X61260162Y75950167D01*
X61163200Y76184834D01*
X61163200Y78701799D01*
X61330789Y78813778D01*
X61595000Y79209199D01*
X61859211Y78813778D01*
X62320671Y78505441D01*
X62865000Y78397167D01*
X63409329Y78505441D01*
X63870789Y78813778D01*
X64135000Y79209199D01*
X64399211Y78813778D01*
X64860671Y78505441D01*
X65405000Y78397167D01*
X65949329Y78505441D01*
X66410789Y78813778D01*
X66675000Y79209199D01*
X66939211Y78813778D01*
X67400671Y78505441D01*
X67945000Y78397167D01*
X68489329Y78505441D01*
X68950789Y78813778D01*
X69215000Y79209199D01*
X69479211Y78813778D01*
X69940671Y78505441D01*
X70485000Y78397167D01*
X71029329Y78505441D01*
X71490789Y78813778D01*
X71755000Y79209199D01*
X72019211Y78813778D01*
X72480671Y78505441D01*
X73025000Y78397167D01*
X73569329Y78505441D01*
X74030789Y78813778D01*
X74295000Y79209199D01*
X74559211Y78813778D01*
X75020671Y78505441D01*
X75565000Y78397167D01*
X76109329Y78505441D01*
X76570789Y78813778D01*
X76835000Y79209199D01*
X77099211Y78813778D01*
X77560671Y78505441D01*
X78105000Y78397167D01*
X78649329Y78505441D01*
X79110789Y78813778D01*
X79375000Y79209199D01*
X79639211Y78813778D01*
X80100671Y78505441D01*
X80645000Y78397167D01*
X81189329Y78505441D01*
X81650789Y78813778D01*
X81959126Y79275238D01*
X82067400Y79819567D01*
X82067400Y79829000D01*
X82162192Y79403246D01*
X82412698Y79046176D01*
X82780780Y78812151D01*
X82985127Y78754818D01*
X83159600Y78819662D01*
X83159600Y80184600D01*
X82067400Y80184600D01*
X82067400Y80235400D01*
X83159600Y80235400D01*
X83159600Y81600338D01*
X82985127Y81665182D01*
X82780780Y81607849D01*
X82412698Y81373824D01*
X82162192Y81016754D01*
X82067400Y80591000D01*
X82067400Y80600433D01*
X81959126Y81144762D01*
X81650789Y81606222D01*
X81383528Y81784800D01*
X84986472Y81784800D01*
X84719211Y81606222D01*
X84410874Y81144762D01*
X84302600Y80600433D01*
X84302600Y80591000D01*
X84207808Y81016754D01*
X83957302Y81373824D01*
X83589220Y81607849D01*
X83384873Y81665182D01*
X83210400Y81600338D01*
X83210400Y80235400D01*
X84302600Y80235400D01*
X84302600Y80184600D01*
X83210400Y80184600D01*
X83210400Y78819662D01*
X83384873Y78754818D01*
X83589220Y78812151D01*
X83957302Y79046176D01*
X84207808Y79403246D01*
X84302600Y79829000D01*
X84302600Y79819567D01*
X84410874Y79275238D01*
X84719211Y78813778D01*
X85180671Y78505441D01*
X85725000Y78397167D01*
X86269329Y78505441D01*
X86520491Y78673262D01*
X85884705Y77609285D01*
X71755588Y77619200D01*
X71637225Y77595742D01*
X71517064Y77584720D01*
X71478035Y77564194D01*
X71434779Y77555621D01*
X71334404Y77488655D01*
X71227606Y77432487D01*
X68560606Y75273487D01*
X68532214Y75239360D01*
X68495303Y75214697D01*
X68428428Y75114612D01*
X68351438Y75022071D01*
X68338266Y74979675D01*
X68313604Y74942765D01*
X68290121Y74824707D01*
X68254405Y74709747D01*
X68258460Y74665538D01*
X68249800Y74622000D01*
X68249800Y62303000D01*
X68313604Y61982234D01*
X68495303Y61710303D01*
X69638303Y60567303D01*
X69910234Y60385604D01*
X70231000Y60321800D01*
X70237400Y60321800D01*
X70355332Y60145302D01*
X70737418Y59890000D01*
X70355332Y59634698D01*
X70044263Y59169151D01*
X69935030Y58620000D01*
X70044263Y58070849D01*
X70355332Y57605302D01*
X70737418Y57350000D01*
X70355332Y57094698D01*
X70044263Y56629151D01*
X69935030Y56080000D01*
X70044263Y55530849D01*
X70355332Y55065302D01*
X70820879Y54754233D01*
X71370030Y54645000D01*
X72139970Y54645000D01*
X72689121Y54754233D01*
X73154668Y55065302D01*
X73272600Y55241800D01*
X73660000Y55241800D01*
X73980766Y55305604D01*
X74252697Y55487303D01*
X74571109Y55805715D01*
X82815760Y55805715D01*
X83026169Y55296485D01*
X83415436Y54906539D01*
X83924298Y54695241D01*
X84475285Y54694760D01*
X84984515Y54905169D01*
X85374461Y55294436D01*
X85585759Y55803298D01*
X85586240Y56354285D01*
X85375831Y56863515D01*
X84986564Y57253461D01*
X84477702Y57464759D01*
X83926715Y57465240D01*
X83417485Y57254831D01*
X83027539Y56865564D01*
X82816241Y56356702D01*
X82815760Y55805715D01*
X74571109Y55805715D01*
X75522697Y56757303D01*
X75612718Y56892029D01*
X75703190Y57026339D01*
X75703507Y57027904D01*
X75704396Y57029234D01*
X75736009Y57188163D01*
X75768194Y57346863D01*
X75779061Y60250715D01*
X82815760Y60250715D01*
X83026169Y59741485D01*
X83415436Y59351539D01*
X83924298Y59140241D01*
X84475285Y59139760D01*
X84984515Y59350169D01*
X85374461Y59739436D01*
X85585759Y60248298D01*
X85586240Y60799285D01*
X85375831Y61308515D01*
X84986564Y61698461D01*
X84477702Y61909759D01*
X83926715Y61910240D01*
X83417485Y61699831D01*
X83027539Y61310564D01*
X82816241Y60801702D01*
X82815760Y60250715D01*
X75779061Y60250715D01*
X75795695Y64695715D01*
X82815760Y64695715D01*
X83026169Y64186485D01*
X83415436Y63796539D01*
X83924298Y63585241D01*
X84475285Y63584760D01*
X84984515Y63795169D01*
X85374461Y64184436D01*
X85585759Y64693298D01*
X85586240Y65244285D01*
X85375831Y65753515D01*
X84986564Y66143461D01*
X84477702Y66354759D01*
X83926715Y66355240D01*
X83417485Y66144831D01*
X83027539Y65755564D01*
X82816241Y65246702D01*
X82815760Y64695715D01*
X75795695Y64695715D01*
X75812330Y69140715D01*
X82815760Y69140715D01*
X83026169Y68631485D01*
X83415436Y68241539D01*
X83924298Y68030241D01*
X84475285Y68029760D01*
X84984515Y68240169D01*
X85374461Y68629436D01*
X85585759Y69138298D01*
X85586240Y69689285D01*
X85375831Y70198515D01*
X84986564Y70588461D01*
X84477702Y70799759D01*
X83926715Y70800240D01*
X83417485Y70589831D01*
X83027539Y70200564D01*
X82816241Y69691702D01*
X82815760Y69140715D01*
X75812330Y69140715D01*
X75828855Y73556112D01*
X76851233Y74291800D01*
X82880643Y74291800D01*
X82816241Y74136702D01*
X82815760Y73585715D01*
X83026169Y73076485D01*
X83415436Y72686539D01*
X83924298Y72475241D01*
X84475285Y72474760D01*
X84984515Y72685169D01*
X85374461Y73074436D01*
X85585759Y73583298D01*
X85586240Y74134285D01*
X85521156Y74291800D01*
X88138000Y74291800D01*
X88236597Y74311412D01*
X88337033Y74315773D01*
X88395501Y74343020D01*
X88458765Y74355604D01*
X88542351Y74411454D01*
X88633474Y74453919D01*
X88671135Y74495000D01*
X93566655Y74495000D01*
X93680729Y73921511D01*
X94005585Y73435330D01*
X94320366Y73225000D01*
X94005585Y73014670D01*
X93680729Y72528489D01*
X93566655Y71955000D01*
X93680729Y71381511D01*
X94005585Y70895330D01*
X94320366Y70685000D01*
X94005585Y70474670D01*
X93680729Y69988489D01*
X93566655Y69415000D01*
X93680729Y68841511D01*
X94005585Y68355330D01*
X94320366Y68145000D01*
X94005585Y67934670D01*
X93680729Y67448489D01*
X93566655Y66875000D01*
X93680729Y66301511D01*
X94005585Y65815330D01*
X94320366Y65605000D01*
X94005585Y65394670D01*
X93680729Y64908489D01*
X93566655Y64335000D01*
X93680729Y63761511D01*
X94005585Y63275330D01*
X94320366Y63065000D01*
X94005585Y62854670D01*
X93680729Y62368489D01*
X93566655Y61795000D01*
X93680729Y61221511D01*
X94005585Y60735330D01*
X94491766Y60410474D01*
X95065255Y60296400D01*
X95434745Y60296400D01*
X96008234Y60410474D01*
X96494415Y60735330D01*
X96819271Y61221511D01*
X96933345Y61795000D01*
X96819271Y62368489D01*
X96494415Y62854670D01*
X96179634Y63065000D01*
X96494415Y63275330D01*
X96819271Y63761511D01*
X96933345Y64335000D01*
X96819271Y64908489D01*
X96494415Y65394670D01*
X96179634Y65605000D01*
X96494415Y65815330D01*
X96819271Y66301511D01*
X96933345Y66875000D01*
X96819271Y67448489D01*
X96494415Y67934670D01*
X96179634Y68145000D01*
X96494415Y68355330D01*
X96819271Y68841511D01*
X96933345Y69415000D01*
X96819271Y69988489D01*
X96494415Y70474670D01*
X96179634Y70685000D01*
X96494415Y70895330D01*
X96819271Y71381511D01*
X96933345Y71955000D01*
X96819271Y72528489D01*
X96494415Y73014670D01*
X96179634Y73225000D01*
X96494415Y73435330D01*
X96819271Y73921511D01*
X96933345Y74495000D01*
X96819271Y75068489D01*
X96494415Y75554670D01*
X96065593Y75841200D01*
X96331681Y75841200D01*
X96453043Y75891470D01*
X96545930Y75984357D01*
X96596200Y76105719D01*
X96596200Y76927050D01*
X96513650Y77009600D01*
X95275400Y77009600D01*
X95275400Y76989600D01*
X95224600Y76989600D01*
X95224600Y77009600D01*
X93986350Y77009600D01*
X93903800Y76927050D01*
X93903800Y76105719D01*
X93954070Y75984357D01*
X94046957Y75891470D01*
X94168319Y75841200D01*
X94434407Y75841200D01*
X94005585Y75554670D01*
X93680729Y75068489D01*
X93566655Y74495000D01*
X88671135Y74495000D01*
X88677064Y74501467D01*
X88730697Y74537303D01*
X88786549Y74620891D01*
X88854483Y74694993D01*
X89314600Y75452833D01*
X90250838Y75452833D01*
X90392883Y75109057D01*
X90655673Y74845808D01*
X90999201Y74703162D01*
X91371167Y74702838D01*
X91714943Y74844883D01*
X91978192Y75107673D01*
X92075564Y75342170D01*
X93175697Y76442303D01*
X93357396Y76714234D01*
X93421200Y77035000D01*
X93421200Y77250472D01*
X93517838Y77483201D01*
X93518162Y77855167D01*
X93473078Y77964281D01*
X93903800Y77964281D01*
X93903800Y77142950D01*
X93986350Y77060400D01*
X95224600Y77060400D01*
X95224600Y78146250D01*
X95275400Y78146250D01*
X95275400Y77060400D01*
X96513650Y77060400D01*
X96596200Y77142950D01*
X96596200Y77964281D01*
X96545930Y78085643D01*
X96453043Y78178530D01*
X96331681Y78228800D01*
X95357950Y78228800D01*
X95275400Y78146250D01*
X95224600Y78146250D01*
X95142050Y78228800D01*
X94168319Y78228800D01*
X94046957Y78178530D01*
X93954070Y78085643D01*
X93903800Y77964281D01*
X93473078Y77964281D01*
X93376117Y78198943D01*
X93113327Y78462192D01*
X92769799Y78604838D01*
X92397833Y78605162D01*
X92054057Y78463117D01*
X91790808Y78200327D01*
X91648162Y77856799D01*
X91647838Y77484833D01*
X91706198Y77343592D01*
X90889954Y76527348D01*
X90657057Y76431117D01*
X90393808Y76168327D01*
X90251162Y75824799D01*
X90250838Y75452833D01*
X89314600Y75452833D01*
X91013483Y78250992D01*
X91035560Y78311602D01*
X91071396Y78365235D01*
X91091008Y78463832D01*
X91125414Y78558291D01*
X91122616Y78622735D01*
X91135200Y78686000D01*
X91135200Y82242000D01*
X91071396Y82562765D01*
X90889697Y82834697D01*
X89851679Y83872715D01*
X93737760Y83872715D01*
X93948169Y83363485D01*
X94337436Y82973539D01*
X94846298Y82762241D01*
X95397285Y82761760D01*
X95906515Y82972169D01*
X96296461Y83361436D01*
X96507759Y83870298D01*
X96508240Y84421285D01*
X96297831Y84930515D01*
X95908564Y85320461D01*
X95399702Y85531759D01*
X94848715Y85532240D01*
X94339485Y85321831D01*
X93949539Y84932564D01*
X93738241Y84423702D01*
X93737760Y83872715D01*
X89851679Y83872715D01*
X88222697Y85501697D01*
X87950766Y85683396D01*
X87630000Y85747200D01*
X77055194Y85747200D01*
X76403200Y86399194D01*
X76403200Y93941799D01*
X76570789Y94053778D01*
X76879126Y94515238D01*
X76987400Y95059567D01*
X76987400Y95069000D01*
X77082192Y94643246D01*
X77332698Y94286176D01*
X77700780Y94052151D01*
X77905127Y93994818D01*
X78079600Y94059662D01*
X78079600Y95424600D01*
X76987400Y95424600D01*
X76987400Y95475400D01*
X78079600Y95475400D01*
X78079600Y96840338D01*
X78130400Y96840338D01*
X78130400Y95475400D01*
X79222600Y95475400D01*
X79222600Y95424600D01*
X78130400Y95424600D01*
X78130400Y94059662D01*
X78304873Y93994818D01*
X78509220Y94052151D01*
X78877302Y94286176D01*
X79127808Y94643246D01*
X79222600Y95069000D01*
X79222600Y95059567D01*
X79330874Y94515238D01*
X79639211Y94053778D01*
X80100671Y93745441D01*
X80645000Y93637167D01*
X81189329Y93745441D01*
X81650789Y94053778D01*
X81915000Y94449199D01*
X82179211Y94053778D01*
X82640671Y93745441D01*
X83185000Y93637167D01*
X83729329Y93745441D01*
X84190789Y94053778D01*
X84455000Y94449199D01*
X84719211Y94053778D01*
X85180671Y93745441D01*
X85725000Y93637167D01*
X86269329Y93745441D01*
X86730789Y94053778D01*
X87039126Y94515238D01*
X87137019Y95007381D01*
X92379613Y95007381D01*
X92719155Y94185628D01*
X93347321Y93556364D01*
X94168481Y93215389D01*
X95057619Y93214613D01*
X95879372Y93554155D01*
X96508636Y94182321D01*
X96849611Y95003481D01*
X96850387Y95892619D01*
X96510845Y96714372D01*
X95882679Y97343636D01*
X95061519Y97684611D01*
X94172381Y97685387D01*
X93350628Y97345845D01*
X92721364Y96717679D01*
X92380389Y95896519D01*
X92379613Y95007381D01*
X87137019Y95007381D01*
X87147400Y95059567D01*
X87147400Y95840433D01*
X87039126Y96384762D01*
X86730789Y96846222D01*
X86269329Y97154559D01*
X85725000Y97262833D01*
X85180671Y97154559D01*
X84719211Y96846222D01*
X84455000Y96450801D01*
X84190789Y96846222D01*
X83729329Y97154559D01*
X83185000Y97262833D01*
X82640671Y97154559D01*
X82179211Y96846222D01*
X81915000Y96450801D01*
X81650789Y96846222D01*
X81189329Y97154559D01*
X80645000Y97262833D01*
X80100671Y97154559D01*
X79639211Y96846222D01*
X79330874Y96384762D01*
X79222600Y95840433D01*
X79222600Y95831000D01*
X79127808Y96256754D01*
X78877302Y96613824D01*
X78509220Y96847849D01*
X78304873Y96905182D01*
X78130400Y96840338D01*
X78079600Y96840338D01*
X77905127Y96905182D01*
X77700780Y96847849D01*
X77332698Y96613824D01*
X77082192Y96256754D01*
X76987400Y95831000D01*
X76987400Y95840433D01*
X76879126Y96384762D01*
X76570789Y96846222D01*
X76109329Y97154559D01*
X75565000Y97262833D01*
X75020671Y97154559D01*
X74559211Y96846222D01*
X74295000Y96450801D01*
X74030789Y96846222D01*
X73569329Y97154559D01*
X73025000Y97262833D01*
X72480671Y97154559D01*
X72019211Y96846222D01*
X71755000Y96450801D01*
X71490789Y96846222D01*
X71029329Y97154559D01*
X70485000Y97262833D01*
X69940671Y97154559D01*
X69479211Y96846222D01*
X69215000Y96450801D01*
X68950789Y96846222D01*
X68489329Y97154559D01*
X67945000Y97262833D01*
X67400671Y97154559D01*
X66939211Y96846222D01*
X66675000Y96450801D01*
X66410789Y96846222D01*
X65949329Y97154559D01*
X65405000Y97262833D01*
X64860671Y97154559D01*
X64399211Y96846222D01*
X64135000Y96450801D01*
X63870789Y96846222D01*
X63409329Y97154559D01*
X62865000Y97262833D01*
X62320671Y97154559D01*
X61859211Y96846222D01*
X61595000Y96450801D01*
X61330789Y96846222D01*
X60869329Y97154559D01*
X60325000Y97262833D01*
X59780671Y97154559D01*
X59319211Y96846222D01*
X59055000Y96450801D01*
X58790789Y96846222D01*
X58329329Y97154559D01*
X57785000Y97262833D01*
X57240671Y97154559D01*
X56779211Y96846222D01*
X56515000Y96450801D01*
X56250789Y96846222D01*
X55789329Y97154559D01*
X55245000Y97262833D01*
X54700671Y97154559D01*
X54239211Y96846222D01*
X53975000Y96450801D01*
X53710789Y96846222D01*
X53249329Y97154559D01*
X52705000Y97262833D01*
X52160671Y97154559D01*
X51699211Y96846222D01*
X51435000Y96450801D01*
X51170789Y96846222D01*
X50709329Y97154559D01*
X50165000Y97262833D01*
X49620671Y97154559D01*
X49159211Y96846222D01*
X48850874Y96384762D01*
X48742600Y95840433D01*
X48742600Y95059567D01*
X48850874Y94515238D01*
X49159211Y94053778D01*
X49620671Y93745441D01*
X50165000Y93637167D01*
X50709329Y93745441D01*
X51170789Y94053778D01*
X51435000Y94449199D01*
X51699211Y94053778D01*
X52160671Y93745441D01*
X52705000Y93637167D01*
X53249329Y93745441D01*
X53710789Y94053778D01*
X53975000Y94449199D01*
X54239211Y94053778D01*
X54700671Y93745441D01*
X55245000Y93637167D01*
X55789329Y93745441D01*
X56250789Y94053778D01*
X56515000Y94449199D01*
X56779211Y94053778D01*
X57240671Y93745441D01*
X57785000Y93637167D01*
X58329329Y93745441D01*
X58790789Y94053778D01*
X59055000Y94449199D01*
X59319211Y94053778D01*
X59780671Y93745441D01*
X60325000Y93637167D01*
X60869329Y93745441D01*
X61330789Y94053778D01*
X61595000Y94449199D01*
X61859211Y94053778D01*
X62320671Y93745441D01*
X62865000Y93637167D01*
X63409329Y93745441D01*
X63870789Y94053778D01*
X64135000Y94449199D01*
X64399211Y94053778D01*
X64860671Y93745441D01*
X65405000Y93637167D01*
X65949329Y93745441D01*
X66410789Y94053778D01*
X66675000Y94449199D01*
X66939211Y94053778D01*
X67400671Y93745441D01*
X67945000Y93637167D01*
X68489329Y93745441D01*
X68950789Y94053778D01*
X69215000Y94449199D01*
X69479211Y94053778D01*
X69646800Y93941799D01*
X69646800Y85544000D01*
X69710604Y85223234D01*
X69892303Y84951303D01*
X72813303Y82030303D01*
X72870482Y81992097D01*
X72480671Y81914559D01*
X72019211Y81606222D01*
X71755000Y81210801D01*
X71490789Y81606222D01*
X71029329Y81914559D01*
X70485000Y82022833D01*
X69940671Y81914559D01*
X69479211Y81606222D01*
X69215000Y81210801D01*
X68950789Y81606222D01*
X68489329Y81914559D01*
X67945000Y82022833D01*
X67400671Y81914559D01*
X66939211Y81606222D01*
X66675000Y81210801D01*
X66410789Y81606222D01*
X65949329Y81914559D01*
X65405000Y82022833D01*
X64860671Y81914559D01*
X64399211Y81606222D01*
X64135000Y81210801D01*
X63870789Y81606222D01*
X63409329Y81914559D01*
X62865000Y82022833D01*
X62320671Y81914559D01*
X61859211Y81606222D01*
X61595000Y81210801D01*
X61330789Y81606222D01*
X60869329Y81914559D01*
X60325000Y82022833D01*
X59780671Y81914559D01*
X59319211Y81606222D01*
X59055000Y81210801D01*
X58790789Y81606222D01*
X58329329Y81914559D01*
X57785000Y82022833D01*
X57240671Y81914559D01*
X56779211Y81606222D01*
X56515000Y81210801D01*
X56250789Y81606222D01*
X55789329Y81914559D01*
X55245000Y82022833D01*
X54700671Y81914559D01*
X54239211Y81606222D01*
X53975000Y81210801D01*
X53710789Y81606222D01*
X53249329Y81914559D01*
X52705000Y82022833D01*
X52160671Y81914559D01*
X51699211Y81606222D01*
X51584497Y81434540D01*
X51555562Y81588317D01*
X51416490Y81804441D01*
X51204290Y81949431D01*
X50952400Y82000440D01*
X49377600Y82000440D01*
X49142283Y81956162D01*
X48926159Y81817090D01*
X48781169Y81604890D01*
X48730160Y81353000D01*
X44619394Y81353000D01*
X42248697Y83723697D01*
X41976766Y83905396D01*
X41656000Y83969200D01*
X21816550Y83969200D01*
X21816550Y85502090D01*
X21772272Y85737407D01*
X21633200Y85953531D01*
X21421000Y86098521D01*
X21169110Y86149530D01*
X19469850Y86149530D01*
X19234533Y86105252D01*
X19018409Y85966180D01*
X18873419Y85753980D01*
X18822410Y85502090D01*
X18822410Y83802830D01*
X18866688Y83567513D01*
X18893873Y83525267D01*
X16086954Y80718348D01*
X15854057Y80622117D01*
X15590808Y80359327D01*
X15448162Y80015799D01*
X15447838Y79643833D01*
X750000Y79643833D01*
X750000Y84250000D01*
X1027560Y84250000D01*
X1027560Y81250000D01*
X1071838Y81014683D01*
X1210910Y80798559D01*
X1423110Y80653569D01*
X1675000Y80602560D01*
X4675000Y80602560D01*
X4910317Y80646838D01*
X5126441Y80785910D01*
X5271431Y80998110D01*
X5322440Y81250000D01*
X5322440Y84250000D01*
X5302035Y84358444D01*
X8674592Y84358444D01*
X8900138Y83812583D01*
X9317406Y83394586D01*
X9862873Y83168088D01*
X10453496Y83167572D01*
X10999357Y83393118D01*
X11417354Y83810386D01*
X11643852Y84355853D01*
X11644368Y84946476D01*
X11418822Y85492337D01*
X11001554Y85910334D01*
X10456087Y86136832D01*
X9865464Y86137348D01*
X9319603Y85911802D01*
X8901606Y85494534D01*
X8675108Y84949067D01*
X8674592Y84358444D01*
X5302035Y84358444D01*
X5278162Y84485317D01*
X5139090Y84701441D01*
X4926890Y84846431D01*
X4675000Y84897440D01*
X1675000Y84897440D01*
X1439683Y84853162D01*
X1223559Y84714090D01*
X1078569Y84501890D01*
X1027560Y84250000D01*
X750000Y84250000D01*
X750000Y88820600D01*
X19761200Y88820600D01*
X19761200Y88668200D01*
X19861793Y88213286D01*
X20128817Y87831496D01*
X20521619Y87580953D01*
X20743203Y87518738D01*
X20929600Y87582640D01*
X20929600Y88820600D01*
X19761200Y88820600D01*
X750000Y88820600D01*
X750000Y89023800D01*
X19761200Y89023800D01*
X19761200Y88871400D01*
X20929600Y88871400D01*
X20929600Y90109360D01*
X20980400Y90109360D01*
X20980400Y88871400D01*
X21000400Y88871400D01*
X21000400Y88820600D01*
X20980400Y88820600D01*
X20980400Y87582640D01*
X21166797Y87518738D01*
X21388381Y87580953D01*
X21781183Y87831496D01*
X22048207Y88213286D01*
X22067843Y88302086D01*
X22110474Y88087766D01*
X22435330Y87601585D01*
X22921511Y87276729D01*
X23495000Y87162655D01*
X24068489Y87276729D01*
X24554670Y87601585D01*
X24765000Y87916366D01*
X24975330Y87601585D01*
X25461511Y87276729D01*
X26035000Y87162655D01*
X26608489Y87276729D01*
X27094670Y87601585D01*
X27104243Y87615913D01*
X27108238Y87594683D01*
X27247310Y87378559D01*
X27459510Y87233569D01*
X27711400Y87182560D01*
X29438600Y87182560D01*
X29673917Y87226838D01*
X29890041Y87365910D01*
X30035031Y87578110D01*
X30086040Y87830000D01*
X30086040Y88533833D01*
X38434838Y88533833D01*
X38576883Y88190057D01*
X38839673Y87926808D01*
X39074170Y87829436D01*
X41782652Y85120954D01*
X41878883Y84888057D01*
X42141673Y84624808D01*
X42485201Y84482162D01*
X42857167Y84481838D01*
X43200943Y84623883D01*
X43464192Y84886673D01*
X43523708Y85030002D01*
X43529883Y85015057D01*
X43792673Y84751808D01*
X44136201Y84609162D01*
X44508167Y84608838D01*
X44851943Y84750883D01*
X45115192Y85013673D01*
X45257838Y85357201D01*
X45258162Y85729167D01*
X45116117Y86072943D01*
X44853327Y86336192D01*
X44509799Y86478838D01*
X44446501Y86478893D01*
X41148348Y89777046D01*
X41052117Y90009943D01*
X40946245Y90116000D01*
X66929000Y90116000D01*
X66929000Y86941000D01*
X67006338Y86552194D01*
X67226580Y86222580D01*
X67556194Y86002338D01*
X67945000Y85925000D01*
X68333806Y86002338D01*
X68663420Y86222580D01*
X68883662Y86552194D01*
X68961000Y86941000D01*
X68961000Y90116000D01*
X68883662Y90504806D01*
X68663420Y90834420D01*
X68333806Y91054662D01*
X67945000Y91132000D01*
X67556194Y91054662D01*
X67226580Y90834420D01*
X67006338Y90504806D01*
X66929000Y90116000D01*
X40946245Y90116000D01*
X40789327Y90273192D01*
X40445799Y90415838D01*
X40073833Y90416162D01*
X39730057Y90274117D01*
X39466808Y90011327D01*
X39324162Y89667799D01*
X39324150Y89654041D01*
X39184833Y89654162D01*
X38841057Y89512117D01*
X38577808Y89249327D01*
X38435162Y88905799D01*
X38434838Y88533833D01*
X30086040Y88533833D01*
X30086040Y89862000D01*
X30041762Y90097317D01*
X29902690Y90313441D01*
X29690490Y90458431D01*
X29438600Y90509440D01*
X27711400Y90509440D01*
X27476083Y90465162D01*
X27259959Y90326090D01*
X27114969Y90113890D01*
X27106600Y90072561D01*
X27094670Y90090415D01*
X26608489Y90415271D01*
X26035000Y90529345D01*
X25461511Y90415271D01*
X24975330Y90090415D01*
X24765000Y89775634D01*
X24554670Y90090415D01*
X24068489Y90415271D01*
X23495000Y90529345D01*
X22921511Y90415271D01*
X22435330Y90090415D01*
X22110474Y89604234D01*
X22067843Y89389914D01*
X22048207Y89478714D01*
X21781183Y89860504D01*
X21388381Y90111047D01*
X21166797Y90173262D01*
X20980400Y90109360D01*
X20929600Y90109360D01*
X20743203Y90173262D01*
X20521619Y90111047D01*
X20128817Y89860504D01*
X19861793Y89478714D01*
X19761200Y89023800D01*
X750000Y89023800D01*
X750000Y95007381D01*
X2209613Y95007381D01*
X2549155Y94185628D01*
X3177321Y93556364D01*
X3998481Y93215389D01*
X4887619Y93214613D01*
X5709372Y93554155D01*
X6338636Y94182321D01*
X6679611Y95003481D01*
X6679906Y95342050D01*
X34914800Y95342050D01*
X34914800Y94384319D01*
X34965070Y94262957D01*
X35057957Y94170070D01*
X35179319Y94119800D01*
X36087050Y94119800D01*
X36169600Y94202350D01*
X36169600Y95424600D01*
X34997350Y95424600D01*
X34914800Y95342050D01*
X6679906Y95342050D01*
X6680387Y95892619D01*
X6422943Y96515681D01*
X34914800Y96515681D01*
X34914800Y95557950D01*
X34997350Y95475400D01*
X36169600Y95475400D01*
X36169600Y96697650D01*
X36220400Y96697650D01*
X36220400Y95475400D01*
X36240400Y95475400D01*
X36240400Y95424600D01*
X36220400Y95424600D01*
X36220400Y94202350D01*
X36302950Y94119800D01*
X37210681Y94119800D01*
X37332043Y94170070D01*
X37424930Y94262957D01*
X37475200Y94384319D01*
X37475200Y94468514D01*
X37835997Y94107086D01*
X38418341Y93865276D01*
X39048893Y93864725D01*
X39631657Y94105519D01*
X40077914Y94550997D01*
X40319724Y95133341D01*
X40320275Y95763893D01*
X40079481Y96346657D01*
X39634003Y96792914D01*
X39051659Y97034724D01*
X38421107Y97035275D01*
X37838343Y96794481D01*
X37475200Y96431972D01*
X37475200Y96515681D01*
X37424930Y96637043D01*
X37332043Y96729930D01*
X37210681Y96780200D01*
X36302950Y96780200D01*
X36220400Y96697650D01*
X36169600Y96697650D01*
X36087050Y96780200D01*
X35179319Y96780200D01*
X35057957Y96729930D01*
X34965070Y96637043D01*
X34914800Y96515681D01*
X6422943Y96515681D01*
X6340845Y96714372D01*
X5712679Y97343636D01*
X4891519Y97684611D01*
X4002381Y97685387D01*
X3180628Y97345845D01*
X2551364Y96717679D01*
X2210389Y95896519D01*
X2209613Y95007381D01*
X750000Y95007381D01*
X750000Y99040000D01*
X98330000Y99040000D01*
X98330000Y50877000D01*
M02*
