M48
;DRILL file {KiCad 4.0.4-stable} date 11/17/16 13:37:51
;FORMAT={3:3/ absolute / metric / suppress trailing zeros}
FMAT,2
METRIC,LZ
T1C0.400
T2C0.701
T3C0.762
T4C0.800
T5C0.813
T6C0.900
T7C1.001
T8C1.016
T9C1.500
T10C2.900
T11C3.200
T12C3.800
%
G90
G05
M71
T1
X016383Y079829
X016383Y028829
X025908Y072209
X025908Y021209
X029972Y072209
X029972Y021209
X03937Y088719
X03937Y037719
X040259Y089481
X040259Y038481
X042672Y085417
X042672Y034417
X044323Y085544
X044323Y034544
X044577Y08021
X044577Y02921
X057658Y075638
X057658Y024638
X060325Y075765
X060325Y024765
X067945Y090116
X067945Y086941
X067945Y039116
X067945Y035941
X07747Y07386
X07747Y069415
X07747Y06497
X07747Y060525
X07747Y05608
X07747Y02286
X07747Y018415
X07747Y01397
X07747Y009525
X07747Y00508
X091186Y075638
X091186Y024638
X092583Y07767
X092583Y02667
T2
X010159Y084652
X010159Y033652
X020319Y084652
X020319Y033652
T3
X051475Y0637
X051475Y0127
X053975Y0637
X053975Y0127
X056475Y0637
X056475Y0127
T4
X064135Y07386
X064135Y07132
X064135Y06878
X064135Y06624
X064135Y0637
X064135Y06116
X064135Y05862
X064135Y05608
X064135Y02286
X064135Y02032
X064135Y01778
X064135Y01524
X064135Y0127
X064135Y01016
X064135Y00762
X064135Y00508
X071755Y07386
X071755Y07132
X071755Y06878
X071755Y06624
X071755Y0637
X071755Y06116
X071755Y05862
X071755Y05608
X071755Y02286
X071755Y02032
X071755Y01778
X071755Y01524
X071755Y0127
X071755Y01016
X071755Y00762
X071755Y00508
X084201Y07386
X084201Y069415
X084201Y06497
X084201Y060525
X084201Y05608
X084201Y052778
X084201Y02286
X084201Y018415
X084201Y01397
X084201Y009525
X084201Y00508
X084201Y001778
X095123Y084147
X095123Y033147
T5
X050165Y09545
X050165Y08021
X050165Y04445
X050165Y02921
X052705Y09545
X052705Y08021
X052705Y04445
X052705Y02921
X055245Y09545
X055245Y08021
X055245Y04445
X055245Y02921
X057785Y09545
X057785Y08021
X057785Y04445
X057785Y02921
X060325Y09545
X060325Y08021
X060325Y04445
X060325Y02921
X062865Y09545
X062865Y08021
X062865Y04445
X062865Y02921
X065405Y09545
X065405Y08021
X065405Y04445
X065405Y02921
X067945Y09545
X067945Y08021
X067945Y04445
X067945Y02921
X070485Y09545
X070485Y08021
X070485Y04445
X070485Y02921
X073025Y09545
X073025Y08021
X073025Y04445
X073025Y02921
X075565Y09545
X075565Y08021
X075565Y04445
X075565Y02921
X078105Y09545
X078105Y08021
X078105Y04445
X078105Y02921
X080645Y09545
X080645Y08021
X080645Y04445
X080645Y02921
X083185Y09545
X083185Y08021
X083185Y04445
X083185Y02921
X085725Y09545
X085725Y08021
X085725Y04445
X085725Y02921
T6
X052832Y075255
X052832Y068655
X052832Y024255
X052832Y017655
T7
X01016Y068145
X01016Y065605
X01016Y063065
X01016Y017145
X01016Y014605
X01016Y012065
X022225Y08148
X022225Y07894
X022225Y0764
X022225Y03048
X022225Y02794
X022225Y0254
X036195Y09545
X036195Y04445
X038735Y09545
X038735Y04445
T8
X020955Y088846
X020955Y037846
X023495Y088846
X023495Y037846
X026035Y088846
X026035Y037846
X028575Y088846
X028575Y037846
X09525Y077035
X09525Y074495
X09525Y071955
X09525Y069415
X09525Y066875
X09525Y064335
X09525Y061795
X09525Y026035
X09525Y023495
X09525Y020955
X09525Y018415
X09525Y015875
X09525Y013335
X09525Y010795
T9
X003175Y08275
X003175Y0764
X003175Y066875
X003175Y06116
X003175Y03175
X003175Y0254
X003175Y015875
X003175Y01016
T10
X049575Y0567
X049575Y0057
X058375Y0567
X058375Y0057
T11
X004445Y09545
X004445Y05481
X004445Y04445
X004445Y00381
X094615Y09545
X094615Y05481
X094615Y04445
X094615Y00381
T12
X026924Y065605
X026924Y014605
X038989Y07894
X038989Y02794
T0
M30
