G04 #@! TF.FileFunction,Legend,Bot*
%FSLAX46Y46*%
G04 Gerber Fmt 4.6, Leading zero omitted, Abs format (unit mm)*
G04 Created by KiCad (PCBNEW 4.0.4-stable) date 11/17/16 13:37:46*
%MOMM*%
%LPD*%
G01*
G04 APERTURE LIST*
%ADD10C,0.100000*%
%ADD11C,1.900000*%
%ADD12C,3.600000*%
%ADD13R,3.400000X3.400000*%
%ADD14C,1.924000*%
%ADD15O,2.700000X2.000000*%
%ADD16R,1.974800X2.686000*%
%ADD17O,1.974800X2.686000*%
%ADD18O,2.899360X1.901140*%
%ADD19C,4.199840*%
%ADD20O,1.924000X2.400000*%
%ADD21R,4.400000X4.400000*%
%ADD22O,3.900120X2.099260*%
%ADD23R,2.432000X2.127200*%
%ADD24O,2.432000X2.127200*%
%ADD25R,2.127200X2.432000*%
%ADD26O,2.127200X2.432000*%
%ADD27R,2.300000X2.400000*%
%ADD28C,2.300000*%
%ADD29C,2.099260*%
%ADD30R,2.099260X2.099260*%
G04 APERTURE END LIST*
D10*
%LPC*%
D11*
X95123000Y84147000D03*
X84201000Y56080000D03*
X84201000Y60525000D03*
X84201000Y64970000D03*
X84201000Y69415000D03*
X84201000Y73860000D03*
X84201000Y52778000D03*
D12*
X4445000Y95450000D03*
D13*
X3175000Y61160000D03*
X3175000Y66875000D03*
X3175000Y82750000D03*
X3175000Y76400000D03*
D14*
X52832000Y75255000D03*
X52832000Y68655000D03*
D15*
X64135000Y73860000D03*
X64135000Y71320000D03*
X64135000Y68780000D03*
X64135000Y66240000D03*
X64135000Y63700000D03*
X64135000Y61160000D03*
X64135000Y58620000D03*
X64135000Y56080000D03*
X71755000Y56080000D03*
X71755000Y58620000D03*
X71755000Y61160000D03*
X71755000Y63700000D03*
X71755000Y66240000D03*
X71755000Y68780000D03*
X71755000Y71320000D03*
X71755000Y73860000D03*
D16*
X50165000Y80210000D03*
D17*
X52705000Y80210000D03*
X55245000Y80210000D03*
X57785000Y80210000D03*
X60325000Y80210000D03*
X62865000Y80210000D03*
X65405000Y80210000D03*
X67945000Y80210000D03*
X70485000Y80210000D03*
X73025000Y80210000D03*
X75565000Y80210000D03*
X78105000Y80210000D03*
X80645000Y80210000D03*
X83185000Y80210000D03*
X85725000Y80210000D03*
X85725000Y95450000D03*
X83185000Y95450000D03*
X80645000Y95450000D03*
X78105000Y95450000D03*
X75565000Y95450000D03*
X73025000Y95450000D03*
X70485000Y95450000D03*
X67945000Y95450000D03*
X65405000Y95450000D03*
X62865000Y95450000D03*
X60325000Y95450000D03*
X57785000Y95450000D03*
X55245000Y95450000D03*
X52705000Y95450000D03*
X50165000Y95450000D03*
D18*
X22225000Y78940000D03*
X22225000Y81480000D03*
X22225000Y76400000D03*
D19*
X38989000Y78940000D03*
D20*
X56475000Y63700000D03*
X53975000Y63700000D03*
X51475000Y63700000D03*
D21*
X49575000Y56700000D03*
X58375000Y56700000D03*
D22*
X10160000Y65605000D03*
X10160000Y68145000D03*
X10160000Y63065000D03*
D19*
X26924000Y65605000D03*
D23*
X95250000Y77035000D03*
D24*
X95250000Y74495000D03*
X95250000Y71955000D03*
X95250000Y69415000D03*
X95250000Y66875000D03*
X95250000Y64335000D03*
X95250000Y61795000D03*
D25*
X28575000Y88846000D03*
D26*
X26035000Y88846000D03*
X23495000Y88846000D03*
X20955000Y88846000D03*
D27*
X36195000Y95450000D03*
D28*
X38735000Y95450000D03*
D29*
X10159480Y84652460D03*
D30*
X20319480Y84652460D03*
D12*
X94615000Y95450000D03*
X4445000Y54810000D03*
X94615000Y54810000D03*
X94615000Y3810000D03*
X4445000Y3810000D03*
X94615000Y44450000D03*
D29*
X10159480Y33652460D03*
D30*
X20319480Y33652460D03*
D27*
X36195000Y44450000D03*
D28*
X38735000Y44450000D03*
D25*
X28575000Y37846000D03*
D26*
X26035000Y37846000D03*
X23495000Y37846000D03*
X20955000Y37846000D03*
D23*
X95250000Y26035000D03*
D24*
X95250000Y23495000D03*
X95250000Y20955000D03*
X95250000Y18415000D03*
X95250000Y15875000D03*
X95250000Y13335000D03*
X95250000Y10795000D03*
D22*
X10160000Y14605000D03*
X10160000Y17145000D03*
X10160000Y12065000D03*
D19*
X26924000Y14605000D03*
D20*
X56475000Y12700000D03*
X53975000Y12700000D03*
X51475000Y12700000D03*
D21*
X49575000Y5700000D03*
X58375000Y5700000D03*
D18*
X22225000Y27940000D03*
X22225000Y30480000D03*
X22225000Y25400000D03*
D19*
X38989000Y27940000D03*
D16*
X50165000Y29210000D03*
D17*
X52705000Y29210000D03*
X55245000Y29210000D03*
X57785000Y29210000D03*
X60325000Y29210000D03*
X62865000Y29210000D03*
X65405000Y29210000D03*
X67945000Y29210000D03*
X70485000Y29210000D03*
X73025000Y29210000D03*
X75565000Y29210000D03*
X78105000Y29210000D03*
X80645000Y29210000D03*
X83185000Y29210000D03*
X85725000Y29210000D03*
X85725000Y44450000D03*
X83185000Y44450000D03*
X80645000Y44450000D03*
X78105000Y44450000D03*
X75565000Y44450000D03*
X73025000Y44450000D03*
X70485000Y44450000D03*
X67945000Y44450000D03*
X65405000Y44450000D03*
X62865000Y44450000D03*
X60325000Y44450000D03*
X57785000Y44450000D03*
X55245000Y44450000D03*
X52705000Y44450000D03*
X50165000Y44450000D03*
D15*
X64135000Y22860000D03*
X64135000Y20320000D03*
X64135000Y17780000D03*
X64135000Y15240000D03*
X64135000Y12700000D03*
X64135000Y10160000D03*
X64135000Y7620000D03*
X64135000Y5080000D03*
X71755000Y5080000D03*
X71755000Y7620000D03*
X71755000Y10160000D03*
X71755000Y12700000D03*
X71755000Y15240000D03*
X71755000Y17780000D03*
X71755000Y20320000D03*
X71755000Y22860000D03*
D14*
X52832000Y24255000D03*
X52832000Y17655000D03*
D13*
X3175000Y25400000D03*
X3175000Y31750000D03*
X3175000Y15875000D03*
X3175000Y10160000D03*
D12*
X4445000Y44450000D03*
D11*
X84201000Y1778000D03*
X84201000Y22860000D03*
X84201000Y18415000D03*
X84201000Y13970000D03*
X84201000Y9525000D03*
X84201000Y5080000D03*
X95123000Y33147000D03*
M02*
