M48
;DRILL file {KiCad 4.0.4-stable} date 11/17/16 13:05:01
;FORMAT={3:3/ absolute / metric / suppress trailing zeros}
FMAT,2
METRIC,LZ
T1C0.400
T2C0.701
T3C0.762
T4C0.800
T5C0.813
T6C0.900
T7C1.001
T8C1.016
T9C1.500
T10C2.900
T11C3.200
T12C3.800
%
G90
G05
M71
T1
X016383Y028829
X025908Y021209
X029972Y021209
X03937Y037719
X040259Y038481
X042672Y034417
X044323Y034544
X044577Y02921
X057658Y024638
X060325Y024765
X067945Y039116
X067945Y035941
X07747Y02286
X07747Y018415
X07747Y01397
X07747Y009525
X07747Y00508
X091186Y024638
X092583Y02667
T2
X010159Y033652
X020319Y033652
T3
X051475Y0127
X053975Y0127
X056475Y0127
T4
X064135Y02286
X064135Y02032
X064135Y01778
X064135Y01524
X064135Y0127
X064135Y01016
X064135Y00762
X064135Y00508
X071755Y02286
X071755Y02032
X071755Y01778
X071755Y01524
X071755Y0127
X071755Y01016
X071755Y00762
X071755Y00508
X084201Y02286
X084201Y018415
X084201Y01397
X084201Y009525
X084201Y00508
X084201Y001778
X095123Y033147
T5
X050165Y04445
X050165Y02921
X052705Y04445
X052705Y02921
X055245Y04445
X055245Y02921
X057785Y04445
X057785Y02921
X060325Y04445
X060325Y02921
X062865Y04445
X062865Y02921
X065405Y04445
X065405Y02921
X067945Y04445
X067945Y02921
X070485Y04445
X070485Y02921
X073025Y04445
X073025Y02921
X075565Y04445
X075565Y02921
X078105Y04445
X078105Y02921
X080645Y04445
X080645Y02921
X083185Y04445
X083185Y02921
X085725Y04445
X085725Y02921
T6
X052832Y024255
X052832Y017655
T7
X01016Y017145
X01016Y014605
X01016Y012065
X022225Y03048
X022225Y02794
X022225Y0254
X036195Y04445
X038735Y04445
T8
X020955Y037846
X023495Y037846
X026035Y037846
X028575Y037846
X09525Y026035
X09525Y023495
X09525Y020955
X09525Y018415
X09525Y015875
X09525Y013335
X09525Y010795
T9
X003175Y03175
X003175Y0254
X003175Y015875
X003175Y01016
T10
X049575Y0057
X058375Y0057
T11
X004445Y04445
X004445Y00381
X094615Y04445
X094615Y00381
T12
X026924Y014605
X038989Y02794
T0
M30
